<svg id="calendar-plus" xmlns="http://www.w3.org/2000/svg" width="26.017" height="26.017" viewBox="0 0 26.017 26.017">
  <path id="Path_41627" data-name="Path 41627" d="M16.44,15.75a.813.813,0,0,1,.813.813v3.252a.813.813,0,0,1-.813.813H13.188a.813.813,0,0,1,0-1.626h2.439V16.563A.813.813,0,0,1,16.44,15.75Z" transform="translate(-3.432 -4.368)" fill="#be44b0" fill-rule="evenodd"/>
  <path id="Path_41628" data-name="Path 41628" d="M16.875,21.063a.813.813,0,0,1,.813-.813H20.94a.813.813,0,1,1,0,1.626H18.5v2.439a.813.813,0,0,1-1.626,0Z" transform="translate(-4.68 -5.616)" fill="#be44b0" fill-rule="evenodd"/>
  <path id="Path_41629" data-name="Path 41629" d="M1.626,7.128v16.26a1.626,1.626,0,0,0,1.626,1.626H22.765a1.626,1.626,0,0,0,1.626-1.626V7.128ZM3.252,2.25A3.252,3.252,0,0,0,0,5.5V23.388a3.252,3.252,0,0,0,3.252,3.252H22.765a3.252,3.252,0,0,0,3.252-3.252V5.5A3.252,3.252,0,0,0,22.765,2.25Z" transform="translate(0 -0.624)" fill="#be44b0" fill-rule="evenodd"/>
  <path id="Path_41630" data-name="Path 41630" d="M7.563,0a.813.813,0,0,1,.813.813v.813a.813.813,0,0,1-1.626,0V.813A.813.813,0,0,1,7.563,0ZM22.2,0a.813.813,0,0,1,.813.813v.813a.813.813,0,1,1-1.626,0V.813A.813.813,0,0,1,22.2,0Z" transform="translate(-1.872)" fill="#be44b0" fill-rule="evenodd"/>
</svg>
