<svg xmlns="http://www.w3.org/2000/svg" xmlns:xlink="http://www.w3.org/1999/xlink" width="45.074" height="27.547" viewBox="0 0 45.074 27.547">
  <defs>
    <clipPath id="clip-path">
      <rect id="Rectangle_542" data-name="Rectangle 542" width="45.074" height="27.547" fill="#fff"/>
    </clipPath>
  </defs>
  <g id="Group_19414" data-name="Group 19414" clip-path="url(#clip-path)">
    <path id="Path_41599" data-name="Path 41599" d="M0,27.548V8.186H1.785V4.037l1.788.514V0c.2.121.329.181.439.261A41.016,41.016,0,0,0,19.7,6.9,56.551,56.551,0,0,0,32.17,8.176c4.1-.032,8.2,0,12.3,0h.6V27.548Zm1.63-1.63H29.164V9.821H1.63Zm29.208-.039h5.469V9.823H30.838Zm7.107-12.423V21.01c0,1.34,0,1.323,1.362,1.327.411,0,.52-.132.508-.525-.026-.854-.008-1.709-.008-2.59h1.727v4.885H37.945c0,.485.023.913-.007,1.338-.028.4.1.538.509.524.876-.028,1.754-.008,2.631-.008h2.378V9.83H37.992v1.823h3.547V16.51H39.79V13.456ZM3.433,8.143h8.232L3.433,6.288Zm8.677-1.638-6.9-3.338c0,.5-.023,1.03.017,1.557.009.126.206.3.349.343.8.221,1.614.427,2.43.6,1.351.29,2.709.554,4.1.836" transform="translate(0 -0.001)" fill="#fff"/>
    <path id="Path_41600" data-name="Path 41600" d="M123.848,83.418h3.589c.2,0,.394-.008.59,0,.509.031.825.321.821.74a.752.752,0,0,1-.833.721c-.984.01-1.969,0-2.953,0h-1.1v2.748A2.383,2.383,0,0,1,125.49,86.1a2.717,2.717,0,0,1,3.08,1.459c.927,1.792-.614,4.007-2.491,4.206a3.186,3.186,0,0,1-3.626-3.187c-.021-1.212,0-2.425,0-3.7-.428,0-.8.008-1.169,0a.7.7,0,0,1-.774-.711c-.015-.48.288-.715.74-.744.373-.023.748,0,1.157,0a16.075,16.075,0,0,0-.019-2.109,1.685,1.685,0,0,0-1.752-1.36,1.754,1.754,0,0,0-1.648,1.555c-.08.633-.32.916-.77.906s-.729-.359-.71-.889a3.186,3.186,0,0,1,3.07-3.007,3.115,3.115,0,0,1,3.263,2.771c.062.673.01,1.356.01,2.127m.107,5.173a1.716,1.716,0,0,0,1.458,1.748,1.748,1.748,0,0,0,1.886-1.168,1.277,1.277,0,0,0-.9-1.666.787.787,0,0,0-1.019.6c-.242.918-.641,1.065-1.424.485" transform="translate(-100.642 -67.252)" fill="#fff"/>
    <path id="Path_41601" data-name="Path 41601" d="M29.555,83.163H26.483v3.074H24.759V81.4h4.8Z" transform="translate(-21.207 -69.72)" fill="#fff"/>
    <path id="Path_41602" data-name="Path 41602" d="M26.4,137.164h3.1v1.725H24.681v-4.811H26.4Z" transform="translate(-21.139 -114.839)" fill="#fff"/>
  </g>
</svg>
