<svg id="Group_19460" data-name="Group 19460" xmlns="http://www.w3.org/2000/svg" xmlns:xlink="http://www.w3.org/1999/xlink" width="26.082" height="33.144" viewBox="0 0 26.082 33.144">
  <defs>
    <clipPath id="clip-path">
      <rect id="Rectangle_553" data-name="Rectangle 553" width="26.082" height="33.144" fill="#9a8738"/>
    </clipPath>
  </defs>
  <g id="Group_19460-2" data-name="Group 19460" clip-path="url(#clip-path)">
    <path id="Path_41613" data-name="Path 41613" d="M2.795,33.145a8.066,8.066,0,0,1-.971-.329A2.9,2.9,0,0,1,0,30.048Q0,18.874,0,7.7A3.326,3.326,0,0,1,3.361,4.36c.864-.005,1.728,0,2.593,0h.353c0-.4,0-.777,0-1.15,0-.516.2-.768.722-.8.689-.04,1.382-.039,2.072-.022a.486.486,0,0,0,.528-.338,3.682,3.682,0,0,1,3.926-2,3.528,3.528,0,0,1,2.9,2.147.415.415,0,0,0,.316.176c.626.017,1.253,0,1.879.01a2.709,2.709,0,0,1,.547.051.661.661,0,0,1,.57.712c0,.388,0,.776,0,1.215h.354c.853,0,1.707,0,2.56,0A3.33,3.33,0,0,1,26.07,7.732c0,7.417-.013,14.835.012,22.252a3.152,3.152,0,0,1-2.6,3.092,1.913,1.913,0,0,0-.208.068ZM19.766,5.967c0,.565,0,1.1,0,1.638,0,.791-.3,1.093-1.091,1.093H7.365c-.782,0-1.058-.284-1.059-1.08,0-.546,0-1.092,0-1.647-1.111,0-2.178,0-3.245,0A.633.633,0,0,0,2.9,6,1.774,1.774,0,0,0,1.581,7.842q0,11.029,0,22.057c0,.076,0,.151,0,.226a1.341,1.341,0,0,0,.707,1.158,2.317,2.317,0,0,0,1.245.274q9.495,0,18.989,0c.108,0,.216,0,.324-.006a1.554,1.554,0,0,0,1.644-1.734q0-10.931,0-21.863c0-.1,0-.194,0-.291a1.708,1.708,0,0,0-1.532-1.685c-1.045-.04-2.094-.01-3.193-.01M7.923,7.1H18.139V3.967H16.178c-.674,0-.891-.165-1.078-.82a2.185,2.185,0,0,0-2.685-1.563A2.24,2.24,0,0,0,10.842,3.2a.875.875,0,0,1-1.02.767h-1.9Z" transform="translate(0 -0.001)" fill="#9a8738"/>
    <path id="Path_41614" data-name="Path 41614" d="M118.972,129.217c1.49,0,2.979,0,4.469,0a.784.784,0,0,1,.848.812.746.746,0,0,1-.568.734,1.8,1.8,0,0,1-.448.048q-4.307,0-8.613,0c-.076,0-.151,0-.227,0a.8.8,0,0,1-.8-.835.785.785,0,0,1,.841-.757c1.5,0,3,0,4.5,0" transform="translate(-102.173 -116.188)" fill="#9a8738"/>
    <path id="Path_41615" data-name="Path 41615" d="M118.969,254.331c1.479,0,2.958,0,4.436,0a.79.79,0,0,1,.874.85.777.777,0,0,1-.694.732,2.242,2.242,0,0,1-.355.016h-8.678c-.568-.01-.934-.328-.93-.811s.362-.788.943-.789q2.2,0,4.4,0" transform="translate(-102.165 -228.686)" fill="#9a8738"/>
    <path id="Path_41616" data-name="Path 41616" d="M118.943,193.518c-1.511,0-3.022,0-4.533,0a.78.78,0,0,1-.5-1.4.716.716,0,0,1,.379-.154q4.645-.014,9.29,0a.712.712,0,0,1,.682.66.768.768,0,0,1-.529.857,1.485,1.485,0,0,1-.415.04q-2.185,0-4.371,0Z" transform="translate(-102.147 -172.599)" fill="#9a8738"/>
    <path id="Path_41617" data-name="Path 41617" d="M41.7,112.511c.767-.728,1.572-1.492,2.375-2.257a.8.8,0,0,1,.911-.226.767.767,0,0,1,.287,1.288q-1.544,1.5-3.125,2.955a.717.717,0,0,1-1.069-.034q-.8-.8-1.585-1.615a.791.791,0,1,1,1.132-1.094c.344.325.7.64,1.075.984" transform="translate(-35.276 -98.878)" fill="#9a8738"/>
    <path id="Path_41618" data-name="Path 41618" d="M41.652,175.169c.82-.781,1.622-1.549,2.43-2.311a.806.806,0,0,1,1.183-.035.713.713,0,0,1,.039,1.066q-1.569,1.52-3.17,3.008a.739.739,0,0,1-1.053-.043q-.814-.81-1.605-1.644a.824.824,0,0,1-.013-1.164.787.787,0,0,1,1.13.068c.178.173.345.357.521.532s.338.329.538.523" transform="translate(-35.274 -155.18)" fill="#9a8738"/>
    <path id="Path_41619" data-name="Path 41619" d="M41.662,237.657c.809-.768,1.612-1.534,2.419-2.3a.788.788,0,0,1,1.053-.147.745.745,0,0,1,.155,1.193q-1.555,1.508-3.147,2.978a.718.718,0,0,1-1.069-.041c-.535-.532-1.065-1.069-1.585-1.616a.826.826,0,0,1-.017-1.186.812.812,0,0,1,1.155.1c.328.327.648.662.972.993.006.006.019.006.064.02" transform="translate(-35.274 -211.372)" fill="#9a8738"/>
  </g>
</svg>
