<svg xmlns="http://www.w3.org/2000/svg" width="26.87" height="26.87" viewBox="0 0 26.87 26.87">
  <g id="print" transform="translate(-1.125 -1.125)">
    <path id="Path_41593" data-name="Path 41593" d="M23.74,7.4V1.125H5.38V7.4a4.484,4.484,0,0,0-4.255,4.473V22.621H4.931V20.829H2.916V11.873A2.69,2.69,0,0,1,5.6,9.186H23.516A2.69,2.69,0,0,1,26.2,11.873v8.957H23.74v1.791h4.255V11.873A4.484,4.484,0,0,0,23.74,7.4Zm-1.791-.006H7.171V2.916H21.95Z" fill="#92622d"/>
    <path id="Path_41594" data-name="Path 41594" d="M27.844,14.063h1.791v1.791H27.844Z" transform="translate(-5.447 -2.638)" fill="#92622d"/>
    <path id="Path_41595" data-name="Path 41595" d="M7.583,18.563H5.344v1.791h2.24v11.2H22.81v-11.2h2.24V18.563Zm13.435,11.2H9.374v-9.4H21.018Z" transform="translate(-0.86 -3.555)" fill="#92622d"/>
  </g>
</svg>
