<svg xmlns="http://www.w3.org/2000/svg" width="11.507" height="13.151" viewBox="0 0 11.507 13.151">
  <path id="faq" d="M2.067,2.466H10.7a.8.8,0,0,1,.578.237.784.784,0,0,1,.244.585v8.22q0,.629-.854,1.136a3.183,3.183,0,0,1-1.612.507h-7.4A1.585,1.585,0,0,1,.493,12.67a1.582,1.582,0,0,1-.481-1.162V1.644A1.585,1.585,0,0,1,.493.481,1.582,1.582,0,0,1,1.656,0H10.7a.79.79,0,0,1,.578.244.8.8,0,0,1,.244.585.776.776,0,0,1-.244.578.8.8,0,0,1-.578.237H2.067a.409.409,0,0,0-.289.7.4.4,0,0,0,.289.122Zm2.877,9.453a.417.417,0,0,0,.411.411h.822a.417.417,0,0,0,.411-.411V11.1a.417.417,0,0,0-.411-.411H5.355a.417.417,0,0,0-.411.411v.822ZM2.478,6.576a.417.417,0,0,0,.411.411h.822a.417.417,0,0,0,.411-.411q0-.347.481-.585a2.6,2.6,0,0,1,1.162-.237A2.553,2.553,0,0,1,6.928,6q.481.244.481.578t-.481.585A2.6,2.6,0,0,1,5.766,7.4a.833.833,0,0,0-.822.822V9.453a.417.417,0,0,0,.411.411h.822a.417.417,0,0,0,.411-.411V8.964A3.408,3.408,0,0,0,8.36,8.091a2.053,2.053,0,0,0,.693-1.515A2.124,2.124,0,0,0,8.09,4.829,3.778,3.778,0,0,0,5.766,4.11a4.739,4.739,0,0,0-1.278.174,4.318,4.318,0,0,0-1.053.43,3.134,3.134,0,0,0-.693.54.8.8,0,0,0-.263.5v.822Z" transform="translate(-0.012 0)" fill="#fff"/>
</svg>
