<svg xmlns="http://www.w3.org/2000/svg" width="70" height="70" viewBox="0 0 70 70">
  <g id="Group_42" data-name="Group 42" transform="translate(-117 -1042)">
    <circle id="Ellipse_4" data-name="Ellipse 4" cx="35" cy="35" r="35" transform="translate(117 1042)" fill="#e7eeff"/>
    <g id="Group_41" data-name="Group 41" transform="translate(256.193 159.043)">
      <path id="Path_32" data-name="Path 32" d="M29.614,8.1l-.033-.15-.017-.05-.1-.133L22.694.979l-.15-.1-.05-.033-.15-.017H.55a.544.544,0,0,0-.55.55v35.1a.544.544,0,0,0,.55.55H29.08a.531.531,0,0,0,.534-.55V8.1m-1.868-.5H22.861V2.7Zm.784,28.33H1.1v-34H21.76v6.2a.544.544,0,0,0,.55.55h6.22Z" transform="translate(-119 898.528)" fill="#6187d7"/>
      <path id="Path_33" data-name="Path 33" d="M.813,2.319H13.436a.555.555,0,0,0,.55-.55.541.541,0,0,0-.55-.534H.813a.541.541,0,0,0-.55.534.555.555,0,0,0,.55.55" transform="translate(-114.878 904.892)" fill="#6187d7"/>
      <path id="Path_34" data-name="Path 34" d="M.855,2.047a.555.555,0,0,0,.55.55h9.871a.555.555,0,0,0,.55-.55.544.544,0,0,0-.55-.55H1.405a.544.544,0,0,0-.55.55" transform="translate(-105.598 908.998)" fill="#6187d7"/>
      <path id="Path_35" data-name="Path 35" d="M.813,2.6H7.4a.566.566,0,0,0,.55-.55A.544.544,0,0,0,7.4,1.5H.813a.544.544,0,0,0-.55.55.566.566,0,0,0,.55.55" transform="translate(-114.878 909.014)" fill="#6187d7"/>
      <path id="Path_36" data-name="Path 36" d="M7.154,1.76H1.668a.566.566,0,0,0-.55.55.544.544,0,0,0,.55.55H7.154a.544.544,0,0,0,.55-.55.566.566,0,0,0-.55-.55" transform="translate(-101.476 913.121)" fill="#6187d7"/>
      <path id="Path_37" data-name="Path 37" d="M.813,2.861H11.785a.55.55,0,0,0,0-1.1H.813a.55.55,0,0,0,0,1.1" transform="translate(-114.878 913.121)" fill="#6187d7"/>
      <path id="Path_38" data-name="Path 38" d="M.855,2.574a.555.555,0,0,0,.55.55h7.67a.55.55,0,1,0,0-1.1H1.405a.555.555,0,0,0-.55.55" transform="translate(-105.598 917.259)" fill="#6187d7"/>
      <path id="Path_39" data-name="Path 39" d="M.813,3.125H7.4a.566.566,0,0,0,.55-.55.544.544,0,0,0-.55-.55H.813a.544.544,0,0,0-.55.55.566.566,0,0,0,.55.55" transform="translate(-114.878 917.259)" fill="#6187d7"/>
      <path id="Path_40" data-name="Path 40" d="M.813,3.372H4.648a.541.541,0,0,0,.55-.534.535.535,0,0,0-.55-.55H.813a.544.544,0,0,0-.55.55.552.552,0,0,0,.55.534" transform="translate(-114.878 921.397)" fill="#6187d7"/>
      <path id="Path_41" data-name="Path 41" d="M13.847,2.287H1.225a.541.541,0,0,0-.534.55.527.527,0,0,0,.534.534H13.847a.541.541,0,0,0,.55-.534.555.555,0,0,0-.55-.55" transform="translate(-108.169 921.381)" fill="#6187d7"/>
      <path id="Path_42" data-name="Path 42" d="M12.335,2.551H.813a.542.542,0,1,0,0,1.084H12.335a.542.542,0,1,0,0-1.084" transform="translate(-114.878 925.519)" fill="#6187d7"/>
    </g>
  </g>
</svg>
