<svg xmlns="http://www.w3.org/2000/svg" width="70" height="70" viewBox="0 0 70 70">
  <g id="Group_19345" data-name="Group 19345" transform="translate(-117 -1042)">
    <circle id="Ellipse_4" data-name="Ellipse 4" cx="35" cy="35" r="35" transform="translate(117 1042)" fill="#f2ebfb"/>
    <g id="Organization_" data-name="Organization " transform="translate(130.853 1053.437)">
      <path id="Path_10687" data-name="Path 10687" d="M39.55.2a1.339,1.339,0,0,1,.635,1.138V41.524a1.339,1.339,0,0,1-1.339,1.339H30.808a1.339,1.339,0,0,1-1.339-1.339V37.506H26.79v4.018a1.339,1.339,0,0,1-1.339,1.339H1.339A1.339,1.339,0,0,1,0,41.524V26.79a1.339,1.339,0,0,1,.917-1.27l15.157-5.052V12.055a1.34,1.34,0,0,1,.74-1.2L38.245.142A1.339,1.339,0,0,1,39.55.2ZM16.074,23.292,2.679,27.754v12.43H16.074Zm2.679,16.893h5.358V36.166a1.339,1.339,0,0,1,1.339-1.339h5.358a1.339,1.339,0,0,1,1.339,1.339v4.018h5.358V3.507L18.753,12.883Z" transform="translate(0 0)" fill="#9e77e5" fill-rule="evenodd"/>
      <path id="Path_10688" data-name="Path 10688" d="M4.5,28.182H7.179v2.679H4.5Zm5.358,0h2.679v2.679H9.858ZM4.5,33.54H7.179v2.679H4.5Zm5.358,0h2.679v2.679H9.858ZM20.574,22.824h2.679V25.5H20.574Zm5.358,0h2.679V25.5H25.932Zm-5.358,5.358h2.679v2.679H20.574Zm5.358,0h2.679v2.679H25.932Zm5.358-5.358h2.679V25.5H31.29Zm0,5.358h2.679v2.679H31.29ZM20.574,17.466h2.679v2.679H20.574Zm5.358,0h2.679v2.679H25.932Zm5.358,0h2.679v2.679H31.29ZM20.574,12.108h2.679v2.679H20.574Zm5.358,0h2.679v2.679H25.932Zm5.358,0h2.679v2.679H31.29Zm0-5.358h2.679V9.429H31.29Z" transform="translate(0.858 1.287)" fill="#9e77e5"/>
    </g>
  </g>
</svg>
