<svg width="20" height="20" viewBox="0 0 20 20" fill="none" xmlns="http://www.w3.org/2000/svg">
<path fill-rule="evenodd" clip-rule="evenodd" d="M5.67781 0H14.3478C17.7378 0 20.0078 2.38 20.0078 5.92V14.091C20.0078 17.621 17.7378 20 14.3478 20H5.67781C2.28781 20 0.0078125 17.621 0.0078125 14.091V5.92C0.0078125 2.38 2.28781 0 5.67781 0ZM13.0178 13C13.3578 12.661 13.3578 12.111 13.0178 11.771L11.2378 9.991L13.0178 8.21C13.3578 7.871 13.3578 7.311 13.0178 6.971C12.6778 6.63 12.1278 6.63 11.7778 6.971L10.0078 8.75L8.22781 6.971C7.87781 6.63 7.32781 6.63 6.98781 6.971C6.64781 7.311 6.64781 7.871 6.98781 8.21L8.76781 9.991L6.98781 11.761C6.64781 12.111 6.64781 12.661 6.98781 13C7.15781 13.17 7.38781 13.261 7.60781 13.261C7.83781 13.261 8.05781 13.17 8.22781 13L10.0078 11.231L11.7878 13C11.9578 13.181 12.1778 13.261 12.3978 13.261C12.6278 13.261 12.8478 13.17 13.0178 13Z" fill="#EC1C24"/>
</svg>

