<svg width="54" height="54" viewBox="0 0 54 54" fill="none" xmlns="http://www.w3.org/2000/svg">
<path d="M53.4351 33.3511L47.6494 27.5653C47.2877 27.2037 46.7972 27.0006 46.2858 27.0006C45.7744 27.0006 45.284 27.2037 44.9223 27.5653L27 45.4877V54.0004H35.5128L53.4351 36.0781C53.7967 35.7164 53.9998 35.226 53.9998 34.7146C53.9998 34.2032 53.7967 33.7127 53.4351 33.3511ZM33.9159 50.1433H30.8572V47.0845L40.5001 37.4416L43.5588 40.5003L33.9159 50.1433ZM46.2858 37.7733L43.2271 34.7146L46.2858 31.6558L49.3446 34.7146L46.2858 37.7733ZM11.5713 27.0002H30.8572V30.8574H11.5713V27.0002ZM11.5713 15.4287H34.7143V19.2859H11.5713V15.4287Z" fill="#42A045"/>
<path d="M46.2861 3.85717C46.2851 2.8345 45.8784 1.85401 45.1552 1.13087C44.4321 0.407728 43.4516 0.00102114 42.4289 0H3.85719C2.83451 0.00102114 1.85402 0.407728 1.13088 1.13087C0.407742 1.85401 0.00103437 2.8345 1.32259e-05 3.85717V28.9288C-0.00428467 32.7751 1.03898 36.5499 3.01782 39.8481C4.99666 43.1463 7.83636 45.8433 11.2321 47.6496L21.2145 52.9725V48.6004L13.0488 44.2456C10.2704 42.7677 7.94686 40.5611 6.32753 37.8627C4.70819 35.1643 3.8542 32.0758 3.85719 28.9288V3.85717H42.4289V21.2144H46.2861V3.85717Z" fill="#42A045"/>
</svg>
