<svg xmlns="http://www.w3.org/2000/svg" xmlns:xlink="http://www.w3.org/1999/xlink" width="41.987" height="51.29" viewBox="0 0 41.987 51.29">
  <defs>
    <clipPath id="clip-path">
      <rect id="Rectangle_524" data-name="Rectangle 524" width="41.987" height="51.29" transform="translate(0 0)" fill="none"/>
    </clipPath>
  </defs>
  <g id="Group_19348" data-name="Group 19348" transform="translate(0 0)">
    <g id="Group_19347" data-name="Group 19347" clip-path="url(#clip-path)">
      <path id="Path_41521" data-name="Path 41521" d="M41.98,10.28a.82.82,0,0,0,0-.21c0-.023,0-.047,0-.07a1.114,1.114,0,0,0-.15-.21L32.23.19a.484.484,0,0,0-.22-.14h-.06A1.687,1.687,0,0,1,31.74,0H.78A.78.78,0,0,0,0,.73V50.51a.77.77,0,0,0,.76.78H41.21a.77.77,0,0,0,.77-.77V10.28Zm-2.65-.72H32.4V2.62Zm1.11,40.17H1.61V1.53H30.85v8.8a.77.77,0,0,0,.76.78h8.83Z" fill="#42a047"/>
      <path id="Path_41522" data-name="Path 41522" d="M7,11.11H24.88a.78.78,0,1,0,.176-1.55.74.74,0,0,0-.176,0H7a.78.78,0,1,0-.176,1.55.74.74,0,0,0,.176,0" fill="#42a047"/>
      <path id="Path_41523" data-name="Path 41523" d="M20.22,16.56a.789.789,0,0,0,.78.78H35a.789.789,0,0,0,.78-.78.78.78,0,0,0-.77-.79H21a.78.78,0,0,0-.78.78v.01" fill="#42a047"/>
      <path id="Path_41524" data-name="Path 41524" d="M7,17.34h9.33a.789.789,0,0,0,.78-.78.78.78,0,0,0-.77-.79H7a.78.78,0,0,0-.78.78v.01a.789.789,0,0,0,.78.78" fill="#42a047"/>
      <path id="Path_41525" data-name="Path 41525" d="M34.99,21.98H27.21a.79.79,0,0,0-.77.79.78.78,0,0,0,.77.78h7.78a.78.78,0,0,0,.78-.78.8.8,0,0,0-.78-.79" fill="#42a047"/>
      <path id="Path_41526" data-name="Path 41526" d="M7,23.55H22.55a.78.78,0,0,0,.78-.78.8.8,0,0,0-.78-.79H7a.8.8,0,0,0-.78.79A.78.78,0,0,0,7,23.55Z" fill="#42a047"/>
      <path id="Path_41527" data-name="Path 41527" d="M20.22,29a.789.789,0,0,0,.78.78H31.88a.8.8,0,0,0,.78-.78.79.79,0,0,0-.78-.79H21a.78.78,0,0,0-.78.78V29" fill="#42a047"/>
      <path id="Path_41528" data-name="Path 41528" d="M7,29.78h9.33a.789.789,0,0,0,.78-.78.78.78,0,0,0-.77-.79H7a.78.78,0,0,0-.78.78V29a.789.789,0,0,0,.78.78" fill="#42a047"/>
      <path id="Path_41529" data-name="Path 41529" d="M7,35.99h5.43a.78.78,0,0,0,.176-1.55.74.74,0,0,0-.176,0H7a.78.78,0,0,0-.176,1.55.74.74,0,0,0,.176,0" fill="#42a047"/>
      <path id="Path_41530" data-name="Path 41530" d="M34.99,34.44H17.11a.78.78,0,0,0-.176,1.55.74.74,0,0,0,.176,0H34.99a.78.78,0,0,0,.176-1.55.74.74,0,0,0-.176,0" fill="#42a047"/>
      <path id="Path_41531" data-name="Path 41531" d="M23.33,40.73H7a.76.76,0,0,0-.78.74v.02a.77.77,0,0,0,.76.78H23.33a.77.77,0,0,0,.77-.77v-.01a.76.76,0,0,0-.76-.76h-.01" fill="#42a047"/>
    </g>
  </g>
</svg>
