<svg width="18" height="18" viewBox="0 0 18 18" fill="none" xmlns="http://www.w3.org/2000/svg">
<g clip-path="url(#clip0_5330_84723)">
<path d="M8.72266 17.5586C7.04152 17.5586 5.39813 17.0601 4.00031 16.1261C2.60249 15.1921 1.51303 13.8646 0.869684 12.3114C0.226339 10.7582 0.0580108 9.04917 0.385985 7.40033C0.71396 5.75149 1.52351 4.23694 2.71225 3.04819C3.901 1.85944 5.41555 1.0499 7.06439 0.721923C8.71323 0.393948 10.4223 0.562277 11.9755 1.20562C13.5286 1.84897 14.8562 2.93843 15.7902 4.33625C16.7241 5.73407 17.2227 7.37746 17.2227 9.0586C17.2202 11.3122 16.3239 13.4728 14.7304 15.0663C13.1368 16.6598 10.9763 17.5562 8.72266 17.5586V17.5586ZM8.72266 1.97526C7.32171 1.97526 5.95222 2.39069 4.78737 3.16902C3.62252 3.94735 2.71463 5.05361 2.17851 6.34792C1.64239 7.64223 1.50212 9.06646 1.77543 10.4405C2.04874 11.8145 2.72336 13.0766 3.71399 14.0673C4.70461 15.0579 5.96674 15.7325 7.34077 16.0058C8.7148 16.2791 10.139 16.1389 11.4333 15.6027C12.7276 15.0666 13.8339 14.1587 14.6122 12.9939C15.3906 11.829 15.806 10.4595 15.806 9.0586C15.8039 7.18061 15.057 5.38014 13.7291 4.0522C12.4011 2.72427 10.6006 1.97733 8.72266 1.97526V1.97526Z" fill="#0063F7"/>
<path d="M10.138 14.0156H8.72135V9.05729H7.30469V7.64062H8.72135C9.09707 7.64062 9.45741 7.78988 9.72308 8.05556C9.98876 8.32123 10.138 8.68157 10.138 9.05729V14.0156Z" fill="#0063F7"/>
<path d="M8.72266 6.22656C9.30946 6.22656 9.78516 5.75086 9.78516 5.16406C9.78516 4.57726 9.30946 4.10156 8.72266 4.10156C8.13585 4.10156 7.66016 4.57726 7.66016 5.16406C7.66016 5.75086 8.13585 6.22656 8.72266 6.22656Z" fill="#0063F7"/>
</g>
<defs>
<clipPath id="clip0_5330_84723">
<rect width="17" height="17" fill="white" transform="translate(0.222656 0.558594)"/>
</clipPath>
</defs>
</svg>
