<svg xmlns="http://www.w3.org/2000/svg" width="20.675" height="26.56" viewBox="0 0 20.675 26.56">
  <g id="Group_36" data-name="Group 36" transform="translate(48 -44.818)">
    <path id="Path_9" data-name="Path 9" d="M18.657,3.655h-3.89V3.239a1.219,1.219,0,0,0-1.211-1.2H11.891a1.6,1.6,0,0,0-3.107,0H7.12a1.211,1.211,0,0,0-1.211,1.2v.416H2.019A2.013,2.013,0,0,0,0,5.674V25.382a2.01,2.01,0,0,0,2.019,2.006H18.657a2.01,2.01,0,0,0,2.019-2.006V5.674a2.013,2.013,0,0,0-2.019-2.019M10.338,1.636a.815.815,0,0,1,.807.807.808.808,0,0,1-1.615,0,.815.815,0,0,1,.807-.807m-3.621,1.6a.389.389,0,0,1,.4-.391H8.784a1.6,1.6,0,0,0,3.107,0h1.664a.4.4,0,0,1,.4.391V4.854a.407.407,0,0,1-.4.4H7.12a.4.4,0,0,1-.4-.4ZM19.868,25.382a1.206,1.206,0,0,1-1.211,1.211H2.019A1.206,1.206,0,0,1,.807,25.382V5.674A1.217,1.217,0,0,1,2.019,4.45h3.89v.4A1.206,1.206,0,0,0,7.12,6.065h6.435a1.214,1.214,0,0,0,1.211-1.211v-.4h3.89a1.217,1.217,0,0,1,1.211,1.223Z" transform="translate(-48 43.989)" fill="#42a045"/>
    <path id="Path_10" data-name="Path 10" d="M1.646,1.578a1.4,1.4,0,1,0,0,2.8,1.4,1.4,0,1,0,0-2.8m0,2.006a.606.606,0,0,1,0-1.211.606.606,0,0,1,0,1.211" transform="translate(-45.315 52.403)" fill="#42a045"/>
    <path id="Path_11" data-name="Path 11" d="M1.646,1.906A1.407,1.407,0,1,0,3.053,3.313,1.407,1.407,0,0,0,1.646,1.906m0,2.019a.606.606,0,0,1,0-1.211.606.606,0,0,1,0,1.211" transform="translate(-45.315 56.088)" fill="#42a045"/>
    <path id="Path_12" data-name="Path 12" d="M1.646,2.236a1.407,1.407,0,1,0,0,2.814,1.407,1.407,0,1,0,0-2.814m0,2.006a.611.611,0,0,1-.6-.612.6.6,0,0,1,1.2,0,.611.611,0,0,1-.6.612" transform="translate(-45.315 59.795)" fill="#42a045"/>
    <path id="Path_13" data-name="Path 13" d="M1.646,2.565A1.407,1.407,0,0,0,.239,3.972,1.389,1.389,0,0,0,1.646,5.367,1.4,1.4,0,0,0,3.053,3.972,1.415,1.415,0,0,0,1.646,2.565m0,2.006a.6.6,0,1,1,.6-.6.6.6,0,0,1-.6.6" transform="translate(-45.315 63.491)" fill="#42a045"/>
    <path id="Path_14" data-name="Path 14" d="M1.216,2.213H6.452a.407.407,0,0,0,.4-.4.4.4,0,0,0-.4-.4H1.216a.4.4,0,0,0-.4.4.407.407,0,0,0,.4.4" transform="translate(-38.878 50.471)" fill="#42a045"/>
    <path id="Path_15" data-name="Path 15" d="M.788,2.213H3.6a.407.407,0,0,0,.4-.4.4.4,0,0,0-.4-.4H.788a.4.4,0,0,0-.4.4.407.407,0,0,0,.4.4" transform="translate(-43.686 50.471)" fill="#42a045"/>
    <path id="Path_16" data-name="Path 16" d="M5.573,1.66H.973a.4.4,0,0,0-.391.4.386.386,0,0,0,.391.391h4.6a.4.4,0,0,0,.4-.391.407.407,0,0,0-.4-.4" transform="translate(-41.462 53.324)" fill="#42a045"/>
    <path id="Path_17" data-name="Path 17" d="M4.541,1.66h-3a.407.407,0,0,0-.4.4.4.4,0,0,0,.4.391h3a.4.4,0,0,0,.4-.391.416.416,0,0,0-.4-.4" transform="translate(-35.193 53.324)" fill="#42a045"/>
    <path id="Path_18" data-name="Path 18" d="M9.195,2.369a.4.4,0,0,0-.4-.379H.986a.4.4,0,0,0-.4.379.418.418,0,0,0,.4.416H8.791a.418.418,0,0,0,.4-.416" transform="translate(-41.462 57.031)" fill="#42a045"/>
    <path id="Path_19" data-name="Path 19" d="M6.383,2.318H1.367a.4.4,0,0,0-.391.391.4.4,0,0,0,.391.4H6.383a.407.407,0,0,0,.4-.4.414.414,0,0,0-.4-.391" transform="translate(-37.036 60.716)" fill="#42a045"/>
    <path id="Path_20" data-name="Path 20" d="M.985,2.318a.405.405,0,0,0-.4.391.4.4,0,0,0,.4.4H3.566a.4.4,0,0,0,.4-.4.405.405,0,0,0-.4-.391Z" transform="translate(-41.473 60.716)" fill="#42a045"/>
    <path id="Path_21" data-name="Path 21" d="M7.176,2.648H.973a.394.394,0,0,0-.391.391.389.389,0,0,0,.391.4h6.2a.392.392,0,0,0,.4-.4.4.4,0,0,0-.4-.391" transform="translate(-41.462 64.423)" fill="#42a045"/>
  </g>
</svg>
