<svg xmlns="http://www.w3.org/2000/svg" width="43.114" height="55.385" viewBox="0 0 43.114 55.385">
  <g id="Group_36" data-name="Group 36" transform="translate(48 -44.818)">
    <path id="Path_9" data-name="Path 9" d="M38.9,6.722H30.792V5.855a2.543,2.543,0,0,0-2.526-2.5H24.8a3.341,3.341,0,0,0-6.48,0h-3.47a2.526,2.526,0,0,0-2.526,2.5v.867H4.209A4.2,4.2,0,0,0,0,10.931v41.1a4.192,4.192,0,0,0,4.209,4.184H38.9a4.192,4.192,0,0,0,4.209-4.184v-41.1A4.2,4.2,0,0,0,38.9,6.722M21.557,2.513A1.7,1.7,0,0,1,23.241,4.2a1.684,1.684,0,0,1-3.367,0,1.7,1.7,0,0,1,1.684-1.684M14.006,5.855a.812.812,0,0,1,.842-.816h3.47a3.341,3.341,0,0,0,6.48,0h3.47a.828.828,0,0,1,.842.816V9.222a.849.849,0,0,1-.842.842H14.848a.833.833,0,0,1-.842-.842ZM41.43,52.03A2.515,2.515,0,0,1,38.9,54.556H4.209A2.515,2.515,0,0,1,1.684,52.03v-41.1A2.537,2.537,0,0,1,4.209,8.38h8.113v.842a2.515,2.515,0,0,0,2.526,2.526H28.266a2.531,2.531,0,0,0,2.526-2.526V8.38H38.9a2.537,2.537,0,0,1,2.526,2.551Z" transform="translate(-48 43.989)" fill="#fff"/>
    <path id="Path_10" data-name="Path 10" d="M3.173,1.578a2.921,2.921,0,1,0,0,5.842,2.921,2.921,0,1,0,0-5.842m0,4.184a1.263,1.263,0,0,1,0-2.526,1.263,1.263,0,0,1,0,2.526" transform="translate(-42.142 62.348)" fill="#fff"/>
    <path id="Path_11" data-name="Path 11" d="M3.173,1.906A2.934,2.934,0,1,0,6.107,4.84,2.934,2.934,0,0,0,3.173,1.906m0,4.209a1.263,1.263,0,0,1,0-2.526,1.263,1.263,0,0,1,0,2.526" transform="translate(-42.142 70.388)" fill="#fff"/>
    <path id="Path_12" data-name="Path 12" d="M3.173,2.236a2.934,2.934,0,1,0,0,5.868,2.934,2.934,0,1,0,0-5.868m0,4.184a1.274,1.274,0,0,1-1.25-1.276,1.25,1.25,0,0,1,2.5,0A1.274,1.274,0,0,1,3.173,6.42" transform="translate(-42.142 78.476)" fill="#fff"/>
    <path id="Path_13" data-name="Path 13" d="M3.173,2.565A2.934,2.934,0,0,0,.239,5.5,2.9,2.9,0,0,0,3.173,8.407,2.912,2.912,0,0,0,6.107,5.5,2.951,2.951,0,0,0,3.173,2.565m0,4.184A1.25,1.25,0,1,1,4.423,5.5a1.252,1.252,0,0,1-1.25,1.25" transform="translate(-42.142 86.54)" fill="#fff"/>
    <path id="Path_14" data-name="Path 14" d="M1.654,3.09H12.573a.849.849,0,0,0,.842-.842.833.833,0,0,0-.842-.842H1.654a.833.833,0,0,0-.842.842.849.849,0,0,0,.842.842" transform="translate(-28.097 58.132)" fill="#fff"/>
    <path id="Path_15" data-name="Path 15" d="M1.226,3.09H7.093a.849.849,0,0,0,.842-.842.833.833,0,0,0-.842-.842H1.226a.833.833,0,0,0-.842.842.849.849,0,0,0,.842.842" transform="translate(-38.588 58.132)" fill="#fff"/>
    <path id="Path_16" data-name="Path 16" d="M10.991,1.66H1.4A.828.828,0,0,0,.582,2.5a.806.806,0,0,0,.816.816h9.592a.828.828,0,0,0,.842-.816.849.849,0,0,0-.842-.842" transform="translate(-33.734 64.358)" fill="#fff"/>
    <path id="Path_17" data-name="Path 17" d="M8.232,1.66H1.982A.849.849,0,0,0,1.14,2.5a.828.828,0,0,0,.842.816h6.25A.844.844,0,0,0,9.074,2.5a.867.867,0,0,0-.842-.842" transform="translate(-20.057 64.358)" fill="#fff"/>
    <path id="Path_18" data-name="Path 18" d="M18.542,2.781A.823.823,0,0,0,17.7,1.99H1.424a.823.823,0,0,0-.842.791.872.872,0,0,0,.842.867H17.7a.872.872,0,0,0,.842-.867" transform="translate(-33.734 72.447)" fill="#fff"/>
    <path id="Path_19" data-name="Path 19" d="M12.252,2.318H1.792a.839.839,0,0,0-.816.816.828.828,0,0,0,.816.842h10.46a.849.849,0,0,0,.842-.842.862.862,0,0,0-.842-.816" transform="translate(-24.077 80.486)" fill="#fff"/>
    <path id="Path_20" data-name="Path 20" d="M1.423,2.318a.845.845,0,0,0-.842.816.833.833,0,0,0,.842.842H6.806a.833.833,0,0,0,.842-.842.845.845,0,0,0-.842-.816Z" transform="translate(-33.759 80.486)" fill="#fff"/>
    <path id="Path_21" data-name="Path 21" d="M14.333,2.648H1.4a.822.822,0,0,0-.816.816.812.812,0,0,0,.816.842H14.333a.818.818,0,0,0,.842-.842.828.828,0,0,0-.842-.816" transform="translate(-33.734 88.575)" fill="#fff"/>
  </g>
</svg>
