<svg xmlns="http://www.w3.org/2000/svg" width="48.486" height="44.064" viewBox="0 0 48.486 44.064">
  <g id="Group_32" data-name="Group 32" transform="translate(-658.757 -520.968)">
    <g id="Group_28" data-name="Group 28" transform="translate(658.757 498.032)">
      <g id="Group_29" data-name="Group 29">
        <path id="Path_3" data-name="Path 3" d="M44.086,5.427H21.864a1.484,1.484,0,0,1-1.228-.648l-1.63-2.457a2.929,2.929,0,0,0-2.434-1.3H5.137A5.137,5.137,0,0,0,0,6.164V37.028a4.394,4.394,0,0,0,4.4,4.4H30.306a.726.726,0,1,0,0-1.452H4.4a2.974,2.974,0,0,1-2.948-2.948V19.407A2.96,2.96,0,0,1,4.4,16.459h6.655a.737.737,0,1,0,0-1.474H4.4a4.334,4.334,0,0,0-2.948,1.139V6.164A3.684,3.684,0,0,1,5.137,2.5H16.571a1.481,1.481,0,0,1,1.206.625l1.63,2.457a2.942,2.942,0,0,0,2.457,1.3H44.086a2.955,2.955,0,0,1,2.926,2.948v2.3a5.075,5.075,0,0,0-3.663-1.563H31.937a3.02,3.02,0,0,0-2.457,1.318.74.74,0,1,0,1.228.826,1.505,1.505,0,0,1,1.228-.67H43.349a3.67,3.67,0,0,1,3.663,3.685V37.028a2.934,2.934,0,0,1-1.318,2.457.734.734,0,0,0-.223,1.027.773.773,0,0,0,.625.335.72.72,0,0,0,.4-.134,4.384,4.384,0,0,0,1.988-3.685V9.826a4.408,4.408,0,0,0-4.4-4.4" transform="translate(0 21.909)" fill="#fff"/>
        <path id="Path_4" data-name="Path 4" d="M10.647,1.961a.729.729,0,0,0-.737-.737H.977a.716.716,0,0,0-.737.737.7.7,0,0,0,.737.715H9.91a.711.711,0,0,0,.737-.715" transform="translate(5.12 26.112)" fill="#fff"/>
        <path id="Path_5" data-name="Path 5" d="M25.112,21.057a.757.757,0,0,0-1.027,0l-.335.357-1.586-1.586a11.811,11.811,0,1,0-18.224,1.9,11.713,11.713,0,0,0,14.807,1.519l1.563,1.586L20,25.166a.679.679,0,0,0-.223.514.693.693,0,0,0,.223.536l7.214,7.214a3.1,3.1,0,0,0,4.355,0l.759-.759a3.06,3.06,0,0,0,0-4.377Zm-5.784.715a.708.708,0,0,0-.514-.2.789.789,0,0,0-.424.134A10.35,10.35,0,0,1,4.967,6.026a10.379,10.379,0,0,1,14.628,0,10.251,10.251,0,0,1,1,13.445.778.778,0,0,0,.089.96l2.032,2.032L21.36,23.781ZM31.321,31.62l-.782.759a1.645,1.645,0,0,1-2.3,0l-6.655-6.7.29-.335,2.39-2.39.335-.313,6.722,6.678a1.645,1.645,0,0,1,0,2.3" transform="translate(10.085 32.677)" fill="#fff"/>
        <path id="Path_6" data-name="Path 6" d="M2.817,3.876a7.387,7.387,0,0,0,0,10.407A7.29,7.29,0,0,0,8,16.45,7.359,7.359,0,1,0,2.817,3.876m9.358,9.358a5.883,5.883,0,0,1-8.33-8.308A5.772,5.772,0,0,1,8,3.228a5.822,5.822,0,0,1,4.176,1.7,5.9,5.9,0,0,1,0,8.308" transform="translate(14.357 36.949)" fill="#fff"/>
      </g>
    </g>
  </g>
</svg>
