<svg width="10" height="9" viewBox="0 0 10 9" fill="none" xmlns="http://www.w3.org/2000/svg">
<path fill-rule="evenodd" clip-rule="evenodd" d="M4.72813 8.96016C7.15818 8.96016 9.12813 6.99021 9.12813 4.56016C9.12813 2.1301 7.15818 0.160156 4.72813 0.160156C2.29807 0.160156 0.328125 2.1301 0.328125 4.56016C0.328125 6.99021 2.29807 8.96016 4.72813 8.96016ZM5.27813 2.91016C5.27813 2.6064 5.03188 2.36016 4.72813 2.36016C4.42437 2.36016 4.17813 2.6064 4.17813 2.91016V4.01016H3.07813C2.77437 4.01016 2.52813 4.2564 2.52813 4.56016C2.52813 4.86391 2.77437 5.11016 3.07813 5.11016H4.17813V6.21016C4.17813 6.51391 4.42437 6.76016 4.72813 6.76016C5.03188 6.76016 5.27813 6.51391 5.27813 6.21016V5.11016H6.37813C6.68188 5.11016 6.92813 4.86391 6.92813 4.56016C6.92813 4.2564 6.68188 4.01016 6.37813 4.01016H5.27813V2.91016Z" fill="white"/>
</svg>

