<svg width="17" height="18" viewBox="0 0 17 18" fill="none" xmlns="http://www.w3.org/2000/svg">
<g clip-path="url(#clip0_7713_5497)">
<path fill-rule="evenodd" clip-rule="evenodd" d="M2.35286 0.558594C1.96166 0.558594 1.64453 0.875726 1.64453 1.26693V16.8503C1.64453 17.2415 1.96166 17.5586 2.35286 17.5586H15.1029C15.4941 17.5586 15.8112 17.2415 15.8112 16.8503V3.39193L12.9779 0.558594H2.35286Z" fill="#E9F0FA"/>
<path fill-rule="evenodd" clip-rule="evenodd" d="M12.9766 0.558594V3.39193H15.8099L12.9766 0.558594Z" fill="#C2CDDE"/>
</g>
<rect x="0.929688" y="7.64062" width="15.5833" height="7.08333" rx="0.708333" fill="#F14848"/>
<path d="M3.59122 13.6406V9.51941H5.13667C5.45328 9.51941 5.7189 9.57844 5.93355 9.6965C6.14954 9.81455 6.31253 9.97688 6.42254 10.1835C6.53389 10.3887 6.58956 10.6222 6.58956 10.8838C6.58956 11.148 6.53389 11.3828 6.42254 11.5881C6.31119 11.7933 6.14685 11.955 5.92952 12.073C5.71219 12.1897 5.44456 12.2481 5.12661 12.2481H4.10235V11.6344H5.026C5.21113 11.6344 5.36272 11.6022 5.48078 11.5378C5.59883 11.4734 5.68603 11.3848 5.74238 11.2721C5.80007 11.1594 5.82891 11.03 5.82891 10.8838C5.82891 10.7375 5.80007 10.6087 5.74238 10.4974C5.68603 10.386 5.59816 10.2995 5.47877 10.2378C5.36071 10.1748 5.20845 10.1432 5.02197 10.1432H4.33779V13.6406H3.59122ZM8.63457 13.6406H7.23803V9.51941H8.66274C9.07191 9.51941 9.4234 9.60192 9.7172 9.76693C10.0123 9.93059 10.2391 10.166 10.3974 10.4732C10.5557 10.7805 10.6348 11.148 10.6348 11.576C10.6348 12.0053 10.555 12.3742 10.3953 12.6828C10.237 12.9913 10.0083 13.2281 9.70915 13.3931C9.41132 13.5581 9.05313 13.6406 8.63457 13.6406ZM7.9846 12.9947H8.59835C8.88544 12.9947 9.12491 12.9424 9.31675 12.8377C9.50859 12.7317 9.6528 12.5741 9.74939 12.3648C9.84598 12.1542 9.89428 11.8913 9.89428 11.576C9.89428 11.2607 9.84598 10.9991 9.74939 10.7912C9.6528 10.5819 9.50993 10.4256 9.32077 10.3223C9.13295 10.2177 8.89953 10.1654 8.62049 10.1654H7.9846V12.9947ZM11.3441 13.6406V9.51941H13.9843V10.1452H12.0907V11.2641H13.8032V11.8899H12.0907V13.6406H11.3441Z" fill="white"/>
<defs>
<clipPath id="clip0_7713_5497">
<rect width="14.1667" height="17" fill="white" transform="translate(1.63672 0.558594)"/>
</clipPath>
</defs>
</svg>
