<svg width="9" height="9"
                            viewBox="0 0 9 9" fill="none" xmlns="http://www.w3.org/2000/svg">
                            <path
                                d="M0.101562 1.69401C0.101562 1.35973 0.234356 1.03914 0.47073 0.802761C0.707104 0.566387 1.0277 0.433594 1.36198 0.433594H5.92881C6.1245 0.433545 6.31828 0.472055 6.49908 0.546923C6.67988 0.621791 6.84416 0.731549 6.98252 0.869927L7.91523 1.80264C8.19481 2.08222 8.35156 2.46126 8.35156 2.85634V7.42318C8.35156 7.75746 8.21877 8.07805 7.9824 8.31443C7.74602 8.5508 7.42543 8.6836 7.09115 8.6836H1.36198C1.0277 8.6836 0.707104 8.5508 0.47073 8.31443C0.234356 8.07805 0.101563 7.75746 0.101562 7.42318V1.69401ZM1.36198 1.12109C1.04573 1.12109 0.789063 1.37776 0.789063 1.69401V7.42318C0.789063 7.73943 1.04573 7.9961 1.36198 7.9961H1.47656V5.58984C1.47656 5.31634 1.58521 5.05404 1.77861 4.86064C1.97201 4.66724 2.23431 4.55859 2.50781 4.55859H5.94531C6.21882 4.55859 6.48112 4.66724 6.67452 4.86064C6.86791 5.05404 6.97656 5.31634 6.97656 5.58984V7.9961H7.09115C7.4074 7.9961 7.66406 7.73943 7.66406 7.42318V2.85634C7.66406 2.64322 7.57973 2.43926 7.42894 2.28893L6.49623 1.35622C6.37782 1.23761 6.22523 1.15907 6.0599 1.13164V2.38151C6.0599 2.51694 6.03322 2.65104 5.9814 2.77615C5.92957 2.90127 5.85361 3.01495 5.75785 3.11071C5.66209 3.20648 5.54841 3.28244 5.42329 3.33426C5.29817 3.38609 5.16407 3.41276 5.02865 3.41276H2.96615C2.69264 3.41276 2.43034 3.30411 2.23694 3.11071C2.04355 2.91732 1.9349 2.65502 1.9349 2.38151V1.12109H1.36198ZM6.28906 7.9961V5.58984C6.28906 5.49868 6.25285 5.41124 6.18838 5.34678C6.12392 5.28231 6.03648 5.24609 5.94531 5.24609H2.50781C2.41664 5.24609 2.32921 5.28231 2.26474 5.34678C2.20028 5.41124 2.16406 5.49868 2.16406 5.58984V7.9961H6.28906ZM2.6224 1.12109V2.38151C2.6224 2.57126 2.7764 2.72526 2.96615 2.72526H5.02865C5.11982 2.72526 5.20725 2.68904 5.27171 2.62458C5.33618 2.56011 5.3724 2.47268 5.3724 2.38151V1.12109H2.6224Z"
                                fill="white" />
                        </svg>