<svg width="12" height="12" viewBox="0 0 12 12" fill="none" xmlns="http://www.w3.org/2000/svg">
<path d="M9.43294 3.30859V2.39193C9.43294 1.9057 9.23979 1.43938 8.89597 1.09556C8.55216 0.751748 8.08584 0.558594 7.59961 0.558594H4.84961C4.36338 0.558594 3.89706 0.751748 3.55325 1.09556C3.20943 1.43938 3.01628 1.9057 3.01628 2.39193V3.30859C2.40871 3.30932 1.82624 3.551 1.39663 3.98061C0.967014 4.41023 0.725337 4.9927 0.724609 5.60026L0.724609 7.89193C0.725337 8.49949 0.967014 9.08196 1.39663 9.51158C1.82624 9.94119 2.40871 10.1829 3.01628 10.1836C3.01628 10.5483 3.16114 10.898 3.419 11.1559C3.67687 11.4137 4.0266 11.5586 4.39128 11.5586H8.05794C8.42262 11.5586 8.77235 11.4137 9.03022 11.1559C9.28808 10.898 9.43294 10.5483 9.43294 10.1836C10.0405 10.1829 10.623 9.94119 11.0526 9.51158C11.4822 9.08196 11.7239 8.49949 11.7246 7.89193V5.60026C11.7239 4.9927 11.4822 4.41023 11.0526 3.98061C10.623 3.551 10.0405 3.30932 9.43294 3.30859V3.30859ZM3.93294 2.39193C3.93294 2.14881 4.02952 1.91565 4.20143 1.74375C4.37334 1.57184 4.60649 1.47526 4.84961 1.47526H7.59961C7.84273 1.47526 8.07588 1.57184 8.24779 1.74375C8.4197 1.91565 8.51628 2.14881 8.51628 2.39193V3.30859H3.93294V2.39193ZM8.51628 10.1836C8.51628 10.3052 8.46799 10.4217 8.38203 10.5077C8.29608 10.5936 8.1795 10.6419 8.05794 10.6419H4.39128C4.26972 10.6419 4.15314 10.5936 4.06719 10.5077C3.98123 10.4217 3.93294 10.3052 3.93294 10.1836V8.35026C3.93294 8.2287 3.98123 8.11212 4.06719 8.02617C4.15314 7.94022 4.26972 7.89193 4.39128 7.89193H8.05794C8.1795 7.89193 8.29608 7.94022 8.38203 8.02617C8.46799 8.11212 8.51628 8.2287 8.51628 8.35026V10.1836ZM10.8079 7.89193C10.8079 8.2566 10.6631 8.60634 10.4052 8.8642C10.1474 9.12206 9.79762 9.26693 9.43294 9.26693V8.35026C9.43294 7.98559 9.28808 7.63585 9.03022 7.37799C8.77235 7.12013 8.42262 6.97526 8.05794 6.97526H4.39128C4.0266 6.97526 3.67687 7.12013 3.419 7.37799C3.16114 7.63585 3.01628 7.98559 3.01628 8.35026V9.26693C2.6516 9.26693 2.30187 9.12206 2.044 8.8642C1.78614 8.60634 1.64128 8.2566 1.64128 7.89193V5.60026C1.64128 5.23559 1.78614 4.88585 2.044 4.62799C2.30187 4.37013 2.6516 4.22526 3.01628 4.22526H9.43294C9.79762 4.22526 10.1474 4.37013 10.4052 4.62799C10.6631 4.88585 10.8079 5.23559 10.8079 5.60026V7.89193Z" fill="#374957"/>
</svg>
