<svg xmlns="http://www.w3.org/2000/svg" width="25.027" height="17.876" viewBox="0 0 25.027 17.876">
  <g id="ticket" transform="translate(-2.25 -6.75)">
    <path id="Path_41465" data-name="Path 41465" d="M26.383,13.9a.894.894,0,0,0,.894-.894V8.538A1.788,1.788,0,0,0,25.489,6.75H4.038A1.788,1.788,0,0,0,2.25,8.538v4.469a.894.894,0,0,0,.894.894,1.788,1.788,0,1,1,0,3.575.894.894,0,0,0-.894.894v4.469a1.788,1.788,0,0,0,1.788,1.788H25.489a1.788,1.788,0,0,0,1.788-1.788V18.37a.894.894,0,0,0-.894-.894,1.788,1.788,0,1,1,0-3.575Zm-.894,5.247v3.691H19.233V20.157H17.445v2.681H4.038V19.148a3.575,3.575,0,0,0,0-6.918V8.538H17.445v2.681h1.788V8.538h6.257v3.691a3.575,3.575,0,0,0,0,6.918Z" transform="translate(0)" fill="#fff"/>
    <path id="Path_41466" data-name="Path 41466" d="M21.375,14.625h1.788v5.363H21.375Z" transform="translate(-3.93 -1.618)" fill="#fff"/>
  </g>
</svg>
