<svg xmlns="http://www.w3.org/2000/svg" width="53.723" height="53.76" viewBox="0 0 53.723 53.76">
  <g id="Group_39" data-name="Group 39" transform="translate(-649.373 -522.867)">
    <path id="Path_22" data-name="Path 22" d="M1.343,2.779h17.3a.817.817,0,1,0,0-1.634H1.343a.817.817,0,0,0,0,1.634" transform="translate(661.866 529.568)" fill="#fff"/>
    <path id="Path_23" data-name="Path 23" d="M.888,2.188A.808.808,0,0,0,1.7,3h17.1a.8.8,0,1,0,0-1.609H1.7a.8.8,0,0,0-.817.792" transform="translate(670.464 535.53)" fill="#fff"/>
    <path id="Path_24" data-name="Path 24" d="M1.343,3H5.971a.8.8,0,0,0,.792-.817A.782.782,0,0,0,5.971,1.4H1.343a.8.8,0,0,0-.817.792A.824.824,0,0,0,1.343,3" transform="translate(661.866 535.53)" fill="#fff"/>
    <path id="Path_25" data-name="Path 25" d="M10.337,1.645H2a.867.867,0,0,0-.842.842A.846.846,0,0,0,2,3.3h8.341a.808.808,0,0,0,.817-.817.829.829,0,0,0-.817-.842" transform="translate(676.782 541.444)" fill="#fff"/>
    <path id="Path_26" data-name="Path 26" d="M1.343,3.28H12.555a.824.824,0,0,0,.817-.817.808.808,0,0,0-.817-.817H1.343a.808.808,0,0,0-.817.817.824.824,0,0,0,.817.817" transform="translate(661.866 541.468)" fill="#fff"/>
    <path id="Path_27" data-name="Path 27" d="M2.133,4.007h6.51a.824.824,0,0,0,.817-.817A.8.8,0,0,0,8.642,2.4H2.133a.8.8,0,0,0-.817.792.824.824,0,0,0,.817.817" transform="translate(680.63 559.329)" fill="#fff"/>
    <path id="Path_28" data-name="Path 28" d="M1.343,4.007h15.2a.824.824,0,0,0,.817-.817A.8.8,0,0,0,16.54,2.4H1.343a.8.8,0,0,0-.817.792.824.824,0,0,0,.817.817" transform="translate(661.866 559.329)" fill="#fff"/>
    <path id="Path_29" data-name="Path 29" d="M1.343,4.257H7.234a.782.782,0,0,0,.792-.792.788.788,0,0,0-.792-.817H1.343a.8.8,0,1,0,0,1.609" transform="translate(661.866 565.267)" fill="#fff"/>
    <path id="Path_30" data-name="Path 30" d="M11.88,2.648H1.732a.8.8,0,0,0-.792.817.767.767,0,0,0,.792.792H11.88a.788.788,0,0,0,.817-.792.824.824,0,0,0-.817-.817" transform="translate(671.699 565.267)" fill="#fff"/>
    <path id="Path_31" data-name="Path 31" d="M52.5,26.223a.845.845,0,0,0-.718-.446H46.409V9.491l-.025-.05-.025-.223-.025-.074L46.162,8.9,38.34,1.076,38.093.927l-.074-.05L37.8.828H8.118a.8.8,0,0,0-.792.817V27.337L.47,30.48a.85.85,0,0,0-.47.767.841.841,0,0,0,.47.743l6.856,3.143V53.771a.8.8,0,0,0,.792.817H45.592a.824.824,0,0,0,.817-.817V36.693H51.78a.8.8,0,0,0,.718-.446,10.865,10.865,0,0,0,0-10.024m-41.36,6.312a7.255,7.255,0,0,1-.124.718l-.1.347-.2.644-.124.347-.074.2L6.906,33.153a5.325,5.325,0,0,0,0-3.812l3.614-1.658.074.2.124.371a3.639,3.639,0,0,1,.2.619l.1.371a5.756,5.756,0,0,1,.124.693l.05.322a6.1,6.1,0,0,1,.074.965l-.025.025h.025a6.665,6.665,0,0,1-.074.99l-.05.3m1.683-2.1-.025-.347-.05-.347a4.726,4.726,0,0,0-.149-.817l-.074-.347c-.1-.347-.2-.668-.322-1.015l-.025-.124v-.025h34.85l.149.3.149.446.2.545.124.446.1.545.074.446.025.3ZM38.563,3.6,41.087,6.15l2.525,2.525H38.563ZM8.96,2.486H36.929v7a.824.824,0,0,0,.817.817h7.029v15.47H10.891l-.025.025-.248.05-.025.025-1.634.718ZM5.421,30.01a3.778,3.778,0,0,1,0,2.45L2.747,31.248ZM44.775,52.955H8.96V35.876l1.634.743.322.074h33.86Zm2-17.9h-34.6v-.025l.025-.1c.124-.347.223-.693.322-1.04l.074-.347a4.25,4.25,0,0,0,.149-.842l.05-.322.025-.322H47.845v.05l-.1.594-.074.4a6.032,6.032,0,0,1-.149.644l-.1.347c-.1.322-.248.644-.371.965Zm4.48,0H48.81v-.025l.025-.1a5.577,5.577,0,0,0,.322-1.04l.1-.347.149-.842.025-.322A8.332,8.332,0,0,0,49.5,31.3l.025-.05L49.5,31.2a8.146,8.146,0,0,0-.074-1.114l-.025-.347-.149-.817-.1-.347a5.349,5.349,0,0,0-.322-1.015l-.025-.124v-.025h2.45a8.99,8.99,0,0,1,0,7.648" transform="translate(649.373 522.039)" fill="#fff"/>
  </g>
</svg>
