<svg xmlns="http://www.w3.org/2000/svg" width="15.615" height="15.615" viewBox="0 0 15.615 15.615">
  <g id="link" transform="translate(-1.125 -1.13)">
    <path id="Path_41417" data-name="Path 41417" d="M21.242,2.42a4.418,4.418,0,0,0-6.24,0l-3.12,3.12.734.734,3.12-3.12a3.375,3.375,0,1,1,4.772,4.772l-3.121,3.12.734.734,3.12-3.12A4.417,4.417,0,0,0,21.242,2.42Z" transform="translate(-5.793 0)" fill="#c414e6"/>
    <path id="Path_41418" data-name="Path 41418" d="M7.924,20.722A3.374,3.374,0,1,1,3.152,15.95l2.937-2.937-.734-.734L2.417,15.216a4.413,4.413,0,1,0,6.241,6.241l2.937-2.937-.734-.734Z" transform="translate(0 -6.004)" fill="#c414e6"/>
    <path id="Path_41419" data-name="Path 41419" d="M9.1,16.836l7.342-7.342.734.734L9.831,17.57Z" transform="translate(-4.293 -4.504)" fill="#c414e6"/>
  </g>
</svg>
