<svg xmlns="http://www.w3.org/2000/svg" width="16.592" height="16.592" viewBox="0 0 16.592 16.592">
  <path id="checkbox" d="M17.414,3.375H5.928A2.555,2.555,0,0,0,3.375,5.928V17.414a2.555,2.555,0,0,0,2.553,2.553H17.414a2.555,2.555,0,0,0,2.553-2.553V5.928A2.555,2.555,0,0,0,17.414,3.375ZM15.988,8.891l-5.36,6.381a.638.638,0,0,1-.479.227h-.011a.638.638,0,0,1-.474-.212l-2.3-2.553a.638.638,0,1,1,.949-.854l1.806,2.007,4.89-5.819a.638.638,0,0,1,.977.821Z" transform="translate(-3.375 -3.375)" fill="#42a045"/>
</svg>
