<svg xmlns="http://www.w3.org/2000/svg" width="36.001" height="36" viewBox="0 0 36.001 36">
  <path id="phone" d="M36,28.432a8.439,8.439,0,0,1-.256,1.8,10.147,10.147,0,0,1-.537,1.751q-.537,1.278-3.119,2.71A9.913,9.913,0,0,1,27.332,36a10.2,10.2,0,0,1-1.355-.089,10.367,10.367,0,0,1-1.47-.32q-.805-.231-1.2-.371T21.886,34.7q-1.022-.384-1.253-.46a23.147,23.147,0,0,1-4.474-2.122,38.547,38.547,0,0,1-6.75-5.523,38.547,38.547,0,0,1-5.523-6.75,23.185,23.185,0,0,1-2.122-4.474q-.077-.23-.46-1.253T.78,12.695q-.141-.4-.371-1.2a10.6,10.6,0,0,1-.32-1.47A9.97,9.97,0,0,1,0,8.668,9.916,9.916,0,0,1,1.3,3.912Q2.736,1.33,4.014.793A10.184,10.184,0,0,1,5.765.256,8.428,8.428,0,0,1,7.568,0,1.427,1.427,0,0,1,8.1.077Q8.565.23,9.46,2.02q.281.486.767,1.381t.9,1.624q.409.729.793,1.368.077.1.447.639a7.28,7.28,0,0,1,.55.908,1.651,1.651,0,0,1,.179.729,2.122,2.122,0,0,1-.729,1.278,12.49,12.49,0,0,1-1.585,1.406,15.429,15.429,0,0,0-1.585,1.355,1.948,1.948,0,0,0-.729,1.176,1.724,1.724,0,0,0,.128.575q.128.345.217.524t.358.614q.269.435.294.486a26.833,26.833,0,0,0,4.449,6.009,26.833,26.833,0,0,0,6.009,4.449q.051.026.486.294t.614.358a5.368,5.368,0,0,0,.524.217,1.758,1.758,0,0,0,.575.128,1.948,1.948,0,0,0,1.176-.729,15.429,15.429,0,0,0,1.355-1.585,12.49,12.49,0,0,1,1.406-1.585,2.122,2.122,0,0,1,1.278-.729,1.669,1.669,0,0,1,.729.179,7.121,7.121,0,0,1,.908.55q.537.371.639.447.639.384,1.368.793t1.624.9q.9.486,1.381.767,1.79.895,1.943,1.355a1.427,1.427,0,0,1,.077.537Z" transform="translate(0)" fill="#42a045"/>
</svg>
