<svg id="Layer_1" data-name="Layer 1" xmlns="http://www.w3.org/2000/svg" width="48.486" height="44.064" viewBox="0 0 500 500"><defs><style>.cls-1{fill:#fff;}</style></defs><path class="cls-1" d="M439.26,187.94a7.59,7.59,0,0,0-7.44-6.08H331c12.57-27.19,21.57-55.07,21.57-79.13A102.76,102.76,0,0,0,249.94,0C193.39,0,147.41,46.07,147.41,102.73c0,24.06,9,51.94,21.58,79.13H68.26a7.63,7.63,0,0,0-7.53,6.08L.13,491a7.49,7.49,0,0,0,1.59,6.08A7.63,7.63,0,0,0,7.57,500H492.42a7.64,7.64,0,0,0,5.85-2.92,7.08,7.08,0,0,0,1.58-6.08ZM53.2,303.06H186.53c4.95,21.8,31,37.78,63.41,37.78s58.57-16,63.52-37.78H351l10.45,98.47H33.54Zm190.89-2.93a7.42,7.42,0,0,0,11.81,0c1.13-1.36,10.11-12.36,22.15-29.44,12.59,5.61,21.13,14.59,21.13,24.72,0,16.42-22.49,30.35-49.24,30.35s-49.25-13.93-49.25-30.35c0-10.13,8.66-19.11,21.36-24.52C234.1,287.77,243,298.77,244.09,300.13Zm119,116.48,7.21,68.12H129.64l7.21-68.12Zm3.16-113.55h80.49L459.38,366H372.93Zm77.45-15.29H364.62L355,196.94h70.7Zm-104-90.83,9.67,90.83h-36c-2.81-12.36-12.71-22.93-26.64-29.68a593.82,593.82,0,0,0,36.63-61.15ZM249.94,15.27a87.48,87.48,0,0,1,87.46,87.46c0,61.38-66.88,153.57-87.46,180.32-20.47-26.75-87.35-118.94-87.35-180.32A87.45,87.45,0,0,1,249.94,15.27ZM213.17,258.09c-13.93,6.75-23.72,17.32-26.64,29.68h-36l9.67-90.83h16.3A597.41,597.41,0,0,0,213.17,258.09ZM74.45,196.94H145l-9.55,90.83H56.24ZM30.5,416.61h91.17l-7.2,68.12H16.78Zm355,68.12L374.61,381.29h87.81l20.67,103.44Z"/><path class="cls-1" d="M303.79,103.4a53.8,53.8,0,1,0-53.85,54A54,54,0,0,0,303.79,103.4Zm-53.85,38.91a38.68,38.68,0,1,1,38.68-38.91A39,39,0,0,1,249.94,142.31Z"/></svg>