<svg xmlns="http://www.w3.org/2000/svg" width="16.374" height="16.374" viewBox="0 0 16.374 16.374">
  <path id="bxs-contact" d="M18.556,3H6.275A1.637,1.637,0,0,0,4.637,4.637V7.094H3V8.731H4.637v1.637H3v1.637H4.637v1.637H3v1.637H4.637v2.456a1.637,1.637,0,0,0,1.637,1.637H18.556a.819.819,0,0,0,.819-.819V3.819A.819.819,0,0,0,18.556,3Zm-6.55,2.455A2.457,2.457,0,1,1,9.55,7.911,2.465,2.465,0,0,1,12.006,5.455ZM16.918,16.1H7.094v-.614c0-1.817,2.215-3.684,4.912-3.684s4.912,1.867,4.912,3.684Z" transform="translate(-3 -3)" fill="#1c74fa"/>
</svg>
