<svg xmlns="http://www.w3.org/2000/svg" width="52.154" height="51.265" viewBox="0 0 52.154 51.265">
  <g id="Group_37" data-name="Group 37" transform="translate(-311.465 -513.293)">
    <path id="Path_7" data-name="Path 7" d="M48.19,5.551H46.6V1.636a.759.759,0,0,0-.769-.769c-12.972,0-18.161,3.1-19.771,4.4-1.61-1.3-6.8-4.4-19.771-4.4a.779.779,0,0,0-.793.769V5.551H3.94A3.947,3.947,0,0,0,0,9.515V41.586A3.932,3.932,0,0,0,3.94,45.55H18.954v5H13.549a.793.793,0,1,0,0,1.586H38.581a.793.793,0,1,0,0-1.586H33.176v-5H48.19a3.952,3.952,0,0,0,3.964-3.964V9.515A3.968,3.968,0,0,0,48.19,5.551m0,1.586a2.368,2.368,0,0,1,2.378,2.378V39.208H28.515c2.4-1.3,7.5-3.123,17.321-3.123a.765.765,0,0,0,.769-.793V7.137ZM26.065,10.764A11.063,11.063,0,1,1,15.014,21.791,11.047,11.047,0,0,1,26.065,10.764M45.043,2.428V34.5c-10.786.12-15.975,2.4-18.185,3.844V34.4a12.624,12.624,0,0,0,0-25.2V6.681c.913-.817,5.357-4.108,18.185-4.252m-37.956,0c12.852.144,17.3,3.459,18.185,4.252V9.2a12.624,12.624,0,0,0,0,25.2v3.94c-2.21-1.441-7.4-3.724-18.185-3.844ZM1.561,9.515A2.368,2.368,0,0,1,3.94,7.137H5.5V35.292a.784.784,0,0,0,.793.793c9.825,0,14.918,1.826,17.321,3.123H1.561ZM31.59,50.547H20.54v-5H31.59Zm18.978-8.961a2.389,2.389,0,0,1-2.378,2.4H3.94a2.389,2.389,0,0,1-2.378-2.4v-.793H50.568Z" transform="translate(311.465 512.426)" fill="#fff"/>
    <path id="Path_8" data-name="Path 8" d="M1.37,15.729l.336.072a.734.734,0,0,0,.48-.168l8.6-6.366a.746.746,0,0,0,.312-.649.7.7,0,0,0-.312-.625L2.187,1.6a.728.728,0,0,0-.817-.072.734.734,0,0,0-.432.7v12.8a.758.758,0,0,0,.432.7M2.5,3.814l6.486,4.8L2.5,13.447Z" transform="translate(333.061 525.599)" fill="#fff"/>
  </g>
</svg>
