 <svg width="7" height="7" viewBox="0 0 7 7" fill="none"
                            xmlns="http://www.w3.org/2000/svg">
                            <path
                                d="M6.97917 3.55828C6.97694 3.31715 6.87978 3.08661 6.70875 2.91661L4.7425 0.94578C4.65663 0.860415 4.54046 0.8125 4.41938 0.8125C4.29829 0.8125 4.18212 0.860415 4.09625 0.94578C4.05329 0.988388 4.01919 1.03908 3.99592 1.09493C3.97266 1.15078 3.96068 1.21069 3.96068 1.2712C3.96068 1.3317 3.97266 1.39161 3.99592 1.44746C4.01919 1.50331 4.05329 1.554 4.09625 1.59661L5.60417 3.09994H1.02083C0.899276 3.09994 0.782697 3.14823 0.696743 3.23419C0.610789 3.32014 0.5625 3.43672 0.5625 3.55828C0.5625 3.67983 0.610789 3.79641 0.696743 3.88237C0.782697 3.96832 0.899276 4.01661 1.02083 4.01661H5.60417L4.09625 5.52453C4.00994 5.61022 3.96122 5.7267 3.96079 5.84832C3.96036 5.96995 4.00826 6.08676 4.09396 6.17307C4.17966 6.25937 4.29613 6.3081 4.41775 6.30853C4.53938 6.30896 4.65619 6.26105 4.7425 6.17536L6.70875 4.20453C6.88089 4.03341 6.97814 3.801 6.97917 3.55828V3.55828Z"
                                fill="white" />
                        </svg>