<svg xmlns="http://www.w3.org/2000/svg" width="27.313" height="26.847" viewBox="0 0 27.313 26.847">
  <g id="Group_37" data-name="Group 37" transform="translate(-311.465 -513.293)">
    <path id="Path_7" data-name="Path 7" d="M25.237,3.32h-.83V1.27a.4.4,0,0,0-.4-.4c-6.794,0-9.511,1.623-10.354,2.3C12.807,2.49,10.09.867,3.3.867a.408.408,0,0,0-.415.4V3.32H2.063A2.067,2.067,0,0,0,0,5.4v16.8a2.059,2.059,0,0,0,2.063,2.076H9.926v2.617H7.1a.415.415,0,1,0,0,.83H20.2a.415.415,0,1,0,0-.83H17.374V24.267h7.863a2.07,2.07,0,0,0,2.076-2.076V5.4A2.078,2.078,0,0,0,25.237,3.32m0,.83A1.24,1.24,0,0,1,26.482,5.4v15.55H14.933c1.258-.679,3.925-1.635,9.071-1.635a.4.4,0,0,0,.4-.415V4.151ZM13.65,6.05a5.793,5.793,0,1,1-5.787,5.775A5.785,5.785,0,0,1,13.65,6.05m9.939-4.366v16.8c-5.649.063-8.366,1.258-9.524,2.013V18.43a6.611,6.611,0,0,0,0-13.2V3.912c.478-.428,2.805-2.151,9.524-2.227m-19.878,0c6.731.075,9.058,1.812,9.524,2.227V5.233a6.611,6.611,0,0,0,0,13.2v2.063c-1.157-.755-3.875-1.95-9.524-2.013ZM.818,5.4A1.24,1.24,0,0,1,2.063,4.151h.818V18.9a.411.411,0,0,0,.415.415c5.146,0,7.813.956,9.071,1.635H.818ZM16.544,26.884H10.757V24.267h5.787Zm9.939-4.693a1.251,1.251,0,0,1-1.245,1.258H2.063A1.251,1.251,0,0,1,.818,22.191v-.415H26.482Z" transform="translate(311.465 512.426)" fill="#42a045"/>
    <path id="Path_8" data-name="Path 8" d="M1.164,8.923l.176.038a.385.385,0,0,0,.252-.088L6.1,5.539A.391.391,0,0,0,6.26,5.2.369.369,0,0,0,6.1,4.872l-4.5-3.346a.381.381,0,0,0-.428-.038.385.385,0,0,0-.226.365V8.558a.4.4,0,0,0,.226.365m.591-6.24L5.153,5.2l-3.4,2.529Z" transform="translate(322.328 519.052)" fill="#42a045"/>
  </g>
</svg>
