<svg width="18" height="20" viewBox="0 0 18 20" fill="none"
                                                                xmlns="http://www.w3.org/2000/svg">
                                                                <path fill-rule="evenodd" clip-rule="evenodd"
                                                                    d="M6.5599 0.390625C6.3389 0.390672 6.12697 0.4785 5.97073 0.63479L0.970729 5.63476C0.814438 5.791 0.72661 6.00293 0.726562 6.22392V16.2239C0.726563 16.8869 0.989955 17.5228 1.4588 17.9916C1.92764 18.4604 2.56352 18.7238 3.22656 18.7238H4.0599C4.28091 18.7238 4.49287 18.636 4.64915 18.4798C4.80543 18.3235 4.89323 18.1115 4.89323 17.8905C4.89323 17.6695 4.80543 17.4575 4.64915 17.3013C4.49287 17.145 4.28091 17.0572 4.0599 17.0572H3.22656C3.00555 17.0572 2.79359 16.9694 2.63731 16.8131C2.48103 16.6568 2.39323 16.4449 2.39323 16.2239V7.05725H6.5599C6.78091 7.05725 6.99287 6.96945 7.14915 6.81317C7.30543 6.65689 7.39323 6.44493 7.39323 6.22392V2.05728H13.2266C13.4476 2.05728 13.6595 2.14508 13.8158 2.30136C13.9721 2.45764 14.0599 2.6696 14.0599 2.89061V8.7239C14.0599 8.94491 14.1477 9.15687 14.304 9.31315C14.4603 9.46943 14.6722 9.55723 14.8932 9.55723C15.1142 9.55723 15.3262 9.46943 15.4825 9.31315C15.6388 9.15687 15.7266 8.94491 15.7266 8.7239V2.89061C15.7266 2.22757 15.4632 1.59169 14.9943 1.12285C14.5255 0.654015 13.8896 0.390625 13.2266 0.390625H6.5599ZM5.72656 5.39059H3.57156L5.72656 3.23561V5.39059ZM6.81656 19.193C6.94823 19.3555 7.13906 19.488 7.38073 19.5372C7.60573 19.5838 7.80323 19.5413 7.9399 19.4913C8.19156 19.3997 8.3899 19.2272 8.51823 19.0997C8.72156 18.8997 8.9349 18.628 9.14573 18.3213C10.0707 18.0022 11.3691 17.7088 12.6324 17.5238C13.3349 17.4213 13.9907 17.3572 14.5424 17.3355C14.7607 17.5938 14.9599 17.8147 15.1257 17.9822C15.2291 18.0872 15.3441 18.1963 15.4574 18.2797C15.5074 18.3172 15.6032 18.3838 15.7257 18.4313C15.7899 18.4563 16.2091 18.6163 16.5949 18.3047C16.8232 18.1213 17.0332 17.9155 17.1799 17.6847C17.3274 17.4513 17.4666 17.0963 17.3507 16.693C17.2374 16.2972 16.9424 16.0764 16.7249 15.9614C16.5043 15.8521 16.2682 15.7773 16.0249 15.7397C15.7947 15.7013 15.5623 15.6776 15.3291 15.6689C14.7421 14.9325 14.1779 14.1783 13.6374 13.4072C13.1657 12.7414 12.7203 12.0572 12.3024 11.3564C12.3399 11.1956 12.3707 11.0422 12.3957 10.8956C12.4374 10.6456 12.4624 10.3939 12.4566 10.1581C12.4565 9.89844 12.4008 9.64186 12.2932 9.40556C12.2205 9.25029 12.1148 9.11271 11.9836 9.00234C11.8523 8.89197 11.6987 8.81147 11.5332 8.7664C11.1982 8.6764 10.8791 8.7439 10.6341 8.83474C10.2566 8.9739 10.0491 9.28473 9.9774 9.58723C9.93077 9.8122 9.93447 10.0447 9.98823 10.2681C10.0666 10.6331 10.2491 11.0539 10.4599 11.4647C10.4782 11.5014 10.4974 11.5389 10.5174 11.5756C10.3182 12.2297 10.0249 13.0005 9.67573 13.7989C9.1649 14.968 8.56406 16.1272 8.0474 16.9555C7.6949 17.103 7.36906 17.2722 7.1224 17.4672C6.95406 17.5997 6.72823 17.8147 6.6199 18.1297C6.4874 18.5163 6.58156 18.903 6.81656 19.193V19.193ZM8.12323 18.803L8.12823 18.7972C8.12673 18.7992 8.12505 18.8012 8.12323 18.803V18.803ZM12.3907 15.8747C11.7124 15.9747 11.0141 16.1047 10.3516 16.2564C10.6466 15.6839 10.9374 15.0739 11.2032 14.4664C11.3532 14.1222 11.4991 13.7722 11.6341 13.4264C11.8399 13.738 12.0549 14.0539 12.2732 14.3639C12.6039 14.8353 12.9429 15.3009 13.2899 15.7605C12.9924 15.7922 12.6899 15.8314 12.3907 15.8747V15.8747ZM11.6107 9.87723V9.87556V9.87723Z"
                                                                    fill="white" />
                                                            </svg>