<svg width="12" height="11"
                            viewBox="0 0 12 11" fill="none" xmlns="http://www.w3.org/2000/svg">
                            <path fill-rule="evenodd" clip-rule="evenodd"
                                d="M5.90777 0.872681C5.99301 0.791423 6.10626 0.746094 6.22402 0.746094C6.34179 0.746094 6.45503 0.791423 6.54027 0.872681L10.2069 4.36472L11.3528 5.45556C11.4409 5.53943 11.4921 5.65488 11.4951 5.77651C11.4981 5.89813 11.4527 6.01597 11.3688 6.1041C11.2849 6.19223 11.1695 6.24343 11.0479 6.24644C10.9262 6.24945 10.8084 6.20402 10.7203 6.12014L10.349 5.76585V9.22535C10.349 9.46846 10.2524 9.70162 10.0805 9.87353C9.90863 10.0454 9.67547 10.142 9.43236 10.142H3.01569C2.77257 10.142 2.53942 10.0454 2.36751 9.87353C2.1956 9.70162 2.09902 9.46846 2.09902 9.22535V5.76585L1.72777 6.11968C1.63976 6.20356 1.52204 6.24904 1.4005 6.24611C1.27896 6.24319 1.16356 6.19211 1.07969 6.1041C0.995814 6.01609 0.950335 5.89837 0.953258 5.77683C0.95618 5.65529 1.00726 5.53989 1.09527 5.45602L2.24111 4.36472L5.90777 0.872223V0.872681ZM3.01569 4.89318V9.22535H4.84902V6.93368C4.84902 6.56901 4.99389 6.21927 5.25175 5.96141C5.50961 5.70355 5.85935 5.55868 6.22402 5.55868C6.5887 5.55868 6.93843 5.70355 7.1963 5.96141C7.45416 6.21927 7.59902 6.56901 7.59902 6.93368V9.22535H9.43236V4.89318L6.22402 1.83701L3.01569 4.89272V4.89318ZM6.68236 9.22535V6.93368C6.68236 6.81212 6.63407 6.69555 6.54811 6.60959C6.46216 6.52364 6.34558 6.47535 6.22402 6.47535C6.10247 6.47535 5.98589 6.52364 5.89993 6.60959C5.81398 6.69555 5.76569 6.81212 5.76569 6.93368V9.22535H6.68236Z"
                                fill="#091E42" />
                        </svg>