<svg width="14" height="14" viewBox="0 0 14 14" fill="none" xmlns="http://www.w3.org/2000/svg">
<path d="M7.11426 13.9473C8.47652 13.9473 9.80818 13.5433 10.9409 12.7865C12.0735 12.0297 12.9563 10.9539 13.4777 9.69538C13.999 8.43682 14.1354 7.05193 13.8696 5.71585C13.6038 4.37977 12.9479 3.1525 11.9846 2.18924C11.0213 1.22598 9.79406 0.569986 8.45798 0.304223C7.1219 0.03846 5.73701 0.174859 4.47845 0.696173C3.21989 1.21749 2.14418 2.1003 1.38735 3.23297C0.630519 4.36565 0.226563 5.69732 0.226562 7.05957C0.228538 8.8857 0.954838 10.6365 2.2461 11.9277C3.53737 13.219 5.28813 13.9453 7.11426 13.9473ZM7.11426 3.04175C7.28454 3.04175 7.451 3.09225 7.59258 3.18685C7.73417 3.28145 7.84452 3.41592 7.90968 3.57324C7.97485 3.73056 7.9919 3.90367 7.95868 4.07068C7.92546 4.23769 7.84346 4.3911 7.72305 4.51151C7.60264 4.63191 7.44923 4.71391 7.28222 4.74713C7.11521 4.78035 6.9421 4.7633 6.78478 4.69814C6.62746 4.63297 6.493 4.52262 6.39839 4.38104C6.30379 4.23945 6.2533 4.073 6.2533 3.90271C6.2533 3.67437 6.344 3.45538 6.50547 3.29392C6.66693 3.13246 6.88592 3.04175 7.11426 3.04175ZM6.54028 5.91162H7.11426C7.41871 5.91162 7.7107 6.03257 7.92598 6.24785C8.14126 6.46313 8.26221 6.75512 8.26221 7.05957V10.5034C8.26221 10.6556 8.20173 10.8016 8.09409 10.9093C7.98645 11.0169 7.84046 11.0774 7.68823 11.0774C7.53601 11.0774 7.39001 11.0169 7.28237 10.9093C7.17473 10.8016 7.11426 10.6556 7.11426 10.5034V7.05957H6.54028C6.38806 7.05957 6.24206 6.9991 6.13442 6.89146C6.02678 6.78382 5.96631 6.63783 5.96631 6.4856C5.96631 6.33337 6.02678 6.18738 6.13442 6.07974C6.24206 5.9721 6.38806 5.91162 6.54028 5.91162Z" fill="#5D6B82"/>
</svg>

