<svg xmlns="http://www.w3.org/2000/svg" width="324.6" height="83" viewBox="0 0 324.6 83">
  <g id="Land_logo_1_" data-name="Land logo (1)" transform="translate(0 -0.1)">
    <g id="Group_19365" data-name="Group 19365">
      <g id="Group_19345" data-name="Group 19345">
        <path id="Path_41467" data-name="Path 41467" d="M119.9,27.8c0-1.6-.9-3.7-2.7-6.1-1.8-2.3-3-3.5-3.8-3.5a.548.548,0,0,0-.6.4,9.379,9.379,0,0,1-4.5,5,4.765,4.765,0,0,0,.6-1.8,4,4,0,0,0-1-2.6,3.947,3.947,0,0,0-2.5-1.2,5.493,5.493,0,0,0-3.9,1.1,4.678,4.678,0,0,0-1.5,3.7,5.338,5.338,0,0,0,1.1,3.6,7.218,7.218,0,0,0,6,2.5,10.619,10.619,0,0,0,2.9-.4,8.887,8.887,0,0,0,4.2-2.4c.5-.7.9-1.2,1.1-1.5.2,0,.5.7.8,2a4.262,4.262,0,0,1-.2,3c-1.5,3.2-3.8,4.9-6.7,4.9a10.6,10.6,0,0,1-7.4-2.9c-3.2-3-5.6-7.4-7.3-13l-3-.9c1.6,5.2,2.7,8.3,3.1,9.4,2.1,5.2,4.5,8.8,7.3,10.8a11.275,11.275,0,0,0,5.6,2.1l-.1,1.3h-1.1a5.374,5.374,0,0,0-5.4,3.4,4.333,4.333,0,0,0-.4,1.9,4.458,4.458,0,0,0,1.7,3.6,6.01,6.01,0,0,0,3.9,1.4,8.432,8.432,0,0,0,4.4-1.4l8,6.9a14.189,14.189,0,0,0,.3-2.1h-.2c.1-.1.1-.2.2-.3l-.4-1.9L110.3,46a11.949,11.949,0,0,1-3.1,1.4,9.908,9.908,0,0,1-1.8.2c-.9,0-1.4-.2-1.4-.7a2.981,2.981,0,0,1,.6-1.6,5.162,5.162,0,0,1,1.7-.9,5.365,5.365,0,0,1,1.9-.4,4.013,4.013,0,0,1,1.5.3c.7,0,1-.5,1-1.4a6.294,6.294,0,0,0-.9-3.3,8.211,8.211,0,0,0,4.7-1.5A11.825,11.825,0,0,0,119.9,27.8Z" fill="#633087"/>
        <path id="Path_41468" data-name="Path 41468" d="M132.3,12.6h-4.9l-.9-2a6.78,6.78,0,0,1,1.1-2.1,27,27,0,0,1,1.8-2.2,11.4,11.4,0,0,1,6.2-2.2,14.411,14.411,0,0,1,9.2,3.1l6.1,4.6-1.2-3.5a31.986,31.986,0,0,0-5.1-4.4C140.5,1.4,136.7.1,133.1.1a7.614,7.614,0,0,0-3.8.8,13.878,13.878,0,0,0-3.8,2.4,16.681,16.681,0,0,0-2.8,3.6,4.764,4.764,0,0,0-.6,2.6,2.743,2.743,0,0,0,.7,1.8,19.2,19.2,0,0,0,1.4,1.5H87.7l3.9,3.8h33V41.3l3.9,3.7V16.4h3.2l.5.9a6.656,6.656,0,0,0,1.7,1.7h-.1a13.026,13.026,0,0,0,2.9,1.2,18.093,18.093,0,0,1,3.4,1.2,5.991,5.991,0,0,1,2.6,4.4,5.9,5.9,0,0,0-1.4-.2,6.676,6.676,0,0,0-4.3,1.3,4.768,4.768,0,0,0-1.8,4c0,.2.1.6.2,1.2a7.384,7.384,0,0,1,.2,1.2,5.21,5.21,0,0,0,4.8,2.6,5.846,5.846,0,0,0,4.9-2.5,20.482,20.482,0,0,1,3.7,2.8q1.8,1.5,3,6.6l2.2,2.4V16.5h8l-3.9-3.9Zm18,20.8c-1.5-1.8-2.6-3.2-3.5-4.1a17.051,17.051,0,0,0-.8-5.1,10.7,10.7,0,0,0-2.5-4.3,48.482,48.482,0,0,0-3.8-3.3h10.6Z" fill="#633087"/>
        <path id="Path_41469" data-name="Path 41469" d="M303.6,35.8a2.9,2.9,0,0,0-2.3,1,3.255,3.255,0,0,0-1,2.3,3.946,3.946,0,0,0,1,2.5,3.631,3.631,0,0,0,2.6,1.1,3.255,3.255,0,0,0,2.3-1,3.38,3.38,0,0,0,0-4.8A3.41,3.41,0,0,0,303.6,35.8Z" fill="#633087"/>
        <path id="Path_41470" data-name="Path 41470" d="M319.2,12.6H261.7c-.3-.3-.4-.6-.6-.8a17.082,17.082,0,0,1-.8-2.9l-2.1-1.7q0,4.65.3,8.4a5.373,5.373,0,0,0-4-2.9l-.1-.1h-3.1a5.63,5.63,0,0,1-1.3-1.1,2.981,2.981,0,0,1-.6-1.6A4.22,4.22,0,0,0,248.1,8l-1.4-1.4q-.15,6.45,0,8.7c.1,1.4.3,2.6.4,3.7a13.814,13.814,0,0,0-3.7-5c-.3-.2-.9-.6-1.8-1.1a4.638,4.638,0,0,0-2.1-.4,8.381,8.381,0,0,0-7,3.2l-3.1-3.1H169l3.6,3.6.6,1.1a6.656,6.656,0,0,0,1.7,1.7h-.1a13.026,13.026,0,0,0,2.9,1.2,18.093,18.093,0,0,1,3.4,1.2,5.991,5.991,0,0,1,2.6,4.4,5.9,5.9,0,0,0-1.4-.2,6.676,6.676,0,0,0-4.3,1.3,4.768,4.768,0,0,0-1.8,4c0,.2.1.6.2,1.2a7.384,7.384,0,0,1,.2,1.2,5.21,5.21,0,0,0,4.8,2.6,5.846,5.846,0,0,0,4.9-2.5,20.482,20.482,0,0,1,3.7,2.8q1.8,1.5,3,6.6l2.2,2.4V16.5h8l-.1-.1h16.1a1.246,1.246,0,0,1,1.1.4,4.264,4.264,0,0,1,.8,2.1,3.266,3.266,0,0,1-2,3.4,18.9,18.9,0,0,0-3.9-3,8.43,8.43,0,0,0-4.7-1.5,4.951,4.951,0,0,0-5.3,4.1,4.3,4.3,0,0,0,.7,3.7,3.878,3.878,0,0,0,3.4,1.6,3.455,3.455,0,0,0,2.6-1.3A4.067,4.067,0,0,0,213,23a2.768,2.768,0,0,0-.3-1.3,23.8,23.8,0,0,1,2.3,1.4l.6.6c-.6.3-1,.6-1.4.8-1.3,1.5-2,2.4-2.3,2.8a7.108,7.108,0,0,0-1,3.5,8.918,8.918,0,0,0,.3,2.2,3.362,3.362,0,0,0,1.6,2,4.5,4.5,0,0,0,2.5.9,4.192,4.192,0,0,0,2.8-1,3.047,3.047,0,0,0,1.3-2.6,2.782,2.782,0,0,0-.8-2.1,2.518,2.518,0,0,0-2-.9H216a3.923,3.923,0,0,1,.8-1.4c.8-.7,1.5-1.2,1.9-1.5a3.259,3.259,0,0,1,1-.3c.2.1.5.1.7.2a1.759,1.759,0,0,0,.1.6,4.123,4.123,0,0,1,.4,1.5V38.5l-.4-.4a6.54,6.54,0,0,0-4.5-1.3h-1.6c-3.6.4-5.8.2-6.7-.4a4.276,4.276,0,0,1-1.6-3.8,12.808,12.808,0,0,1,.6-3.4L205.1,28c-.4-.2-.7-.1-1,.5a12.228,12.228,0,0,0-1.2,5.1,10.157,10.157,0,0,0,1.7,5.5,6.315,6.315,0,0,0,3.2,2.4,10.131,10.131,0,0,0,4.1.7c.5,0,1.5-.2,2.9-.4a12.291,12.291,0,0,1,2.9-.4,4.009,4.009,0,0,1,3.5,1.5,20.321,20.321,0,0,1,1.3,2.2l2,1.8V31.3a37.356,37.356,0,0,0-.2-5.3,4.608,4.608,0,0,0-.9-1.7c.1-.1.1-.1.1-.2a4.865,4.865,0,0,0,1.3-3.1,12.515,12.515,0,0,0-.8-3.1,9.749,9.749,0,0,0-.6-1.4h8.2a9.9,9.9,0,0,0-1.6,5.6,8.941,8.941,0,0,0,1.8,5.6,7.519,7.519,0,0,0,5.5,2.9,6.321,6.321,0,0,0,4-1,3.655,3.655,0,0,0,1.9-3.3,4.013,4.013,0,0,0-.3-1.5,3.627,3.627,0,0,0-3.5-2.5c-2.1,0-3.1.9-3.1,2.7v1.1c-.4-.2-.6-.6-.9-1.1a7.437,7.437,0,0,1-.6-2.8,4.9,4.9,0,0,1,1.3-3.2,3.938,3.938,0,0,1,3.3-1.6,5.9,5.9,0,0,1,4.3,2.1,8.075,8.075,0,0,1,2.3,5.8V40.6l4.1,4.1V16.3h2.3l.1.1h.9a4.573,4.573,0,0,1,3.9,2.3,4.764,4.764,0,0,1,.6,2.6V41.9l3.7,4V16.4h24.5V21a2.181,2.181,0,0,0-.4-.5l-.9-1.2a4.173,4.173,0,0,0-2.9-1.1,3.039,3.039,0,0,0-2,.8,8.631,8.631,0,0,0-1.6,1.8l-.4-.5a7.349,7.349,0,0,0-5.4-2.3,5.64,5.64,0,0,0-4.8,2.7,9.268,9.268,0,0,0-1.6,5.4,8.079,8.079,0,0,0,2.2,6,8.141,8.141,0,0,0,6,2.3,4.542,4.542,0,0,0,4.6-2.9c.3-.6.1-1.7-.4-3.2-.7-1.8-1.8-2.7-3.4-2.7a3.541,3.541,0,0,0-2.6,1,3.408,3.408,0,0,0-1.1,2.5,5.852,5.852,0,0,0,.2,1.3,2.878,2.878,0,0,1-1.9-3,3.8,3.8,0,0,1,1.3-3,4.471,4.471,0,0,1,3.1-1.2,4.665,4.665,0,0,1,3.5,1.4,7.369,7.369,0,0,1,1.5,1.9,2.309,2.309,0,0,1,0,2l2.7-1a6.171,6.171,0,0,1,0-3.4,1.441,1.441,0,0,1,1.3-.8,2.6,2.6,0,0,1,2,1,2.966,2.966,0,0,1,1,2V41.6l3.9,3.7V16.4h3.7a6.177,6.177,0,0,0,4.3,2.4,20.561,20.561,0,0,1,4.8,1.3c.1,0,.3.2.6.5-1.3,1.1-2.2,1.7-2.5,2-1.5,1.2-3.3,2.9-5.5,5l4.1,5.2a17.026,17.026,0,0,1,4.9.8,13.02,13.02,0,0,1,4.1,2.8,17.082,17.082,0,0,1,2.6,3.1q.45.75,1.8,3.6l2.1,2.3v-29h7.9ZM191.4,33.4c-1.5-1.8-2.6-3.2-3.5-4.1a17.051,17.051,0,0,0-.8-5.1,10.7,10.7,0,0,0-2.5-4.3,48.482,48.482,0,0,0-3.8-3.3h10.6Zm120,1.7a17.683,17.683,0,0,0-8.4-6.5,32.937,32.937,0,0,1,3.1-3.2,31.7,31.7,0,0,0,3.2-3.1c-2.4-2.8-3.8-4.4-4.1-4.7a14.309,14.309,0,0,0-1.5-1.1h7.7V35.1Z" fill="#633087"/>
      </g>
      <g id="Group_19346" data-name="Group 19346">
        <path id="Path_41471" data-name="Path 41471" d="M101.2,58.6H99.6a1.628,1.628,0,0,1-.6-.3,1.651,1.651,0,0,1-.2-1.3l-.8-.8c0,1.4,0,2.6.1,3.5.1,1.8.2,3,.3,3.8l-.6-1.8c-.6-1.9-2.2-2.9-4.7-2.9a4.228,4.228,0,0,0-2,.5,3.447,3.447,0,0,0-1.2,1.2,3.675,3.675,0,0,0-.5,1.6,1.715,1.715,0,0,0,1,1.6.6.6,0,0,0,.4.1,5.841,5.841,0,0,0,1.3-.5,2.426,2.426,0,0,1,1.2-.5c.4,0,.7.2.7.6A4.732,4.732,0,0,1,92.9,65l-1.5,1.5,1.5,1.6c1.7-1.8,2.4-3.2,2.3-4.1a2.21,2.21,0,0,0-2.5-2,3.918,3.918,0,0,0-1.3.2,2.788,2.788,0,0,1,2.8-1.9,2.66,2.66,0,0,1,1.6.6,4.906,4.906,0,0,1,1.4,1.7,4.834,4.834,0,0,1,.6,2.1l-.1,6.8L99.1,73V59.9h3.3Z" fill="#009046"/>
        <path id="Path_41472" data-name="Path 41472" d="M112.6,58.5h-1.5l-.5-.4A1.464,1.464,0,0,1,110,57a.914.914,0,0,0-.3-.5l-.4-.5a17.59,17.59,0,0,0,0,3.3c.1,1.4.3,2.5.4,3.3l-.8-1.7a4.244,4.244,0,0,0-1.5-1.9c-.1-.1-.4-.2-.8-.5a2.22,2.22,0,0,0-.9-.1,2.769,2.769,0,0,0-.9.1,3.316,3.316,0,0,0-2.1,1.3,4.646,4.646,0,0,0-.9,2.4,4.228,4.228,0,0,0,.7,2.7,3.232,3.232,0,0,0,2.4,1.3,2.934,2.934,0,0,0,1.6-.4,1.441,1.441,0,0,0,.8-1.3,1.268,1.268,0,0,0-.1-.6,1.5,1.5,0,0,0-1.4-1c-.8,0-1.2.3-1.2,1a1.952,1.952,0,0,0,.1.7c0,.1,0,.1-.1.1q-.6,0-.9-.9a2.622,2.622,0,0,1-.2-1.5,2.15,2.15,0,0,1,.6-1.3,2.248,2.248,0,0,1,2-.9,2.744,2.744,0,0,1,1.8,1,3.84,3.84,0,0,1,1.1,2.8v6.9l1.4,1.4V59.8h3.3Z" fill="#009046"/>
        <path id="Path_41473" data-name="Path 41473" d="M156.2,61.1a4.485,4.485,0,0,0-1.1-.1,2.724,2.724,0,0,0-2,.7,2.322,2.322,0,0,0-.9,1.9,1.268,1.268,0,0,0,.1.6,1.925,1.925,0,0,0,2.1,1.8,1.741,1.741,0,0,0,2-1.8,2.168,2.168,0,0,0-.5-1.4,2.485,2.485,0,0,1,.8-.1,1.763,1.763,0,0,1,1.5.9,3,3,0,0,1,.6,1.8,2.334,2.334,0,0,1-1,2,4.213,4.213,0,0,1-2.5,1.1,5.134,5.134,0,0,1-4.4-2.5,13.923,13.923,0,0,1-1.4-2.5c-.3-.7-.7-1.6-1.1-2.6l-.7-.3c.4,1.3,1,3,1.8,5A11.377,11.377,0,0,0,151,68a6.946,6.946,0,0,0,1.3,1.5,3.653,3.653,0,0,0,1.4.7,4.936,4.936,0,0,0,1.5.3,6.3,6.3,0,0,0,2.8-.8,3.946,3.946,0,0,0,2-3.5,4.529,4.529,0,0,0-.3-1.6C158.8,62.6,157.7,61.4,156.2,61.1Z" fill="#009046"/>
        <path id="Path_41474" data-name="Path 41474" d="M178,58.6l-.3-1.2a3.824,3.824,0,0,0-.9-1.8,5,5,0,0,0-1.3-1.5,8.588,8.588,0,0,0-2.1-1.3,11,11,0,0,0-3.2-.6,2.485,2.485,0,0,0-.8.1,9.6,9.6,0,0,0-2.5.7,6.782,6.782,0,0,0-.9.6,1.159,1.159,0,0,0-.4,1,1.8,1.8,0,0,0,.9,1.6,4.382,4.382,0,0,0,2,.7l2.1.1c1,.1,1.7.2,1.9.5a.758.758,0,0,1,.2.4,1.035,1.035,0,0,1-.5.7H144.6c-.2-.2-.3-.4-.4-.5a6.106,6.106,0,0,1-.3-1.3l-.5-.4a12.122,12.122,0,0,0,.1,2,28.41,28.41,0,0,0,.4,3.5,3.691,3.691,0,0,0-.6-1.5,2.338,2.338,0,0,0-1.9-1.7,6.667,6.667,0,0,0-2,0h-15l-.4-.3a1.88,1.88,0,0,1-.4-1,.1.1,0,0,0-.1-.1l-.7-.5.1,4,.4,3.4a8.326,8.326,0,0,0-.8-2,5.167,5.167,0,0,0-1.8-2.3,4.264,4.264,0,0,0-2.8-.9,5.219,5.219,0,0,0-4.6,2.9,1.854,1.854,0,0,0-.2.7.867.867,0,0,0,.4.7,1.08,1.08,0,0,0,.7.3,6.631,6.631,0,0,1,1.6-.4c.4,0,.7.3.8.9.1.5.1.9-.2,1.1l-1.1,1.1,1.8.7,4.2-4.3a2.012,2.012,0,0,1,.9,1.1c.1.3.3.7.5,1.3l-.1,4.9a8.509,8.509,0,0,0-1.3-1,7.533,7.533,0,0,0-2.9-.6l-1.9-.1c-.8-.1-1.4-.1-1.6-.3a2.418,2.418,0,0,1-1.6-2.3,1.268,1.268,0,0,1,.1-.6l-.7-.7c-.1-.1-.1.6-.1,2.1a4.834,4.834,0,0,0,.6,2.1,3.435,3.435,0,0,0,1.6,1.3,4.638,4.638,0,0,0,2.1.4c1.4-.1,2.4-.1,3-.1a3.767,3.767,0,0,1,2.8.9.1.1,0,0,0,.1.1v.3l.5.5c.1.2.2.3.3.5a6.046,6.046,0,0,0,.8,1.3,7.18,7.18,0,0,0-.2-1.7.1.1,0,0,0-.1-.1V59.9h7.2a4.515,4.515,0,0,1-.7.7,5.1,5.1,0,0,0-.9,1.4,3.219,3.219,0,0,0-.1,1.7,3.454,3.454,0,0,0,1.6,2.2,2.768,2.768,0,0,0,1.3.3,6.419,6.419,0,0,0,2-.5.367.367,0,0,1,.3-.1.51.51,0,0,1,.5.4,1.421,1.421,0,0,1,.2.6,1.56,1.56,0,0,1-1.1,1.3,4.777,4.777,0,0,1-1.8.4,2.822,2.822,0,0,1-1.5-.4,5.474,5.474,0,0,1-2.3-2.5,8.986,8.986,0,0,1-.8-4.2,3.217,3.217,0,0,0-.7-.4,16.814,16.814,0,0,0,.5,4.8,6.919,6.919,0,0,0,1.3,2.6,4.682,4.682,0,0,0,3.8,2.1,4.012,4.012,0,0,0,1.5-.3,3.6,3.6,0,0,0,1.8-2.2,4.193,4.193,0,0,0,.1-1.6,5.341,5.341,0,0,0-1-2c-.4-.5-.7-.7-.8-.7,0-.1-.1-.1-.2-.1a1.546,1.546,0,0,0-.6.3,5.537,5.537,0,0,1-2.1.8.8.8,0,0,1-.9-.9,3.76,3.76,0,0,1,.7-1.8c.5-.8.9-1.1,1.3-1.1h.1c.4.5.7.9.7.9a3.5,3.5,0,0,0,2.2,1.1,12.658,12.658,0,0,0,2.6.4,10.746,10.746,0,0,0-.8,3.7,10.322,10.322,0,0,0,.4,2.7,14.728,14.728,0,0,0,.6,2.3c0,.1.2.1.5.2a2.142,2.142,0,0,0,.6.1h.1a9.445,9.445,0,0,1-.9-3.6,8.635,8.635,0,0,1,.1-1.5,6.315,6.315,0,0,1,.8-2.6,14.171,14.171,0,0,1,1.1-1.6c-.7-.7-1.3-1.4-1.9-1.9a7.673,7.673,0,0,1-2.3.6,6.746,6.746,0,0,1-1.7-.3c-.8-.3-1.3-.6-1.3-1a.758.758,0,0,1,.2-.4,1.969,1.969,0,0,1,.8-.4h6.3a2.432,2.432,0,0,1,2,1.1,2.5,2.5,0,0,1,.4,1.3v9.4l1.2,1.3V59.9H170c.4,0,.6.1.7.3a2.967,2.967,0,0,1,.4,1.1,2.133,2.133,0,0,1-.3,1.2,2.178,2.178,0,0,1-.9.7h0a8.864,8.864,0,0,0-1.8-1.5,3.859,3.859,0,0,0-2-.6,2.08,2.08,0,0,0-2.2,1.7c-.1.6-.1,1,.2,1.3a1.9,1.9,0,0,0,1.5.8,1.217,1.217,0,0,0,1-.6,1.666,1.666,0,0,0,.4-1.1,1.222,1.222,0,0,0-.4-.9l.1-.1a3.1,3.1,0,0,1,1.7.9c.2.2.5.4.6.5-.4.2-.7.4-.9.5-.4.5-.7.9-.9,1.1a2.2,2.2,0,0,0-.5,1.6,2.768,2.768,0,0,0,.1.9,1.555,1.555,0,0,0,.6.8,2.6,2.6,0,0,0,1,.4,1.5,1.5,0,0,0,1.1-.4,1.231,1.231,0,0,0,.5-1,1.33,1.33,0,0,0-.3-.8.908.908,0,0,0-.7-.3,1.759,1.759,0,0,0-.6.1,2.2,2.2,0,0,1,.5-1.2c.4-.4.7-.6.9-.8a4.17,4.17,0,0,0,.6-.2h.2c.1,0,.2.1.4.5a4.5,4.5,0,0,1,.2.8V71q-.45-.6-.6-.6a2.546,2.546,0,0,0-1.9-.6H168a6.049,6.049,0,0,1-3.3-.2,2.209,2.209,0,0,1-.8-2,4.936,4.936,0,0,1,.3-1.5l-.6-.4-.3.6a7.422,7.422,0,0,0-.4,1.8,4.006,4.006,0,0,0,.8,2.3,3.161,3.161,0,0,0,1.4,1,5.547,5.547,0,0,0,1.7.3,10.5,10.5,0,0,0,1.3-.2,11.476,11.476,0,0,1,1.4-.2,2.2,2.2,0,0,1,1.8.8,6.417,6.417,0,0,1,.6,1l.5.4V66.8a11.084,11.084,0,0,0-.1-2.4,2.177,2.177,0,0,0-.5-.8,2.084,2.084,0,0,0,.7-1.5,6.632,6.632,0,0,0-.4-1.6c-.2-.5-.3-.8-.4-.8h4.8V71.3l1.2,1.3V59.9h3.5L180,58.7h-2ZM117.8,64c0-.1.1-.2.1-.3a2.16,2.16,0,0,0-.6-1.4,1.428,1.428,0,0,0-1.3-.5,2.815,2.815,0,0,1,2.8-1.6,1.609,1.609,0,0,1,1.1.3,5.986,5.986,0,0,1,.7.6Zm56-5.4h-.4c0-.2.1-.4.1-.6,0-1.4-1-2.3-2.9-2.5-.2,0-1.2-.1-3-.1q-1.2,0-1.2-.6c0-.1,0-.3.1-.3a5,5,0,0,1,3.3-.9,8.8,8.8,0,0,1,4.3,1,3.738,3.738,0,0,1,1.5,1.3,6.676,6.676,0,0,1,1.1,1.9l.2,1h-3.1Z" fill="#009046"/>
        <path id="Path_41475" data-name="Path 41475" d="M203.7,58.6h-1.9c-.2-.2-.3-.4-.4-.5a6.106,6.106,0,0,1-.3-1.3l-.5-.4a12.122,12.122,0,0,0,.1,2,28.41,28.41,0,0,0,.4,3.5,3.691,3.691,0,0,0-.6-1.5,2.338,2.338,0,0,0-1.9-1.7,6.667,6.667,0,0,0-2,0H186l1.2,1.3h8.1v.9a22.453,22.453,0,0,0-4.4,1.9,23.731,23.731,0,0,0-3.1,1.9l1.6,2.3a7.932,7.932,0,0,1,3.2,1,8.833,8.833,0,0,1,3.3,4l.6.9v-13h1.6a2.432,2.432,0,0,1,2,1.1,2.5,2.5,0,0,1,.4,1.3v9.4l1.2,1.3V59.9h3.1Zm-8.3,10.7a10.788,10.788,0,0,0-4.8-4.1,22.2,22.2,0,0,1,4.8-2.5Z" fill="#009046"/>
        <path id="Path_41476" data-name="Path 41476" d="M208.4,68.1c-1.3-1.2-2.2-2.1-2.8-2.6v2.8a42.893,42.893,0,0,1,5.4,4.2l1.5,1.5V72.9C210.4,70.4,209.1,68.8,208.4,68.1Z" fill="#009046"/>
        <path id="Path_41477" data-name="Path 41477" d="M207.6,65a2.22,2.22,0,0,0,.9-.1,3.139,3.139,0,0,0,1-.8,3.176,3.176,0,0,0,.8-2,3.439,3.439,0,0,0-.8-2.1,2.248,2.248,0,0,0-2-.9,2.452,2.452,0,0,0-1.6.6,2.779,2.779,0,0,0-1.1,2.2,2.878,2.878,0,0,0,.9,2.1A2.061,2.061,0,0,0,207.6,65Zm-1-3.7a2.754,2.754,0,0,1,1.5-.8c.6,0,.8.4.8,1a2.219,2.219,0,0,1-.1.9,2.939,2.939,0,0,1-.8.8,3.01,3.01,0,0,1-1.4.6c-.5,0-.7-.3-.7-.9A2.637,2.637,0,0,1,206.6,61.3Z" fill="#009046"/>
        <path id="Path_41478" data-name="Path 41478" d="M260.9,58.7a1.242,1.242,0,0,1-.8-.6,1.75,1.75,0,0,0-.1-.5,4.331,4.331,0,0,0-.1-.5,6.034,6.034,0,0,0-.8-.8l.1,2.3.4,4a12.3,12.3,0,0,0-.8-1.5c-.5-.7-.8-1.2-1-1.5q-1.05-1.2-1.5-1.2a3.536,3.536,0,0,1-.6.1,3.267,3.267,0,0,0-1.8,1.1,5.248,5.248,0,0,0-.7,1.1,2.389,2.389,0,0,0-.7-1.3l-.6-.6a2.456,2.456,0,0,0-1.5-.5H227.8c-.2-.2-.3-.4-.4-.5a6.106,6.106,0,0,1-.3-1.3l-.5-.4a12.122,12.122,0,0,0,.1,2,28.41,28.41,0,0,0,.4,3.5,3.691,3.691,0,0,0-.6-1.5,2.338,2.338,0,0,0-1.9-1.7H210.2l1.3,1.3h9.7v3.5a4.4,4.4,0,0,0-.6-1.2c-.1-.2-.3-.4-.4-.6A1.594,1.594,0,0,0,219,61a1.865,1.865,0,0,0-1,.5c-.4.4-.6.7-.6,1l-.4-.6a3.038,3.038,0,0,0-2.3-1,2.432,2.432,0,0,0-2,1.1,3.691,3.691,0,0,0-.7,2.3,3.4,3.4,0,0,0,.1,1,3.149,3.149,0,0,0,1.2,1.9,3.408,3.408,0,0,0,2.2.7,1.875,1.875,0,0,0,1.9-1.2,2.342,2.342,0,0,0-.2-1.3c-.3-.7-.7-1.1-1.3-1.1a1.367,1.367,0,0,0-1.4,1.4,1.433,1.433,0,0,0,.4,1,1.68,1.68,0,0,1-1.6-1.8,1.8,1.8,0,0,1,.7-1.5,2.452,2.452,0,0,1,1.6-.6,2.41,2.41,0,0,1,1.8.7,4.549,4.549,0,0,1,.7.9,1.546,1.546,0,0,1,.3.6l.5-.2-.1-.6a1.412,1.412,0,0,1,.1-.9.752.752,0,0,1,.7-.5,1.294,1.294,0,0,1,1.2.5,1.563,1.563,0,0,1,.6,1.2v7l1.3,1.2V59.9h1.7a2.432,2.432,0,0,1,2,1.1,2.5,2.5,0,0,1,.4,1.3v9.4L228,73V59.9h5.7a9.5,9.5,0,0,0-2.5,6.2,11.02,11.02,0,0,0,.2,1.8,6.013,6.013,0,0,0,2.1,3.6,2.883,2.883,0,0,0,1.9.6,2.452,2.452,0,0,0,1.6-.6,2.127,2.127,0,0,0,.7-1.5,1.6,1.6,0,0,0-.8-1.4.908.908,0,0,0-.7-.3,1.854,1.854,0,0,0-.7.2c-.6.4-.9.8-.8,1.4a1.1,1.1,0,0,0,.3.6c.2.3.3.4.4.4,0,.1-.1.1-.3.1a.749.749,0,0,1-.5-.1,4.033,4.033,0,0,1-1.9-2.7,11.279,11.279,0,0,1,.1-3.1A5.793,5.793,0,0,1,235,61a7.677,7.677,0,0,1,1.8-1,9.288,9.288,0,0,1,1.3-.4h.9V67l1.7,1.7a9.12,9.12,0,0,1,2.6-3.5,7.436,7.436,0,0,1,2.5-1.4,16.562,16.562,0,0,0-.4,3.3,14.723,14.723,0,0,0,.4,3.6l.3,1.5.8.4a22.955,22.955,0,0,1-.4-2.7,4.1,4.1,0,0,1-.1-1.1,13.02,13.02,0,0,1,1.7-5.9l-2.2-1.6a13.268,13.268,0,0,0-3.4,1.9,14.889,14.889,0,0,0-1.3,1.1,5.352,5.352,0,0,1-.9.7V59.7h8.9l.1.1h1.6a1.666,1.666,0,0,1,1.1.4,3.654,3.654,0,0,1,.7,1,1.689,1.689,0,0,0-.5.2c-.4.3-.6.4-.6.5a2.568,2.568,0,0,0-1,1.9.749.749,0,0,0,.1.5c.3.9.7,1.3,1.5,1.3a.6.6,0,0,0,.4-.1,2.505,2.505,0,0,0,1.6-1.4,2.1,2.1,0,0,0,1.9,1.3,1.449,1.449,0,0,0,1.5-.8,3.444,3.444,0,0,0,.1-.9,2.449,2.449,0,0,0-.8-1.6,10.918,10.918,0,0,1-1.1-.9.755.755,0,0,1,.4-.7,1.613,1.613,0,0,1,.9-.3c.5,0,1.1.4,1.6,1.3a4.01,4.01,0,0,1,.8,1.7l-.1,7.8,1.3,1.3V59.9h2.8l-1.2-1.2Z" fill="#009046"/>
        <path id="Path_41479" data-name="Path 41479" d="M287.1,69.2a1.33,1.33,0,0,0-.8-.3,1.05,1.05,0,0,0-.9.5,1.232,1.232,0,0,0-.2,1,1.374,1.374,0,0,0,.5.8,1.33,1.33,0,0,0,.8.3,1.25,1.25,0,0,0,1.2-1.6C287.5,69.7,287.3,69.4,287.1,69.2Z" fill="#009046"/>
        <path id="Path_41480" data-name="Path 41480" d="M323.4,58.6H310.6c-.2-.2-.3-.4-.4-.5a6.106,6.106,0,0,1-.3-1.3l-.5-.4a12.122,12.122,0,0,0,.1,2,28.413,28.413,0,0,0,.4,3.5,3.691,3.691,0,0,0-.6-1.5,2.338,2.338,0,0,0-1.9-1.7,5.4,5.4,0,0,0-1.8,0H268l1.1,1.1.4.2c.4.5.7.9,1.1.9a4.545,4.545,0,0,0,1.4.1,2.22,2.22,0,0,1,2.1,1.6,7.072,7.072,0,0,1,.2,1.2l-1.1,1.5c-.5.7-.9,1.1-1.2,1.1-.2,0-.3-.1-.5-.3a2.146,2.146,0,0,1-.4-.7,4.115,4.115,0,0,1-.3-.8l-.8.8c.3.5.4.8.5.9.6,1,1,1.5,1.4,1.6a1.6,1.6,0,0,0,1,.2h.4c.4-.1,1.2-1.1,2.6-3.2.4-.6.8-.9,1.3-.9a2.108,2.108,0,0,1,1.1.5,1.691,1.691,0,0,1,.7,1v5.8l1.2,1.4V59.9H290v.8a24.833,24.833,0,0,0-7.4,3.8l1.6,2.2a7.932,7.932,0,0,1,3.2,1,6.334,6.334,0,0,1,2.3,2.3l1.1,2.1.5.4V59.9h9.4v1A27.253,27.253,0,0,0,296,63a22.886,22.886,0,0,0-2.3,1.6l1.7,2.1a7.239,7.239,0,0,1,3.1,1.1,6.4,6.4,0,0,1,1.5,1.4,5.938,5.938,0,0,1,1.1,1.7l.4,1.1.4.4v-10a3.361,3.361,0,0,1,2.8,1.1,2.989,2.989,0,0,1,1,2.1v.2a2.15,2.15,0,0,0-1.3-.6,1.7,1.7,0,0,0-.7.1,1.574,1.574,0,0,0-.7,1.3,1.606,1.606,0,0,0,.5,1.1,1.5,1.5,0,0,0,1.1.4,1.9,1.9,0,0,0,1.5-.8,2.353,2.353,0,0,0,.5-1.6,4.484,4.484,0,0,0-.1-1.1,4.786,4.786,0,0,0-1.6-2.7,3.845,3.845,0,0,0-2.8-1.3.367.367,0,0,0-.3.1v-.9h5.3a2.432,2.432,0,0,1,2,1.1,2.5,2.5,0,0,1,.4,1.3v9.4l1.2,1.3v-13h9.7v.8a24.833,24.833,0,0,0-7.4,3.8l1.6,2.2a7.932,7.932,0,0,1,3.2,1,6.334,6.334,0,0,1,2.3,2.3l1.1,2.1.5.4V59.9h2.9Zm-44.5,5.7c-.7-.9-1.1-1.4-1.3-1.6a1.737,1.737,0,0,0-1.1-.6,1.626,1.626,0,0,0-.9.4,2.8,2.8,0,0,1-.8.5c0-.2.1-.3.1-.5a2.583,2.583,0,0,0-.9-2.1l-.7-.6H279v4.5Zm10.9,5.2a9.042,9.042,0,0,0-4.8-4.4,18.642,18.642,0,0,1,2.1-1.4,13.9,13.9,0,0,1,2.8-1.2v7Zm10.8-.4a9.476,9.476,0,0,0-4.5-4.1c1.1-.7,1.6-1.1,1.6-1.1a15.77,15.77,0,0,1,2.9-1.4Zm19.9.4a9.042,9.042,0,0,0-4.8-4.4,18.642,18.642,0,0,1,2.1-1.4,13.9,13.9,0,0,1,2.8-1.2v7Z" fill="#009046"/>
        <path id="Path_41481" data-name="Path 41481" d="M317.7,69.2a1.33,1.33,0,0,0-.8-.3,1.05,1.05,0,0,0-.9.5,1.232,1.232,0,0,0-.2,1,1.374,1.374,0,0,0,.5.8,1.33,1.33,0,0,0,.8.3,1.25,1.25,0,0,0,1.2-1.6C318.1,69.7,318,69.4,317.7,69.2Z" fill="#009046"/>
      </g>
      <g id="Group_19364" data-name="Group 19364">
        <g id="Group_19347" data-name="Group 19347">
          <circle id="Ellipse_16" data-name="Ellipse 16" cx="40.7" cy="40.7" r="40.7" transform="translate(0.7 0.8)" fill="#fff"/>
        </g>
        <g id="Group_19348" data-name="Group 19348">
          <path id="Path_41482" data-name="Path 41482" d="M41.4,83.1A41.4,41.4,0,1,1,82.8,41.7,41.419,41.419,0,0,1,41.4,83.1Zm0-81.4A40.1,40.1,0,1,0,81.5,41.8,40.16,40.16,0,0,0,41.4,1.7Z" fill="#009046"/>
        </g>
        <g id="Group_19349" data-name="Group 19349">
          <path id="Path_41483" data-name="Path 41483" d="M5.8,38.3a5.308,5.308,0,0,0-1.5,3.3c-.1,2.8,2,2.8,2,2.8l.7-.9s-1-1-.6-2c.4-.9,1.5.9,1.8,1.8L9,42.2c-.1,0-.5-1.9-1.7-2.3s-1.7,1.7-1.6,2.3c0,0-1-.7-.1-2.6.3-.6.6-1,1-1.1a25.122,25.122,0,0,1,2.7.4,17.379,17.379,0,0,1,1.1-1.5l-4.8-.5.3-1.6-.7-.1c-.1,1.1-.4,2.1-.4,3.1Z" fill="#009046"/>
        </g>
        <g id="Group_19350" data-name="Group 19350">
          <path id="Path_41484" data-name="Path 41484" d="M8.2,28.9a4.086,4.086,0,0,0-2.3,4.4c.4,2,2.3,1.4,3,.3s.4-2.8-.5-2.5c-1,.3-.9,1.6-.9,1.6s-.9.4-.6-1A3.191,3.191,0,0,1,9,29.3a25.571,25.571,0,0,1,2.4,1.1,10.145,10.145,0,0,1,1.4-1.2L8.4,27.5,9.1,26l-.6-.3a25.5,25.5,0,0,0-1.3,2.9C7.2,28.5,7.6,28.6,8.2,28.9Z" fill="#009046"/>
        </g>
        <g id="Group_19351" data-name="Group 19351">
          <path id="Path_41485" data-name="Path 41485" d="M46.8,6.1l-1-.1-.4,4.9a7.679,7.679,0,0,0-1.5-1.1,29.776,29.776,0,0,0,.5-3.9c-1.2,0-2.4-.2-3.5-.1.3.4.5,1.1-.6,2.1a3.506,3.506,0,0,1,1.4.6,1.756,1.756,0,0,1,.4.5v3.1a1.575,1.575,0,0,0-1.3-.4c-.7.1-1.2.8-2.3.4a2.378,2.378,0,0,1-1.6-1.7,2.175,2.175,0,0,0,1.8.9c1.1,0,.8-.8,2.3-.1V9.1s-.6-1.2-1.5-.3c0,0,.9.3.4.9a1.32,1.32,0,0,1-2.1-.2c-.3-.6.8-2.1,2.5-1.7a2.731,2.731,0,0,0-2.2-.7s.4.5-.3.9c-.8.6-2.3.2-2-.7.4-1.1,2.9-1.3,3.7-.6,0,0,.8-.6-.4-1.1A35.131,35.131,0,0,0,25.3,9.4l2.3,4.3a11.884,11.884,0,0,0-1.9,0,22.835,22.835,0,0,0-1.8-3.5c-1.6.9-3.1,2-4.6,3l-.3.4c1.8.4,3-1.6,3-1.6a8.469,8.469,0,0,1,1.7.4c-1.3,2.9,1,2.9,1,2.9l-.2.2c-1.8.5-2.7-2-2.6-2.1a7.562,7.562,0,0,1-3.3.9c-1,1.8-.4,2.5.3,2a1.45,1.45,0,0,0,.8-1.3c1.2-.6,2.2-.5,2.5.2S22,18,19.6,18.6a3.942,3.942,0,0,1-3.9-1.1c3.3,1.6,5.6-1.1,5.6-1.9-.1-.5-.9,0-.9,0-.1.8-1.9,2.3-2.9,1.4a1.682,1.682,0,0,1-.3-1.9c-1.2,1.1-2.3,2.3-3.3,3.4l3.8,2.9a18.321,18.321,0,0,0-1.7.7c-.7.4-.3,2.6-1.9,3.7a3.153,3.153,0,0,1-2.3.5,2.653,2.653,0,0,0,1.8-1.1c.6-.9.5-2.1,1.2-2.7a2.075,2.075,0,0,1,1-.6c-.6-.6-1.2-1.1-1.8-1.6a18.426,18.426,0,0,0-1,4l-1.3.7c.1-.5.2-1,.3-1.6a1.485,1.485,0,0,0-1.1,1.3c-.1.4-.7.9-1,.8s-1.3-1.6,0-3.5a4.652,4.652,0,0,1,3.3-2.1,5.671,5.671,0,0,0-.9-.6A36.9,36.9,0,0,1,42.4,5c-.3-1.1-2.2-.2-3.2-.8s.5-2.3,4-1.6c2.8.6,2.7,2.1,2.6,2.7l1,.1ZM11.9,23a10.1,10.1,0,0,1,.7-2.3,2.389,2.389,0,0,0-1.7,2.8A3.128,3.128,0,0,1,11.9,23ZM43.4,5.1l1,.1c.3-1.8-3.3-2.5-4-1.8-.9.9,1,.1,2.2.5C43.6,4.2,43.5,4.8,43.4,5.1Z" fill="#009046"/>
        </g>
        <g id="Group_19352" data-name="Group 19352">
          <path id="Path_41486" data-name="Path 41486" d="M29.5,8.5c-.5,1,.9,1.8,2,1.2,1.1-.7.6-1.4.6-1.4,2.2-.4,1.9,2.3-.7,2.7a6.131,6.131,0,0,1-4.8-1.4,5.153,5.153,0,0,0,6.9,1.9c1.3-.7,2.1-2.9.3-3.8C31.6,6.7,30,7.5,29.5,8.5Z" fill="#009046"/>
        </g>
        <g id="Group_19353" data-name="Group 19353">
          <path id="Path_41487" data-name="Path 41487" d="M58.7,10.1l-2.1,4.3a14.855,14.855,0,0,0-1.1-1.5,19.343,19.343,0,0,0,1.9-3.4l-1.2-.6L54.3,13a8.582,8.582,0,0,0-3.8-3.1V8.3a24.976,24.976,0,0,0,4.4,0,33.922,33.922,0,0,0-4.5-1.5l.2-.7a37.911,37.911,0,0,1,7.1,2.6l.7.3a11.251,11.251,0,0,1,2.1,1.2l-.4.6C59.6,10.6,59.2,10.3,58.7,10.1Zm-4.3-.8a12.269,12.269,0,0,1-2.3.1,8.938,8.938,0,0,1,1.5,1.7Z" fill="#009046"/>
        </g>
        <g id="Group_19354" data-name="Group 19354">
          <path id="Path_41488" data-name="Path 41488" d="M77.9,46c.1-1.1.1-2.1.2-3.1h-1a3.6,3.6,0,0,0,1.1-2.1,3.587,3.587,0,0,0-.9-1.9,2.815,2.815,0,0,0,.4-2h0a37.287,37.287,0,0,0-4.5-13.4c-.5-.9-1.1-1.8-1.7-2.7l-.4-.5a15.666,15.666,0,0,0-2-2.5,34.062,34.062,0,0,0-4.7-4.6l-.4.5a32.616,32.616,0,0,1,4.6,4.5c-.2.2-.5.4-.8.7a1.617,1.617,0,0,0-1.4-1.6,3.25,3.25,0,0,0-1.3-1.8c-.9-.8-2.7-.8-2.9.7a2.755,2.755,0,0,0,2.2,3c.7,0,1.1-.9.3-1.8-.9-.9-1.6-.2-1.6-.2-.7-.6.1-1.8,1.4-.9a2.881,2.881,0,0,1,1.3,2.2.841.841,0,0,1,1.1.4c.1.2.2.5.3.7a9.062,9.062,0,0,1-1.6,1.1,12.749,12.749,0,0,1,.4,1.8l3.6-3.1.9,1.3.4.5a18.117,18.117,0,0,1-3.3,2s.2,1.4.2,1.8l4-2.7.8,1.4.6,1.1a3.357,3.357,0,0,0-2.6-.1c-1.7.7-1.1,2.6-1,3.1.3.7,1.1,1.6,1.6.9.6-.7-.4-2-1-2,0,0-.3-1.3,1.6-1a4.944,4.944,0,0,1,2.5,1.6c.2.5.4.9.6,1.4l-2.7,1L72.1,31a4.628,4.628,0,0,1,1.8,1.3s-1.8.4-2,1.9l.1.3s1.3-1.8,3.1,0l.8-1.3s-1.2-2.2-2.1-2.6l1.5-.5a31,31,0,0,1,1.5,6h0c.2,2.3-.6,2-.6,2,.1-.5-.2-2-1.1-2-.8,0-.8,1.3-.6,1.8a4.129,4.129,0,0,0,.7,1.1,2.95,2.95,0,0,0-.5,1.7c0,.1.2,1.1.8,1,.9,0,.8-1.8.8-1.8s.7-.3.6,1a2.693,2.693,0,0,1-1,1.8,11.529,11.529,0,0,1-2.6-.3,12.121,12.121,0,0,1-1,1.6l4.8.2a8.6,8.6,0,0,1-.1,1.6Z" fill="#009046"/>
        </g>
        <g id="Group_19355" data-name="Group 19355">
          <path id="Path_41489" data-name="Path 41489" d="M59.7,12.7l-1.1.4a8.177,8.177,0,0,1,2,3.7l.3-.1C61.2,15.5,59.7,12.7,59.7,12.7Z" fill="#009046"/>
        </g>
        <g id="Group_19356" data-name="Group 19356">
          <path id="Path_41490" data-name="Path 41490" d="M63.5,13.9c-.4.6-1.5.4-2.4-.2s-1.4-1.5-1-2.1,1.5-.6,2.5.1C63.5,12.3,63.9,13.4,63.5,13.9Zm-1.6-1.8c-1.2-.2-1.2.4-1.2.4-.1.2.4.7,1.6.9C63.4,13.6,63.1,12.4,61.9,12.1Z" fill="#009046"/>
        </g>
        <g id="Group_19357" data-name="Group 19357">
          <path id="Path_41491" data-name="Path 41491" d="M56.7,75c-.6.3-1,.8-.9,1.2.2.4.8.5,1.5.2s1-.9.9-1.2S57.3,74.7,56.7,75Z" fill="#009046"/>
        </g>
        <g id="Group_19358" data-name="Group 19358">
          <path id="Path_41492" data-name="Path 41492" d="M35.4,77.9c-.7-.1-1.3.1-1.4.6-.1.4.4.9,1.1,1s1.3-.1,1.4-.6S36,78,35.4,77.9Z" fill="#009046"/>
        </g>
        <g id="Group_19359" data-name="Group 19359">
          <path id="Path_41493" data-name="Path 41493" d="M59.2,68.5l.1.8a14.8,14.8,0,0,1-1.3.8l2.3,4a19.843,19.843,0,0,0-5.5.9l-.9-1.2a7.594,7.594,0,0,0,3-3c-1.1.6-2.3,1.1-3.4,1.6l-.5.1-1,.3,1.7,4.4c-.5-.1-2.1-.3-2.1-.3a23.392,23.392,0,0,0-.9-3.8,23.553,23.553,0,0,1-4.6,1v.1c.7,0,2.9-.2,3.9.8,1,1.1-.3,1.9-1,2.1-.6.2-2,0-1.6-.9a1.625,1.625,0,0,1,1.6-.9c0-.1-.6-.8-2.7-.1l.5,3.4a22.313,22.313,0,0,0-5.4-1.2L41,76a9.787,9.787,0,0,0,3.9-1.6c-1.4.1-2.7.2-4.1.2h-.1l-1.3-.1L38.9,79a24.992,24.992,0,0,0-5-2.3l-.1-1.6a9.352,9.352,0,0,0,4.1-.7c-1.2-.2-2.4-.3-3.6-.6h-.1l-.4-.1-1-.3L31.7,78c-.4-.4-1.6-1.4-1.6-1.4a11.919,11.919,0,0,0,.8-2,1.274,1.274,0,0,0-1.1-.5c-.8.1-2.3,1.3-3.4.5a3.327,3.327,0,0,1-1.1-2.1,2.223,2.223,0,0,0,2.2,1.1c.3-.1.7-.3,1.2-.5a4.375,4.375,0,0,0-2.3-1.6v-.6l-.9-.5.3-.6a38.7,38.7,0,0,0,5.9,2.5l2.2.6.4.1.2.1a30.816,30.816,0,0,0,6.1.7h.5a38.166,38.166,0,0,0,9.5-1.3l.9-.3,1.3-.4.4-.1A34.56,34.56,0,0,0,59.2,68.5ZM31.5,73.1,28.6,72a3.881,3.881,0,0,1,.6,1.1,1.389,1.389,0,0,1,1.1.2,3.915,3.915,0,0,1,.8,1A8.339,8.339,0,0,1,31.5,73.1Zm6.3,2.4a14.179,14.179,0,0,1-2.2.6s1.6,1,2,1.3Zm7.2,0a7.737,7.737,0,0,1-2,1.1s1.8.7,2.2.9Zm12.4-3.8a7.858,7.858,0,0,1-1.5,1.8,18.751,18.751,0,0,1,2.4,0Z" fill="#009046"/>
        </g>
        <g id="Group_19360" data-name="Group 19360">
          <path id="Path_41494" data-name="Path 41494" d="M69.3,41.7A27.9,27.9,0,1,1,41.4,13.8,27.911,27.911,0,0,1,69.3,41.7Z" fill="#ec1c24"/>
          <path id="Path_41495" data-name="Path 41495" d="M41.4,69.7a28,28,0,1,1,28-28,28,28,0,0,1-28,28Zm0-55.8A27.85,27.85,0,1,0,69.3,41.7,27.911,27.911,0,0,0,41.4,13.9Z" fill="red"/>
        </g>
        <g id="Group_19361" data-name="Group 19361">
          <path id="Path_41496" data-name="Path 41496" d="M27.1,23.4s.1-1.1.9-1.4-.3-2,1.1-2.6,1.6,1.1,2.3,1.3c.7.1,2-.4,2,.7s1.7,2.2,2.7,2.2,1.9-.7,1.7,1.7.3,3.7,1.1,4c1.4.5,2.7,1.1,4,1.7,1.1.6,3.3-.4,4.5,0,1.1.4,1.3,1,2.7.9s3.2-.9,4.9,0,2.1,1.7,1.4,1.9-1,.2-1.4,1.5a4.511,4.511,0,0,1-2.6,3,2,2,0,0,1-2,1c-1.6,0-1.7.3-2.2.9a17.052,17.052,0,0,1-1.6,2.9c-.7.7.7,1,1,2.6s.9,1,1.1,2.2a1.238,1.238,0,0,0,2.2.6c.6-.9.3-1.7,1.1-2.7.9-1,.6-2,1.6-1.9s1.3.3,1,1.9a6.74,6.74,0,0,0,.9,4,8.926,8.926,0,0,1,.7,2.6c.1.9,1.4.6.4,2.9s.6,1.6-.3,3.7.1,2.6-.7,2.9-1.3-.4-1.6.3-.6,2.4-.9,2c-.5-.7-.4-.3-.4-2.4s-1.1-3.4-.9-5.9c.1-1.6-1.9-1.1-1.7-4S49,50.3,47.7,50s-2.3.3-3.5-.6c0,0,.4.4-.5.4,0,0-.5.4.2,1.9a2.042,2.042,0,0,1-.4,2.7c-.5.4-1.7-.1-2.6,1s-1.1.6-1.7,1.4c-.6.9-1.4,0-1.4-.4s-.9.4-1.1.9c-.3.4-1.4-.1-1.4-1s-.6.3-.9.9-.1.3-1.1-.3-1.4,1.6-2.2-.1.3-.7.1-3c-.1-2.3-.7-3.5-.3-5.2s-.2-.8.1-2.9a1.913,1.913,0,0,1-1.6-1.5c-.3-1.4-1.1-1.9-.9-3.3.3-1.4,1.7-.3,1.7-2.4s-.3-2-1-2-2.3-1.3-3-2.3-.3-2.4.4-2.4,1.3.1,2.6-1.3,1.6,0,2.6-.7-.1-2.2-.7-2.6-2.7-1.3-2.7-2.2C28.3,24,27,24.2,27.1,23.4Z" fill="#fff100"/>
        </g>
        <g id="Group_19362" data-name="Group 19362">
          <path id="Path_41497" data-name="Path 41497" d="M13.2,52.3l-2.5,2,1.1,3L9.1,55.5l-2.6,2,.9-3.1L4.7,52.6l3.2-.1.9-3.1,1.2,3Z" fill="#ec1c24"/>
        </g>
        <g id="Group_19363" data-name="Group 19363">
          <path id="Path_41498" data-name="Path 41498" d="M18.8,61.6l-1.7,2.8,2.2,2.4-3.2-.7-1.6,2.8-.3-3.2L11,65l3-1.3-.3-3.2,2.1,2.4Z" fill="#ec1c24"/>
        </g>
      </g>
    </g>
    <path id="Path_41499" data-name="Path 41499" d="M64.1,61.5l3,1.3,2.1-2.4-.3,3.2,3,1.3-3.1.7-.3,3.2L66.8,66l-3.2.7,2.2-2.4Z" fill="#ec1c24"/>
    <path id="Path_41500" data-name="Path 41500" d="M69.7,52.2l3.2.1,1.1-3,.9,3.1,3.2.1-2.7,1.8.9,3.1-2.5-2-2.7,1.8,1.1-3Z" fill="#ec1c24"/>
  </g>
</svg>
