<svg xmlns="http://www.w3.org/2000/svg" width="25.868" height="25.886" viewBox="0 0 25.868 25.886">
  <g id="Group_39" data-name="Group 39" transform="translate(-649.373 -522.867)">
    <path id="Path_22" data-name="Path 22" d="M.919,1.932H9.25a.393.393,0,1,0,0-.787H.919a.393.393,0,1,0,0,.787" transform="translate(655.116 525.5)"/>
    <path id="Path_23" data-name="Path 23" d="M.888,1.777a.389.389,0,0,0,.393.393H9.517a.387.387,0,1,0,0-.775H1.281a.387.387,0,0,0-.393.381" transform="translate(659.068 528.24)"/>
    <path id="Path_24" data-name="Path 24" d="M.919,2.171H3.148a.387.387,0,0,0,.381-.393A.376.376,0,0,0,3.148,1.4H.919a.387.387,0,0,0-.393.381.4.4,0,0,0,.393.393" transform="translate(655.116 528.24)"/>
    <path id="Path_25" data-name="Path 25" d="M5.576,1.645H1.559a.418.418,0,0,0-.405.405.407.407,0,0,0,.405.393H5.576a.389.389,0,0,0,.393-.393.4.4,0,0,0-.393-.405" transform="translate(661.972 530.959)"/>
    <path id="Path_26" data-name="Path 26" d="M.919,2.433h5.4a.4.4,0,0,0,.393-.393.389.389,0,0,0-.393-.393H.919a.389.389,0,0,0-.393.393.4.4,0,0,0,.393.393" transform="translate(655.116 530.97)"/>
    <path id="Path_27" data-name="Path 27" d="M1.709,3.173H4.844a.4.4,0,0,0,.393-.393A.387.387,0,0,0,4.844,2.4H1.709a.387.387,0,0,0-.393.381.4.4,0,0,0,.393.393" transform="translate(663.741 539.18)"/>
    <path id="Path_28" data-name="Path 28" d="M.919,3.173H8.237a.4.4,0,0,0,.393-.393A.387.387,0,0,0,8.237,2.4H.919a.387.387,0,0,0-.393.381.4.4,0,0,0,.393.393" transform="translate(655.116 539.18)"/>
    <path id="Path_29" data-name="Path 29" d="M.919,3.423H3.756a.387.387,0,0,0,0-.775H.919a.387.387,0,1,0,0,.775" transform="translate(655.116 541.91)"/>
    <path id="Path_30" data-name="Path 30" d="M6.208,2.648H1.321a.387.387,0,0,0-.381.393.369.369,0,0,0,.381.381H6.208A.379.379,0,0,0,6.6,3.041a.4.4,0,0,0-.393-.393" transform="translate(659.636 541.91)"/>
    <path id="Path_31" data-name="Path 31" d="M25.278,13.056a.407.407,0,0,0-.346-.215H22.346V5l-.012-.024-.012-.107-.012-.036-.083-.119L18.461.947,18.342.876,18.306.852,18.2.828H3.909a.387.387,0,0,0-.381.393V13.592l-3.3,1.514A.409.409,0,0,0,0,15.475a.4.4,0,0,0,.226.358l3.3,1.514v8.974a.387.387,0,0,0,.381.393H21.953a.4.4,0,0,0,.393-.393V18.1h2.586a.384.384,0,0,0,.346-.215,5.231,5.231,0,0,0,0-4.827M5.363,16.095a3.493,3.493,0,0,1-.06.346l-.048.167-.1.31-.06.167-.036.1-1.74-.787a2.564,2.564,0,0,0,0-1.835l1.74-.8.036.1.06.179a1.752,1.752,0,0,1,.1.3l.048.179a2.771,2.771,0,0,1,.06.334L5.387,15a2.939,2.939,0,0,1,.036.465l-.012.012h.012a3.209,3.209,0,0,1-.036.477l-.024.143m.81-1.013-.012-.167-.024-.167a2.276,2.276,0,0,0-.072-.393l-.036-.167c-.048-.167-.1-.322-.155-.489l-.012-.06v-.012H22.644l.072.143.072.215.1.262.06.215.048.262.036.215.012.143ZM18.568,2.163,19.784,3.39,21,4.606H18.568ZM4.314,1.627H17.782V5a.4.4,0,0,0,.393.393H21.56v7.449H5.244l-.012.012-.119.024-.012.012-.787.346ZM2.61,14.879a1.819,1.819,0,0,1,0,1.18l-1.287-.584ZM21.56,25.927H4.314V17.7l.787.358.155.036h16.3Zm.965-8.617H5.864V17.3l.012-.048c.06-.167.107-.334.155-.5l.036-.167a2.046,2.046,0,0,0,.072-.405l.024-.155.012-.155H23.037v.024l-.048.286-.036.191a2.9,2.9,0,0,1-.072.31l-.048.167c-.048.155-.119.31-.179.465Zm2.157,0H23.5V17.3l.012-.048a2.685,2.685,0,0,0,.155-.5l.048-.167.072-.405.012-.155a4.012,4.012,0,0,0,.036-.524l.012-.024-.012-.024a3.922,3.922,0,0,0-.036-.536l-.012-.167-.072-.393-.048-.167a2.576,2.576,0,0,0-.155-.489l-.012-.06v-.012h1.18a4.329,4.329,0,0,1,0,3.683" transform="translate(649.373 522.039)"/>
  </g>
</svg>
