<svg width="14" height="13" viewBox="0 0 14 13" fill="none" xmlns="http://www.w3.org/2000/svg">
<path d="M12.2194 1.77117C10.7068 0.258568 8.24177 0.258568 6.72917 1.77117L0.902836 7.54148C-0.217612 8.66193 -0.217612 10.5107 0.902836 11.6311C2.02328 12.7516 3.816 12.7516 4.93645 11.6311L9.64233 6.92523C10.3706 6.25296 10.4266 5.07649 9.75438 4.29218C9.08211 3.50787 7.90564 3.50787 7.12132 4.18014C7.0653 4.23616 7.0653 4.23616 7.00928 4.29218L4.09611 7.20535C3.87202 7.42944 3.87202 7.76557 4.09611 7.98966C4.3202 8.21375 4.65634 8.21375 4.88043 7.98966L7.79359 5.07649C8.0737 4.79638 8.52188 4.79638 8.802 5.07649C9.08211 5.35661 9.08211 5.80479 8.802 6.0849L4.09611 10.7908C3.42384 11.463 2.3034 11.463 1.63113 10.7908C0.958859 10.1185 0.958859 8.99806 1.63113 8.32579L7.51348 2.55549C8.57791 1.49106 10.3706 1.49106 11.435 2.55549C12.4995 3.61991 12.4995 5.41263 11.435 6.47705L7.0653 10.8468C6.84121 11.0709 6.84121 11.407 7.0653 11.6311C7.28939 11.8552 7.62553 11.8552 7.84962 11.6311L12.2194 7.26137C13.788 5.74876 13.788 3.28378 12.2194 1.77117Z" fill="#F0ECFD"/>
</svg>

