<svg xmlns="http://www.w3.org/2000/svg" width="18.744" height="21.42" viewBox="0 0 18.744 21.42">
  <path id="attachment" d="M14.384,6.842,13.025,5.484,6.231,12.278a2.882,2.882,0,1,0,4.077,4.075L18.461,8.2a4.8,4.8,0,1,0-6.795-6.793L3.106,9.966l-.019.017a6.7,6.7,0,0,0,9.476,9.475l.017-.019h0L18.426,13.6l-1.359-1.357-5.844,5.841-.017.017a4.778,4.778,0,1,1-6.739-6.774h0l8.562-8.559A2.882,2.882,0,0,1,17.1,6.84L8.95,14.992a.961.961,0,0,1-1.359-1.357L14.385,6.84Z" transform="translate(-1.124 -0.001)" fill="#42a045"/>
</svg>
