<svg xmlns="http://www.w3.org/2000/svg" width="23.157" height="21.052" viewBox="0 0 23.157 21.052">
  <g id="Group_19079" data-name="Group 19079" transform="translate(-4 -5)">
    <g id="list" transform="translate(4 5)">
      <path id="Path_41450" data-name="Path 41450" d="M21.5,5.105H4.658A1.053,1.053,0,0,0,3.605,6.158V20.894a1.053,1.053,0,0,0,1.053,1.053H21.5a1.053,1.053,0,0,0,1.053-1.053V6.158A1.053,1.053,0,0,0,21.5,5.105ZM4.658,3A3.158,3.158,0,0,0,1.5,6.158V20.894a3.158,3.158,0,0,0,3.158,3.158H21.5a3.158,3.158,0,0,0,3.158-3.158V6.158A3.158,3.158,0,0,0,21.5,3ZM6.763,8.263H8.868v2.105H6.763Zm5.263,0a1.053,1.053,0,1,0,0,2.105h6.316a1.053,1.053,0,1,0,0-2.105Zm-3.158,4.21H6.763v2.105H8.868Zm2.105,1.053a1.053,1.053,0,0,1,1.053-1.053h6.316a1.053,1.053,0,1,1,0,2.105H12.026A1.053,1.053,0,0,1,10.973,13.526ZM8.868,16.684H6.763v2.105H8.868Zm2.105,1.053a1.053,1.053,0,0,1,1.053-1.053h6.316a1.053,1.053,0,0,1,0,2.105H12.026A1.053,1.053,0,0,1,10.973,17.736Z" transform="translate(-1.5 -3)" fill="#fff" fill-rule="evenodd"/>
    </g>
  </g>
</svg>
