<svg xmlns="http://www.w3.org/2000/svg" width="24.178" height="24.178" viewBox="0 0 24.178 24.178">
  <g id="user-multiple" transform="translate(-2.25 -2.25)">
    <path id="Path_41451" data-name="Path 41451" d="M31.919,30.612H30.192V26.294a4.323,4.323,0,0,0-4.317-4.317V20.25a6.051,6.051,0,0,1,6.044,6.044Z" transform="translate(-5.492 -4.184)"/>
    <path id="Path_41452" data-name="Path 41452" d="M19.52,30.612H17.793V26.294a4.323,4.323,0,0,0-4.317-4.317H8.294a4.323,4.323,0,0,0-4.317,4.317v4.317H2.25V26.294A6.051,6.051,0,0,1,8.294,20.25h5.181a6.051,6.051,0,0,1,6.044,6.044Z" transform="translate(0 -4.184)"/>
    <path id="Path_41453" data-name="Path 41453" d="M22.5,2.25V3.977a4.317,4.317,0,1,1,0,8.635v1.727a6.044,6.044,0,0,0,0-12.089Z" transform="translate(-4.707)"/>
    <path id="Path_41454" data-name="Path 41454" d="M11.669,3.977A4.317,4.317,0,1,1,7.352,8.294a4.317,4.317,0,0,1,4.317-4.317m0-1.727a6.044,6.044,0,1,0,6.044,6.044A6.044,6.044,0,0,0,11.669,2.25Z" transform="translate(-0.785 0)"/>
  </g>
</svg>
