<svg xmlns="http://www.w3.org/2000/svg" xmlns:xlink="http://www.w3.org/1999/xlink" width="14.413" height="21.258" viewBox="0 0 14.413 21.258">
  <defs>
    <clipPath id="clip-path">
      <rect id="Rectangle_511" data-name="Rectangle 511" width="14.413" height="21.258"/>
    </clipPath>
  </defs>
  <g id="Group_19274" data-name="Group 19274" transform="translate(0 0)">
    <g id="Group_19274-2" data-name="Group 19274" transform="translate(0 0)" clip-path="url(#clip-path)">
      <path id="Path_41455" data-name="Path 41455" d="M14.413,12.419a9.53,9.53,0,0,1-3.7,7.393,6.612,6.612,0,0,1-2.1,1.4,9.655,9.655,0,0,1-2.367-.053,3.093,3.093,0,0,1-1.822-1.183,3.312,3.312,0,0,1-.984-2.1c-.027-.665-.04-3.085-.04-7.246H1.768L0,8.4H3.55q.04-.219,0-4.388c0-1.037-.439-1.569-1.29-1.569a1.044,1.044,0,0,0-.784.239C1.356,2.247,1.157,1.542.891.558A3.672,3.672,0,0,1,2.686,0,2.489,2.489,0,0,1,4.959,1.343,6.894,6.894,0,0,1,5.4,3.909c0,.917,0,1.835.013,2.726S5.425,8.124,5.4,8.4H6.409l1.755,2.22H5.4v6.249c0,1.29.6,1.928,1.808,1.928,1.5,0,2.686-1,3.577-2.992a6.265,6.265,0,0,0,.784-2.579,2.482,2.482,0,0,1-2.114-.6,2.9,2.9,0,0,1-.691-2.473c.146-1.822.944-2.726,2.407-2.726,2.154,0,3.244,1.662,3.244,4.986" transform="translate(0 0)"/>
    </g>
  </g>
</svg>
