<svg id="Component_18_69" data-name="Component 18 – 69" xmlns="http://www.w3.org/2000/svg" xmlns:xlink="http://www.w3.org/1999/xlink" width="15.45" height="15.45" viewBox="0 0 15.45 15.45">
  <defs>
    <clipPath id="clip-path">
      <rect id="Rectangle_558" data-name="Rectangle 558" width="15.45" height="15.45" fill="#fb753a"/>
    </clipPath>
  </defs>
  <g id="Group_19578" data-name="Group 19578" transform="translate(24 -100.539)">
    <g id="Group_19573" data-name="Group 19573" transform="translate(-24 100.539)">
      <g id="Group_19572" data-name="Group 19572" clip-path="url(#clip-path)">
        <g id="Group_19571" data-name="Group 19571" transform="translate(0 0)">
          <path id="Path_41639" data-name="Path 41639" d="M-7.868,110.492l-.7.7-2.308-2.308a1.978,1.978,0,0,0-1.365-.547,1.979,1.979,0,0,0-1.365.547l-.111.111a.658.658,0,0,1-.455.183.66.66,0,0,1-.455-.183l-3.266-3.27a.641.641,0,0,0-.209-.144.648.648,0,0,0-.248-.052.65.65,0,0,0-.25.048.65.65,0,0,0-.211.141.65.65,0,0,0-.141.211.65.65,0,0,0-.048.25.649.649,0,0,0,.052.248.651.651,0,0,0,.144.209l3.265,3.266a1.977,1.977,0,0,0,1.365.547,1.975,1.975,0,0,0,1.365-.547l.111-.111a.659.659,0,0,1,.455-.182.657.657,0,0,1,.455.182l2.308,2.312-.7.7a.64.64,0,0,0-.176.33.641.641,0,0,0,.037.372.638.638,0,0,0,.237.289.646.646,0,0,0,.357.108h1.987a.966.966,0,0,0,.683-.283.966.966,0,0,0,.283-.683v-1.991a.645.645,0,0,0-.11-.356.649.649,0,0,0-.289-.235.643.643,0,0,0-.371-.035A.648.648,0,0,0-7.868,110.492Z" transform="translate(22.219 -102.316)" fill="#fb753a"/>
          <path id="Path_41640" data-name="Path 41640" d="M-9.194,114.686H-20.781a1.929,1.929,0,0,1-1.365-.566,1.929,1.929,0,0,1-.566-1.365V101.183a.643.643,0,0,0-.189-.455.642.642,0,0,0-.455-.189.642.642,0,0,0-.455.189.643.643,0,0,0-.189.455v11.572a3.224,3.224,0,0,0,.944,2.275,3.222,3.222,0,0,0,2.275.944H-9.194a.642.642,0,0,0,.455-.189.642.642,0,0,0,.189-.455.643.643,0,0,0-.189-.455A.645.645,0,0,0-9.194,114.686Z" transform="translate(24 -100.539)" fill="#fb753a"/>
        </g>
      </g>
    </g>
  </g>
</svg>
