<svg id="arrow-circle-right-fill" xmlns="http://www.w3.org/2000/svg" width="30.266" height="30.266" viewBox="0 0 30.266 30.266">
  <path id="arrow-circle-right-fill-2" data-name="arrow-circle-right-fill" d="M3,18.133A15.133,15.133,0,1,0,18.133,3,15.133,15.133,0,0,0,3,18.133Zm17.948-5.584,4.328,4.54a.741.741,0,0,1,.151.227.817.817,0,0,1,.151.242,1.422,1.422,0,0,1,0,1.15,1.513,1.513,0,0,1-.318.5l-4.54,4.54A1.519,1.519,0,1,1,18.572,21.6l1.967-1.952H12.08a1.513,1.513,0,1,1,0-3.027h8.565l-1.892-1.982a1.515,1.515,0,1,1,2.194-2.088Z" transform="translate(-3 -3)" fill="#027ed1"/>
</svg>
