<svg id="Component_18_65" data-name="Component 18 – 65" xmlns="http://www.w3.org/2000/svg" width="15.452" height="15.437" viewBox="0 0 15.452 15.437">
  <path id="Path_41637" data-name="Path 41637" d="M43.143-20.887H41.156a.645.645,0,0,0-.358.109.646.646,0,0,0-.237.289.638.638,0,0,0-.037.372.646.646,0,0,0,.176.33l.7.7-2.309,2.308a.661.661,0,0,1-.456.183.659.659,0,0,1-.455-.183l-.109-.11a1.979,1.979,0,0,0-1.366-.547,1.976,1.976,0,0,0-1.366.547l-3.284,3.284a.645.645,0,0,0-.189.457.644.644,0,0,0,.19.456.646.646,0,0,0,.457.189.644.644,0,0,0,.456-.19l3.284-3.284a.658.658,0,0,1,.455-.183.661.661,0,0,1,.456.183l.109.11a1.976,1.976,0,0,0,1.366.547,1.978,1.978,0,0,0,1.366-.547l2.309-2.309.7.7a.64.64,0,0,0,.329.173.643.643,0,0,0,.37-.038A.645.645,0,0,0,44-17.579a.641.641,0,0,0,.109-.355v-1.987a.963.963,0,0,0-.283-.682A.964.964,0,0,0,43.143-20.887Z" transform="translate(-28.657 23.447)" fill="#00b206"/>
  <path id="Path_41638" data-name="Path 41638" d="M41.691-10.714H30.1a1.931,1.931,0,0,1-1.366-.566,1.929,1.929,0,0,1-.566-1.366V-24.219a.643.643,0,0,0-.189-.455.641.641,0,0,0-.455-.189.643.643,0,0,0-.455.189.646.646,0,0,0-.189.455v11.574a3.222,3.222,0,0,0,.945,2.275,3.221,3.221,0,0,0,2.275.944H41.691a.641.641,0,0,0,.455-.189.642.642,0,0,0,.189-.455.643.643,0,0,0-.189-.455A.644.644,0,0,0,41.691-10.714Z" transform="translate(-26.882 24.863)" fill="#00b206"/>
</svg>
