<svg width="158" height="46" viewBox="0 0 158 46" fill="none" xmlns="http://www.w3.org/2000/svg">
<path d="M157.119 40.6943C157.119 43.1457 155.108 45.1313 152.62 45.1313H5.38013C2.89345 45.1313 0.875 43.1457 0.875 40.6943V5.31005C0.875 2.85982 2.89345 0.867188 5.38013 0.867188H152.619C155.108 0.867188 157.118 2.85982 157.118 5.31005L157.119 40.6943Z" fill="black"/>
<path d="M152.148 0.92144C154.858 0.92144 157.062 3.08775 157.062 5.75V40.25C157.062 42.9123 154.858 45.0786 152.148 45.0786H5.85185C3.14244 45.0786 0.937759 42.9123 0.937759 40.25V5.75C0.937759 3.08775 3.14244 0.92144 5.85185 0.92144H152.148ZM152.148 3.8147e-06H5.85185C2.6348 3.8147e-06 0 2.58894 0 5.75V40.25C0 43.4111 2.6348 46 5.85185 46H152.148C155.365 46 158 43.4111 158 40.25V5.75C158 2.58894 155.365 3.8147e-06 152.148 3.8147e-06Z" fill="#A6A6A6"/>
<path d="M35.2584 22.7524C35.2245 19.046 38.347 17.2428 38.4898 17.1588C36.7214 14.6254 33.9804 14.2792 33.0171 14.2516C30.715 14.0136 28.482 15.6052 27.3092 15.6052C26.1131 15.6052 24.3072 14.2746 22.3609 14.3137C19.8563 14.3517 17.5132 15.7765 16.2282 17.9891C13.5761 22.5006 15.554 29.1303 18.0949 32.777C19.3659 34.5629 20.8511 36.557 22.7951 36.4869C24.697 36.4098 25.4074 35.2955 27.7025 35.2955C29.9765 35.2955 30.6436 36.4869 32.6262 36.442C34.6674 36.4098 35.9524 34.648 37.179 32.846C38.6478 30.799 39.2377 28.783 39.2611 28.6795C39.2131 28.6634 35.297 27.1949 35.2584 22.7524Z" fill="white"/>
<path d="M31.5132 11.8527C32.5361 10.5958 33.236 8.88574 33.0417 7.15039C31.5612 7.21479 29.7097 8.15664 28.6435 9.38599C27.7002 10.4693 26.8575 12.2449 27.0752 13.9147C28.7383 14.0366 30.4458 13.0901 31.5132 11.8527Z" fill="white"/>
<path d="M57.4068 11.5105C57.4068 12.864 56.9936 13.8829 56.1685 14.5672C55.4043 15.1985 54.3182 15.5148 52.9114 15.5148C52.2138 15.5148 51.6169 15.4849 51.1172 15.4251V8.02945C51.7691 7.92595 52.4713 7.87305 53.2297 7.87305C54.5698 7.87305 55.5798 8.1594 56.261 8.7321C57.0241 9.37955 57.4068 10.3053 57.4068 11.5105ZM56.1135 11.5438C56.1135 10.6664 55.8771 9.99365 55.4043 9.52445C54.9314 9.0564 54.2409 8.8218 53.3315 8.8218C52.9453 8.8218 52.6164 8.8471 52.3437 8.9V14.5223C52.4947 14.5453 52.7709 14.5557 53.1724 14.5557C54.111 14.5557 54.8355 14.2992 55.3457 13.7863C55.856 13.2734 56.1135 12.5259 56.1135 11.5438Z" fill="white"/>
<path d="M64.263 12.6921C64.263 13.5259 64.0207 14.209 63.5362 14.7449C63.0282 15.2957 62.3553 15.5706 61.5149 15.5706C60.7051 15.5706 60.0602 15.3072 59.5792 14.7782C59.0993 14.2504 58.8594 13.5845 58.8594 12.7818C58.8594 11.9423 59.1063 11.2535 59.6026 10.7187C60.0988 10.184 60.7659 9.91602 61.6062 9.91602C62.4161 9.91602 63.0669 10.1794 63.5596 10.7072C64.0277 11.2201 64.263 11.8825 64.263 12.6921ZM62.9908 12.7312C62.9908 12.231 62.8808 11.802 62.6619 11.4444C62.4044 11.012 62.0381 10.7958 61.5618 10.7958C61.069 10.7958 60.6945 11.012 60.437 11.4444C60.217 11.802 60.1082 12.2379 60.1082 12.7531C60.1082 13.2533 60.2182 13.6823 60.437 14.0399C60.7027 14.4723 61.0725 14.6885 61.5501 14.6885C62.0182 14.6885 62.3857 14.4689 62.6502 14.0284C62.8773 13.6639 62.9908 13.2315 62.9908 12.7312Z" fill="white"/>
<path d="M73.4546 10.0273L71.7283 15.4484H70.6047L69.8896 13.0944C69.7082 12.5067 69.5607 11.9225 69.446 11.3429H69.4238C69.3173 11.9386 69.1698 12.5217 68.9802 13.0944L68.2207 15.4484H67.0842L65.4609 10.0273H66.7214L67.3452 12.6045C67.4962 13.214 67.6203 13.7947 67.7198 14.3444H67.742C67.8333 13.8913 67.9843 13.314 68.1973 12.616L68.9802 10.0285H69.9797L70.7299 12.5608C70.9113 13.1783 71.0588 13.7729 71.1723 14.3456H71.2063C71.2894 13.7878 71.4146 13.1933 71.5808 12.5608L72.2503 10.0285H73.4546V10.0273Z" fill="white"/>
<path d="M79.8203 15.4471H78.5938V12.3421C78.5938 11.3853 78.224 10.9069 77.4819 10.9069C77.118 10.9069 76.8242 11.038 76.596 11.3013C76.3701 11.5647 76.2554 11.8752 76.2554 12.2305V15.4459H75.0288V11.575C75.0288 11.0989 75.0136 10.5826 74.9844 10.0237H76.0623L76.1196 10.8712H76.1536C76.2964 10.6079 76.5094 10.3905 76.7891 10.2169C77.1215 10.0145 77.4936 9.91211 77.9009 9.91211C78.4159 9.91211 78.8442 10.0754 79.1848 10.4032C79.6085 10.8045 79.8203 11.4037 79.8203 12.1995V15.4471Z" fill="white"/>
<path d="M83.2019 15.4476H81.9766V7.53906H83.2019V15.4476Z" fill="white"/>
<path d="M90.4192 12.6921C90.4192 13.5259 90.177 14.209 89.6924 14.7449C89.1845 15.2957 88.5104 15.5706 87.6712 15.5706C86.8601 15.5706 86.2153 15.3072 85.7354 14.7782C85.2555 14.2504 85.0156 13.5845 85.0156 12.7818C85.0156 11.9423 85.2626 11.2535 85.7588 10.7187C86.2551 10.184 86.9222 9.91602 87.7613 9.91602C88.5724 9.91602 89.2219 10.1794 89.7158 10.7072C90.184 11.2201 90.4192 11.8825 90.4192 12.6921ZM89.1459 12.7312C89.1459 12.231 89.0359 11.802 88.817 11.4444C88.5607 11.012 88.1932 10.7958 87.718 10.7958C87.2241 10.7958 86.8496 11.012 86.5933 11.4444C86.3733 11.802 86.2644 12.2379 86.2644 12.7531C86.2644 13.2533 86.3744 13.6823 86.5933 14.0399C86.859 14.4723 87.2288 14.6885 87.7063 14.6885C88.1745 14.6885 88.5408 14.4689 88.8053 14.0284C89.0335 13.6639 89.1459 13.2315 89.1459 12.7312Z" fill="white"/>
<path d="M96.3575 15.4475H95.2561L95.1648 14.8231H95.1309C94.754 15.321 94.2168 15.5706 93.5193 15.5706C92.9985 15.5706 92.5772 15.4061 92.26 15.0795C91.9721 14.7828 91.8281 14.4137 91.8281 13.9755C91.8281 13.3131 92.109 12.8083 92.6743 12.4587C93.2384 12.1091 94.0319 11.9377 95.0537 11.9458V11.8446C95.0537 11.1304 94.6721 10.7739 93.9079 10.7739C93.3637 10.7739 92.8838 10.9085 92.4695 11.1753L92.2202 10.3841C92.7328 10.0724 93.366 9.91602 94.1127 9.91602C95.5546 9.91602 96.2779 10.6635 96.2779 12.1585V14.1549C96.2779 14.6966 96.3048 15.1278 96.3575 15.4475ZM95.0841 13.5845V12.7485C93.7311 12.7255 93.0547 13.09 93.0547 13.841C93.0547 14.1239 93.1319 14.3355 93.2899 14.4769C93.4479 14.6184 93.6492 14.6885 93.8891 14.6885C94.1583 14.6885 94.41 14.6046 94.6394 14.4378C94.8699 14.2699 95.0115 14.0572 95.0642 13.7961C95.0771 13.7375 95.0841 13.6662 95.0841 13.5845Z" fill="white"/>
<path d="M103.329 15.4476H102.241L102.183 14.5771H102.149C101.802 15.2395 101.21 15.5707 100.377 15.5707C99.7127 15.5707 99.1591 15.3142 98.7202 14.8013C98.2814 14.2884 98.0625 13.6226 98.0625 12.8049C98.0625 11.9275 98.3001 11.2168 98.7776 10.674C99.2399 10.168 99.8063 9.91496 100.48 9.91496C101.221 9.91496 101.74 10.1599 102.035 10.651H102.058V7.53906H103.286V13.9871C103.286 14.515 103.3 15.0014 103.329 15.4476ZM102.058 13.1614V12.2575C102.058 12.1011 102.046 11.9746 102.024 11.878C101.955 11.5882 101.807 11.3444 101.581 11.1478C101.352 10.9511 101.077 10.8522 100.76 10.8522C100.303 10.8522 99.9444 11.0305 99.6811 11.3881C99.4201 11.7458 99.2879 12.2023 99.2879 12.7601C99.2879 13.296 99.4131 13.7307 99.6647 14.0653C99.9304 14.4218 100.289 14.6001 100.737 14.6001C101.139 14.6001 101.461 14.4517 101.706 14.1539C101.942 13.879 102.058 13.5478 102.058 13.1614Z" fill="white"/>
<path d="M113.818 12.6921C113.818 13.5259 113.575 14.209 113.091 14.7449C112.583 15.2957 111.911 15.5706 111.07 15.5706C110.261 15.5706 109.616 15.3072 109.134 14.7782C108.654 14.2504 108.414 13.5845 108.414 12.7818C108.414 11.9423 108.661 11.2535 109.157 10.7187C109.653 10.184 110.321 9.91602 111.162 9.91602C111.971 9.91602 112.623 10.1794 113.114 10.7072C113.582 11.2201 113.818 11.8825 113.818 12.6921ZM112.547 12.7312C112.547 12.231 112.437 11.802 112.218 11.4444C111.959 11.012 111.594 10.7958 111.116 10.7958C110.625 10.7958 110.25 11.012 109.992 11.4444C109.772 11.802 109.663 12.2379 109.663 12.7531C109.663 13.2533 109.773 13.6823 109.992 14.0399C110.257 14.4723 110.627 14.6885 111.105 14.6885C111.573 14.6885 111.942 14.4689 112.206 14.0284C112.432 13.6639 112.547 13.2315 112.547 12.7312Z" fill="white"/>
<path d="M120.413 15.4471H119.188V12.3421C119.188 11.3853 118.818 10.9069 118.075 10.9069C117.711 10.9069 117.417 11.038 117.19 11.3013C116.963 11.5647 116.849 11.8752 116.849 12.2305V15.4459H115.621V11.575C115.621 11.0989 115.607 10.5826 115.578 10.0237H116.655L116.712 10.8712H116.746C116.89 10.6079 117.103 10.3905 117.382 10.2169C117.715 10.0145 118.086 9.91211 118.495 9.91211C119.008 9.91211 119.437 10.0754 119.777 10.4032C120.202 10.8045 120.413 11.4037 120.413 12.1995V15.4471Z" fill="white"/>
<path d="M128.665 10.9286H127.314V13.5621C127.314 14.2314 127.554 14.5661 128.029 14.5661C128.249 14.5661 128.432 14.5477 128.576 14.5097L128.607 15.424C128.365 15.5137 128.047 15.5585 127.655 15.5585C127.17 15.5585 126.793 15.4136 126.521 15.1238C126.247 14.834 126.111 14.3464 126.111 13.6622V10.9286H125.305V10.0259H126.111V9.03228L127.313 8.67578V10.0247H128.664V10.9286H128.665Z" fill="white"/>
<path d="M135.159 15.4476H133.931V12.3656C133.931 11.3939 133.561 10.9074 132.82 10.9074C132.251 10.9074 131.863 11.1892 131.65 11.7527C131.614 11.8711 131.593 12.016 131.593 12.1862V15.4465H130.367V7.53906H131.593V10.8062H131.616C132.002 10.2117 132.556 9.91496 133.273 9.91496C133.781 9.91496 134.201 10.0783 134.535 10.406C134.95 10.8143 135.159 11.4215 135.159 12.2242V15.4476Z" fill="white"/>
<path d="M141.858 12.4811C141.858 12.6973 141.842 12.879 141.812 13.0273H138.134C138.15 13.5632 138.326 13.9715 138.667 14.2544C138.978 14.5074 139.379 14.6339 139.871 14.6339C140.415 14.6339 140.911 14.5488 141.358 14.3774L141.55 15.2146C141.027 15.4377 140.412 15.5493 139.699 15.5493C138.844 15.5493 138.171 15.3021 137.685 14.8075C137.195 14.313 136.953 13.6495 136.953 12.8169C136.953 11.9993 137.179 11.3184 137.634 10.7756C138.109 10.196 138.752 9.90625 139.563 9.90625C140.357 9.90625 140.959 10.196 141.367 10.7756C141.695 11.2356 141.858 11.8049 141.858 12.4811ZM140.688 12.1694C140.697 11.8118 140.616 11.5036 140.45 11.2437C140.237 10.9091 139.913 10.7411 139.474 10.7411C139.074 10.7411 138.747 10.9044 138.498 11.2322C138.294 11.4932 138.174 11.8049 138.134 12.1694H140.688Z" fill="white"/>
<path d="M62.7819 36.23H60.124L58.6681 31.7346H53.6074L52.2205 36.23H49.6328L54.6467 20.9258H57.7435L62.7819 36.23ZM58.2292 29.8486L56.9125 25.8524C56.7732 25.4441 56.5122 24.4827 56.1272 22.9693H56.0804C55.9271 23.6202 55.6801 24.5816 55.3407 25.8524L54.0474 29.8486H58.2292Z" fill="white"/>
<path d="M75.6748 30.5753C75.6748 32.4521 75.1586 33.9356 74.1264 35.0247C73.2018 35.9941 72.0536 36.4783 70.6831 36.4783C69.2038 36.4783 68.1411 35.9562 67.4939 34.912H67.4471V40.7253H64.9518V28.8262C64.9518 27.6463 64.9202 26.4353 64.8594 25.1933H67.0538L67.1931 26.9425H67.2399C68.072 25.6246 69.3349 24.9668 71.0296 24.9668C72.3544 24.9668 73.4604 25.4808 74.3452 26.5101C75.2324 27.5405 75.6748 28.8952 75.6748 30.5753ZM73.1327 30.665C73.1327 29.5909 72.8869 28.7054 72.3931 28.0085C71.8535 27.2817 71.129 26.9183 70.2208 26.9183C69.6052 26.9183 69.0458 27.1207 68.546 27.5198C68.0451 27.9223 67.7174 28.4478 67.5641 29.0987C67.4869 29.4023 67.4482 29.6507 67.4482 29.8462V31.6862C67.4482 32.4889 67.6987 33.1663 68.1996 33.7194C68.7005 34.2726 69.3513 34.5486 70.1518 34.5486C71.0916 34.5486 71.8231 34.1921 72.3462 33.4814C72.8706 32.7695 73.1327 31.8311 73.1327 30.665Z" fill="white"/>
<path d="M88.5955 30.5753C88.5955 32.4521 88.0793 33.9356 87.0459 35.0247C86.1225 35.9941 84.9743 36.4783 83.6038 36.4783C82.1245 36.4783 81.0618 35.9562 80.4158 34.912H80.3689V40.7253H77.8737V28.8262C77.8737 27.6463 77.8421 26.4353 77.7812 25.1933H79.9757L80.115 26.9425H80.1618C80.9927 25.6246 82.2556 24.9668 83.9514 24.9668C85.2751 24.9668 86.3811 25.4808 87.2683 26.5101C88.1519 27.5405 88.5955 28.8952 88.5955 30.5753ZM86.0534 30.665C86.0534 29.5909 85.8065 28.7054 85.3126 28.0085C84.773 27.2817 84.0509 26.9183 83.1415 26.9183C82.5248 26.9183 81.9665 27.1207 81.4656 27.5198C80.9647 27.9223 80.6381 28.4478 80.4848 29.0987C80.4087 29.4023 80.3689 29.6507 80.3689 29.8462V31.6862C80.3689 32.4889 80.6194 33.1663 81.118 33.7194C81.6189 34.2714 82.2696 34.5486 83.0725 34.5486C84.0123 34.5486 84.7438 34.1921 85.2669 33.4814C85.7913 32.7695 86.0534 31.8311 86.0534 30.665Z" fill="white"/>
<path d="M103.038 31.9378C103.038 33.2396 102.578 34.2988 101.654 35.1164C100.639 36.01 99.2269 36.4562 97.4116 36.4562C95.7356 36.4562 94.3921 36.1388 93.375 35.5028L93.9532 33.4593C95.0486 34.1102 96.2506 34.4368 97.5602 34.4368C98.5001 34.4368 99.2315 34.2275 99.757 33.8112C100.28 33.3949 100.541 32.836 100.541 32.1391C100.541 31.5181 100.326 30.9948 99.894 30.5705C99.4644 30.1461 98.747 29.7517 97.7452 29.3871C95.0182 28.3878 93.6559 26.9238 93.6559 24.9987C93.6559 23.7406 94.1334 22.7091 95.0896 21.9064C96.0423 21.1025 97.3133 20.7012 98.9027 20.7012C100.32 20.7012 101.497 20.9438 102.437 21.428L101.813 23.4267C100.936 22.9575 99.9431 22.7229 98.8324 22.7229C97.9547 22.7229 97.2688 22.9356 96.7773 23.3588C96.3618 23.7372 96.1535 24.1983 96.1535 24.7446C96.1535 25.3495 96.391 25.8497 96.8686 26.243C97.284 26.6064 98.0389 26.9997 99.1344 27.4241C100.474 27.9542 101.459 28.5741 102.092 29.2848C102.723 29.9932 103.038 30.8798 103.038 31.9378Z" fill="white"/>
<path d="M111.285 27.035H108.535V32.3928C108.535 33.7556 109.019 34.4364 109.991 34.4364C110.436 34.4364 110.806 34.3984 111.099 34.3225L111.168 36.1844C110.676 36.3649 110.029 36.4558 109.227 36.4558C108.242 36.4558 107.472 36.1602 106.916 35.5703C106.362 34.9792 106.084 33.9879 106.084 32.5952V27.0327H104.445V25.1927H106.084V23.1721L108.535 22.4453V25.1927H111.285V27.035Z" fill="white"/>
<path d="M123.696 30.621C123.696 32.3173 123.202 33.7099 122.216 34.799C121.183 35.9202 119.811 36.4791 118.101 36.4791C116.453 36.4791 115.141 35.942 114.163 34.8679C113.185 33.7938 112.695 32.438 112.695 30.8038C112.695 29.0938 113.199 27.6931 114.209 26.6041C115.216 25.5139 116.576 24.9688 118.286 24.9688C119.934 24.9688 121.26 25.5058 122.261 26.5811C123.218 27.6241 123.696 28.9708 123.696 30.621ZM121.107 30.7003C121.107 29.6826 120.886 28.8098 120.437 28.0818C119.914 27.2009 119.166 26.7616 118.197 26.7616C117.194 26.7616 116.432 27.2021 115.909 28.0818C115.461 28.8109 115.24 29.6976 115.24 30.7464C115.24 31.7641 115.461 32.6369 115.909 33.3637C116.449 34.2446 117.202 34.6839 118.175 34.6839C119.128 34.6839 119.876 34.2355 120.415 33.3408C120.875 32.599 121.107 31.7169 121.107 30.7003Z" fill="white"/>
<path d="M131.806 27.3496C131.559 27.3047 131.295 27.2817 131.019 27.2817C130.141 27.2817 129.462 27.6072 128.985 28.2592C128.569 28.8342 128.361 29.561 128.361 30.4385V36.2287H125.867L125.891 28.6686C125.891 27.3967 125.859 26.2387 125.797 25.1945H127.97L128.062 27.3059H128.131C128.394 26.5802 128.809 25.996 129.378 25.5579C129.934 25.1634 130.535 24.9668 131.182 24.9668C131.412 24.9668 131.621 24.9829 131.806 25.0116V27.3496Z" fill="white"/>
<path d="M142.965 30.1901C142.965 30.6294 142.936 30.9997 142.874 31.3022H135.388C135.418 32.3924 135.779 33.2261 136.474 33.8011C137.105 34.3152 137.921 34.5728 138.923 34.5728C140.031 34.5728 141.042 34.3991 141.952 34.0507L142.343 35.7527C141.28 36.2081 140.025 36.4346 138.578 36.4346C136.836 36.4346 135.469 35.9309 134.474 34.9247C133.482 33.9184 132.984 32.5672 132.984 30.8721C132.984 29.208 133.447 27.8223 134.372 26.7171C135.342 25.5372 136.651 24.9473 138.299 24.9473C139.918 24.9473 141.143 25.5372 141.975 26.7171C142.634 27.6544 142.965 28.8136 142.965 30.1901ZM140.586 29.5542C140.602 28.8274 140.44 28.1995 140.101 27.6693C139.67 26.9874 139.006 26.647 138.113 26.647C137.297 26.647 136.634 26.9793 136.127 27.6463C135.711 28.1765 135.464 28.8124 135.388 29.553H140.586V29.5542Z" fill="white"/>
</svg>
