<svg width="158" height="46" viewBox="0 0 158 46" fill="none" xmlns="http://www.w3.org/2000/svg">
<path d="M152.148 46H5.85185C2.6348 46 0 43.4111 0 40.25V5.75C0 2.58894 2.6348 9.53674e-07 5.85185 9.53674e-07H152.148C155.365 9.53674e-07 158 2.58894 158 5.75V40.25C158 43.4111 155.365 46 152.148 46Z" fill="black"/>
<path d="M152.148 0.921436C154.858 0.921436 157.062 3.08775 157.062 5.75V40.25C157.062 42.9122 154.858 45.0786 152.148 45.0786H5.85185C3.14244 45.0786 0.937759 42.9122 0.937759 40.25V5.75C0.937759 3.08775 3.14244 0.921436 5.85185 0.921436H152.148ZM152.148 9.53674e-07H5.85185C2.6348 9.53674e-07 0 2.58894 0 5.75V40.25C0 43.4111 2.6348 46 5.85185 46H152.148C155.365 46 158 43.4111 158 40.25V5.75C158 2.58894 155.365 9.53674e-07 152.148 9.53674e-07Z" fill="#A6A6A6"/>
<path d="M12.2146 8.66786C11.8708 9.02148 11.6719 9.57204 11.6719 10.285V35.7173C11.6719 36.4303 11.8708 36.9809 12.2146 37.3345L12.2995 37.4121L26.8033 23.1665V22.8301L12.2995 8.58448L12.2146 8.66786Z" fill="url(#paint0_linear_3330_30795)"/>
<path d="M31.6339 27.918L26.8047 23.167V22.8307L31.6398 18.0797L31.748 18.1415L37.4741 21.3428C39.1082 22.2513 39.1082 23.7463 37.4741 24.6606L31.748 27.8562L31.6339 27.918Z" fill="url(#paint1_linear_3330_30795)"/>
<path d="M31.743 27.8564L26.7996 22.9991L12.2109 37.3352C12.7537 37.8959 13.6388 37.9634 14.6453 37.4028L31.743 27.8564Z" fill="url(#paint2_linear_3330_30795)"/>
<path d="M31.743 18.1427L14.6453 8.59625C13.6388 8.04138 12.7537 8.10894 12.2109 8.66957L26.7996 23L31.743 18.1427Z" fill="url(#paint3_linear_3330_30795)"/>
<path d="M55.4967 11.7801C55.4967 12.7403 55.2041 13.5094 54.6277 14.083C53.965 14.7629 53.1019 15.105 52.0441 15.105C51.0332 15.105 50.1701 14.7572 49.462 14.0715C48.7525 13.3757 48.3984 12.5218 48.3984 11.4998C48.3984 10.4777 48.7525 9.62384 49.462 8.93384C50.1701 8.24241 51.0332 7.89453 52.0441 7.89453C52.5474 7.89453 53.0272 7.99659 53.4852 8.18634C53.9416 8.37753 54.3132 8.63628 54.5824 8.95541L53.9709 9.56203C53.5013 9.01722 52.8619 8.74841 52.0441 8.74841C51.3068 8.74841 50.6675 9.00141 50.1247 9.51172C49.5878 10.0235 49.3186 10.6862 49.3186 11.4998C49.3186 12.3134 49.5878 12.9818 50.1247 13.4936C50.6675 13.9982 51.3068 14.2569 52.0441 14.2569C52.8268 14.2569 53.4852 13.9982 54.0045 13.4878C54.3468 13.15 54.5414 12.6843 54.5926 12.0892H52.0441V11.2583H55.4441C55.485 11.438 55.4967 11.6119 55.4967 11.7801Z" fill="white" stroke="white" stroke-width="0.16" stroke-miterlimit="10"/>
<path d="M60.8868 8.89942H57.6932V11.0844H60.5723V11.9153H57.6932V14.1003H60.8868V14.947H56.7891V8.05273H60.8868V8.89942Z" fill="white" stroke="white" stroke-width="0.16" stroke-miterlimit="10"/>
<path d="M64.699 14.947H63.7948V8.89942H61.8359V8.05273H66.6593V8.89942H64.699V14.947Z" fill="white" stroke="white" stroke-width="0.16" stroke-miterlimit="10"/>
<path d="M70.1484 14.947V8.05273H71.0511V14.947H70.1484Z" fill="white" stroke="white" stroke-width="0.16" stroke-miterlimit="10"/>
<path d="M75.0505 14.947H74.1537V8.89942H72.1875V8.05273H77.0167V8.89942H75.0505V14.947Z" fill="white" stroke="white" stroke-width="0.16" stroke-miterlimit="10"/>
<path d="M86.1527 14.06C85.4607 14.7572 84.6034 15.105 83.5808 15.105C82.5523 15.105 81.695 14.7572 81.0031 14.06C80.3125 13.3642 79.9688 12.5103 79.9688 11.4998C79.9688 10.4892 80.3125 9.63534 81.0031 8.93959C81.695 8.24241 82.5523 7.89453 83.5808 7.89453C84.5976 7.89453 85.4549 8.24241 86.1468 8.94534C86.8432 9.64684 87.187 10.495 87.187 11.4998C87.187 12.5103 86.8432 13.3642 86.1527 14.06ZM81.6716 13.4821C82.1925 13.9982 82.8259 14.2569 83.5808 14.2569C84.3298 14.2569 84.9692 13.9982 85.4841 13.4821C86.0035 12.966 86.2668 12.3033 86.2668 11.4998C86.2668 10.6962 86.0035 10.0335 85.4841 9.51747C84.9692 9.00141 84.3298 8.74266 83.5808 8.74266C82.8259 8.74266 82.1925 9.00141 81.6716 9.51747C81.1523 10.0335 80.889 10.6962 80.889 11.4998C80.889 12.3033 81.1523 12.966 81.6716 13.4821Z" fill="white" stroke="white" stroke-width="0.16" stroke-miterlimit="10"/>
<path d="M88.4531 14.947V8.05273H89.5503L92.962 13.4146H93.0015L92.962 12.0892V8.05273H93.8646V14.947H92.9225L89.3499 9.32061H89.3104L89.3499 10.6517V14.947H88.4531Z" fill="white" stroke="white" stroke-width="0.16" stroke-miterlimit="10"/>
<path d="M79.7424 25.0157C76.9935 25.0157 74.7479 27.0713 74.7479 29.9075C74.7479 32.7207 76.9935 34.7979 79.7424 34.7979C82.4972 34.7979 84.7428 32.7207 84.7428 29.9075C84.7428 27.0713 82.4972 25.0157 79.7424 25.0157ZM79.7424 32.8716C78.2341 32.8716 76.9365 31.6483 76.9365 29.9075C76.9365 28.1437 78.2341 26.942 79.7424 26.942C81.2507 26.942 82.5542 28.1437 82.5542 29.9075C82.5542 31.6483 81.2507 32.8716 79.7424 32.8716ZM68.8448 25.0157C66.0901 25.0157 63.8503 27.0713 63.8503 29.9075C63.8503 32.7207 66.0901 34.7979 68.8448 34.7979C71.5981 34.7979 73.8394 32.7207 73.8394 29.9075C73.8394 27.0713 71.5981 25.0157 68.8448 25.0157ZM68.8448 32.8716C67.335 32.8716 66.033 31.6483 66.033 29.9075C66.033 28.1437 67.335 26.942 68.8448 26.942C70.3531 26.942 71.6508 28.1437 71.6508 29.9075C71.6508 31.6483 70.3531 32.8716 68.8448 32.8716ZM55.8771 26.515V28.5936H60.9287C60.781 29.7551 60.386 30.609 59.7803 31.2041C59.043 31.9229 57.8945 32.7207 55.8771 32.7207C52.7683 32.7207 50.3339 30.2554 50.3339 27.2007C50.3339 24.146 52.7683 21.6807 55.8771 21.6807C57.5581 21.6807 58.7811 22.3261 59.6837 23.1628L61.1745 21.698C59.912 20.5135 58.2325 19.6035 55.8771 19.6035C51.614 19.6035 48.0312 23.0118 48.0312 27.2007C48.0312 31.3896 51.614 34.7979 55.8771 34.7979C58.1813 34.7979 59.912 34.0561 61.2725 32.6646C62.6667 31.2947 63.1012 29.3685 63.1012 27.8131C63.1012 27.3301 63.0603 26.8859 62.9871 26.515H55.8771ZM108.904 28.1265C108.493 27.0325 107.224 25.0157 104.641 25.0157C102.08 25.0157 99.9489 26.998 99.9489 29.9075C99.9489 32.6474 102.058 34.7979 104.886 34.7979C107.173 34.7979 108.493 33.428 109.035 32.6301L107.338 31.519C106.772 32.3326 106.001 32.8716 104.886 32.8716C103.779 32.8716 102.985 32.3728 102.475 31.3896L109.133 28.6828L108.904 28.1265ZM102.116 29.7551C102.058 27.8691 103.606 26.9031 104.715 26.9031C105.584 26.9031 106.322 27.3301 106.567 27.941L102.116 29.7551ZM96.704 34.5003H98.8926V20.1253H96.704V34.5003ZM93.1197 26.1053H93.0466C92.555 25.5332 91.6173 25.0157 90.4294 25.0157C87.9365 25.0157 85.6572 27.1662 85.6572 29.9233C85.6572 32.6646 87.9365 34.7979 90.4294 34.7979C91.6173 34.7979 92.555 34.2761 93.0466 33.6867H93.1197V34.3882C93.1197 36.2584 92.103 37.2632 90.463 37.2632C89.1259 37.2632 88.2964 36.3145 87.954 35.5166L86.0507 36.2972C86.5993 37.5938 88.052 39.1895 90.463 39.1895C93.029 39.1895 95.1942 37.706 95.1942 34.0964V25.3133H93.1197V26.1053ZM90.6166 32.8716C89.1083 32.8716 87.8458 31.6311 87.8458 29.9233C87.8458 28.1998 89.1083 26.942 90.6166 26.942C92.103 26.942 93.2748 28.1998 93.2748 29.9233C93.2748 31.6311 92.103 32.8716 90.6166 32.8716ZM119.15 20.1253H113.916V34.5003H116.099V29.0536H119.15C121.574 29.0536 123.952 27.3301 123.952 24.5888C123.952 21.8489 121.569 20.1253 119.15 20.1253ZM119.207 27.0541H116.099V22.1249H119.207C120.837 22.1249 121.767 23.4546 121.767 24.5888C121.767 25.7014 120.837 27.0541 119.207 27.0541ZM132.7 24.9884C131.123 24.9884 129.483 25.6726 128.809 27.1892L130.746 27.987C131.163 27.1892 131.929 26.9305 132.74 26.9305C133.872 26.9305 135.02 27.5989 135.038 28.7791V28.93C134.643 28.7058 133.797 28.3737 132.757 28.3737C130.671 28.3737 128.545 29.5021 128.545 31.6081C128.545 33.5343 130.254 34.7749 132.175 34.7749C133.644 34.7749 134.454 34.1237 134.963 33.3661H135.038V34.4773H137.146V28.9631C137.146 26.4144 135.209 24.9884 132.7 24.9884ZM132.437 32.8659C131.723 32.8659 130.728 32.518 130.728 31.6483C130.728 30.5357 131.969 30.1088 133.043 30.1088C134.004 30.1088 134.454 30.3172 135.038 30.5918C134.867 31.9229 133.701 32.8659 132.437 32.8659ZM144.827 25.3032L142.318 31.5348H142.243L139.649 25.3032H137.295L141.193 34.0116L138.969 38.8574H141.25L147.255 25.3032H144.827ZM125.151 34.5003H127.34V20.1253H125.151V34.5003Z" fill="white"/>
<defs>
<linearGradient id="paint0_linear_3330_30795" x1="25.5155" y1="35.9821" x2="6.21875" y2="16.3436" gradientUnits="userSpaceOnUse">
<stop stop-color="#00A0FF"/>
<stop offset="0.0066" stop-color="#00A1FF"/>
<stop offset="0.2601" stop-color="#00BEFF"/>
<stop offset="0.5122" stop-color="#00D2FF"/>
<stop offset="0.7604" stop-color="#00DFFF"/>
<stop offset="1" stop-color="#00E3FF"/>
</linearGradient>
<linearGradient id="paint1_linear_3330_30795" x1="39.602" y1="22.9972" x2="11.2827" y2="22.9972" gradientUnits="userSpaceOnUse">
<stop stop-color="#FFE000"/>
<stop offset="0.4087" stop-color="#FFBD00"/>
<stop offset="0.7754" stop-color="#FFA500"/>
<stop offset="1" stop-color="#FF9C00"/>
</linearGradient>
<linearGradient id="paint2_linear_3330_30795" x1="29.0549" y1="20.3585" x2="2.8869" y2="-6.27299" gradientUnits="userSpaceOnUse">
<stop stop-color="#FF3A44"/>
<stop offset="1" stop-color="#C31162"/>
</linearGradient>
<linearGradient id="paint3_linear_3330_30795" x1="8.53867" y1="45.7974" x2="20.2239" y2="33.9053" gradientUnits="userSpaceOnUse">
<stop stop-color="#32A071"/>
<stop offset="0.0685" stop-color="#2DA771"/>
<stop offset="0.4762" stop-color="#15CF74"/>
<stop offset="0.8009" stop-color="#06E775"/>
<stop offset="1" stop-color="#00F076"/>
</linearGradient>
</defs>
</svg>
