<svg width="102" height="61" viewBox="0 0 102 61" fill="none" xmlns="http://www.w3.org/2000/svg">
<path d="M9.03002 6.52179H5.72934V6.79274C6.12345 6.85843 6.4683 6.96927 6.76388 7.12527C7.05947 7.28128 7.30579 7.46602 7.50284 7.67949C7.70811 7.88476 7.86 8.11055 7.95853 8.35687C8.05706 8.59498 8.10632 8.83309 8.10632 9.0712C8.10632 9.21078 8.08169 9.36678 8.03243 9.53921C7.99138 9.70342 7.92569 9.86353 7.83537 10.0195C7.74506 10.1755 7.63011 10.3069 7.49052 10.4136C7.35915 10.5122 7.20315 10.5614 7.02252 10.5614C6.85009 10.5614 6.68178 10.4999 6.51756 10.3767C6.35335 10.2453 6.27124 10.0647 6.27124 9.83479C6.27124 9.7609 6.28356 9.67879 6.30819 9.58847C6.34103 9.49815 6.38619 9.41194 6.44367 9.32984C6.50935 9.24773 6.58735 9.18204 6.67767 9.13278C6.7762 9.07531 6.88704 9.04657 7.0102 9.04657C7.07589 9.04657 7.14978 9.06299 7.23189 9.09583C7.314 9.12046 7.38789 9.1451 7.45358 9.16973C7.51105 9.05478 7.53979 8.93162 7.53979 8.80025C7.53979 8.64425 7.48642 8.49645 7.37968 8.35687C7.27294 8.21729 7.13336 8.09824 6.96094 7.99971C6.78851 7.89297 6.59556 7.81086 6.38209 7.75339C6.16861 7.69592 5.95924 7.66718 5.75397 7.66718H5.72934V12.9138L5.33523 12.6305C5.04785 11.7109 4.63322 11.0212 4.09131 10.5614C3.54941 10.0934 2.93361 9.81426 2.24391 9.72395L1.59117 8.87414L5.07659 6.86664V6.52179H1.33253L0.926104 5.93062H8.57433L9.03002 6.52179ZM5.07659 7.77802C4.70711 7.9915 4.35816 8.19677 4.02973 8.39382C3.70131 8.58267 3.34825 8.78383 2.97056 8.9973C3.35646 9.16152 3.72594 9.39552 4.079 9.69932C4.43205 10.0031 4.76459 10.4095 5.07659 10.9186V7.77802ZM11.8906 6.52179H10.5112V12.9261L9.87076 12.3349V7.48244C9.87076 7.42496 9.84613 7.34696 9.79687 7.24843C9.75581 7.14991 9.70244 7.05138 9.63676 6.95285C9.57107 6.85432 9.50128 6.76401 9.42739 6.6819C9.3617 6.59979 9.30012 6.54642 9.24265 6.52179H8.70074L8.23274 5.93062H9.34117C9.49718 6.04557 9.61213 6.13589 9.68602 6.20158C9.76813 6.26726 9.82971 6.34526 9.87076 6.43558V4.72366C10.035 4.82218 10.1581 4.97408 10.2402 5.17935C10.3306 5.38461 10.3962 5.56935 10.4373 5.73357L10.4989 5.93062H11.4226L11.8906 6.52179ZM18.7662 5.26556C18.5034 5.09314 18.2448 4.93303 17.9902 4.78524C17.7439 4.62923 17.4894 4.49376 17.2267 4.37881C16.9721 4.25565 16.7094 4.16123 16.4384 4.09554C16.1757 4.02986 15.9006 3.99701 15.6133 3.99701C15.096 3.99701 14.6198 4.10786 14.1846 4.32955C13.7577 4.55123 13.3594 4.89608 12.99 5.36409L13.3718 5.93062H14.5541L15.0098 6.52179H13.4949V12.9261L12.8545 12.3349V6.52179H11.8692L11.4628 5.93062H12.8299L12.0909 4.99461C12.329 4.66618 12.5671 4.39113 12.8052 4.16944C13.0433 3.93954 13.2896 3.7548 13.5442 3.61522C13.8069 3.46743 14.082 3.36479 14.3693 3.30732C14.6567 3.24163 14.9646 3.20879 15.293 3.20879C15.6215 3.20879 15.9253 3.24574 16.2044 3.31963C16.4918 3.38532 16.771 3.48795 17.0419 3.62753C17.3129 3.7589 17.5838 3.91901 17.8548 4.10786C18.1339 4.2967 18.4377 4.51429 18.7662 4.7606V5.26556ZM20.6784 6.52179H19.6069V12.9507L19.2497 12.6182C18.9624 11.7068 18.5313 11.0294 17.9566 10.5861C17.3818 10.1427 16.7208 9.86353 15.9737 9.74858L15.2717 8.88646L18.9541 6.86664V6.52179H14.9268L14.5204 5.93062H20.1981L20.6784 6.52179ZM18.9541 7.75339C18.56 7.96687 18.1865 8.17624 17.8334 8.3815C17.4803 8.57856 17.1026 8.78383 16.7003 8.9973C17.2176 9.24362 17.6487 9.52279 17.9935 9.83479C18.3466 10.1468 18.6668 10.5081 18.9541 10.9186V7.75339ZM17.5255 11.7684C17.5255 11.9572 17.4557 12.1174 17.3161 12.2487C17.1765 12.3719 17.0123 12.4335 16.8235 12.4335C16.6182 12.4335 16.4499 12.3719 16.3185 12.2487C16.1872 12.1174 16.1215 11.9572 16.1215 11.7684C16.1215 11.5796 16.1872 11.4236 16.3185 11.3004C16.4499 11.169 16.6182 11.1033 16.8235 11.1033C17.0123 11.1033 17.1765 11.169 17.3161 11.3004C17.4557 11.4236 17.5255 11.5796 17.5255 11.7684ZM22.8985 6.01684C23.1448 6.02505 23.3665 6.07842 23.5636 6.17694C23.7606 6.27547 23.9413 6.40274 24.1055 6.55874C24.2697 6.70653 24.4175 6.87895 24.5489 7.07601C24.6884 7.27307 24.8157 7.47833 24.9307 7.69181V4.73597C25.1277 4.82629 25.2632 4.97408 25.3371 5.17935C25.4192 5.38461 25.4808 5.57346 25.5218 5.74588C25.5382 5.78694 25.5465 5.81978 25.5465 5.84441C25.5465 5.86904 25.5547 5.89778 25.5711 5.93062H26.1499L26.6179 6.52179H25.5834V12.9261L24.9307 12.3349V8.81256C24.9307 8.72225 24.8937 8.58267 24.8198 8.39382C24.7541 8.19677 24.6392 7.9956 24.475 7.79034C24.4339 7.69181 24.36 7.58918 24.2533 7.48244C24.1465 7.36749 24.0234 7.26075 23.8838 7.16222C23.7442 7.06369 23.5964 6.98569 23.4404 6.92822C23.2844 6.86253 23.1366 6.82969 22.997 6.82969C22.7671 6.82969 22.5496 6.88717 22.3443 7.00211C22.1472 7.11706 21.9912 7.30591 21.8763 7.56865C22.0241 7.5276 22.1801 7.50707 22.3443 7.50707C22.8369 7.50707 23.1818 7.59739 23.3788 7.77802C23.5841 7.95866 23.6867 8.20908 23.6867 8.5293C23.6867 8.70993 23.5923 8.98909 23.4035 9.36678C23.2146 9.74447 22.919 10.155 22.5167 10.5984L21.7408 9.71163L21.827 9.66237C21.8927 9.6131 21.983 9.54331 22.098 9.453C22.2129 9.35447 22.3402 9.23131 22.4798 9.08352C22.6686 8.88646 22.8041 8.71814 22.8862 8.57856C22.9683 8.43077 23.0094 8.32403 23.0094 8.25835C23.0094 8.12697 22.9231 8.06129 22.7507 8.06129C22.7261 8.06129 22.6686 8.08182 22.5783 8.12287C22.488 8.16392 22.3853 8.20908 22.2704 8.25835C22.1308 8.32403 22.0036 8.38561 21.8886 8.44308C21.7819 8.50056 21.6874 8.5293 21.6053 8.5293C21.4411 8.5293 21.3098 8.50056 21.2112 8.44308C21.1127 8.38561 21.0347 8.31582 20.9772 8.23371C20.9197 8.1434 20.8787 8.04897 20.8541 7.95045C20.8376 7.84371 20.8294 7.74928 20.8294 7.66718C20.8294 7.54402 20.85 7.41265 20.891 7.27307C20.9403 7.13349 21.0183 6.9939 21.125 6.85432C21.2728 6.65727 21.4329 6.50537 21.6053 6.39863C21.7778 6.28368 21.942 6.20158 22.098 6.15231C22.2622 6.09484 22.4059 6.05789 22.529 6.04147C22.6604 6.02505 22.7589 6.01684 22.8246 6.01684H22.8985ZM33.5058 5.26556C33.2431 5.09314 32.9845 4.93303 32.7299 4.78524C32.4836 4.62923 32.2291 4.49376 31.9663 4.37881C31.7118 4.25565 31.4491 4.16123 31.1781 4.09554C30.9154 4.02986 30.6403 3.99701 30.3529 3.99701C29.8357 3.99701 29.3594 4.10786 28.9243 4.32955C28.4973 4.55123 28.0991 4.89608 27.7296 5.36409L28.1114 5.93062H29.2938L29.7495 6.52179H28.2346V12.9261L27.5942 12.3349V6.52179H26.6089L26.2025 5.93062H27.5695L26.8306 4.99461C27.0687 4.66618 27.3068 4.39113 27.5449 4.16944C27.783 3.93954 28.0293 3.7548 28.2839 3.61522C28.5466 3.46743 28.8217 3.36479 29.109 3.30732C29.3964 3.24163 29.7043 3.20879 30.0327 3.20879C30.3611 3.20879 30.6649 3.24574 30.9441 3.31963C31.2315 3.38532 31.5106 3.48795 31.7816 3.62753C32.0525 3.7589 32.3235 3.91901 32.5944 4.10786C32.8736 4.2967 33.1774 4.51429 33.5058 4.7606V5.26556ZM35.4181 6.52179H34.3466V12.9507L33.9894 12.6182C33.702 11.7068 33.271 11.0294 32.6962 10.5861C32.1215 10.1427 31.4605 9.86353 30.7134 9.74858L30.0113 8.88646L33.6938 6.86664V6.52179H29.6665L29.2601 5.93062H34.9377L35.4181 6.52179ZM33.6938 7.75339C33.2997 7.96687 32.9261 8.17624 32.5731 8.3815C32.22 8.57856 31.8423 8.78383 31.44 8.9973C31.9573 9.24362 32.3883 9.52279 32.7332 9.83479C33.0862 10.1468 33.4064 10.5081 33.6938 10.9186V7.75339ZM32.2652 11.7684C32.2652 11.9572 32.1954 12.1174 32.0558 12.2487C31.9162 12.3719 31.752 12.4335 31.5632 12.4335C31.3579 12.4335 31.1896 12.3719 31.0582 12.2487C30.9268 12.1174 30.8611 11.9572 30.8611 11.7684C30.8611 11.5796 30.9268 11.4236 31.0582 11.3004C31.1896 11.169 31.3579 11.1033 31.5632 11.1033C31.752 11.1033 31.9162 11.169 32.0558 11.3004C32.1954 11.4236 32.2652 11.5796 32.2652 11.7684ZM44.9941 6.52179H43.9719V12.9261L43.3191 12.3349V9.79784C43.3191 9.73216 43.2945 9.64184 43.2452 9.52689C43.2042 9.41194 43.1467 9.3011 43.0728 9.19436C42.9989 9.07941 42.9168 8.98088 42.8265 8.89878C42.7362 8.81667 42.6458 8.77562 42.5555 8.77562C42.4816 8.77562 42.3995 8.80435 42.3092 8.86183C42.2189 8.9193 42.1204 8.9932 42.0136 9.08352C41.9151 9.17383 41.8083 9.28057 41.6934 9.40373C41.5867 9.52689 41.4758 9.65005 41.3609 9.77321C41.2377 9.90458 41.1145 10.036 40.9914 10.1673C40.8764 10.2905 40.7615 10.4013 40.6465 10.4999C40.5398 10.5984 40.4372 10.6805 40.3386 10.7462C40.2401 10.8036 40.1498 10.8324 40.0677 10.8324C39.9445 10.8324 39.8132 10.779 39.6736 10.6723C39.5422 10.5655 39.419 10.4383 39.3041 10.2905C39.1891 10.1345 39.0906 9.97437 39.0085 9.81016C38.9264 9.63774 38.8771 9.48994 38.8607 9.36678L39.3534 9.34215C39.4026 9.531 39.4724 9.65826 39.5627 9.72395C39.653 9.78963 39.7064 9.82248 39.7228 9.82248C39.7803 9.82248 39.8829 9.7609 40.0307 9.63774C40.1785 9.51458 40.3263 9.37089 40.4741 9.20668C40.6301 9.04246 40.7656 8.88236 40.8805 8.72635C40.9955 8.56214 41.053 8.43898 41.053 8.35687C41.053 8.13519 41.016 7.95866 40.9421 7.82729C40.8764 7.6877 40.782 7.57686 40.6589 7.49475C40.5439 7.41265 40.4084 7.35107 40.2524 7.31001C40.1046 7.26075 39.9527 7.21559 39.7967 7.17454C39.6325 7.1417 39.4724 7.10475 39.3164 7.06369C39.1686 7.01443 39.0208 6.94464 38.873 6.85432L38.7868 6.52179H38.6267L38.208 5.93062H44.5384L44.9941 6.52179ZM43.3191 6.52179H40.2524C40.5973 6.686 40.8805 6.89538 41.1022 7.14991C41.3239 7.40444 41.4471 7.70823 41.4717 8.06129L41.5702 7.98739C41.6441 7.9135 41.7221 7.84781 41.8042 7.79034C41.8863 7.72465 41.9808 7.69181 42.0875 7.69181C42.1942 7.69181 42.3051 7.72876 42.42 7.80265C42.535 7.87655 42.6458 7.96687 42.7526 8.07361C42.8675 8.17213 42.9743 8.28298 43.0728 8.40614C43.1713 8.5293 43.2534 8.64014 43.3191 8.73867V6.52179ZM47.3374 6.89127H47.4975C47.8259 6.89127 48.1256 6.94875 48.3965 7.06369C48.6675 7.17043 48.8974 7.31412 49.0862 7.49475C49.2751 7.67539 49.4188 7.88476 49.5173 8.12287C49.624 8.36098 49.6774 8.60319 49.6774 8.84951C49.6774 9.07941 49.6446 9.29289 49.5789 9.48994C49.5214 9.687 49.4147 9.87174 49.2587 10.0442C49.1027 10.2166 48.8933 10.3726 48.6305 10.5122C48.3678 10.6518 48.0394 10.7749 47.6453 10.8817C48.1954 11.2511 48.6716 11.6124 49.0739 11.9655C49.4845 12.3185 49.858 12.729 50.1947 13.1971V13.7636L49.4557 13.1355C49.193 12.8974 48.9261 12.6634 48.6552 12.4335C48.3924 12.2036 48.1256 11.9983 47.8546 11.8177C47.5919 11.637 47.3251 11.4933 47.0541 11.3866C46.7914 11.2717 46.5286 11.2101 46.2659 11.2019L45.3052 9.82248C45.8553 10.0031 46.3316 10.0934 46.7339 10.0934C47.128 10.0934 47.4687 10.0483 47.7561 9.95795C48.0435 9.85942 48.2775 9.73626 48.4581 9.58847C48.647 9.44068 48.7866 9.27647 48.8769 9.09583C48.9672 8.9152 49.0123 8.73867 49.0123 8.56624C49.0123 8.23782 48.9097 7.98739 48.7044 7.81497C48.5074 7.64255 48.2241 7.55633 47.8546 7.55633H47.7438C47.7274 7.55633 47.7151 7.56044 47.7069 7.56865C47.7069 7.56865 47.6945 7.56865 47.6699 7.56865V7.66718C47.6699 7.88887 47.6371 8.08592 47.5714 8.25835C47.5139 8.43077 47.4318 8.57856 47.3251 8.70172C47.2183 8.81667 47.0993 8.90699 46.9679 8.97267C46.8365 9.03015 46.7052 9.05888 46.5738 9.05888C46.3357 9.05888 46.1345 8.98499 45.9703 8.8372C45.8143 8.6894 45.7363 8.51288 45.7363 8.30761C45.7363 8.13519 45.7815 7.97508 45.8718 7.82729C45.9703 7.67128 46.0894 7.53581 46.2289 7.42086C46.3685 7.2977 46.5204 7.19506 46.6846 7.11296C46.8488 7.03085 47.0007 6.97338 47.1403 6.94053L47.3374 6.89127ZM50.0223 5.93062L50.441 6.52179H45.0096L44.6032 5.93062H50.0223ZM53.4001 6.52179H52.0207V12.9261L51.3803 12.3349V7.48244C51.3803 7.42496 51.3556 7.34696 51.3064 7.24843C51.2653 7.14991 51.212 7.05138 51.1463 6.95285C51.0806 6.85432 51.0108 6.76401 50.9369 6.6819C50.8712 6.59979 50.8096 6.54642 50.7522 6.52179H50.2103L49.7422 5.93062H50.8507C51.0067 6.04557 51.1216 6.13589 51.1955 6.20158C51.2776 6.26726 51.3392 6.34526 51.3803 6.43558V4.72366C51.5445 4.82218 51.6676 4.97408 51.7497 5.17935C51.8401 5.38461 51.9058 5.56935 51.9468 5.73357L52.0084 5.93062H52.9321L53.4001 6.52179ZM59.3643 6.52179H58.3174V12.9261L57.9726 12.6059C57.9726 12.6223 57.952 12.5895 57.911 12.5074C57.8699 12.4253 57.8289 12.339 57.7878 12.2487C57.6975 12.0845 57.5867 11.908 57.4553 11.7191C57.3321 11.5303 57.1474 11.3291 56.9011 11.1157C56.8354 11.0418 56.7328 10.9555 56.5932 10.857C56.4536 10.7503 56.2894 10.6518 56.1005 10.5614C55.9117 10.4629 55.7105 10.3808 55.4971 10.3151C55.2918 10.2494 55.0906 10.2166 54.8936 10.2166C54.8772 10.2166 54.8607 10.2207 54.8443 10.2289C54.8361 10.2289 54.8238 10.2289 54.8074 10.2289H54.7088L54.0191 9.3791L55.8665 7.90118C55.5792 7.63023 55.2754 7.44138 54.9552 7.33465C54.6431 7.2197 54.3804 7.13759 54.1669 7.08833C53.9699 7.03906 53.8221 6.98569 53.7236 6.92822L53.5511 6.52179H53.3664L52.96 5.93062H58.8963L59.3643 6.52179ZM57.677 6.52179H54.7827C54.9962 6.63674 55.1892 6.74758 55.3616 6.85432C55.534 6.96106 55.6982 7.08012 55.8542 7.21149C56.0184 7.34286 56.1785 7.49065 56.3345 7.65486C56.4905 7.81086 56.6589 8.00381 56.8395 8.23371L55.3123 9.46531C55.5668 9.56384 55.7967 9.66647 56.002 9.77321C56.2073 9.87174 56.4002 9.98669 56.5809 10.1181C56.7697 10.2494 56.9503 10.4013 57.1228 10.5738C57.2952 10.7462 57.4799 10.9514 57.677 11.1895V6.52179ZM56.273 11.7684C56.273 11.9572 56.2032 12.1174 56.0636 12.2487C55.924 12.3719 55.7598 12.4335 55.571 12.4335C55.3657 12.4335 55.1974 12.3719 55.066 12.2487C54.9346 12.1174 54.8689 11.9572 54.8689 11.7684C54.8689 11.5796 54.9346 11.4236 55.066 11.3004C55.1974 11.169 55.3657 11.1033 55.571 11.1033C55.7598 11.1033 55.924 11.169 56.0636 11.3004C56.2032 11.4236 56.273 11.5796 56.273 11.7684ZM60.0326 6.95285C60.2625 7.73286 60.517 8.3815 60.7962 8.89878C61.0753 9.40784 61.3668 9.81837 61.6706 10.1304C61.9744 10.4342 62.2864 10.6476 62.6066 10.7708C62.9351 10.894 63.2594 10.9555 63.5796 10.9555C63.8834 10.9555 64.142 10.8981 64.3555 10.7831C64.569 10.66 64.7414 10.5122 64.8728 10.3397C65.0124 10.1591 65.115 9.97027 65.1807 9.77321C65.2464 9.56795 65.2792 9.38321 65.2792 9.21899C65.2792 9.07941 65.2505 8.93162 65.193 8.77562C65.1355 8.61961 65.0575 8.47593 64.959 8.34456C64.8605 8.20498 64.7414 8.09413 64.6018 8.01203C64.4705 7.92171 64.3227 7.87655 64.1584 7.87655C64.0928 7.87655 64.0435 7.88065 64.0107 7.88887C64.0928 8.10234 64.1338 8.28708 64.1338 8.44308C64.1338 8.62372 64.0969 8.77972 64.023 8.91109C63.9491 9.03425 63.8588 9.13689 63.752 9.21899C63.6453 9.29289 63.5262 9.35036 63.3949 9.39142C63.2635 9.42426 63.1444 9.44068 63.0377 9.44068C62.66 9.44068 62.3603 9.32573 62.1386 9.09583C61.9252 8.85772 61.8184 8.57446 61.8184 8.24603C61.8184 8.10645 61.8513 7.95866 61.9169 7.80265C61.9826 7.64665 62.0812 7.50296 62.2125 7.37159C62.3439 7.23201 62.504 7.11706 62.6928 7.02675C62.8899 6.93643 63.1157 6.89127 63.3702 6.89127C63.5262 6.89127 63.7438 6.92822 64.023 7.00211C64.3021 7.07601 64.5772 7.21149 64.8481 7.40854C65.1191 7.6056 65.3531 7.87655 65.5502 8.2214C65.7554 8.56624 65.8581 9.01373 65.8581 9.56384C65.8581 9.85121 65.8129 10.1345 65.7226 10.4136C65.6405 10.6928 65.5091 10.9473 65.3285 11.1772C65.1478 11.3989 64.922 11.5796 64.6511 11.7191C64.3883 11.8587 64.0722 11.9285 63.7028 11.9285C63.5796 11.9285 63.4154 11.9121 63.2101 11.8792C63.0131 11.8464 62.7914 11.7725 62.5451 11.6576C62.3069 11.5426 62.0524 11.3743 61.7815 11.1526C61.5105 10.9227 61.2396 10.6148 60.9686 10.2289C60.7059 9.843 60.4513 9.36678 60.205 8.80025C59.9669 8.2255 59.7534 7.5317 59.5646 6.71885L60.0326 6.95285ZM66.5601 6.52179H59.3922L58.9857 5.93062H66.129L66.5601 6.52179ZM69.4822 6.52179H68.1028V12.9261L67.4624 12.3349V7.48244C67.4624 7.42496 67.4378 7.34696 67.3885 7.24843C67.3474 7.14991 67.2941 7.05138 67.2284 6.95285C67.1627 6.85432 67.0929 6.76401 67.019 6.6819C66.9533 6.59979 66.8917 6.54642 66.8343 6.52179H66.2924L65.8244 5.93062H66.9328C67.0888 6.04557 67.2037 6.13589 67.2776 6.20158C67.3598 6.26726 67.4213 6.34526 67.4624 6.43558V4.72366C67.6266 4.82218 67.7498 4.97408 67.8319 5.17935C67.9222 5.38461 67.9879 5.56935 68.0289 5.73357L68.0905 5.93062H69.0142L69.4822 6.52179ZM75.4464 6.52179H74.3995V12.9261L74.0547 12.6059C74.0547 12.6223 74.0342 12.5895 73.9931 12.5074C73.9521 12.4253 73.911 12.339 73.87 12.2487C73.7796 12.0845 73.6688 11.908 73.5374 11.7191C73.4143 11.5303 73.2295 11.3291 72.9832 11.1157C72.9175 11.0418 72.8149 10.9555 72.6753 10.857C72.5357 10.7503 72.3715 10.6518 72.1827 10.5614C71.9938 10.4629 71.7927 10.3808 71.5792 10.3151C71.3739 10.2494 71.1727 10.2166 70.9757 10.2166C70.9593 10.2166 70.9429 10.2207 70.9264 10.2289C70.9182 10.2289 70.9059 10.2289 70.8895 10.2289H70.791L70.1013 9.3791L71.9487 7.90118C71.6613 7.63023 71.3575 7.44138 71.0373 7.33465C70.7253 7.2197 70.4625 7.13759 70.2491 7.08833C70.052 7.03906 69.9042 6.98569 69.8057 6.92822L69.6333 6.52179H69.4485L69.0421 5.93062H74.9784L75.4464 6.52179ZM73.7591 6.52179H70.8649C71.0783 6.63674 71.2713 6.74758 71.4437 6.85432C71.6161 6.96106 71.7803 7.08012 71.9363 7.21149C72.1006 7.34286 72.2607 7.49065 72.4167 7.65486C72.5727 7.81086 72.741 8.00381 72.9216 8.23371L71.3944 9.46531C71.649 9.56384 71.8789 9.66647 72.0841 9.77321C72.2894 9.87174 72.4823 9.98669 72.663 10.1181C72.8518 10.2494 73.0325 10.4013 73.2049 10.5738C73.3773 10.7462 73.5621 10.9514 73.7591 11.1895V6.52179ZM72.3551 11.7684C72.3551 11.9572 72.2853 12.1174 72.1457 12.2487C72.0061 12.3719 71.8419 12.4335 71.6531 12.4335C71.4478 12.4335 71.2795 12.3719 71.1481 12.2487C71.0167 12.1174 70.9511 11.9572 70.9511 11.7684C70.9511 11.5796 71.0167 11.4236 71.1481 11.3004C71.2795 11.169 71.4478 11.1033 71.6531 11.1033C71.8419 11.1033 72.0061 11.169 72.1457 11.3004C72.2853 11.4236 72.3551 11.5796 72.3551 11.7684Z" fill="black"/>
<g clip-path="url(#clip0_3855_28906)">
<path d="M102 22H1V60.5935H102V22Z" fill="#000B8C"/>
<path d="M28.81 34.2833C26.3054 33.9448 23.7847 33.7402 21.2586 33.6703C22.9923 31.8928 24.6281 30.0214 26.1586 28.0646C24.1684 29.5314 22.2568 31.1028 20.4317 32.7723C20.2303 28.086 19.7574 24.7637 19.7574 24.7637C19.7574 24.7637 19.2815 28.086 19.0832 32.7662C17.2586 31.0993 15.348 29.5299 13.3593 28.0646C14.883 30.0139 16.5127 31.8772 18.2411 33.6458C15.7187 33.6669 13.2015 33.879 10.7109 34.2803C13.1899 34.6731 15.6948 34.878 18.2044 34.8932C16.4472 36.6237 14.8301 38.4921 13.3684 40.4806C15.3641 39.0952 17.2511 37.5583 19.0129 35.8832C18.9474 39.6679 19.2015 43.4513 19.7726 47.1928C20.3431 43.4512 20.5983 39.6679 20.5354 35.8832C22.2997 37.5567 24.1876 39.0935 26.183 40.4806C24.7123 38.4844 23.0872 36.608 21.3226 34.8687C23.8354 34.7946 26.3427 34.59 28.8344 34.2557L28.81 34.2833Z" fill="white"/>
<path d="M31.9717 30.0977V34.2261C32.3282 33.871 32.7485 33.587 33.2104 33.3894C33.6613 33.1991 34.1462 33.1031 34.6353 33.1074C35.1631 33.0994 35.6865 33.2046 36.1705 33.4161C36.6546 33.6275 37.0881 33.9402 37.4423 34.3334C37.832 34.7526 38.1351 35.2453 38.3341 35.783C38.5331 36.3206 38.6241 36.8926 38.6017 37.4657C38.6175 38.0339 38.5197 38.5994 38.3143 39.129C38.1089 39.6586 37.7999 40.1414 37.4056 40.549C37.0452 40.9409 36.607 41.2524 36.1193 41.4636C35.6316 41.6747 35.1052 41.7808 34.5742 41.775C34.1109 41.7781 33.6512 41.6928 33.2195 41.5237C32.7569 41.3265 32.334 41.0461 31.9717 40.6962V41.5819H29.8359V30.0977H31.9717ZM34.1959 35.0015C33.888 34.9929 33.5816 35.0477 33.2956 35.1626C33.0096 35.2776 32.7501 35.4501 32.533 35.6697C32.3119 35.9014 32.1396 36.1756 32.0264 36.4757C31.9131 36.7759 31.8613 37.0959 31.874 37.4167C31.86 37.7431 31.9111 38.0691 32.0243 38.3754C32.1375 38.6817 32.3104 38.9623 32.533 39.2005C32.7485 39.4226 33.0075 39.5973 33.2938 39.7134C33.5801 39.8295 33.8873 39.8844 34.1959 39.8748C34.5003 39.8825 34.803 39.8254 35.0839 39.707C35.3647 39.5887 35.6174 39.4118 35.8252 39.1882C36.0477 38.9539 36.2214 38.6773 36.3361 38.3747C36.4508 38.0721 36.5043 37.7495 36.4933 37.4259C36.5041 37.1068 36.452 36.7887 36.34 36.4899C36.2279 36.1912 36.0582 35.9176 35.8404 35.685C35.6302 35.4601 35.375 35.2824 35.0916 35.1636C34.8082 35.0447 34.5029 34.9874 34.1959 34.9954V35.0015Z" fill="white"/>
<path d="M40.3203 33.3066H42.4561V37.291C42.43 37.8347 42.4856 38.3792 42.6208 38.9063C42.7172 39.1911 42.9023 39.4372 43.1487 39.6081C43.4161 39.782 43.7304 39.8687 44.0487 39.8564C44.3715 39.8698 44.6908 39.7843 44.9641 39.6112C45.2235 39.4375 45.4178 39.1819 45.5163 38.8848C45.6326 38.3829 45.6778 37.867 45.6505 37.3523V33.3066H47.7863V36.8098C47.7863 38.2534 47.6673 39.2403 47.4355 39.7736C47.1778 40.3902 46.7366 40.9116 46.1723 41.2662C45.5315 41.6363 44.7994 41.8159 44.0609 41.7842C43.2633 41.82 42.4743 41.6058 41.8032 41.1712C41.2213 40.757 40.7922 40.1611 40.5827 39.4763C40.418 38.9757 40.3356 38.0634 40.3356 36.7394L40.3203 33.3066Z" fill="white"/>
<path d="M55.0534 34.4719L53.7353 35.7622C53.1983 35.2534 52.7132 34.996 52.2738 34.996C52.0704 34.9814 51.8679 35.0342 51.6972 35.1461C51.6343 35.1847 51.5823 35.2387 51.546 35.303C51.5097 35.3674 51.4904 35.44 51.4897 35.5139C51.4927 35.6298 51.5409 35.7399 51.624 35.8204C51.8125 35.9792 52.0246 36.1074 52.2525 36.2005L53.0335 36.5775C53.681 36.8444 54.26 37.2551 54.7269 37.7789C55.0344 38.1935 55.1955 38.6994 55.1846 39.2164C55.1919 39.5654 55.1215 39.9117 54.9784 40.2299C54.8354 40.5481 54.6233 40.8301 54.3577 41.0553C53.7354 41.5669 52.9456 41.827 52.1426 41.7848C51.5741 41.8031 51.0095 41.6837 50.4965 41.4368C49.9835 41.1898 49.5372 40.8224 49.1953 40.3657L50.4951 38.9773C50.7438 39.256 51.0404 39.4875 51.3707 39.6608C51.6406 39.8175 51.9441 39.9069 52.2556 39.9213C52.497 39.935 52.7358 39.8659 52.9329 39.7251C53.0083 39.6753 53.0708 39.6082 53.1154 39.5293C53.1599 39.4505 53.1852 39.3621 53.1891 39.2715C53.1891 38.965 52.884 38.6432 52.2738 38.352L51.5599 38.0026C50.1869 37.3345 49.5065 36.4916 49.5065 35.4833C49.5041 35.1645 49.5723 34.8492 49.7064 34.5602C49.8404 34.2713 50.0369 34.016 50.2815 33.8129C50.8298 33.3391 51.5359 33.0906 52.2586 33.1172C52.7969 33.1149 53.3283 33.2376 53.8116 33.4758C54.2961 33.7076 54.721 34.0485 55.0534 34.4719Z" fill="white"/>
<path d="M57.7304 29.8986C57.9081 29.896 58.0845 29.9294 58.2491 29.9968C58.4137 30.0642 58.5631 30.1642 58.6884 30.2909C58.8152 30.4157 58.9155 30.5651 58.9831 30.73C59.0508 30.8949 59.0844 31.0719 59.082 31.2502C59.0845 31.4263 59.0508 31.601 58.9831 31.7634C58.9154 31.9258 58.815 32.0725 58.6884 32.1942C58.5657 32.319 58.4193 32.4178 58.2579 32.4847C58.0965 32.5516 57.9233 32.5851 57.7487 32.5834C57.5696 32.5867 57.3917 32.5526 57.2264 32.4836C57.061 32.4145 56.9116 32.3118 56.7875 32.1819C56.6588 32.0571 56.5572 31.9069 56.489 31.7408C56.4207 31.5747 56.3873 31.3962 56.3909 31.2165C56.3905 31.0443 56.4252 30.8739 56.4929 30.7158C56.5606 30.5577 56.6598 30.4151 56.7845 30.297C56.9073 30.1701 57.0544 30.0693 57.217 30.0009C57.3795 29.9324 57.5541 29.8976 57.7304 29.8986ZM56.6533 33.3068H58.7891V41.5821H56.6533V33.3068Z" fill="white"/>
<path d="M60.6858 33.3062H62.8216V34.1613C63.2105 33.8224 63.6488 33.5454 64.1213 33.3399C64.5013 33.185 64.9073 33.1049 65.3173 33.1039C65.7102 33.0976 66.1003 33.1705 66.4645 33.3185C66.8288 33.4664 67.1598 33.6863 67.4379 33.9651C67.9261 34.4555 68.1732 35.1697 68.1732 36.1106V41.5815H66.0374V37.9557C66.0627 37.298 66.0188 36.6394 65.9062 35.9911C65.838 35.6982 65.6735 35.4369 65.4394 35.2493C65.2023 35.0738 64.913 34.9841 64.6187 34.995C64.2167 34.986 63.8274 35.1369 63.5355 35.4148C63.2138 35.7321 62.9938 36.1388 62.9039 36.5826C62.8246 37.1366 62.7949 37.6967 62.8154 38.256V41.5815H60.6797L60.6858 33.3062Z" fill="white"/>
<path d="M78.6593 38.0265H71.8676C71.945 38.5758 72.2234 39.0763 72.6486 39.4303C73.116 39.7863 73.6919 39.9682 74.278 39.9452C75.0343 39.9564 75.7641 39.6653 76.3069 39.136L78.0826 39.9544C77.6773 40.5421 77.1291 41.0158 76.49 41.3305C75.7973 41.6398 75.0449 41.7906 74.2871 41.7719C73.6947 41.7956 73.1036 41.6992 72.549 41.4886C71.9944 41.278 71.4877 40.9574 71.059 40.5459C70.6526 40.1487 70.3322 39.6715 70.1179 39.144C69.9037 38.6166 69.8003 38.0504 69.8142 37.481C69.7979 36.9014 69.8997 36.3247 70.1133 35.786C70.3268 35.2474 70.6476 34.7583 71.056 34.3486C71.4637 33.937 71.951 33.6135 72.4878 33.3979C73.0245 33.1824 73.5994 33.0793 74.1772 33.0951C74.7747 33.072 75.3706 33.1712 75.9287 33.3867C76.4868 33.6022 76.9954 33.9295 77.4236 34.3486C77.8428 34.7829 78.1691 35.2986 78.3827 35.8641C78.5962 36.4296 78.6924 37.033 78.6654 37.6373L78.6593 38.0265ZM76.5235 36.4052C76.3871 35.9496 76.0941 35.5575 75.6967 35.2988C75.2777 35.0103 74.7797 34.8603 74.2718 34.8697C73.718 34.8581 73.1749 35.0245 72.7219 35.3447C72.3794 35.6284 72.1122 35.9927 71.9439 36.4052H76.5235Z" fill="white"/>
<path d="M85.5603 34.4721L84.2483 35.7594C83.7143 35.2506 83.2292 34.9931 82.7929 34.9931C82.5941 34.9819 82.3968 35.0333 82.2285 35.1403C82.1664 35.1794 82.1151 35.2336 82.0794 35.2979C82.0437 35.3621 82.0246 35.4344 82.024 35.508C82.0274 35.6232 82.0744 35.7328 82.1553 35.8145C82.3466 35.9742 82.5617 36.1025 82.7929 36.1946L83.571 36.5716C84.2173 36.8375 84.7944 37.2485 85.2582 37.773C85.5681 38.1866 85.7304 38.6929 85.7189 39.2105C85.7263 39.5595 85.6559 39.9058 85.5128 40.224C85.3698 40.5422 85.1577 40.8242 84.8921 41.0494C84.2701 41.5615 83.4801 41.8217 82.677 41.7789C82.1081 41.7967 81.5432 41.6771 81.0298 41.4302C80.5164 41.1833 80.0695 40.8162 79.7266 40.3598L81.0324 38.9714C81.277 39.2521 81.572 39.4839 81.902 39.6549C82.1743 39.8114 82.4796 39.9007 82.7929 39.9154C83.0333 39.9287 83.2711 39.8595 83.4672 39.7193C83.5426 39.6694 83.6051 39.6023 83.6497 39.5234C83.6942 39.4446 83.7196 39.3562 83.7235 39.2656C83.7235 38.9591 83.4184 38.6373 82.8082 38.3462L82.0973 37.9968C80.7243 37.3286 80.0408 36.4858 80.0408 35.4774C80.0403 35.1589 80.1094 34.8442 80.2434 34.5556C80.3773 34.2669 80.5727 34.0114 80.8158 33.807C81.3653 33.3333 82.0723 33.0849 82.796 33.1113C83.3343 33.1086 83.8659 33.2313 84.349 33.4699C84.8231 33.7074 85.2373 34.0502 85.5603 34.4721Z" fill="white"/>
<path d="M92.5816 34.4721L91.2604 35.7624C90.7265 35.2536 90.2383 34.9962 89.802 34.9962C89.5987 34.983 89.3967 35.0356 89.2254 35.1464C89.1637 35.1856 89.1129 35.2399 89.0777 35.3042C89.0425 35.3686 89.024 35.4408 89.024 35.5141C89.0247 35.6293 89.0708 35.7395 89.1522 35.8206C89.3423 35.9787 89.5553 36.1068 89.7838 36.2007L90.5678 36.5777C91.2141 36.8436 91.7913 37.2546 92.2551 37.7791C92.5663 38.192 92.7287 38.6988 92.7158 39.2166C92.7232 39.5659 92.6526 39.9125 92.5089 40.2308C92.3653 40.5491 92.1524 40.8309 91.8859 41.0555C91.2646 41.5666 90.4759 41.8267 89.6739 41.785C89.1052 41.8038 88.5404 41.6847 88.0274 41.4377C87.5143 41.1906 87.0681 40.823 86.7266 40.3659L88.0263 38.9775C88.2733 39.2569 88.569 39.4885 88.8989 39.661C89.1702 39.8171 89.4745 39.9064 89.7868 39.9215C90.0282 39.9353 90.2671 39.8661 90.4641 39.7253C90.5404 39.6764 90.6036 39.6095 90.6483 39.5305C90.6929 39.4514 90.7177 39.3626 90.7204 39.2717C90.7204 38.9652 90.4153 38.6434 89.8051 38.3523L89.0881 38.0029C87.7182 37.3347 87.0378 36.4919 87.0378 35.4835C87.0353 35.1647 87.1036 34.8494 87.2376 34.5605C87.3717 34.2715 87.5682 34.0162 87.8128 33.8131C88.3603 33.338 89.0669 33.0893 89.7899 33.1174C90.3272 33.1147 90.8577 33.2375 91.3398 33.476C91.8247 33.7073 92.2497 34.0482 92.5816 34.4721Z" fill="white"/>
<path d="M11.0246 48.5109H13.3404V57.5892H11.0246V56.633C10.6283 57.0202 10.1651 57.3318 9.6577 57.5524C9.18594 57.7446 8.68087 57.8404 8.17186 57.8344C7.58777 57.8374 7.00955 57.7173 6.47454 57.4818C5.93954 57.2464 5.4596 56.9008 5.0658 56.4675C4.6331 56.0176 4.2942 55.4856 4.06891 54.9024C3.84362 54.3193 3.73654 53.6968 3.7539 53.0715C3.70274 51.7975 4.15702 50.5552 5.01701 49.6174C5.40705 49.1865 5.88371 48.8438 6.41547 48.6118C6.94724 48.3799 7.52201 48.264 8.10169 48.2719C8.6393 48.2707 9.17195 48.3748 9.66991 48.5784C10.174 48.7967 10.6326 49.1086 11.0215 49.4978L11.0246 48.5109ZM8.58371 50.3499C8.24942 50.3416 7.91716 50.4042 7.60857 50.5336C7.29998 50.663 7.02202 50.8562 6.79276 51.1008C6.55396 51.3588 6.36823 51.6616 6.24623 51.992C6.12424 52.3223 6.06835 52.6735 6.08184 53.0256C6.06875 53.3823 6.12587 53.7381 6.24996 54.0726C6.37405 54.4071 6.56269 54.7137 6.80498 54.9748C7.0321 55.2213 7.30848 55.4167 7.61609 55.5482C7.92371 55.6797 8.25556 55.7444 8.58982 55.738C8.92729 55.7485 9.26315 55.6874 9.57546 55.5585C9.88777 55.4296 10.1695 55.236 10.4021 54.9902C10.6478 54.7262 10.8387 54.4157 10.9633 54.0768C11.088 53.7379 11.1441 53.3773 11.1283 53.0164C11.1432 52.6619 11.0865 52.3082 10.9617 51.9763C10.8369 51.6445 10.6466 51.3415 10.4021 51.0855C10.1645 50.8432 9.87937 50.6532 9.56473 50.5277C9.2501 50.4021 8.91288 50.3436 8.57455 50.356L8.58371 50.3499Z" fill="white"/>
<path d="M15.6953 48.5117H18.0538V52.8823C18.0225 53.4816 18.0833 54.0822 18.2338 54.663C18.3407 54.9757 18.5437 55.2461 18.8135 55.4354C19.1044 55.6253 19.4461 55.7215 19.7929 55.7112C20.1443 55.7204 20.4906 55.6244 20.7876 55.4354C21.0712 55.2441 21.2853 54.9656 21.3978 54.6416C21.5285 54.092 21.5788 53.5262 21.5473 52.962V48.5117H23.86V52.3613C23.86 53.9458 23.7349 55.0277 23.4786 55.6162C23.1982 56.2934 22.7152 56.8664 22.0965 57.2559C21.3913 57.6618 20.5868 57.8604 19.7746 57.8291C18.9028 57.8693 18.04 57.6358 17.3063 57.1609C16.6707 56.7059 16.2037 56.0514 15.979 55.3005C15.796 54.7458 15.7045 53.7497 15.7045 52.2908L15.6953 48.5117Z" fill="white"/>
<path d="M26.4321 45.1641H28.7479V48.511H30.1209V50.4694H28.7479V57.5893H26.4321V50.4694H25.2422V48.511H26.4321V45.1641Z" fill="white"/>
<path d="M35.7372 48.2715C36.6012 48.2681 37.4514 48.4887 38.2056 48.9121C38.9528 49.3197 39.5767 49.9222 40.0118 50.6561C40.4406 51.3755 40.6653 52.199 40.6617 53.0375C40.6645 53.885 40.4388 54.7174 40.0088 55.4465C39.586 56.1831 38.9696 56.7886 38.227 57.1966C37.4665 57.6198 36.6096 57.8374 35.7403 57.828C35.1082 57.8386 34.4805 57.7208 33.8949 57.4817C33.3093 57.2426 32.7777 56.8871 32.3323 56.4365C31.8786 56.0025 31.5192 55.479 31.2766 54.8988C31.034 54.3186 30.9135 53.6943 30.9226 53.0651C30.9104 52.3917 31.0473 51.724 31.3232 51.1103C31.5992 50.4965 32.0074 49.9519 32.5183 49.5159C33.3977 48.7099 34.5468 48.2657 35.7372 48.2715ZM35.7769 50.417C35.4398 50.4079 35.1044 50.4691 34.7919 50.5968C34.4794 50.7244 34.1966 50.9158 33.9615 51.1587C33.7207 51.4097 33.5325 51.7067 33.4077 52.032C33.283 52.3573 33.2244 52.7044 33.2354 53.0528C33.2207 53.4058 33.2769 53.7581 33.4006 54.0887C33.5243 54.4194 33.713 54.7217 33.9555 54.9776C34.1891 55.2216 34.4711 55.4138 34.7833 55.5415C35.0954 55.6693 35.4309 55.7298 35.7678 55.7193C36.1076 55.7288 36.4457 55.6676 36.7607 55.5394C37.0758 55.4112 37.361 55.2189 37.5984 54.9745C37.8416 54.7195 38.0312 54.4179 38.1559 54.0878C38.2807 53.7577 38.338 53.4057 38.3246 53.0528C38.3385 52.7034 38.2822 52.3548 38.159 52.0278C38.0358 51.7008 37.8483 51.4021 37.6076 51.1495C37.3707 50.9046 37.0854 50.7122 36.7702 50.5845C36.4549 50.4567 36.1167 50.3966 35.7769 50.4078V50.417Z" fill="white"/>
<path d="M42.5452 48.5112H44.864V49.5502C45.2356 49.1387 45.6887 48.8099 46.1943 48.5847C46.699 48.3718 47.2426 48.2674 47.79 48.2783C48.3413 48.2701 48.8841 48.4155 49.3583 48.6982C49.8404 48.9929 50.2305 49.4176 50.4841 49.9241C50.8334 49.4096 51.3026 48.9887 51.851 48.6982C52.3961 48.4161 53.0014 48.272 53.6145 48.2783C54.2257 48.264 54.8291 48.4176 55.3597 48.7227C55.832 48.9937 56.2093 49.4048 56.4398 49.8996C56.6595 50.3839 56.7663 51.1715 56.7663 52.2627V57.5895H54.4444V52.9921C54.4444 51.9623 54.3162 51.2635 54.0508 50.8988C53.9117 50.7167 53.7301 50.572 53.522 50.4773C53.3139 50.3827 53.0858 50.3411 52.8578 50.3563C52.4714 50.3514 52.0929 50.467 51.7747 50.6873C51.4515 50.9162 51.2031 51.2362 51.0607 51.6068C50.8766 52.2181 50.7992 52.8569 50.8319 53.4948V57.5895H48.5101V53.1975C48.5355 52.6032 48.4738 52.0083 48.327 51.4321C48.2317 51.1101 48.0373 50.8268 47.7716 50.6229C47.51 50.4398 47.1965 50.3463 46.8777 50.3563C46.4951 50.352 46.1212 50.4701 45.8098 50.6934C45.4824 50.9304 45.2328 51.2602 45.0929 51.6405C44.9054 52.2617 44.826 52.9108 44.8579 53.5591V57.5895H42.5391L42.5452 48.5112Z" fill="white"/>
<path d="M65.7898 48.5106H68.1026V57.5889H65.7898V56.6327C65.3941 57.0206 64.9308 57.3323 64.423 57.5522C63.9511 57.7437 63.4461 57.8396 62.9371 57.8341C62.353 57.8377 61.7745 57.7178 61.2394 57.4823C60.7044 57.2468 60.2245 56.901 59.8311 56.4672C59.3978 56.0178 59.0585 55.4858 58.8332 54.9025C58.6079 54.3193 58.5011 53.6966 58.5192 53.0713C58.4705 51.7989 58.9258 50.559 59.7853 49.6232C60.1748 49.1924 60.6509 48.8497 61.1822 48.6178C61.7134 48.3858 62.2877 48.2699 62.867 48.2777C63.4056 48.2765 63.9392 48.3806 64.4382 48.5842C64.9424 48.8026 65.4009 49.1145 65.7898 49.5037V48.5106ZM63.349 50.3496C63.0142 50.3413 62.6815 50.4039 62.3724 50.5332C62.0633 50.6626 61.7848 50.8559 61.555 51.1005C61.0753 51.6232 60.8198 52.3147 60.8441 53.0253C60.8201 53.7459 61.0812 54.4468 61.5702 54.9746C61.798 55.2211 62.0749 55.4165 62.383 55.548C62.6911 55.6795 63.0234 55.7442 63.3581 55.7377C63.6955 55.7473 64.0311 55.6857 64.3433 55.5569C64.6554 55.4281 64.9372 55.2349 65.1705 54.9899C65.415 54.7253 65.6049 54.4146 65.7291 54.0758C65.8532 53.737 65.9091 53.3768 65.8936 53.0161C65.9083 52.6619 65.8519 52.3085 65.7276 51.9767C65.6034 51.645 65.4139 51.3418 65.1705 51.0852C64.9325 50.8425 64.6468 50.6523 64.3316 50.5268C64.0165 50.4012 63.6787 50.3429 63.3398 50.3557L63.349 50.3496Z" fill="white"/>
<path d="M70.7324 45.1641H73.0482V48.511H74.4242V50.4694H73.0573V57.5893H70.7415V50.4694H69.5547V48.511H70.7415L70.7324 45.1641Z" fill="white"/>
<path d="M76.5864 44.7815C76.7808 44.7793 76.9735 44.8165 77.1533 44.8907C77.3331 44.9649 77.4962 45.0748 77.6329 45.2136C77.7737 45.3486 77.8852 45.5114 77.9603 45.6918C78.0354 45.8722 78.0724 46.0663 78.0692 46.2618C78.0716 46.4549 78.0341 46.6465 77.959 46.8243C77.8839 47.0021 77.7729 47.1623 77.6329 47.2947C77.4992 47.4331 77.3388 47.5426 77.1614 47.6164C76.9841 47.6902 76.7936 47.7267 76.6017 47.7238C76.4051 47.7263 76.2101 47.6891 76.0282 47.6143C75.8464 47.5395 75.6812 47.4287 75.5429 47.2886C75.4028 47.1506 75.2922 46.9854 75.2177 46.8031C75.1432 46.6208 75.1065 46.4251 75.1096 46.2281C75.1059 46.0369 75.1425 45.847 75.2172 45.6711C75.2919 45.4951 75.4029 45.3371 75.5429 45.2075C75.6793 45.0695 75.8421 44.9607 76.0214 44.8875C76.2007 44.8143 76.3929 44.7782 76.5864 44.7815ZM75.43 48.5115H77.7488V57.5898H75.43V48.5115Z" fill="white"/>
<path d="M84.2219 48.2716C85.086 48.2671 85.9365 48.4878 86.6902 48.9122C87.4383 49.3198 88.0633 49.9222 88.4996 50.6561C88.9263 51.3764 89.1509 52.1994 89.1494 53.0376C89.1525 53.8855 88.9257 54.7183 88.4935 55.4466C88.0718 56.183 87.4563 56.7885 86.7147 57.1967C85.9552 57.6196 85.0994 57.8371 84.2311 57.8281C83.5985 57.8389 82.9702 57.7213 82.3841 57.4822C81.7979 57.243 81.2659 56.8874 80.8199 56.4366C80.3653 56.0032 80.005 55.4799 79.7619 54.8996C79.5188 54.3193 79.398 53.6947 79.4073 53.0652C79.3927 52.3913 79.5272 51.7226 79.801 51.1072C80.0748 50.4919 80.4812 49.9453 80.9908 49.5068C81.8757 48.7028 83.0289 48.262 84.2219 48.2716ZM84.2646 50.4171C83.9274 50.408 83.592 50.4692 83.2796 50.5969C82.9671 50.7245 82.6844 50.9159 82.4492 51.1588C82.2083 51.4096 82.0201 51.7065 81.8959 52.032C81.7716 52.3574 81.7139 52.7046 81.7261 53.0529C81.7105 53.4055 81.7656 53.7575 81.8883 54.0882C82.0109 54.4189 82.1986 54.7214 82.4401 54.9777C82.6742 55.222 82.9567 55.4142 83.2694 55.542C83.5822 55.6697 83.9181 55.7302 84.2555 55.7194C84.5954 55.7302 84.9339 55.6696 85.2492 55.5413C85.5644 55.4131 85.8495 55.22 86.0861 54.9746C86.3298 54.7198 86.52 54.4184 86.6452 54.0883C86.7705 53.7581 86.8284 53.406 86.8154 53.0529C86.8292 52.7038 86.7731 52.3555 86.6504 52.0286C86.5278 51.7016 86.3411 51.4027 86.1014 51.1496C85.8629 50.9052 85.5765 50.7131 85.2604 50.5854C84.9443 50.4578 84.6052 50.3973 84.2646 50.4079V50.4171Z" fill="white"/>
<path d="M91.0156 48.511H93.3345V49.4305C93.7646 49.0529 94.2491 48.7429 94.7715 48.511C95.1921 48.3437 95.6403 48.2574 96.0927 48.2566C96.5264 48.2472 96.9576 48.326 97.3603 48.4882C97.7629 48.6504 98.1288 48.8928 98.4359 49.2006C98.9749 49.7339 99.2455 50.5236 99.2475 51.5698V57.5893H96.9531V53.6049C96.9831 52.8802 96.9319 52.1543 96.8005 51.4411C96.7221 51.1185 96.5371 50.8322 96.2758 50.6289C96.0103 50.4356 95.688 50.3374 95.3604 50.35C94.9095 50.3406 94.4723 50.5064 94.14 50.8128C93.7813 51.159 93.5364 51.6071 93.4382 52.097C93.3477 52.7055 93.3129 53.321 93.3345 53.9359V57.5832H91.0156V48.511Z" fill="white"/>
</g>
<defs>
<clipPath id="clip0_3855_28906">
<rect width="101" height="38.5935" fill="white" transform="translate(1 22)"/>
</clipPath>
</defs>
</svg>
