<svg width="205" height="75" viewBox="0 0 205 75" fill="none" xmlns="http://www.w3.org/2000/svg">
<path d="M6.54715 6.52179H5.48797V12.9138L5.10618 12.6305C4.97481 12.1871 4.79417 11.7971 4.56428 11.4605C4.33438 11.1157 4.07574 10.8283 3.78837 10.5984C3.501 10.3603 3.18489 10.1714 2.84004 10.0318C2.5034 9.89227 2.15855 9.79784 1.80549 9.74858L1.10348 8.88646L4.83523 6.85432V6.52179H0.820216L0.413788 5.93062H6.06683L6.54715 6.52179ZM4.83523 7.80265L2.56909 9.02194C2.97962 9.20257 3.36552 9.44068 3.72679 9.73626C4.09627 10.0318 4.46575 10.4465 4.83523 10.9802V7.80265ZM9.42003 6.52179H8.04064V12.9261L7.4002 12.3349V7.48244C7.4002 7.42496 7.37557 7.34696 7.32631 7.24843C7.28525 7.14991 7.23189 7.05138 7.1662 6.95285C7.10051 6.85432 7.03072 6.76401 6.95683 6.6819C6.89114 6.59979 6.82956 6.54642 6.77209 6.52179H6.23019L5.76218 5.93062H6.87062C7.02662 6.04557 7.14157 6.13589 7.21546 6.20158C7.29757 6.26726 7.35915 6.34526 7.4002 6.43558V4.72366C7.56442 4.82218 7.68758 4.97408 7.76968 5.17935C7.86 5.38461 7.92569 5.56935 7.96674 5.73357L8.02832 5.93062H8.95202L9.42003 6.52179ZM10.8642 8.93572C10.7411 8.93572 10.5605 8.84951 10.3223 8.67709C10.0842 8.50466 9.82149 8.18445 9.53412 7.71644L9.95286 7.50707C10.0268 7.63844 10.1089 7.76571 10.1992 7.88887C10.2977 8.00381 10.388 8.06129 10.4701 8.06129C10.5851 8.06129 10.6836 8.00381 10.7657 7.88887C10.856 7.76571 10.9464 7.62202 11.0367 7.45781C11.1188 7.31001 11.205 7.15812 11.2953 7.00211C11.3938 6.8379 11.517 6.67779 11.6648 6.52179H9.39865L8.99222 5.93062H15.8769L16.3941 6.52179H15.2857C15.376 6.66137 15.4499 6.82148 15.5074 7.00211C15.5731 7.18275 15.6059 7.35517 15.6059 7.51939C15.6059 7.63434 15.5854 7.76981 15.5443 7.92581C15.5033 8.08182 15.4376 8.23371 15.3473 8.3815C15.2652 8.5293 15.1543 8.66067 15.0147 8.77562C14.8834 8.89057 14.7274 8.96446 14.5467 8.9973V9.02194L14.6822 9.0712C14.9203 9.21078 15.1256 9.40373 15.298 9.65005C15.4786 9.88816 15.569 10.2125 15.569 10.623C15.569 10.8858 15.491 11.1567 15.335 11.4359C15.1872 11.7068 14.9696 11.9244 14.6822 12.0886H14.6945L14.559 12.1625C14.4851 12.2036 14.403 12.2364 14.3127 12.261C14.2224 12.2857 14.1321 12.3062 14.0418 12.3226C13.9597 12.339 13.8817 12.3514 13.8078 12.3596C13.7421 12.3596 13.6928 12.3596 13.66 12.3596C13.2494 12.3596 12.8759 12.2651 12.5392 12.0763C12.2108 11.8875 11.9193 11.6411 11.6648 11.3373C11.4185 11.0253 11.2091 10.6723 11.0367 10.2782C10.8725 9.88406 10.7493 9.47763 10.6672 9.05888L11.2214 9.3052C11.3281 9.71574 11.4718 10.0647 11.6525 10.3521C11.8331 10.6312 12.0343 10.857 12.256 11.0294C12.4776 11.2019 12.7075 11.3291 12.9456 11.4112C13.192 11.4851 13.4219 11.5221 13.6353 11.5221C13.8078 11.5221 13.9802 11.4974 14.1526 11.4482C14.325 11.3907 14.4769 11.3168 14.6083 11.2265C14.7397 11.128 14.8464 11.013 14.9285 10.8817C15.0106 10.7503 15.0517 10.6025 15.0517 10.4383C15.0517 10.2248 14.9737 10.0483 14.8177 9.90869C14.6617 9.76911 14.4646 9.69932 14.2265 9.69932C14.2429 9.78142 14.2511 9.85532 14.2511 9.921C14.2511 10.1016 14.1855 10.2494 14.0541 10.3644C13.9309 10.4711 13.738 10.5245 13.4752 10.5245C13.1961 10.5245 12.9826 10.4588 12.8348 10.3274C12.6952 10.1878 12.6254 10.0031 12.6254 9.77321C12.6254 9.59258 12.7075 9.41194 12.8718 9.23131C13.036 9.05067 13.2741 8.93572 13.5861 8.88646C13.4629 8.82078 13.3274 8.73046 13.1797 8.61551C13.0401 8.50056 12.9005 8.37329 12.7609 8.23371C12.6295 8.08592 12.5064 7.92992 12.3914 7.76571C12.2847 7.59328 12.2067 7.42086 12.1574 7.24843C12.0425 7.42907 11.9357 7.59328 11.8372 7.74107C11.7469 7.88887 11.6689 8.02845 11.6032 8.15982C11.4636 8.39793 11.3405 8.58677 11.2337 8.72635C11.127 8.86593 11.0038 8.93572 10.8642 8.93572ZM14.9285 7.23612C14.9285 7.07191 14.8998 6.94464 14.8423 6.85432C14.7848 6.76401 14.6945 6.65316 14.5714 6.52179H12.7363C12.6952 6.52179 12.6665 6.54642 12.6501 6.59569C12.6419 6.63674 12.6377 6.67779 12.6377 6.71885C12.6377 6.85022 12.6829 6.9939 12.7732 7.14991C12.8635 7.30591 12.9785 7.4537 13.1181 7.59328C13.2577 7.73286 13.4096 7.85192 13.5738 7.95045C13.7462 8.04076 13.9104 8.08592 14.0664 8.08592C14.1485 8.08592 14.2388 8.07361 14.3374 8.04897C14.4359 8.01613 14.5303 7.97097 14.6206 7.9135C14.7109 7.84781 14.7848 7.76981 14.8423 7.67949C14.908 7.58097 14.9408 7.47012 14.9408 7.34696C14.9408 7.33875 14.9367 7.33465 14.9285 7.33465C14.9285 7.32644 14.9285 7.31412 14.9285 7.2977V7.23612ZM22.0627 6.52179H21.0036V12.9138L20.6218 12.6305C20.4904 12.1871 20.3098 11.7971 20.0799 11.4605C19.85 11.1157 19.5913 10.8283 19.3039 10.5984C19.0166 10.3603 18.7005 10.1714 18.3556 10.0318C18.019 9.89227 17.6741 9.79784 17.3211 9.74858L16.6191 8.88646L20.3508 6.85432V6.52179H16.3358L15.9294 5.93062H21.5824L22.0627 6.52179ZM20.3508 7.80265L18.0847 9.02194C18.4952 9.20257 18.8811 9.44068 19.2424 9.73626C19.6118 10.0318 19.9813 10.4465 20.3508 10.9802V7.80265ZM24.9356 6.52179H23.5562V12.9261L22.9158 12.3349V7.48244C22.9158 7.42496 22.8912 7.34696 22.8419 7.24843C22.8008 7.14991 22.7475 7.05138 22.6818 6.95285C22.6161 6.85432 22.5463 6.76401 22.4724 6.6819C22.4067 6.59979 22.3451 6.54642 22.2877 6.52179H21.7458L21.2778 5.93062H22.3862C22.5422 6.04557 22.6571 6.13589 22.731 6.20158C22.8132 6.26726 22.8747 6.34526 22.9158 6.43558V4.72366C23.08 4.82218 23.2032 4.97408 23.2853 5.17935C23.3756 5.38461 23.4413 5.56935 23.4823 5.73357L23.5439 5.93062H24.4676L24.9356 6.52179ZM30.8998 6.52179H29.8529V12.9261L29.5081 12.6059C29.5081 12.6223 29.4876 12.5895 29.4465 12.5074C29.4055 12.4253 29.3644 12.339 29.3233 12.2487C29.233 12.0845 29.1222 11.908 28.9908 11.7191C28.8677 11.5303 28.6829 11.3291 28.4366 11.1157C28.3709 11.0418 28.2683 10.9555 28.1287 10.857C27.9891 10.7503 27.8249 10.6518 27.6361 10.5614C27.4472 10.4629 27.2461 10.3808 27.0326 10.3151C26.8273 10.2494 26.6261 10.2166 26.4291 10.2166C26.4127 10.2166 26.3962 10.2207 26.3798 10.2289C26.3716 10.2289 26.3593 10.2289 26.3429 10.2289H26.2444L25.5547 9.3791L27.4021 7.90118C27.1147 7.63023 26.8109 7.44138 26.4907 7.33465C26.1787 7.2197 25.9159 7.13759 25.7024 7.08833C25.5054 7.03906 25.3576 6.98569 25.2591 6.92822L25.0866 6.52179H24.9019L24.4955 5.93062H30.4318L30.8998 6.52179ZM29.2125 6.52179H26.3182C26.5317 6.63674 26.7247 6.74758 26.8971 6.85432C27.0695 6.96106 27.2337 7.08012 27.3897 7.21149C27.554 7.34286 27.7141 7.49065 27.8701 7.65486C28.0261 7.81086 28.1944 8.00381 28.375 8.23371L26.8478 9.46531C27.1024 9.56384 27.3323 9.66647 27.5375 9.77321C27.7428 9.87174 27.9357 9.98669 28.1164 10.1181C28.3052 10.2494 28.4859 10.4013 28.6583 10.5738C28.8307 10.7462 29.0154 10.9514 29.2125 11.1895V6.52179ZM27.8085 11.7684C27.8085 11.9572 27.7387 12.1174 27.5991 12.2487C27.4595 12.3719 27.2953 12.4335 27.1065 12.4335C26.9012 12.4335 26.7329 12.3719 26.6015 12.2487C26.4701 12.1174 26.4045 11.9572 26.4045 11.7684C26.4045 11.5796 26.4701 11.4236 26.6015 11.3004C26.7329 11.169 26.9012 11.1033 27.1065 11.1033C27.2953 11.1033 27.4595 11.169 27.5991 11.3004C27.7387 11.4236 27.8085 11.5796 27.8085 11.7684ZM34.6348 5.93062L35.0905 6.52179H34.9057C34.5281 6.58748 34.1668 6.73937 33.8219 6.97748C33.4853 7.20738 33.161 7.54402 32.849 7.98739C32.7669 8.12697 32.6889 8.26656 32.615 8.40614C32.5411 8.54572 32.4754 8.69762 32.4179 8.86183C32.3604 9.02604 32.3112 9.21078 32.2701 9.41605C32.2373 9.6131 32.2209 9.83479 32.2209 10.0811C32.2209 10.2617 32.2455 10.4588 32.2948 10.6723C32.3522 10.8858 32.4302 11.0992 32.5288 11.3127C32.6273 11.518 32.7463 11.7068 32.8859 11.8792C33.0337 12.0517 33.202 12.1871 33.3909 12.2857C33.358 12.22 33.3375 12.1543 33.3293 12.0886C33.3211 12.0229 33.317 11.9572 33.317 11.8916C33.317 11.7027 33.3621 11.5426 33.4525 11.4112C33.551 11.2799 33.6906 11.2101 33.8712 11.2019C33.9944 11.2019 34.1052 11.2224 34.2037 11.2634C34.3105 11.3045 34.4008 11.362 34.4747 11.4359C34.5486 11.5098 34.6061 11.596 34.6471 11.6945C34.6964 11.793 34.721 11.8916 34.721 11.9901C34.721 12.0804 34.7005 12.1748 34.6594 12.2734C34.6266 12.3637 34.5691 12.4499 34.487 12.532C34.4131 12.6141 34.3105 12.6798 34.1791 12.729C34.0559 12.7783 33.904 12.8029 33.7234 12.8029C33.4771 12.8029 33.2267 12.7455 32.9721 12.6305C32.7258 12.5074 32.5 12.3267 32.2948 12.0886C32.0977 11.8423 31.9294 11.5344 31.7898 11.1649C31.6584 10.7954 31.5886 10.3562 31.5804 9.84711C31.564 9.09173 31.6872 8.43898 31.9499 7.88887C32.2126 7.33875 32.5534 6.88306 32.9721 6.52179H30.9154L30.4966 5.93062H34.6348ZM40.562 6.52179H39.5398V12.9261L39.158 12.5813C39.158 12.1871 39.0923 11.8012 38.961 11.4236C38.8378 11.0459 38.6695 10.7051 38.456 10.4013C38.2507 10.0975 38.0167 9.84711 37.754 9.65005C37.4995 9.453 37.2408 9.33805 36.9781 9.3052C37.0356 9.41194 37.0725 9.51047 37.0889 9.60079C37.1136 9.68289 37.1259 9.765 37.1259 9.84711C37.1259 9.98669 37.093 10.1181 37.0273 10.2412C36.9699 10.3562 36.8919 10.4588 36.7933 10.5491C36.6948 10.6312 36.5881 10.6969 36.4731 10.7462C36.3582 10.7872 36.2473 10.8078 36.1406 10.8078C35.9764 10.8078 35.8245 10.779 35.6849 10.7215C35.5535 10.6559 35.4386 10.5696 35.3401 10.4629C35.2497 10.3562 35.1799 10.2371 35.1307 10.1057C35.0814 9.97437 35.0568 9.83479 35.0568 9.687C35.0568 9.48173 35.0978 9.3011 35.1799 9.1451C35.2621 8.98088 35.3729 8.84541 35.5125 8.73867C35.6521 8.63193 35.8122 8.55393 35.9928 8.50466C36.1734 8.44719 36.3664 8.41845 36.5717 8.41845C36.7359 8.41845 36.9165 8.44719 37.1136 8.50466C37.3188 8.56214 37.5241 8.65656 37.7294 8.78793C37.9428 8.91109 38.1481 9.07941 38.3452 9.29289C38.5504 9.49815 38.7311 9.75268 38.8871 10.0565V6.52179H34.7982L34.3917 5.93062H40.131L40.562 6.52179Z" fill="white"/>
<g clip-path="url(#clip0_4446_5251)">
<path d="M27.556 73.5768C42.2785 73.5768 54.2135 61.6418 54.2135 46.9192C54.2135 32.1967 42.2785 20.2617 27.556 20.2617C12.8334 20.2617 0.898438 32.1967 0.898438 46.9192C0.898438 61.6418 12.8334 73.5768 27.556 73.5768Z" fill="white"/>
<path d="M27.5837 74.1675C12.6499 74.1675 0.5 62.0167 0.5 47.082C0.5 32.1474 12.6499 20 27.5837 20C42.5175 20 54.6641 32.1491 54.6641 47.082C54.6641 62.015 42.5158 74.1675 27.5837 74.1675ZM27.5837 20.849C13.1177 20.849 1.34899 32.6169 1.34899 47.082C1.34899 61.5472 13.1177 73.3185 27.5837 73.3185C42.0497 73.3185 53.8151 61.5489 53.8151 47.082C53.8151 32.6152 42.048 20.849 27.5837 20.849Z" fill="#444B47"/>
<path d="M4.25172 44.8601C3.92061 45.1886 3.4231 45.8628 3.28556 46.9834C3.19302 48.8003 4.62018 48.8427 4.61763 48.8393L5.04807 48.2561C5.04807 48.2646 4.38841 47.5769 4.65584 46.9359C4.9411 46.3204 5.62199 47.5446 5.8665 48.1185L6.34449 47.3561C6.31222 47.3604 6.02357 46.1327 5.26117 45.8568C4.49623 45.5766 4.1405 46.9537 4.23559 47.3986C4.23813 47.4054 3.5895 46.9223 4.17106 45.6683C4.35869 45.2489 4.59896 45.0299 4.82818 44.9144C5.41823 44.9773 6.10762 45.0757 6.59409 45.209C6.56947 45.2014 7.09415 44.3999 7.31913 44.2098L4.21012 43.9007L4.37397 42.8488L3.93335 42.7656C3.83826 43.4499 3.69478 44.1274 3.64299 44.8125C3.64299 44.8125 3.8909 44.827 4.25002 44.8592L4.25172 44.8601Z" fill="#00684D"/>
<path d="M5.85507 38.6682C4.91438 39.1122 4.0586 40.3229 4.35744 41.5284C4.6495 42.8248 5.85507 42.4199 6.31607 41.694C6.74906 40.9562 6.59114 39.8771 5.97647 40.0894C5.33124 40.3118 5.36774 41.1404 5.3601 41.1336C5.3601 41.1311 4.78618 41.407 4.96108 40.4519C5.15974 39.4475 5.91789 39.0205 6.31947 38.8541C6.86197 39.074 7.48259 39.3516 7.90284 39.6038C7.91557 39.6038 8.5659 38.9449 8.85031 38.832L5.94081 37.6867L6.40946 36.7299L6.00789 36.5312C5.69885 37.1502 5.39236 37.7657 5.17587 38.4211C5.17587 38.4211 5.46028 38.5187 5.85592 38.669L5.85507 38.6682Z" fill="#00684D"/>
<path d="M31.088 23.7663L30.4419 23.6678L30.1643 26.8456C29.9733 26.6062 29.1616 26.1469 29.1591 26.1469C29.3501 25.4074 29.4545 24.1925 29.4902 23.5753C28.7159 23.5498 27.9433 23.442 27.1673 23.5056C27.3635 23.7527 27.5069 24.2485 26.7386 24.8869C27.0273 24.943 27.3363 25.0703 27.6368 25.3089C27.7353 25.3785 27.9229 25.657 27.9204 25.6612L27.9119 27.6598C27.9144 27.6479 27.5732 27.3507 27.0926 27.3753C26.6104 27.411 26.2835 27.8754 25.595 27.6063C24.6968 27.2743 24.5788 26.4958 24.5838 26.4958C24.5847 26.4932 25.0466 27.1648 25.7436 27.1139C26.4431 27.1156 26.2487 26.6087 27.2403 27.0799V25.7096C27.2454 25.7096 26.8575 24.9336 26.2606 25.4872C26.2606 25.4872 26.8133 25.6909 26.5289 26.1078C26.2479 26.5009 25.3777 26.5068 25.1255 25.9974C24.926 25.6052 25.64 24.6552 26.7344 24.8878C26.7131 24.8751 25.9923 24.212 25.2681 24.448C25.2707 24.448 25.4957 24.7588 25.0865 25.0601C24.5541 25.4592 23.5583 25.1875 23.7527 24.6238C24.0379 23.869 25.6307 23.785 26.1834 24.2519C26.1774 24.2519 26.7165 23.8376 25.9473 23.5549C22.8078 23.7739 19.7183 24.6221 16.9081 26.039L18.4473 28.8348C18.1629 28.7601 17.2341 28.8314 17.229 28.8288C16.9769 28.1089 16.3868 27.04 16.0752 26.5068C15.0004 27.0672 14.0317 27.7897 13.0452 28.4901L12.8788 28.7354C14.0903 28.9655 14.8204 27.6793 14.8306 27.6606C15.2042 27.709 15.5956 27.8032 15.9742 27.8941C15.1405 29.7933 16.6381 29.7788 16.6042 29.7848L16.4946 29.9104C15.3001 30.2356 14.7568 28.5835 14.7729 28.5741C13.7371 29.1132 12.9476 29.1633 12.6241 29.1701C11.9924 30.3655 12.3439 30.8036 12.7913 30.4929C13.344 30.1117 13.2939 29.6048 13.2939 29.6031C14.0589 29.1803 14.7101 29.272 14.9478 29.7457C15.1541 30.2271 14.8264 31.6059 13.2549 31.9608C11.7216 32.4184 10.685 31.2434 10.6952 31.2264C12.8567 32.2486 14.3874 30.5209 14.3382 29.9835C14.2873 29.6557 13.749 29.9902 13.7575 29.9996C13.7006 30.5132 12.4993 31.4802 11.8795 30.8919C11.41 30.4368 11.5577 29.9138 11.6876 29.6591C10.9066 30.3434 10.218 31.1313 9.52271 31.9022L11.9805 33.8201C11.7131 33.8778 10.8624 34.2912 10.8599 34.2963C10.4133 34.5485 10.6434 35.9986 9.63478 36.7389C8.91908 37.267 8.12442 37.0505 8.11084 37.042C8.18894 37.0556 8.89785 36.9274 9.28839 36.3484C9.66959 35.7626 9.63308 34.9866 10.072 34.5723C10.2911 34.3677 10.5466 34.2462 10.741 34.1732C10.4091 33.8336 9.94976 33.4448 9.53545 33.1154C9.15425 33.933 8.88512 35.7549 8.89106 35.7447L8.02594 36.2142C8.06244 35.9103 8.13206 35.535 8.21781 35.1487C7.61333 35.3007 7.45966 36.0062 7.4707 36.0062C7.3824 36.2889 7.0046 36.5708 6.82716 36.5063C6.66076 36.4553 6.11316 35.4102 6.96385 34.1597C7.58616 33.1358 8.72721 32.8666 9.13472 32.8021C8.81126 32.5542 8.57863 32.3904 8.57863 32.3904C13.1343 26.3498 20.7141 22.8307 28.2464 23.0599C28.0401 22.3052 26.787 22.936 26.1825 22.5267C25.5118 22.143 26.4915 21.0325 28.8246 21.4859C30.6609 21.8594 30.5709 22.8731 30.4877 23.2246L31.1508 23.3265L31.0854 23.7688L31.088 23.7663ZM8.28997 34.8236C8.42751 34.2114 8.59306 33.6231 8.72126 33.3412C7.29665 33.8888 7.61927 35.1784 7.61248 35.1504C7.75171 35.0044 8.08197 34.872 8.28997 34.8236ZM28.8865 23.093L29.5445 23.1338C29.7126 21.9707 27.4186 21.4715 26.9262 21.9791C26.337 22.5403 27.591 22.0191 28.35 22.2967C29.036 22.5251 28.9672 22.9037 28.8865 23.093Z" fill="#00684D"/>
<path d="M19.7704 25.3283C19.4207 25.9736 20.3664 26.5382 21.0711 26.0958C21.7894 25.6399 21.4642 25.1619 21.4566 25.1458C22.8888 24.8775 22.7292 26.6409 20.9811 26.9083C19.1991 27.152 17.8441 26.0406 17.8203 26.0067C19.3375 28.2625 21.4243 27.7412 22.3081 27.2793C23.1588 26.8175 23.6809 25.409 22.4847 24.8223C21.1908 24.1712 20.1177 24.678 19.7696 25.3283H19.7704Z" fill="#00684D"/>
<path d="M38.8796 26.3715L37.4864 29.1596C37.3743 28.9092 36.7978 28.1595 36.7953 28.1578C37.23 27.5635 37.7546 26.5261 38.0272 25.953L37.269 25.5803L36.0218 28.2928C35.1236 26.9047 33.519 26.1924 33.5224 26.2315L33.5165 25.2279C35.3146 25.3595 36.3801 25.2415 36.3912 25.2059C35.4335 24.8433 34.4809 24.4723 33.4766 24.2533L33.5886 23.8203C35.1898 24.2083 36.7494 24.7975 38.2156 25.5455L38.6537 25.762C39.1359 25.9759 39.5817 26.2527 40.024 26.5345L39.7939 26.9183C39.4883 26.7366 39.1962 26.5286 38.8804 26.3707L38.8796 26.3715ZM36.1135 25.8885C36.1135 25.8885 35.127 26.0302 34.6023 25.9759C34.6083 25.9785 35.4972 26.7977 35.6109 27.0677L36.1135 25.8885Z" fill="#00684D"/>
<path d="M51.4708 49.8822C51.5565 49.1971 51.5659 48.506 51.6125 47.82C51.6125 47.82 51.3383 47.8226 50.9444 47.8158C51.2738 47.4948 51.6694 46.8844 51.6856 46.448C51.7119 45.875 51.1244 45.2178 51.1244 45.2229C51.5115 44.61 51.4147 44.0369 51.3969 43.9062L51.3994 43.9087C50.9885 40.8218 49.9697 37.8214 48.422 35.1208C48.0918 34.5163 47.7343 33.9271 47.3183 33.3744L47.0942 33.0594C46.7147 32.4838 46.2826 31.9464 45.8165 31.4344C44.9063 30.3274 43.8443 29.3425 42.7397 28.4375L42.4553 28.7839C43.5454 29.677 44.588 30.6449 45.4854 31.7358C45.341 31.864 45.1568 32.0219 44.953 32.1926C44.897 31.268 44.0531 31.122 44.0429 31.1432C43.9334 30.5659 43.4622 30.1465 43.2007 29.9368C42.581 29.3943 41.4212 29.4342 41.2769 30.3978C41.0986 31.5329 42.215 32.3386 42.7176 32.3301C43.1982 32.3284 43.4707 31.7078 42.8891 31.1577C42.311 30.6109 41.8466 31.0286 41.8466 31.0286C41.366 30.6075 41.8984 29.8664 42.7558 30.4224C43.6201 30.9921 43.6048 31.8505 43.593 31.8538C43.593 31.8538 44.0404 31.6688 44.3384 32.0848C44.4538 32.2529 44.5005 32.4159 44.515 32.55C44.1635 32.8293 43.7933 33.1019 43.4877 33.2836C43.4919 33.2869 43.7313 34.1979 43.7313 34.4764L46.1068 32.4566L46.7308 33.3218L46.955 33.6401C46.4439 34.0111 45.4811 34.664 44.8113 34.9764C44.8062 34.9815 44.9692 35.901 44.9233 36.1905L47.5017 34.4204L48.0323 35.3449L48.4585 36.0946C48.1385 35.9392 47.5145 35.7439 46.7461 36.0326C45.6229 36.4766 46.0109 37.7204 46.1 38.0277C46.2766 38.4743 46.7903 39.0618 47.1647 38.65C47.5807 38.1687 46.8718 37.3417 46.5296 37.34C46.5347 37.3485 46.3157 36.4698 47.5892 36.6829C48.2828 36.8094 48.844 37.3282 49.2456 37.7645C49.3721 38.0702 49.5376 38.3614 49.6301 38.6798L47.8838 39.3445L47.8226 40.1893C47.8226 40.1893 48.4806 40.4847 48.9815 41.0102C48.9815 41.006 47.8006 41.3074 47.6562 42.2701L47.7326 42.4416C47.7377 42.468 48.5961 41.2386 49.7711 42.4399L50.283 41.6105C50.3068 41.596 49.4714 40.1697 48.9399 39.9065L49.9307 39.572C50.3951 40.8413 50.6812 42.17 50.8917 43.5003L50.8867 43.4952C51.0267 45.0226 50.4893 44.8069 50.4893 44.8095C50.5802 44.4903 50.3323 43.525 49.7821 43.5131C49.2345 43.508 49.2676 44.3425 49.4187 44.7203C49.5834 45.0956 49.9069 45.4199 49.9018 45.4208C49.5733 45.847 49.5631 46.4336 49.5656 46.5075C49.5699 46.5822 49.6921 47.196 50.1022 47.1739C50.6583 47.1468 50.5971 45.9896 50.5971 45.9896C50.5971 45.9913 51.0658 45.7816 51.0174 46.6263C51.0004 47.1544 50.6354 47.5704 50.356 47.7971C49.7787 47.7674 49.1199 47.7139 48.6538 47.6171C48.6538 47.623 48.1826 48.4576 47.9941 48.6614L51.1108 48.77C51.0819 49.1241 51.0887 49.4823 51.0267 49.8321L51.4708 49.8839V49.8822Z" fill="#00684D"/>
<path d="M39.5151 28.0783L38.7578 28.3627C39.8598 29.598 40.0517 30.8086 40.0517 30.8035L40.2359 30.7195C40.5135 29.9129 39.5508 28.0604 39.5151 28.0783Z" fill="#00684D"/>
<path d="M42.0384 28.8781C41.7497 29.2355 41.0587 29.1684 40.4915 28.7312C39.8981 28.3398 39.5933 27.7268 39.831 27.3346C40.0645 26.9475 40.7963 26.9509 41.4433 27.3788C42.0588 27.8508 42.3254 28.524 42.0384 28.8789V28.8781ZM41.0001 27.7048C40.23 27.5732 40.1893 27.9357 40.1884 27.9357C40.0917 28.0834 40.4695 28.3738 41.2276 28.5113C42.0078 28.6421 41.7497 27.8898 41.0001 27.7048Z" fill="#00684D"/>
<path d="M37.5961 68.8635C37.1835 69.0485 36.9339 69.4077 37.0401 69.6658C37.1462 69.923 37.5826 69.9748 38.0164 69.7787C38.4494 69.5826 38.699 69.2234 38.5708 68.9738C38.4451 68.7259 38.0088 68.6767 37.5961 68.8626V68.8635Z" fill="#00684D"/>
<path d="M23.6301 70.7357C23.1843 70.6644 22.7743 70.8248 22.7174 71.0965C22.6597 71.3707 22.995 71.6534 23.4637 71.7256C23.9349 71.802 24.3432 71.6373 24.3789 71.3605C24.4128 71.0855 24.0792 70.8053 23.6301 70.7357Z" fill="#00684D"/>
<path d="M39.2341 64.6094L39.297 65.1128C39.038 65.3064 38.7409 65.4431 38.4633 65.6086L39.9515 68.1955C38.1041 68.2923 36.3696 68.7338 36.3747 68.7677L35.7584 67.9799C37.256 66.9704 37.7178 66.0629 37.7051 66.0442C36.986 66.4542 36.2015 66.7395 35.4527 67.0961L35.1624 67.1963L34.5341 67.4085L35.6709 70.3163C35.3508 70.2374 34.2922 70.1525 34.2972 70.1516C34.2344 69.407 33.9033 68.2932 33.714 67.6887C32.7164 67.934 31.7265 68.2414 30.7009 68.3399L30.7094 68.401C31.195 68.4146 32.5984 68.2439 33.236 68.9325C33.9152 69.6549 33.0255 70.166 32.5704 70.2917C32.2011 70.4156 31.2765 70.2798 31.5295 69.7169C31.808 69.0921 32.5831 69.1192 32.5891 69.1311C32.5763 69.0955 32.2011 68.637 30.8028 69.0751L31.1118 71.2986C29.3637 70.6967 27.5877 70.4513 27.5809 70.487L27.3058 69.525C29.0734 69.1498 29.8392 68.4833 29.8358 68.4587C28.9426 68.5623 28.0376 68.5725 27.1411 68.5818L27.046 68.575L26.169 68.5266L25.9508 71.5007C24.3725 70.5277 22.6771 69.9597 22.6686 69.9699L22.6041 68.9545C24.4031 68.9868 25.3022 68.4587 25.2979 68.4774C24.505 68.3373 23.6967 68.2558 22.9106 68.0724L22.846 68.0529L22.5497 67.9765L21.9045 67.8101L21.2109 70.852C20.9867 70.6101 20.1556 69.9606 20.17 69.9368C20.3636 69.5947 20.5563 69.115 20.7201 68.6523C20.5665 68.4774 20.3245 68.2847 19.9977 68.3382C19.4509 68.4078 18.5145 69.2262 17.7937 68.6523C17.0737 68.0928 17.0924 67.2735 17.0941 67.2761C17.4566 67.8271 18.028 68.1081 18.5221 67.9646C18.686 67.9204 18.9797 67.7439 19.2887 67.6411C18.9016 66.9271 17.7809 66.5638 17.7665 66.5816L17.769 66.1978L17.1476 65.8939L17.3658 65.5034C18.6019 66.1554 19.8746 66.7123 21.1964 67.1547L22.6559 67.541L22.9445 67.6199L23.0744 67.6522C24.3844 67.9247 25.7148 68.0928 27.0545 68.1318L27.3669 68.1497C29.4665 68.1378 31.5567 67.8398 33.5739 67.265L34.1818 67.0587L35.0019 66.7811L35.2863 66.6835C36.6591 66.1045 37.9929 65.4422 39.229 64.6119L39.2341 64.6094ZM21.0742 67.5834L19.186 66.8821C19.3923 67.1173 19.4959 67.3762 19.5477 67.569C19.8066 67.5197 20.0639 67.5367 20.294 67.7235C20.558 67.94 20.7193 68.1701 20.8271 68.3602C20.9256 68.0682 21.0114 67.7973 21.075 67.5842L21.0742 67.5834ZM25.2215 69.2058C25.2275 69.2092 24.3292 69.5497 23.7697 69.5938C23.7638 69.5938 24.8429 70.2297 25.0611 70.4785L25.2215 69.2058ZM29.9147 69.1897C29.9224 69.2109 29.1175 69.7543 28.5784 69.891C28.5699 69.8859 29.7628 70.3223 30.0243 70.47L29.9147 69.1905V69.1897ZM38.0515 66.6911C38.0651 66.7089 37.5243 67.5163 37.076 67.8398C37.0692 67.8398 38.3351 67.7956 38.6314 67.8347L38.0523 66.6903L38.0515 66.6911Z" fill="#00684D"/>
<path d="M45.8613 47.083C45.8613 57.1818 37.6762 65.3678 27.5782 65.3678C17.4803 65.3678 9.29688 57.1818 9.29688 47.083C9.29688 36.9842 17.4829 28.8008 27.5782 28.8008C37.6736 28.8008 45.8613 36.9876 45.8613 47.083Z" fill="#EC1C24"/>
<path d="M27.5816 65.4097C22.6872 65.4097 18.0865 63.5037 14.6251 60.0424C11.1638 56.581 9.25781 51.9786 9.25781 47.0825C9.25781 36.9786 17.4778 28.7578 27.5816 28.7578C37.6855 28.7578 45.9071 36.9778 45.9071 47.0825C45.9071 51.9786 44.0012 56.581 40.5398 60.0424C37.0785 63.5037 32.4769 65.4097 27.5816 65.4097ZM27.5816 28.8427C17.5245 28.8427 9.34271 37.0253 9.34271 47.0825C9.34271 57.1396 17.5245 65.3248 27.5816 65.3248C37.6388 65.3248 45.8222 57.1413 45.8222 47.0825C45.8222 37.0236 37.6397 28.8427 27.5816 28.8427Z" fill="#FF0000"/>
<path d="M18.2193 35.0582C18.2193 35.0582 18.3144 34.3051 18.7838 34.1158C19.2559 33.9273 18.5962 32.7973 19.5395 32.4204C20.4801 32.0434 20.5761 33.1751 21.0447 33.2702C21.5159 33.3619 22.3641 32.9858 22.3641 33.7397C22.3641 34.4936 23.4941 35.1499 24.1529 35.1499C24.8117 35.1499 25.3788 34.6812 25.282 36.2816C25.1887 37.8836 25.4705 38.7301 26.0376 38.9194C26.6014 39.1079 27.9199 39.6725 28.6746 40.0486C29.4251 40.4264 30.8421 39.7658 31.5926 40.0486C32.3457 40.333 32.4407 40.7074 33.3814 40.6131C34.323 40.5206 35.4538 40.0486 36.583 40.6131C37.7121 41.1811 37.9932 41.7465 37.5254 41.8391C37.0542 41.9308 36.7715 42.0267 36.4887 42.8732C36.2077 43.7222 35.7357 44.3801 34.795 44.8513C34.795 44.8513 34.5114 45.5093 33.4748 45.5093C32.4382 45.5093 32.3457 45.6995 32.0629 46.0747C31.7819 46.4551 31.4958 47.4883 31.0263 47.9603C30.5577 48.4315 31.4958 48.6183 31.6868 49.6558C31.8779 50.6915 32.2514 50.3154 32.4399 51.0676C32.6258 51.8182 33.474 52.0083 33.8526 51.4437C34.2287 50.8783 34.0386 50.3163 34.6057 49.6566C35.1711 48.9986 34.9826 48.3373 35.6423 48.4315C36.302 48.5249 36.4879 48.6183 36.302 49.6566C36.1135 50.6924 36.6772 51.9141 36.8649 52.291C37.0533 52.6697 37.2401 53.4211 37.336 53.9865C37.4286 54.5511 38.2784 54.3651 37.6171 55.8704C36.9574 57.3791 37.9957 56.9079 37.4286 58.3197C36.8649 59.7333 37.5245 60.0135 36.9582 60.2028C36.3937 60.3913 36.1135 59.9218 35.9233 60.3913C35.7348 60.8616 35.5481 61.9925 35.3579 61.7089C35.0455 61.2411 35.0752 61.5204 35.0752 60.1103C35.0752 58.7001 34.3663 57.8553 34.5106 56.249C34.6057 55.2116 33.2863 55.496 33.3806 53.6121C33.474 51.7282 32.5324 52.6697 31.6868 52.4795C30.8379 52.2919 30.1782 52.6705 29.4251 52.1043C29.4251 52.1043 29.6781 52.3878 29.1118 52.3878C29.1118 52.3878 28.7663 52.6705 29.2392 53.6121C29.7087 54.5511 29.33 55.1156 28.9556 55.4001C28.5787 55.6819 27.8265 55.3058 27.2619 56.0589C26.6965 56.8145 26.5071 56.4358 26.1293 57.0004C25.7532 57.5684 25.1887 57.0004 25.1887 56.7177C25.1887 56.435 24.6249 57.003 24.4356 57.2823C24.2463 57.5684 23.4949 57.1923 23.4949 56.6243C23.4949 56.0563 23.118 56.8145 22.9278 57.1897C22.7393 57.5684 22.8352 57.3765 22.1756 57.0004C21.5159 56.6243 21.2315 58.0387 20.7612 56.9087C20.2925 55.7762 20.9513 56.4367 20.8562 54.9306C20.7612 53.421 20.3867 52.6697 20.6678 51.5397C20.9513 50.4097 20.5633 51.0396 20.7518 49.6261C20.7518 49.6261 19.9164 49.5624 19.7271 48.6191C19.5395 47.6793 18.9723 47.3957 19.1625 46.4559C19.3527 45.5101 20.2934 46.2674 20.2934 44.853C20.2934 43.4386 20.1049 43.5345 19.6337 43.5345C19.1625 43.5345 18.1267 42.6881 17.6555 42.0284C17.1843 41.3704 17.4696 40.4281 17.9391 40.4281C18.4086 40.4281 18.7847 40.5206 19.6337 39.5799C20.481 38.6384 20.6686 39.5799 21.3274 39.1096C21.9871 38.6384 21.2349 37.6977 20.8562 37.4158C20.4801 37.1306 19.0683 36.566 19.0683 36.0023C19.0683 35.4385 18.125 35.6245 18.2193 35.0599V35.0582Z" fill="#FFF100"/>
<path d="M42.4332 60.0448L44.3833 60.876L45.7774 59.2773L45.5897 61.3905L47.539 62.2242L45.4726 62.6988L45.2816 64.8111L44.1931 62.9908L42.125 63.462L43.519 61.8651L42.4332 60.0448Z" fill="#EC1C24"/>
<path d="M46.0703 53.9138L48.1877 53.9962L48.9263 52.0078L49.4985 54.0479L51.6202 54.1345L49.8543 55.3138L50.429 57.3556L48.7633 56.0422L46.9957 57.2172L47.7335 55.2272L46.0703 53.9138Z" fill="#EC1C24"/>
<path d="M9.11933 53.9773L7.4604 55.2958L8.19987 57.285L6.43142 56.1125L4.76909 57.4302L5.33622 55.3867L3.57031 54.2125L5.69025 54.1217L6.25992 52.0781L7.00109 54.0648L9.11933 53.9773Z" fill="#EC1C24"/>
<path d="M12.7743 60.0971L11.6927 61.9199L13.0918 63.5152L11.022 63.0499L9.93784 64.8719L9.74087 62.7596L7.67188 62.2909L9.62031 61.4521L9.42674 59.3398L10.8267 60.9343L12.7743 60.0971Z" fill="#EC1C24"/>
</g>
<path d="M70.0357 48.2565C68.8392 48.2565 67.694 48.0941 66.6001 47.7693C65.5232 47.4445 64.5147 46.8976 63.5746 46.1284C62.6516 45.3592 61.814 44.3165 61.0619 43.0004C60.3099 41.6842 59.6603 40.0262 59.1134 38.0263L62.3183 37.129C62.9165 39.1972 63.5661 40.8296 64.2669 42.0261C64.9848 43.2055 65.7967 44.0516 66.7026 44.5644C67.6085 45.0601 68.6341 45.3079 69.7793 45.3079C70.5998 45.3079 71.2921 45.1883 71.8561 44.949C72.4373 44.7097 72.8817 44.3593 73.1894 43.8978C73.4971 43.4363 73.6509 42.8807 73.6509 42.2312C73.6509 41.7868 73.5996 41.3936 73.4971 41.0518C73.3945 40.7099 73.2492 40.4023 73.0612 40.1288C72.8903 39.8553 72.6937 39.6245 72.4715 39.4365L75.138 37.2828C75.7875 38.1545 76.2576 39.0263 76.5481 39.898C76.8558 40.7698 77.0097 41.6928 77.0097 42.6671C77.0097 43.7268 76.7447 44.684 76.2148 45.5387C75.702 46.3762 74.9243 47.0429 73.8816 47.5386C72.8561 48.0172 71.5741 48.2565 70.0357 48.2565ZM69.1384 42.4363C67.976 42.4363 67.053 42.1628 66.3693 41.6159C65.7027 41.0518 65.3694 40.2912 65.3694 39.3339C65.3694 38.9237 65.4206 38.5306 65.5232 38.1545C65.6258 37.7785 65.754 37.4366 65.9078 37.129L68.9332 37.8725C68.8649 38.0263 68.805 38.1716 68.7538 38.3084C68.7196 38.428 68.7025 38.5648 68.7025 38.7186C68.7025 39.0434 68.7965 39.2741 68.9845 39.4109C69.1725 39.5476 69.4118 39.616 69.7024 39.616C70.0272 39.616 70.3178 39.5647 70.5742 39.4621C70.8477 39.3425 71.1211 39.1545 71.3946 38.8981C71.6681 38.6246 71.9672 38.2485 72.292 37.7699L75.138 37.2828L75.2662 38.8981C74.7021 39.6502 74.1124 40.2912 73.4971 40.821C72.8817 41.3509 72.2151 41.7526 71.4972 42.0261C70.7964 42.2996 70.0101 42.4363 69.1384 42.4363ZM78.1891 33.0523V35.8726H58.4467V33.0523H78.1891ZM70.7552 55.6919C70.0544 55.6919 69.4049 55.5808 68.8066 55.3586C68.2084 55.1364 67.7298 54.786 67.3708 54.3074C67.0119 53.8458 66.8324 53.2305 66.8324 52.4613C66.8324 51.6067 67.1572 50.923 67.8067 50.4102C68.4562 49.9145 69.234 49.641 70.1399 49.5897V46.9232H73.3192V50.3589L72.2423 51.7947C72.1398 51.7776 72.003 51.7605 71.8321 51.7434C71.6441 51.7434 71.4731 51.7434 71.3193 51.7434C70.892 51.7434 70.5672 51.7947 70.345 51.8973C70.1057 52.0169 69.9861 52.222 69.9861 52.5126C69.9861 52.7861 70.1057 52.9912 70.345 53.1279C70.5843 53.2647 70.8663 53.3331 71.1911 53.3331C71.9774 53.3331 72.6696 53.1194 73.2679 52.6921C73.8491 52.2647 74.3704 51.7861 74.8319 51.2563C75.7036 51.5468 76.5497 51.8887 77.3702 52.2818C78.2078 52.6921 79.0539 53.1365 79.9085 53.6151L78.4471 55.9483C77.8146 55.538 77.242 55.1791 76.7292 54.8714C76.2164 54.5637 75.7464 54.3074 75.3191 54.1022C74.9259 54.427 74.5157 54.709 74.0884 54.9483C73.661 55.1876 73.1824 55.3671 72.6526 55.4868C72.1227 55.6235 71.4902 55.6919 70.7552 55.6919ZM85.9834 33.0523V35.8726H83.5221V49H80.1377V35.8726H77.6763V33.0523H80.1633C79.8898 32.7446 79.5907 32.3942 79.2659 32.0011C78.9582 31.6079 78.6848 31.249 78.4455 30.9242C79.3001 29.5397 80.1377 28.4543 80.9581 27.668C81.7957 26.8817 82.676 26.3262 83.599 26.0015C84.522 25.6596 85.539 25.4887 86.6501 25.4887C87.4705 25.4887 88.2483 25.557 88.9833 25.6938C89.7353 25.8305 90.5131 26.0698 91.3164 26.4117C92.1369 26.7365 93.0428 27.1809 94.0342 27.7449C95.0256 28.2919 96.1794 28.9756 97.4955 29.7961L95.7521 32.078C94.3675 31.1892 93.1881 30.4713 92.2138 29.9243C91.2395 29.3602 90.3507 28.95 89.5473 28.6936C88.7439 28.4372 87.8978 28.309 87.009 28.309C86.2056 28.309 85.5048 28.4628 84.9066 28.7705C84.3083 29.0782 83.787 29.4628 83.3426 29.9243C82.9153 30.3858 82.5392 30.8644 82.2144 31.3601C82.3683 31.6336 82.5478 31.9242 82.7529 32.2318C82.958 32.5395 83.1717 32.813 83.3939 33.0523H85.9834ZM102.513 33.0523V35.8726H100.052V49H96.6677V45.6669L97.1035 47.0258C96.4711 46.154 95.8643 45.4105 95.2831 44.7951C94.702 44.1627 94.1208 43.6841 93.5397 43.3593C92.9585 43.0175 92.3431 42.8465 91.6936 42.8465C91.3005 42.8465 90.9586 42.9491 90.668 43.1542C90.3775 43.3593 90.2322 43.667 90.2322 44.0772C90.2322 44.5217 90.3946 44.8721 90.7193 45.1285C91.0612 45.3678 91.5227 45.59 92.1038 45.7951L91.1295 48.7436C90.104 48.453 89.2664 48.0599 88.6169 47.5642C87.9844 47.0514 87.5144 46.4873 87.2067 45.872C86.899 45.2566 86.7452 44.6242 86.7452 43.9747C86.7452 43.0688 86.9589 42.3252 87.3862 41.7441C87.8135 41.1629 88.3605 40.7356 89.0271 40.4621C89.7108 40.1886 90.4116 40.0519 91.1295 40.0519C91.9671 40.0519 92.7363 40.163 93.4371 40.3852C94.155 40.6074 94.8216 40.9578 95.437 41.4364C96.0523 41.8979 96.6506 42.5047 97.2317 43.2568L96.7189 43.6414C96.7018 43.2311 96.6848 42.8209 96.6677 42.4107C96.6677 41.9834 96.6677 41.5646 96.6677 41.1543V35.8726H85.4632V33.0523H102.513ZM93.9499 40.7698C93.9499 40.8552 93.9413 40.9834 93.9242 41.1543C93.9242 41.3082 93.9071 41.462 93.873 41.6159L90.5655 40.7698C90.5313 39.9664 90.386 39.3339 90.1296 38.8724C89.8732 38.4109 89.4459 38.0605 88.8476 37.8212C88.2494 37.5819 87.3947 37.411 86.2837 37.3084L86.9503 34.7189L88.3861 35.1291C89.4117 35.2487 90.2749 35.4539 90.9757 35.7444C91.6936 36.035 92.2662 36.4111 92.6936 36.8726C93.138 37.317 93.4542 37.864 93.6422 38.5135C93.8473 39.163 93.9499 39.9151 93.9499 40.7698ZM124.422 33.0523V35.8726H121.961V49H118.576V45.6669L119.012 47.0258C118.38 46.154 117.773 45.4105 117.192 44.7951C116.611 44.1627 116.029 43.6841 115.448 43.3593C114.867 43.0175 114.252 42.8465 113.602 42.8465C113.209 42.8465 112.867 42.9491 112.577 43.1542C112.286 43.3593 112.141 43.667 112.141 44.0772C112.141 44.5217 112.303 44.8721 112.628 45.1285C112.97 45.3678 113.431 45.59 114.013 45.7951L113.038 48.7436C112.013 48.453 111.175 48.0599 110.526 47.5642C109.893 47.0514 109.423 46.4873 109.115 45.872C108.808 45.2566 108.654 44.6242 108.654 43.9747C108.654 43.0688 108.868 42.3252 109.295 41.7441C109.722 41.1629 110.269 40.7356 110.936 40.4621C111.619 40.1886 112.32 40.0519 113.038 40.0519C113.876 40.0519 114.645 40.163 115.346 40.3852C116.064 40.6074 116.73 40.9578 117.346 41.4364C117.961 41.8979 118.559 42.5047 119.14 43.2568L118.628 43.6414C118.611 43.2311 118.593 42.8209 118.576 42.4107C118.576 41.9834 118.576 41.5646 118.576 41.1543V35.8726H107.372V33.0523H124.422ZM115.859 40.7698C115.859 40.8552 115.85 40.9834 115.833 41.1543C115.833 41.3082 115.816 41.462 115.782 41.6159L112.474 40.7698C112.44 39.9664 112.295 39.3339 112.038 38.8724C111.782 38.4109 111.355 38.0605 110.756 37.8212C110.158 37.5819 109.303 37.411 108.192 37.3084L108.859 34.7189L110.295 35.1291C111.32 35.2487 112.184 35.4539 112.884 35.7444C113.602 36.035 114.175 36.4111 114.602 36.8726C115.047 37.317 115.363 37.864 115.551 38.5135C115.756 39.163 115.859 39.9151 115.859 40.7698ZM136.999 41.9748C136.452 41.9748 135.939 41.9406 135.461 41.8722C134.999 41.7868 134.529 41.6415 134.05 41.4364C133.589 41.2313 133.068 40.9407 132.486 40.5646C131.991 40.2228 131.598 39.992 131.307 39.8724C131.034 39.7356 130.777 39.6673 130.538 39.6673C130.264 39.6673 130.042 39.7356 129.871 39.8724C129.717 39.992 129.641 40.163 129.641 40.3852C129.641 40.6074 129.709 40.8125 129.846 41.0005C129.999 41.1885 130.196 41.3766 130.435 41.5646L128.359 43.6157C127.88 43.1884 127.427 42.6927 127 42.1286C126.589 41.5646 126.384 40.8638 126.384 40.0262C126.384 39.3083 126.555 38.7101 126.897 38.2315C127.256 37.7529 127.7 37.4024 128.23 37.1802C128.76 36.9409 129.299 36.8213 129.846 36.8213C130.649 36.8213 131.341 36.9409 131.922 37.1802C132.521 37.4195 133.196 37.787 133.948 38.2827C134.632 38.7101 135.144 39.0006 135.486 39.1545C135.828 39.2912 136.196 39.3596 136.589 39.3596C137.033 39.3596 137.367 39.2399 137.589 39.0006C137.828 38.7442 137.948 38.3597 137.948 37.8469C137.948 37.2999 137.777 36.7871 137.435 36.3085C137.093 35.8128 136.674 35.3855 136.179 35.0265L139.64 34.5907C139.913 34.8471 140.178 35.1718 140.435 35.565C140.708 35.9581 140.93 36.4025 141.101 36.8982C141.289 37.3768 141.383 37.9067 141.383 38.4878C141.383 39.5818 141.016 40.4364 140.281 41.0518C139.546 41.6671 138.452 41.9748 136.999 41.9748ZM143.306 33.0523V35.8726H123.897V33.0523H143.306ZM136.64 39.5391C137.392 39.5391 137.99 39.5989 138.435 39.7185C138.879 39.8382 139.281 40.0348 139.64 40.3082C139.982 40.5475 140.264 40.8894 140.486 41.3338C140.725 41.7611 140.845 42.4021 140.845 43.2568V51.9998H137.461C137.187 51.3845 136.82 50.9828 136.358 50.7948C135.914 50.6067 135.418 50.5127 134.871 50.5127C134.324 50.5127 133.811 50.5469 133.333 50.6153C132.854 50.6837 132.375 50.752 131.897 50.8204C131.418 50.9059 130.888 50.9486 130.307 50.9486C129.675 50.9486 129.042 50.8888 128.41 50.7691C127.777 50.6495 127.196 50.4187 126.666 50.0769C126.136 49.735 125.709 49.2478 125.384 48.6154C125.06 47.983 124.897 47.154 124.897 46.1284C124.897 45.8378 124.914 45.5216 124.949 45.1797C125 44.8208 125.06 44.496 125.128 44.2054L128.384 44.6413C128.35 44.8293 128.316 45.0344 128.282 45.2566C128.265 45.4618 128.256 45.6583 128.256 45.8464C128.256 46.4788 128.384 46.9574 128.641 47.2822C128.914 47.6069 129.247 47.8291 129.641 47.9488C130.034 48.0513 130.418 48.1026 130.794 48.1026C131.341 48.1026 131.82 48.0684 132.23 48.0001C132.64 47.9146 133.033 47.8377 133.41 47.7693C133.803 47.7009 134.221 47.6668 134.666 47.6668C135.23 47.6668 135.751 47.7779 136.23 48.0001C136.708 48.2052 137.119 48.5556 137.461 49.0513V43.3337C137.461 43.0431 137.435 42.8209 137.384 42.6671C137.332 42.5132 137.247 42.3936 137.127 42.3081C137.025 42.2227 136.905 42.1714 136.768 42.1543C136.632 42.1201 136.486 42.103 136.332 42.103C136.059 42.103 135.768 42.1543 135.461 42.2568C135.17 42.3423 134.888 42.4705 134.615 42.6414C134.358 42.7953 134.145 42.9747 133.974 43.1799C133.803 43.3679 133.717 43.5559 133.717 43.7439C133.717 43.9149 133.777 44.0431 133.897 44.1285C134.016 44.1969 134.204 44.2311 134.461 44.2311C134.58 44.2311 134.717 44.2225 134.871 44.2054C135.025 44.1883 135.153 44.1712 135.256 44.1542L135.614 46.5643C135.392 46.6326 135.102 46.6925 134.743 46.7437C134.401 46.7779 134.016 46.795 133.589 46.795C132.974 46.795 132.435 46.7095 131.974 46.5386C131.512 46.3506 131.145 46.0686 130.871 45.6925C130.615 45.3165 130.487 44.8379 130.487 44.2567C130.487 43.5901 130.666 42.9747 131.025 42.4107C131.401 41.8466 131.888 41.3509 132.486 40.9236C133.085 40.4792 133.743 40.1373 134.461 39.898C135.196 39.6587 135.922 39.5391 136.64 39.5391ZM159.8 33.0523V35.8726H157.339V49H153.954V38.1802L154.544 39.6673C153.997 38.9664 153.425 38.3255 152.826 37.7443C152.228 37.1461 151.613 36.6675 150.98 36.3085C150.348 35.9495 149.707 35.7701 149.057 35.7701C148.715 35.7701 148.416 35.8384 148.16 35.9752C147.904 36.0948 147.698 36.2829 147.545 36.5393C147.408 36.7786 147.34 37.0777 147.34 37.4366C147.34 37.7956 147.425 38.1289 147.596 38.4366C147.784 38.7271 148.109 38.9664 148.57 39.1545C149.032 39.3254 149.698 39.428 150.57 39.4621L150.185 42.7953C148.715 42.6243 147.51 42.2996 146.57 41.821C145.63 41.3253 144.938 40.7014 144.494 39.9493C144.066 39.1972 143.853 38.334 143.853 37.3597C143.853 36.4538 144.058 35.6675 144.468 35.0009C144.878 34.3172 145.434 33.7958 146.134 33.4369C146.852 33.0608 147.647 32.8728 148.519 32.8728C149.425 32.8728 150.228 33.0267 150.929 33.3343C151.647 33.642 152.296 34.0437 152.878 34.5394C153.476 35.0351 154.048 35.5564 154.595 36.1034L154.031 36.129C154.014 35.7188 153.997 35.2915 153.98 34.8471C153.963 34.4026 153.954 33.9924 153.954 33.6164V31.3601H156.724L157.313 33.0523H159.8ZM167.584 33.0523V35.8726H165.122V49H161.738V37.6161C161.533 37.0862 161.242 36.6675 160.866 36.3598C160.49 36.035 160.003 35.8726 159.405 35.8726H159.277V33.0523H159.789C160.183 33.0523 160.55 33.1549 160.892 33.36C161.234 33.5651 161.55 34.001 161.841 34.6676C161.824 34.5821 161.798 34.3855 161.764 34.0779C161.747 33.7702 161.738 33.5053 161.738 33.2831V31.3601H164.507L165.097 33.0523H167.584ZM187.473 33.0523V35.8726H185.011V49H181.627V40.9236L182.319 42.385C182.046 41.8893 181.721 41.462 181.345 41.1031C180.969 40.7441 180.541 40.5646 180.063 40.5646C179.892 40.5646 179.695 40.6074 179.473 40.6928C179.268 40.7783 179.088 40.9407 178.935 41.18C178.798 41.4193 178.73 41.7697 178.73 42.2312C178.73 42.385 178.738 42.5303 178.755 42.6671C178.772 42.7867 178.789 42.9149 178.806 43.0517L175.909 43.2311C175.824 42.6671 175.653 42.1799 175.396 41.7697C175.157 41.3424 174.849 41.0176 174.473 40.7954C174.097 40.5732 173.644 40.4621 173.115 40.4621C172.807 40.4621 172.533 40.5219 172.294 40.6416C172.055 40.7441 171.867 40.898 171.73 41.1031C171.61 41.3082 171.551 41.5475 171.551 41.821C171.551 42.4363 171.79 42.9149 172.268 43.2568C172.764 43.5986 173.362 43.8807 174.063 44.1029L173.089 46.9745C172.063 46.6839 171.174 46.2993 170.422 45.8207C169.67 45.325 169.089 44.7353 168.679 44.0516C168.269 43.3679 168.064 42.5816 168.064 41.6928C168.064 40.8381 168.269 40.1031 168.679 39.4878C169.106 38.8724 169.67 38.4024 170.371 38.0776C171.072 37.7358 171.841 37.5648 172.679 37.5648C173.687 37.5648 174.533 37.7358 175.217 38.0776C175.901 38.4024 176.61 38.9408 177.345 39.6929L176.884 39.5134C177.072 38.9152 177.405 38.4622 177.883 38.1545C178.362 37.8469 178.866 37.693 179.396 37.693C179.994 37.693 180.524 37.8127 180.986 38.052C181.464 38.2913 181.909 38.616 182.319 39.0263L181.755 39.4365C181.721 39.0605 181.687 38.6844 181.652 38.3084C181.635 37.9323 181.627 37.5563 181.627 37.1802V35.8726H167.064V33.0523H187.473ZM204.532 33.0523V35.8726H202.071V49H198.686C198.003 48.1454 197.199 47.4275 196.276 46.8463C195.353 46.2651 194.311 45.7951 193.148 45.4361C191.986 45.0601 190.678 44.778 189.225 44.59L188.02 41.6928C188.499 41.4022 188.995 41.1116 189.508 40.821C190.037 40.5305 190.584 40.2399 191.148 39.9493C191.712 39.6416 192.277 39.351 192.841 39.0776C192.123 38.6673 191.345 38.3084 190.507 38.0007C189.687 37.693 188.79 37.4623 187.815 37.3084L188.764 35.1804L189.738 35.8726H186.969V33.0523H204.532ZM198.686 35.8726H191.354L191.687 35.6932C192.285 35.8641 192.841 36.0863 193.353 36.3598C193.883 36.6333 194.37 36.9409 194.815 37.2828C195.276 37.6076 195.695 37.9409 196.071 38.2827L196.379 40.539C195.9 40.727 195.413 40.9321 194.917 41.1543C194.422 41.3766 193.935 41.6073 193.456 41.8466C192.977 42.0859 192.516 42.3338 192.071 42.5902L192.046 42.4363C192.815 42.5389 193.661 42.7611 194.584 43.1029C195.524 43.4277 196.422 43.8636 197.276 44.4105C198.148 44.9575 198.849 45.5985 199.379 46.3335L198.866 46.5386C198.78 46.0942 198.729 45.6498 198.712 45.2054C198.695 44.761 198.686 44.2909 198.686 43.7952V35.8726ZM191.636 49.6923C191.106 49.6923 190.661 49.5042 190.302 49.1282C189.943 48.7692 189.764 48.3163 189.764 47.7693C189.764 47.2223 189.943 46.7694 190.302 46.4104C190.661 46.0344 191.106 45.8464 191.636 45.8464C192.183 45.8464 192.627 46.0344 192.969 46.4104C193.328 46.7694 193.507 47.2223 193.507 47.7693C193.507 48.3163 193.328 48.7692 192.969 49.1282C192.627 49.5042 192.183 49.6923 191.636 49.6923Z" fill="white"/>
<path d="M63.9018 63.4707C63.4165 63.4707 63.0111 63.3424 62.6853 63.086C62.3664 62.8226 62.1204 62.476 61.9471 62.0462L62.0718 62.0254C62.0233 62.2473 61.9436 62.4691 61.8327 62.6909C61.7287 62.9127 61.5866 63.0998 61.4064 63.2523C61.2331 63.3979 61.0148 63.4707 60.7514 63.4707C60.5504 63.4707 60.3598 63.436 60.1795 63.3667C60.0062 63.2904 59.8295 63.1657 59.6493 62.9924C59.476 62.8122 59.2888 62.5661 59.0878 62.2542L59.7221 61.8799C59.9231 62.2195 60.086 62.4379 60.2107 62.5349C60.3424 62.632 60.4845 62.6805 60.637 62.6805C60.8034 62.6805 60.9489 62.625 61.0737 62.5141C61.2054 62.4032 61.3094 62.2161 61.3856 61.9527C61.4619 61.6893 61.5069 61.3254 61.5208 60.861H62.2382C62.2936 61.1174 62.3664 61.36 62.4565 61.5888C62.5466 61.8106 62.6575 62.0081 62.7892 62.1814C62.9279 62.3547 63.0873 62.4899 63.2675 62.5869C63.4547 62.6839 63.6695 62.7325 63.9122 62.7325C64.1548 62.7325 64.3384 62.6701 64.4632 62.5453C64.5949 62.4136 64.6608 62.2299 64.6608 61.9943C64.6608 61.7309 64.588 61.4813 64.4424 61.2457C64.3038 61.0031 64.134 60.7916 63.9329 60.6114L64.7647 60.4451C64.8756 60.5421 64.9831 60.6703 65.087 60.8298C65.1979 60.9823 65.2881 61.159 65.3574 61.36C65.4267 61.5541 65.4613 61.7655 65.4613 61.9943C65.4613 62.4587 65.3227 62.8226 65.0455 63.086C64.7682 63.3424 64.387 63.4707 63.9018 63.4707ZM68.986 60.1228V60.861H67.8943V66.5898H67.0937V65.81L67.1145 65.3734C67.1076 65.207 67.1006 65.0407 67.0937 64.8743C67.0937 64.701 67.0937 64.5277 67.0937 64.3544V60.861H58.5992V60.1228H68.986ZM64.7335 64.1881C64.7266 63.9663 64.6677 63.793 64.5568 63.6682C64.4528 63.5365 64.3176 63.4291 64.1513 63.3459L64.8895 62.982C65.0004 63.0513 65.1009 63.1414 65.191 63.2523C65.2881 63.3632 65.3643 63.4984 65.4198 63.6578C65.4752 63.8172 65.5029 64.0079 65.5029 64.2297L64.7335 64.1881ZM64.9727 64.1465C65.3331 64.1465 65.6589 64.2158 65.95 64.3544C66.2481 64.4931 66.5253 64.6837 66.7818 64.9263C67.0383 65.1689 67.2843 65.4496 67.52 65.7685L67.2497 66.4651C67.0348 66.167 66.8095 65.9002 66.5738 65.6645C66.3451 65.4219 66.106 65.2313 65.8564 65.0926C65.6069 64.9471 65.34 64.8743 65.0558 64.8743C64.9034 64.8743 64.7821 64.9124 64.6919 64.9887C64.6018 65.058 64.5568 65.1516 64.5568 65.2694C64.5568 65.408 64.6053 65.5189 64.7023 65.6021C64.7994 65.6784 64.9415 65.7511 65.1286 65.8204L64.7647 66.5379C64.4459 66.4131 64.1929 66.2433 64.0057 66.0284C63.8186 65.8135 63.725 65.5605 63.725 65.2694C63.725 64.902 63.8498 64.6248 64.0993 64.4376C64.3488 64.2435 64.64 64.1465 64.9727 64.1465ZM71.7466 60.1228V60.861H70.6549V66.5898H69.8543V61.7135C69.7712 61.4779 69.6464 61.2768 69.48 61.1105C69.3206 60.9441 69.1127 60.861 68.8562 60.861H68.773V60.1228H68.929C69.0953 60.1228 69.2686 60.1782 69.4489 60.2891C69.6291 60.3931 69.7746 60.556 69.8855 60.7778C69.8786 60.7431 69.8717 60.6634 69.8647 60.5386C69.8578 60.4139 69.8543 60.3064 69.8543 60.2163V59.4365H70.4158L70.6445 60.1228H71.7466ZM77.638 60.1228V60.861H73.4271V64.4584C73.4271 64.7634 73.4444 64.9783 73.4791 65.103C73.5137 65.2278 73.5553 65.3179 73.6039 65.3734C73.7286 65.5189 73.9192 65.5917 74.1757 65.5917C74.446 65.5917 74.7025 65.5259 74.9451 65.3942C75.1877 65.2625 75.3991 65.0996 75.5793 64.9055C75.7803 64.6906 75.9328 64.4619 76.0368 64.2193C76.1477 63.9767 76.2032 63.7306 76.2032 63.4811C76.2032 63.2593 76.1477 63.0929 76.0368 62.982C75.9259 62.8642 75.7422 62.8052 75.4858 62.8052C75.4026 62.8052 75.3125 62.8122 75.2154 62.826C75.1184 62.8399 75.0248 62.8572 74.9347 62.878L74.8203 62.1398C74.952 62.1052 75.0872 62.0774 75.2258 62.0566C75.3714 62.0358 75.5239 62.0254 75.6833 62.0254C75.9398 62.0254 76.1685 62.074 76.3695 62.171C76.5705 62.2681 76.7265 62.4205 76.8374 62.6285C76.9552 62.8364 77.0142 63.1068 77.0142 63.4395C77.0142 63.8484 76.9136 64.247 76.7126 64.6352C76.5116 65.0164 76.2586 65.3387 75.9536 65.6021C75.6972 65.8239 75.4164 66.0041 75.1115 66.1428C74.8134 66.2745 74.4842 66.3403 74.1237 66.3403C73.8673 66.3403 73.6454 66.3022 73.4583 66.2259C73.2781 66.1497 73.129 66.0527 73.0112 65.9348C72.9003 65.8031 72.8067 65.6437 72.7305 65.4565C72.6612 65.2694 72.6265 64.9852 72.6265 64.604V60.861H71.5348V60.1228H77.638ZM75.7457 60.1228C75.7388 59.8386 75.6694 59.6341 75.5377 59.5093C75.413 59.3845 75.205 59.3222 74.9139 59.3222H73.9366C73.486 59.3222 73.136 59.291 72.8864 59.2286C72.6438 59.1662 72.4359 59.0692 72.2626 58.9375C72.0755 58.7988 71.9334 58.6221 71.8363 58.4072C71.7462 58.1854 71.7012 57.9359 71.7012 57.6586C71.7012 57.5685 71.7046 57.4818 71.7116 57.3987C71.7254 57.3086 71.7393 57.2115 71.7531 57.1075L72.5225 57.1595C72.5087 57.2358 72.4983 57.3051 72.4913 57.3675C72.4844 57.4229 72.481 57.4853 72.481 57.5546C72.481 57.7071 72.4948 57.8423 72.5225 57.9601C72.5572 58.078 72.6092 58.175 72.6785 58.2512C72.7755 58.3621 72.9142 58.4453 73.0944 58.5008C73.2815 58.5493 73.5449 58.5736 73.8846 58.5736H74.6956C75.0629 58.5736 75.3541 58.6013 75.5689 58.6567C75.7838 58.7122 75.9675 58.8127 76.12 58.9583C76.2378 59.0692 76.3279 59.2217 76.3903 59.4157C76.4527 59.6029 76.4874 59.8386 76.4943 60.1228H75.7457ZM74.8971 59.239L78.2866 57.0556L78.6817 57.6482L75.365 59.894L74.8971 59.239ZM84.129 66.1428C83.6784 66.1428 83.2556 66.07 82.8605 65.9244C82.4654 65.7789 82.0946 65.5363 81.748 65.1966C81.4084 64.857 81.0964 64.4064 80.8122 63.845C80.528 63.2835 80.2716 62.5869 80.0428 61.7551L80.833 61.5472C81.0826 62.4621 81.3633 63.2003 81.6752 63.7618C81.9941 64.3163 82.351 64.7218 82.7461 64.9783C83.1482 65.2278 83.6022 65.3526 84.1082 65.3526C84.4755 65.3526 84.7875 65.2867 85.0439 65.155C85.3073 65.0233 85.5083 64.8431 85.647 64.6144C85.7856 64.3787 85.8549 64.1118 85.8549 63.8138C85.8549 63.6058 85.8341 63.4187 85.7925 63.2523C85.7509 63.086 85.692 62.9369 85.6158 62.8052C85.5465 62.6666 85.4667 62.5488 85.3766 62.4517L85.8757 61.6407C86.1391 62.022 86.3332 62.3928 86.458 62.7533C86.5827 63.1137 86.6451 63.4707 86.6451 63.8242C86.6451 64.2609 86.5481 64.656 86.354 65.0095C86.1599 65.356 85.8757 65.6333 85.5014 65.8412C85.134 66.0423 84.6766 66.1428 84.129 66.1428ZM83.7339 63.637C83.2972 63.637 82.9541 63.5296 82.7045 63.3147C82.455 63.0929 82.3302 62.7914 82.3302 62.4101C82.3302 62.2507 82.3545 62.0948 82.403 61.9423C82.4515 61.7828 82.5035 61.6477 82.559 61.5368L83.3908 61.7863C83.3422 61.8556 83.2972 61.9423 83.2556 62.0462C83.214 62.1502 83.1932 62.2577 83.1932 62.3686C83.1932 62.5557 83.2452 62.6909 83.3492 62.7741C83.4531 62.8572 83.5883 62.8988 83.7547 62.8988C83.9002 62.8988 84.0458 62.8711 84.1913 62.8156C84.3369 62.7602 84.4929 62.6527 84.6592 62.4933C84.8325 62.327 85.0197 62.0774 85.2207 61.7447L85.8757 61.6407L85.7925 62.2022C85.6054 62.5141 85.4078 62.7775 85.1999 62.9924C84.9989 63.2003 84.7771 63.3598 84.5345 63.4707C84.2988 63.5816 84.0319 63.637 83.7339 63.637ZM87.3417 60.1228V60.861H79.6374V60.1228H87.3417ZM84.2064 69.0956C83.9984 69.0956 83.7905 69.0575 83.5825 68.9812C83.3677 68.9119 83.1909 68.7975 83.0523 68.6381C82.9136 68.4787 82.8443 68.2707 82.8443 68.0143C82.8443 67.6677 82.983 67.4078 83.2602 67.2345C83.5375 67.0612 83.8702 66.9711 84.2584 66.9641V65.7477H84.9966V67.2553L84.7158 67.6504C84.6673 67.6434 84.6119 67.6365 84.5495 67.6296C84.4802 67.6296 84.4074 67.6296 84.3311 67.6296C84.0955 67.6296 83.9153 67.6642 83.7905 67.7335C83.6657 67.8029 83.6033 67.9068 83.6033 68.0455C83.6033 68.1772 83.6588 68.2777 83.7697 68.347C83.8806 68.4163 84.0192 68.451 84.1856 68.451C84.4767 68.451 84.7401 68.3816 84.9758 68.243C85.2114 68.1044 85.4367 67.9068 85.6516 67.6504C85.9635 67.789 86.3101 67.9692 86.6913 68.191C87.0795 68.4128 87.4295 68.6346 87.7414 68.8564L87.3048 69.4075C87.0483 69.2134 86.7884 69.0367 86.525 68.8772C86.2616 68.7178 86.0259 68.5896 85.818 68.4925C85.6793 68.6173 85.5268 68.7247 85.3605 68.8149C85.1941 68.905 85.0174 68.9743 84.8302 69.0228C84.6361 69.0713 84.4282 69.0956 84.2064 69.0956ZM90.1043 60.1228V60.861H89.0126V66.5898H88.212V60.861H87.1307V60.1228H88.0872C87.9763 59.9911 87.862 59.8524 87.7441 59.7069C87.6332 59.5613 87.5327 59.4157 87.4426 59.2702C87.6783 58.8612 87.9313 58.4904 88.2016 58.1577C88.4719 57.818 88.7908 57.5512 89.1581 57.3571C89.5255 57.1561 89.9691 57.0556 90.489 57.0556C90.8564 57.0556 91.2064 57.1006 91.5391 57.1907C91.8788 57.2808 92.2115 57.4125 92.5373 57.5858C92.863 57.7522 93.1923 57.9567 93.525 58.1993C93.8577 58.4349 94.2043 58.6983 94.5647 58.9894L94.128 59.5509C93.6498 59.1627 93.2165 58.8404 92.8284 58.584C92.4471 58.3275 92.0798 58.1369 91.7263 58.0121C91.3797 57.8804 91.0089 57.8146 90.6138 57.8146C90.2325 57.8146 89.8998 57.8804 89.6156 58.0121C89.3384 58.1438 89.0958 58.3275 88.8878 58.5632C88.6868 58.7988 88.5031 59.0726 88.3368 59.3845C88.3922 59.4885 88.4685 59.6029 88.5655 59.7277C88.6625 59.8524 88.7735 59.9841 88.8982 60.1228H90.1043ZM96.5675 60.1228V60.861H95.4758V66.5898H94.6752V65.1862L94.8623 65.7373C94.6197 65.3699 94.3737 65.0303 94.1241 64.7183C93.8815 64.4064 93.6216 64.1534 93.3443 63.9593C93.074 63.7653 92.776 63.6682 92.4502 63.6682C92.1937 63.6682 91.9754 63.7341 91.7952 63.8658C91.6219 63.9975 91.5352 64.195 91.5352 64.4584C91.5352 64.6871 91.6184 64.8812 91.7848 65.0407C91.9511 65.1931 92.1972 65.3248 92.523 65.4357L92.263 66.2363C91.8887 66.1046 91.5837 65.9452 91.3481 65.7581C91.1193 65.5709 90.9495 65.3664 90.8386 65.1446C90.7346 64.9159 90.6826 64.6767 90.6826 64.4272C90.6826 64.0945 90.7624 63.8172 90.9218 63.5954C91.0881 63.3736 91.2961 63.2073 91.5456 63.0964C91.8021 62.9785 92.0586 62.9196 92.315 62.9196C92.7309 62.9196 93.0948 62.9959 93.4067 63.1484C93.7256 63.3008 94.0028 63.5053 94.2385 63.7618C94.4811 64.0183 94.6995 64.3059 94.8935 64.6248L94.7168 64.656C94.7029 64.4965 94.6925 64.3371 94.6856 64.1777C94.6787 64.0113 94.6752 63.8415 94.6752 63.6682V60.861H89.8925V60.1228H96.5675ZM93.1052 63.2315C93.1052 63.2731 93.1017 63.3147 93.0948 63.3563C93.0948 63.3979 93.0913 63.4395 93.0844 63.4811L92.2942 63.2419C92.2804 62.8399 92.211 62.5176 92.0863 62.275C91.9615 62.0324 91.764 61.8487 91.4936 61.7239C91.2233 61.5922 90.8559 61.5021 90.3915 61.4536L90.5267 60.705L91.005 60.8402C91.3377 60.8679 91.6323 60.9372 91.8887 61.0481C92.1521 61.1521 92.3739 61.3011 92.5542 61.4952C92.7344 61.6893 92.8695 61.9319 92.9596 62.223C93.0567 62.5072 93.1052 62.8434 93.1052 63.2315ZM102.369 60.1228V60.861H102.161C101.946 60.9095 101.714 61.0169 101.464 61.1833C101.215 61.3427 100.979 61.5541 100.757 61.8175C100.536 62.074 100.352 62.3755 100.206 62.7221C100.068 63.0686 99.9984 63.4499 99.9984 63.8658C99.9984 64.3648 100.071 64.7634 100.217 65.0614C100.369 65.3526 100.556 65.5605 100.778 65.6853C101 65.81 101.222 65.8724 101.444 65.8724C101.617 65.8724 101.762 65.8551 101.88 65.8204C101.998 65.7858 102.133 65.7234 102.286 65.6333L102.65 66.2675C102.47 66.4062 102.272 66.5032 102.057 66.5587C101.842 66.6141 101.624 66.6418 101.402 66.6418C100.965 66.6418 100.581 66.5275 100.248 66.2987C99.9153 66.07 99.6519 65.7511 99.4578 65.3422C99.2706 64.9263 99.177 64.4411 99.177 63.8866C99.177 63.3528 99.2602 62.878 99.4266 62.4621C99.5999 62.0393 99.8217 61.6719 100.092 61.36C100.369 61.0481 100.667 60.7916 100.986 60.5906C101.305 60.3827 101.613 60.2267 101.912 60.1228H102.369ZM109.457 60.1228V60.861H108.365V66.5898H107.565V62.9196L107.804 63.5746C107.589 63.2904 107.402 63.0721 107.242 62.9196C107.09 62.7671 106.941 62.6909 106.795 62.6909C106.698 62.6909 106.608 62.7186 106.525 62.7741C106.442 62.8295 106.348 62.9369 106.244 63.0964C106.14 63.2489 106.001 63.4845 105.828 63.8034C105.641 64.143 105.471 64.4237 105.319 64.6456C105.166 64.8604 105.003 65.0199 104.83 65.1238C104.664 65.2209 104.459 65.2694 104.217 65.2694C104.029 65.2694 103.849 65.2313 103.676 65.155C103.51 65.0788 103.34 64.954 103.167 64.7807C103 64.6005 102.82 64.3579 102.626 64.0529L103.26 63.6682C103.447 64.0009 103.603 64.2193 103.728 64.3232C103.853 64.4272 103.988 64.4792 104.133 64.4792C104.251 64.4792 104.362 64.4445 104.466 64.3752C104.577 64.299 104.695 64.1707 104.82 63.9905C104.951 63.8103 105.1 63.5642 105.267 63.2523L105.506 62.9092C105.686 62.5349 105.859 62.2784 106.026 62.1398C106.192 61.9943 106.376 61.9215 106.577 61.9215C106.806 61.9215 107.01 61.9873 107.19 62.119C107.377 62.2438 107.592 62.4379 107.835 62.7013L107.627 62.7117C107.599 62.5522 107.582 62.4032 107.575 62.2646C107.568 62.119 107.565 61.9735 107.565 61.8279V60.861H102.158V60.1228H109.457ZM105.08 63.7722C105.01 63.3008 104.938 62.9265 104.861 62.6493C104.792 62.372 104.667 62.1571 104.487 62.0047C104.314 61.8452 104.078 61.7274 103.78 61.6511C103.482 61.568 103.108 61.4987 102.657 61.4432L102.813 60.653L103.374 60.861C103.77 60.9233 104.099 61.0031 104.362 61.1001C104.626 61.1971 104.837 61.3254 104.996 61.4848C105.163 61.6373 105.288 61.8279 105.371 62.0566C105.454 62.2854 105.509 62.5626 105.537 62.8884L105.08 63.7722ZM115.65 60.1228V60.861H114.558V66.5898H113.758C113.55 66.174 113.262 65.7927 112.895 65.4461C112.534 65.0926 112.118 64.7946 111.647 64.552C111.176 64.3094 110.673 64.1465 110.139 64.0633L109.734 63.0652C110.399 62.6631 111.085 62.2992 111.792 61.9735C112.506 61.6477 113.241 61.3704 113.997 61.1417L113.758 61.5784V60.861H109.245V60.1228H115.65ZM113.758 61.6615L113.976 61.9527C113.449 62.126 112.895 62.3408 112.312 62.5973C111.73 62.8468 111.193 63.1241 110.701 63.4291C111.075 63.5123 111.474 63.6544 111.896 63.8554C112.319 64.0564 112.711 64.3094 113.071 64.6144C113.432 64.9194 113.709 65.2729 113.903 65.6749H113.81C113.796 65.5155 113.782 65.356 113.768 65.1966C113.761 65.0372 113.758 64.8466 113.758 64.6248V61.6615ZM118.412 60.1228V60.861H117.321V66.5898H116.52V61.7135C116.437 61.4779 116.312 61.2768 116.146 61.1105C115.986 60.9441 115.778 60.861 115.522 60.861H115.439V60.1228H115.595C115.761 60.1228 115.934 60.1782 116.115 60.2891C116.295 60.3931 116.44 60.556 116.551 60.7778C116.544 60.7431 116.537 60.6634 116.531 60.5386C116.524 60.4139 116.52 60.3064 116.52 60.2163V59.4365H117.082L117.31 60.1228H118.412ZM124.917 60.1228V60.861H123.826V66.5898H123.025C122.734 66.2017 122.412 65.862 122.058 65.5709C121.704 65.2729 121.296 65.0233 120.831 64.8223C120.367 64.6213 119.816 64.4757 119.178 64.3856L118.804 63.4395C119.019 63.2939 119.244 63.1553 119.479 63.0236C119.715 62.8919 119.954 62.7637 120.197 62.6389C120.446 62.5141 120.689 62.3963 120.925 62.2854C120.661 62.0844 120.356 61.9076 120.01 61.7551C119.67 61.5957 119.268 61.4675 118.804 61.3704L119.126 60.6634L119.147 60.861H118.201V60.1228H124.917ZM123.025 60.861H119.708L119.49 60.7674C119.781 60.8367 120.072 60.9476 120.363 61.1001C120.661 61.2526 120.935 61.4189 121.185 61.5992C121.441 61.7724 121.646 61.9388 121.798 62.0982L121.85 62.6805C121.601 62.7914 121.337 62.9127 121.06 63.0444C120.79 63.1761 120.526 63.3078 120.27 63.4395C120.02 63.5712 119.798 63.7029 119.604 63.8346L119.479 63.6786C120.076 63.7618 120.595 63.9004 121.039 64.0945C121.49 64.2886 121.888 64.5243 122.235 64.8015C122.581 65.0788 122.9 65.3872 123.191 65.7269L123.056 65.7685C123.049 65.6229 123.042 65.4669 123.035 65.3006C123.028 65.1273 123.025 64.9644 123.025 64.8119V60.861ZM120.176 66.6522C120.003 66.6522 119.854 66.5968 119.729 66.4859C119.611 66.375 119.552 66.2294 119.552 66.0492C119.552 65.869 119.611 65.7199 119.729 65.6021C119.854 65.4843 120.003 65.4254 120.176 65.4254C120.349 65.4254 120.495 65.4843 120.613 65.6021C120.738 65.7199 120.8 65.869 120.8 66.0492C120.8 66.2294 120.738 66.375 120.613 66.4859C120.495 66.5968 120.349 66.6522 120.176 66.6522ZM136.353 60.1228V60.861H135.313V66.5898H134.513C134.312 66.1809 134.062 65.8239 133.764 65.5189C133.466 65.207 133.147 64.9401 132.808 64.7183L133.068 64.0321C133.331 64.1846 133.605 64.3926 133.889 64.656C134.173 64.9194 134.391 65.1862 134.544 65.4565C134.537 65.3526 134.53 65.2555 134.523 65.1654C134.523 65.0753 134.52 64.9817 134.513 64.8847C134.513 64.7877 134.513 64.6837 134.513 64.5728V60.861H126.912V60.1228H136.353ZM130.926 65.6437C130.454 65.6437 130.004 65.5328 129.574 65.311C129.144 65.0892 128.739 64.7149 128.358 64.1881C127.983 63.6544 127.637 62.9231 127.318 61.9943L128.077 61.7447C128.326 62.4656 128.586 63.0582 128.857 63.5227C129.134 63.9801 129.442 64.3163 129.782 64.5312C130.122 64.7461 130.51 64.8535 130.947 64.8535C131.328 64.8535 131.633 64.7946 131.861 64.6767C132.097 64.552 132.267 64.3856 132.371 64.1777C132.475 63.9697 132.527 63.7341 132.527 63.4707C132.527 63.0686 132.416 62.7429 132.194 62.4933C131.979 62.2438 131.709 62.119 131.383 62.119C131.154 62.119 130.981 62.171 130.863 62.275C130.745 62.372 130.687 62.5211 130.687 62.7221C130.687 62.7706 130.694 62.8364 130.707 62.9196C130.721 63.0028 130.742 63.079 130.77 63.1484L129.98 63.3043C129.931 63.1587 129.893 63.0271 129.865 62.9092C129.844 62.7844 129.834 62.6666 129.834 62.5557C129.834 62.2992 129.903 62.0844 130.042 61.9111C130.188 61.7378 130.371 61.6096 130.593 61.5264C130.822 61.4363 131.061 61.3912 131.31 61.3912C131.719 61.3912 132.073 61.4848 132.371 61.6719C132.669 61.8522 132.901 62.1017 133.068 62.4205C133.234 62.7394 133.317 63.1102 133.317 63.5331C133.317 63.9074 133.23 64.2574 133.057 64.5832C132.884 64.902 132.62 65.1585 132.267 65.3526C131.913 65.5467 131.466 65.6437 130.926 65.6437ZM130.593 61.7551C130.558 61.5333 130.454 61.3392 130.281 61.1729C130.115 60.9996 129.869 60.8783 129.543 60.809L129.792 60.3411L130.26 60.4659C130.655 60.6184 130.94 60.7916 131.113 60.9857C131.286 61.1798 131.387 61.4259 131.414 61.7239L130.593 61.7551ZM139.16 60.1228V60.861H138.069V66.5898H137.268V61.6096C137.15 61.3392 137.015 61.1486 136.863 61.0377C136.717 60.9199 136.544 60.861 136.343 60.861H136.239V60.1228H136.343C136.537 60.1228 136.717 60.1782 136.883 60.2891C137.057 60.3931 137.199 60.556 137.31 60.7778C137.303 60.7431 137.292 60.6634 137.278 60.5386C137.272 60.4139 137.268 60.3064 137.268 60.2163V59.4365H137.819L138.058 60.1228H139.16ZM146.607 60.1228V60.861H145.515V66.5898H144.715V62.4725L144.943 63.138C144.659 62.7221 144.399 62.3686 144.164 62.0774C143.928 61.7794 143.703 61.5368 143.488 61.3496C143.28 61.1625 143.068 61.0273 142.853 60.9441C142.639 60.854 142.406 60.809 142.157 60.809C141.88 60.809 141.627 60.861 141.398 60.9649C141.176 61.0689 140.972 61.2075 140.784 61.3808C140.597 61.5541 140.424 61.7413 140.265 61.9423L140.181 61.9631C140.292 61.8937 140.4 61.8418 140.504 61.8071C140.615 61.7724 140.736 61.7551 140.868 61.7551C141.27 61.7551 141.564 61.866 141.751 62.0878C141.939 62.3027 142.032 62.5696 142.032 62.8884C142.032 62.9647 142.029 63.0374 142.022 63.1068C142.015 63.1761 142.004 63.2281 141.991 63.2627L141.814 63.2003C141.897 63.1102 141.977 63.0236 142.053 62.9404C142.129 62.8572 142.209 62.7741 142.292 62.6909C142.382 62.6077 142.472 62.5211 142.562 62.4309L143.852 61.2249L144.361 61.7759L141.408 64.5624L140.795 63.9905L141.647 63.1795L141.273 63.6266L140.961 63.8658C141.065 63.7479 141.152 63.6232 141.221 63.4915C141.297 63.3528 141.335 63.1969 141.335 63.0236C141.335 62.8503 141.283 62.7117 141.18 62.6077C141.076 62.5037 140.923 62.4517 140.722 62.4517C140.611 62.4517 140.504 62.4656 140.4 62.4933C140.296 62.5211 140.188 62.5696 140.077 62.6389L139.287 61.8903C139.564 61.5229 139.849 61.2041 140.14 60.9337C140.431 60.6565 140.736 60.4416 141.055 60.2891C141.374 60.1297 141.717 60.05 142.084 60.05C142.472 60.05 142.822 60.1228 143.134 60.2683C143.446 60.4139 143.748 60.6322 144.039 60.9233C144.33 61.2075 144.635 61.568 144.954 62.0047L144.767 61.9527C144.746 61.7863 144.732 61.6061 144.725 61.412C144.718 61.2179 144.715 61.01 144.715 60.7882V59.4365H145.266L145.505 60.1228H146.607ZM152.885 60.1228V60.861H151.793V66.5898H150.993V64.0633L151.159 64.6456C150.93 64.3267 150.681 64.0391 150.41 63.7826C150.14 63.5261 149.863 63.3216 149.579 63.1691C149.294 63.0167 149.017 62.9404 148.747 62.9404C148.49 62.9404 148.272 63.0097 148.092 63.1484C147.919 63.2801 147.832 63.4776 147.832 63.741C147.832 63.9489 147.905 64.1292 148.05 64.2817C148.196 64.4272 148.421 64.5589 148.726 64.6767L148.331 65.415C147.908 65.2417 147.575 65.0095 147.333 64.7183C147.097 64.4203 146.979 64.0841 146.979 63.7098C146.979 63.3702 147.059 63.0894 147.218 62.8676C147.385 62.6389 147.593 62.4691 147.842 62.3582C148.099 62.2473 148.359 62.1918 148.622 62.1918C148.983 62.1918 149.312 62.2542 149.61 62.379C149.908 62.5037 150.185 62.6735 150.442 62.8884C150.705 63.1033 150.955 63.3528 151.19 63.637L151.045 63.6786C151.024 63.5192 151.01 63.3632 151.003 63.2107C150.996 63.0513 150.993 62.8919 150.993 62.7325V60.861H146.397V60.1228H152.885ZM155.646 60.1228V60.861H154.554V66.5898H153.753V61.7135C153.67 61.4779 153.545 61.2768 153.379 61.1105C153.22 60.9441 153.012 60.861 152.755 60.861H152.672V60.1228H152.828C152.994 60.1228 153.168 60.1782 153.348 60.2891C153.528 60.3931 153.674 60.556 153.784 60.7778C153.778 60.7431 153.771 60.6634 153.764 60.5386C153.757 60.4139 153.753 60.3064 153.753 60.2163V59.4365H154.315L154.543 60.1228H155.646ZM159.239 60.1228V60.861H159.031C158.816 60.9095 158.584 61.0169 158.335 61.1833C158.085 61.3427 157.849 61.5541 157.628 61.8175C157.406 62.074 157.222 62.3755 157.077 62.7221C156.938 63.0686 156.869 63.4499 156.869 63.8658C156.869 64.3648 156.941 64.7634 157.087 65.0614C157.239 65.3526 157.427 65.5605 157.648 65.6853C157.87 65.81 158.092 65.8724 158.314 65.8724C158.487 65.8724 158.633 65.8551 158.75 65.8204C158.868 65.7858 159.003 65.7234 159.156 65.6333L159.52 66.2675C159.34 66.4062 159.142 66.5032 158.927 66.5587C158.712 66.6141 158.497 66.6418 158.283 66.6418C157.846 66.6418 157.458 66.5275 157.118 66.2987C156.785 66.07 156.522 65.7511 156.328 65.3422C156.141 64.9263 156.047 64.4411 156.047 63.8866C156.047 63.3182 156.155 62.8052 156.37 62.3478C156.584 61.8834 156.872 61.4917 157.232 61.1729C157.6 60.854 158.005 60.6218 158.449 60.4763L157.784 60.8194C157.659 60.8332 157.524 60.8436 157.378 60.8506C157.232 60.8575 157.07 60.861 156.889 60.861H155.434V60.1228H159.239ZM167.627 60.1228V60.861H164.248V61.5056V61.6719V66.5898H163.447C163.246 66.1809 162.965 65.7962 162.605 65.4357C162.244 65.0753 161.832 64.7738 161.367 64.5312C160.91 64.2817 160.428 64.1257 159.922 64.0633L159.517 63.0652C160.189 62.677 160.861 62.3304 161.534 62.0254C162.206 61.7205 162.92 61.4501 163.676 61.2145L163.447 61.6511V60.861H159.028V60.1228H167.627ZM163.447 61.7343L163.665 62.0358C163.312 62.1329 162.944 62.2611 162.563 62.4205C162.189 62.58 161.822 62.7463 161.461 62.9196C161.108 63.0929 160.782 63.2627 160.484 63.4291C160.872 63.5053 161.27 63.6509 161.679 63.8658C162.095 64.0806 162.473 64.344 162.813 64.656C163.159 64.9609 163.416 65.2937 163.582 65.6541L163.499 65.6749C163.485 65.5155 163.471 65.356 163.457 65.1966C163.45 65.0372 163.447 64.8466 163.447 64.6248V61.7343ZM167.044 63.5954C167.044 63.8242 166.999 64.0425 166.909 64.2505C166.819 64.4515 166.67 64.6178 166.462 64.7495C166.254 64.8812 165.977 64.9471 165.63 64.9471C165.519 64.9471 165.412 64.9436 165.308 64.9367C165.211 64.9297 165.114 64.9159 165.017 64.8951L165.079 64.1465C165.121 64.1534 165.169 64.1604 165.225 64.1673C165.287 64.1673 165.357 64.1673 165.433 64.1673C165.766 64.1673 165.98 64.1049 166.077 63.9801C166.181 63.8484 166.233 63.6925 166.233 63.5123C166.233 63.1449 166.053 62.833 165.693 62.5765C165.339 62.3131 164.812 62.1329 164.112 62.0358L164.144 61.2561C164.677 61.3115 165.162 61.4467 165.599 61.6615C166.036 61.8695 166.386 62.1398 166.649 62.4725C166.913 62.7983 167.044 63.1726 167.044 63.5954ZM174.869 63.4395C174.391 63.4395 173.999 63.3182 173.694 63.0756C173.396 62.833 173.153 62.4899 172.966 62.0462L173.091 62.0254C173.042 62.2473 172.963 62.4691 172.852 62.6909C172.748 62.9127 172.606 63.0998 172.426 63.2523C172.252 63.3979 172.034 63.4707 171.771 63.4707C171.57 63.4707 171.379 63.436 171.199 63.3667C171.025 63.2904 170.849 63.1657 170.668 62.9924C170.495 62.8122 170.308 62.5661 170.107 62.2542L170.741 61.8799C170.942 62.2195 171.105 62.4379 171.23 62.5349C171.362 62.632 171.504 62.6805 171.656 62.6805C171.823 62.6805 171.968 62.625 172.093 62.5141C172.225 62.4032 172.329 62.2161 172.405 61.9527C172.481 61.6893 172.526 61.3254 172.54 60.861H173.257C173.313 61.1174 173.386 61.36 173.476 61.5888C173.566 61.8106 173.677 62.0081 173.808 62.1814C173.947 62.3547 174.106 62.4899 174.287 62.5869C174.474 62.6839 174.689 62.7325 174.931 62.7325C175.174 62.7325 175.358 62.6701 175.482 62.5453C175.614 62.4136 175.68 62.2299 175.68 61.9943C175.68 61.7309 175.607 61.4813 175.462 61.2457C175.323 61.0031 175.153 60.7916 174.952 60.6114L175.784 60.4451C175.895 60.5421 176.002 60.6703 176.106 60.8298C176.217 60.9823 176.307 61.159 176.377 61.36C176.446 61.5541 176.48 61.7655 176.48 61.9943C176.48 62.4795 176.338 62.8434 176.054 63.086C175.77 63.3216 175.375 63.4395 174.869 63.4395ZM177.312 60.1228V60.861H169.618V60.1228H177.312ZM176.169 62.7533V66.5898H175.368C175.139 66.3126 174.897 66.0769 174.64 65.8828C174.391 65.6818 174.113 65.5155 173.808 65.3838C173.51 65.2451 173.171 65.1342 172.789 65.051L172.426 64.2401C172.841 63.9697 173.299 63.7063 173.798 63.4499C174.304 63.1934 174.827 62.982 175.368 62.8156L176.169 62.7533ZM175.368 63.4395C175.125 63.5434 174.872 63.6613 174.609 63.793C174.353 63.9247 174.103 64.0598 173.86 64.1985C173.625 64.3371 173.41 64.4653 173.216 64.5832L173.278 64.4896C173.736 64.6213 174.138 64.7877 174.484 64.9887C174.838 65.1897 175.143 65.4184 175.399 65.6749C175.392 65.557 175.385 65.4219 175.378 65.2694C175.371 65.1169 175.368 64.9956 175.368 64.9055V63.4395ZM180.075 60.1228V60.861H178.983V66.5898H178.183V61.7135C178.1 61.4779 177.975 61.2768 177.808 61.1105C177.649 60.9441 177.441 60.861 177.185 60.861H177.101V60.1228H177.257C177.424 60.1228 177.597 60.1782 177.777 60.2891C177.958 60.3931 178.103 60.556 178.214 60.7778C178.207 60.7431 178.2 60.6634 178.193 60.5386C178.186 60.4139 178.183 60.3064 178.183 60.2163V59.4365H178.744L178.973 60.1228H180.075ZM184.999 66.5898V62.171L185.218 62.826C184.975 62.4795 184.746 62.1814 184.532 61.9319C184.324 61.6754 184.123 61.464 183.929 61.2976C183.734 61.1313 183.537 61.01 183.336 60.9337C183.135 60.8506 182.924 60.809 182.702 60.809C182.334 60.809 182.036 60.906 181.808 61.1001C181.586 61.2872 181.388 61.5056 181.215 61.7551L181.069 61.8383C181.166 61.7482 181.315 61.6754 181.516 61.62C181.717 61.5576 181.95 61.5264 182.213 61.5264C182.532 61.5264 182.788 61.5888 182.982 61.7135C183.183 61.8383 183.329 61.9977 183.419 62.1918C183.516 62.379 183.565 62.5661 183.565 62.7533C183.565 63.1622 183.426 63.5296 183.149 63.8554C182.872 64.1742 182.442 64.4896 181.86 64.8015L181.329 64.0425C181.71 63.8831 182.04 63.7063 182.317 63.5123C182.594 63.3112 182.733 63.0721 182.733 62.7948C182.733 62.6424 182.674 62.5141 182.556 62.4101C182.438 62.3062 182.268 62.2542 182.047 62.2542C181.866 62.2542 181.697 62.275 181.537 62.3166C181.385 62.3582 181.218 62.424 181.038 62.5141L180.196 61.8279C180.411 61.4675 180.64 61.1555 180.882 60.8921C181.125 60.6218 181.388 60.4139 181.672 60.2683C181.963 60.1228 182.279 60.05 182.619 60.05C182.965 60.05 183.28 60.1124 183.565 60.2371C183.856 60.355 184.137 60.5352 184.407 60.7778C184.684 61.0204 184.961 61.3219 185.239 61.6823L185.051 61.568C185.038 61.4709 185.024 61.3219 185.01 61.1209C185.003 60.9199 184.999 60.7154 184.999 60.5074V59.4365H185.551L185.79 60.1228H186.892V60.861H185.8V66.5898H184.999ZM191.022 66.07C190.454 66.07 189.923 65.9314 189.431 65.6541C188.939 65.3699 188.496 64.9124 188.1 64.2817C187.712 63.6509 187.376 62.8052 187.092 61.7447L187.882 61.5368C188.125 62.3963 188.388 63.1033 188.672 63.6578C188.963 64.2123 189.296 64.6213 189.67 64.8847C190.052 65.1481 190.495 65.2798 191.001 65.2798C191.327 65.2798 191.601 65.2417 191.823 65.1654C192.045 65.0822 192.221 64.9679 192.353 64.8223C192.492 64.6767 192.592 64.5104 192.654 64.3232C192.717 64.1292 192.748 63.9212 192.748 63.6994C192.748 63.4083 192.693 63.1449 192.582 62.9092C192.471 62.6666 192.315 62.476 192.114 62.3374C191.913 62.1987 191.677 62.1294 191.407 62.1294C191.13 62.1294 190.929 62.1883 190.804 62.3062C190.686 62.424 190.627 62.58 190.627 62.7741C190.627 62.8434 190.634 62.9161 190.648 62.9924C190.662 63.0686 190.686 63.1553 190.721 63.2523L189.92 63.4083C189.878 63.2766 189.844 63.1484 189.816 63.0236C189.795 62.8988 189.785 62.7706 189.785 62.6389C189.785 62.3686 189.851 62.1433 189.982 61.9631C190.121 61.7759 190.308 61.6338 190.544 61.5368C190.786 61.4397 191.06 61.3912 191.365 61.3912C191.795 61.3912 192.173 61.4917 192.499 61.6927C192.824 61.8868 193.081 62.1606 193.268 62.5141C193.455 62.8676 193.549 63.2766 193.549 63.741C193.549 64.1777 193.455 64.5728 193.268 64.9263C193.088 65.2729 192.81 65.5501 192.436 65.7581C192.062 65.966 191.59 66.07 191.022 66.07ZM194.245 60.1228V60.861H186.686V60.1228H194.245ZM200.713 60.1228V60.861H199.621V66.5898H198.82V65.1862L199.008 65.7373C198.765 65.3699 198.519 65.0303 198.269 64.7183C198.027 64.4064 197.767 64.1534 197.49 63.9593C197.219 63.7653 196.921 63.6682 196.595 63.6682C196.339 63.6682 196.121 63.7341 195.94 63.8658C195.767 63.9975 195.68 64.195 195.68 64.4584C195.68 64.6871 195.764 64.8812 195.93 65.0407C196.096 65.1931 196.342 65.3248 196.668 65.4357L196.408 66.2363C196.034 66.1046 195.729 65.9452 195.493 65.7581C195.265 65.5709 195.095 65.3664 194.984 65.1446C194.88 64.9159 194.828 64.6767 194.828 64.4272C194.828 64.0945 194.908 63.8172 195.067 63.5954C195.233 63.3736 195.441 63.2073 195.691 63.0964C195.947 62.9785 196.204 62.9196 196.46 62.9196C196.876 62.9196 197.24 62.9959 197.552 63.1484C197.871 63.3008 198.148 63.5053 198.384 63.7618C198.626 64.0183 198.845 64.3059 199.039 64.6248L198.862 64.656C198.848 64.4965 198.838 64.3371 198.831 64.1777C198.824 64.0113 198.82 63.8415 198.82 63.6682V60.861H194.038V60.1228H200.713ZM197.25 63.2315C197.25 63.2731 197.247 63.3147 197.24 63.3563C197.24 63.3979 197.237 63.4395 197.23 63.4811L196.439 63.2419C196.426 62.8399 196.356 62.5176 196.231 62.275C196.107 62.0324 195.909 61.8487 195.639 61.7239C195.368 61.5922 195.001 61.5021 194.537 61.4536L194.672 60.705L195.15 60.8402C195.483 60.8679 195.777 60.9372 196.034 61.0481C196.297 61.1521 196.519 61.3011 196.699 61.4952C196.88 61.6893 197.015 61.9319 197.105 62.223C197.202 62.5072 197.25 62.8434 197.25 63.2315Z" fill="white"/>
<defs>
<clipPath id="clip0_4446_5251">
<rect width="54.1641" height="54.1675" fill="white" transform="translate(0.5 20)"/>
</clipPath>
</defs>
</svg>
