<svg width="102" height="61" viewBox="0 0 102 61" fill="none" xmlns="http://www.w3.org/2000/svg">
<path d="M8.53002 6.68976H5.22934V6.96071C5.62345 7.0264 5.9683 7.13724 6.26388 7.29324C6.55947 7.44925 6.80579 7.63399 7.00284 7.84746C7.20811 8.05273 7.36 8.27852 7.45853 8.52484C7.55706 8.76295 7.60632 9.00106 7.60632 9.23917C7.60632 9.37875 7.58169 9.53475 7.53243 9.70718C7.49138 9.87139 7.42569 10.0315 7.33537 10.1875C7.24506 10.3435 7.13011 10.4749 6.99052 10.5816C6.85915 10.6801 6.70315 10.7294 6.52252 10.7294C6.35009 10.7294 6.18178 10.6678 6.01756 10.5447C5.85335 10.4133 5.77124 10.2327 5.77124 10.0028C5.77124 9.92886 5.78356 9.84676 5.80819 9.75644C5.84103 9.66612 5.88619 9.57991 5.94367 9.4978C6.00935 9.4157 6.08735 9.35001 6.17767 9.30075C6.2762 9.24327 6.38704 9.21454 6.5102 9.21454C6.57589 9.21454 6.64978 9.23096 6.73189 9.2638C6.814 9.28843 6.88789 9.31306 6.95358 9.3377C7.01105 9.22275 7.03979 9.09959 7.03979 8.96822C7.03979 8.81221 6.98642 8.66442 6.87968 8.52484C6.77294 8.38526 6.63336 8.26621 6.46094 8.16768C6.28851 8.06094 6.09556 7.97883 5.88209 7.92136C5.66861 7.86388 5.45924 7.83515 5.25397 7.83515H5.22934V13.0818L4.83523 12.7985C4.54785 11.8789 4.13322 11.1892 3.59131 10.7294C3.04941 10.2614 2.43361 9.98223 1.74391 9.89192L1.09117 9.04211L4.57659 7.03461V6.68976H0.832532L0.426104 6.09859H8.07433L8.53002 6.68976ZM4.57659 7.94599C4.20711 8.15947 3.85816 8.36473 3.52973 8.56179C3.20131 8.75063 2.84825 8.9518 2.47056 9.16527C2.85646 9.32949 3.22594 9.56349 3.579 9.86728C3.93205 10.1711 4.26459 10.5775 4.57659 11.0866V7.94599ZM11.3906 6.68976H10.0112V13.0941L9.37076 12.5029V7.65041C9.37076 7.59293 9.34613 7.51493 9.29687 7.4164C9.25581 7.31788 9.20244 7.21935 9.13676 7.12082C9.07107 7.02229 9.00128 6.93197 8.92739 6.84987C8.8617 6.76776 8.80012 6.71439 8.74265 6.68976H8.20074L7.73274 6.09859H8.84117C8.99718 6.21354 9.11213 6.30386 9.18602 6.36954C9.26813 6.43523 9.32971 6.51323 9.37076 6.60355V4.89163C9.53498 4.99015 9.65813 5.14205 9.74024 5.34732C9.83056 5.55258 9.89624 5.73732 9.9373 5.90154L9.99888 6.09859H10.9226L11.3906 6.68976ZM18.2662 5.43353C18.0034 5.26111 17.7448 5.101 17.4902 4.95321C17.2439 4.7972 16.9894 4.66173 16.7267 4.54678C16.4721 4.42362 16.2094 4.3292 15.9384 4.26351C15.6757 4.19783 15.4006 4.16498 15.1133 4.16498C14.596 4.16498 14.1198 4.27583 13.6846 4.49751C13.2577 4.7192 12.8594 5.06405 12.49 5.53206L12.8718 6.09859H14.0541L14.5098 6.68976H12.9949V13.0941L12.3545 12.5029V6.68976H11.3692L10.9628 6.09859H12.3299L11.5909 5.16258C11.829 4.83415 12.0671 4.55909 12.3052 4.33741C12.5433 4.10751 12.7896 3.92277 13.0442 3.78319C13.3069 3.6354 13.582 3.53276 13.8693 3.47529C14.1567 3.4096 14.4646 3.37676 14.793 3.37676C15.1215 3.37676 15.4253 3.41371 15.7044 3.4876C15.9918 3.55329 16.271 3.65592 16.5419 3.7955C16.8129 3.92687 17.0838 4.08698 17.3548 4.27583C17.6339 4.46467 17.9377 4.68225 18.2662 4.92857V5.43353ZM20.1784 6.68976H19.1069V13.1187L18.7497 12.7862C18.4624 11.8748 18.0313 11.1974 17.4566 10.754C16.8818 10.3107 16.2208 10.0315 15.4737 9.91655L14.7717 9.05443L18.4541 7.03461V6.68976H14.4268L14.0204 6.09859H19.6981L20.1784 6.68976ZM18.4541 7.92136C18.06 8.13484 17.6865 8.34421 17.3334 8.54947C16.9803 8.74653 16.6026 8.9518 16.2003 9.16527C16.7176 9.41159 17.1487 9.69076 17.4935 10.0028C17.8466 10.3148 18.1668 10.676 18.4541 11.0866V7.92136ZM17.0255 11.9364C17.0255 12.1252 16.9557 12.2853 16.8161 12.4167C16.6765 12.5399 16.5123 12.6014 16.3235 12.6014C16.1182 12.6014 15.9499 12.5399 15.8185 12.4167C15.6872 12.2853 15.6215 12.1252 15.6215 11.9364C15.6215 11.7475 15.6872 11.5915 15.8185 11.4684C15.9499 11.337 16.1182 11.2713 16.3235 11.2713C16.5123 11.2713 16.6765 11.337 16.8161 11.4684C16.9557 11.5915 17.0255 11.7475 17.0255 11.9364ZM22.3985 6.1848C22.6448 6.19301 22.8665 6.24638 23.0636 6.34491C23.2606 6.44344 23.4413 6.57071 23.6055 6.72671C23.7697 6.8745 23.9175 7.04692 24.0489 7.24398C24.1884 7.44103 24.3157 7.6463 24.4307 7.85978V4.90394C24.6277 4.99426 24.7632 5.14205 24.8371 5.34732C24.9192 5.55258 24.9808 5.74143 25.0218 5.91385C25.0382 5.95491 25.0465 5.98775 25.0465 6.01238C25.0465 6.03701 25.0547 6.06575 25.0711 6.09859H25.6499L26.1179 6.68976H25.0834V13.0941L24.4307 12.5029V8.98053C24.4307 8.89022 24.3937 8.75063 24.3198 8.56179C24.2541 8.36473 24.1392 8.16357 23.975 7.95831C23.9339 7.85978 23.86 7.75715 23.7533 7.65041C23.6465 7.53546 23.5234 7.42872 23.3838 7.33019C23.2442 7.23166 23.0964 7.15366 22.9404 7.09619C22.7844 7.0305 22.6366 6.99766 22.497 6.99766C22.2671 6.99766 22.0496 7.05513 21.8443 7.17008C21.6472 7.28503 21.4912 7.47388 21.3763 7.73662C21.5241 7.69557 21.6801 7.67504 21.8443 7.67504C22.3369 7.67504 22.6818 7.76536 22.8788 7.94599C23.0841 8.12662 23.1867 8.37705 23.1867 8.69727C23.1867 8.8779 23.0923 9.15706 22.9035 9.53475C22.7146 9.91244 22.419 10.323 22.0167 10.7664L21.2408 9.8796L21.327 9.83034C21.3927 9.78107 21.483 9.71128 21.598 9.62096C21.7129 9.52244 21.8402 9.39928 21.9798 9.25148C22.1686 9.05443 22.3041 8.88611 22.3862 8.74653C22.4683 8.59874 22.5094 8.492 22.5094 8.42631C22.5094 8.29494 22.4231 8.22926 22.2507 8.22926C22.2261 8.22926 22.1686 8.24978 22.0783 8.29084C21.988 8.33189 21.8853 8.37705 21.7704 8.42631C21.6308 8.492 21.5036 8.55358 21.3886 8.61105C21.2819 8.66853 21.1874 8.69727 21.1053 8.69727C20.9411 8.69727 20.8098 8.66853 20.7112 8.61105C20.6127 8.55358 20.5347 8.48379 20.4772 8.40168C20.4197 8.31136 20.3787 8.21694 20.3541 8.11841C20.3376 8.01168 20.3294 7.91725 20.3294 7.83515C20.3294 7.71199 20.35 7.58062 20.391 7.44103C20.4403 7.30145 20.5183 7.16187 20.625 7.02229C20.7728 6.82524 20.9329 6.67334 21.1053 6.5666C21.2778 6.45165 21.442 6.36954 21.598 6.32028C21.7622 6.26281 21.9059 6.22586 22.029 6.20944C22.1604 6.19301 22.2589 6.1848 22.3246 6.1848H22.3985ZM33.0058 5.43353C32.7431 5.26111 32.4845 5.101 32.2299 4.95321C31.9836 4.7972 31.7291 4.66173 31.4663 4.54678C31.2118 4.42362 30.9491 4.3292 30.6781 4.26351C30.4154 4.19783 30.1403 4.16498 29.8529 4.16498C29.3357 4.16498 28.8594 4.27583 28.4243 4.49751C27.9973 4.7192 27.5991 5.06405 27.2296 5.53206L27.6114 6.09859H28.7938L29.2495 6.68976H27.7346V13.0941L27.0942 12.5029V6.68976H26.1089L25.7025 6.09859H27.0695L26.3306 5.16258C26.5687 4.83415 26.8068 4.55909 27.0449 4.33741C27.283 4.10751 27.5293 3.92277 27.7839 3.78319C28.0466 3.6354 28.3217 3.53276 28.609 3.47529C28.8964 3.4096 29.2043 3.37676 29.5327 3.37676C29.8611 3.37676 30.1649 3.41371 30.4441 3.4876C30.7315 3.55329 31.0106 3.65592 31.2816 3.7955C31.5525 3.92687 31.8235 4.08698 32.0944 4.27583C32.3736 4.46467 32.6774 4.68225 33.0058 4.92857V5.43353ZM34.9181 6.68976H33.8466V13.1187L33.4894 12.7862C33.202 11.8748 32.771 11.1974 32.1962 10.754C31.6215 10.3107 30.9605 10.0315 30.2134 9.91655L29.5113 9.05443L33.1938 7.03461V6.68976H29.1665L28.7601 6.09859H34.4377L34.9181 6.68976ZM33.1938 7.92136C32.7997 8.13484 32.4261 8.34421 32.0731 8.54947C31.72 8.74653 31.3423 8.9518 30.94 9.16527C31.4573 9.41159 31.8883 9.69076 32.2332 10.0028C32.5862 10.3148 32.9064 10.676 33.1938 11.0866V7.92136ZM31.7652 11.9364C31.7652 12.1252 31.6954 12.2853 31.5558 12.4167C31.4162 12.5399 31.252 12.6014 31.0632 12.6014C30.8579 12.6014 30.6896 12.5399 30.5582 12.4167C30.4268 12.2853 30.3611 12.1252 30.3611 11.9364C30.3611 11.7475 30.4268 11.5915 30.5582 11.4684C30.6896 11.337 30.8579 11.2713 31.0632 11.2713C31.252 11.2713 31.4162 11.337 31.5558 11.4684C31.6954 11.5915 31.7652 11.7475 31.7652 11.9364ZM44.4941 6.68976H43.4719V13.0941L42.8191 12.5029V9.96581C42.8191 9.90013 42.7945 9.80981 42.7452 9.69486C42.7042 9.57991 42.6467 9.46907 42.5728 9.36233C42.4989 9.24738 42.4168 9.14885 42.3265 9.06675C42.2362 8.98464 42.1458 8.94359 42.0555 8.94359C41.9816 8.94359 41.8995 8.97232 41.8092 9.0298C41.7189 9.08727 41.6204 9.16117 41.5136 9.25148C41.4151 9.3418 41.3083 9.44854 41.1934 9.5717C41.0867 9.69486 40.9758 9.81802 40.8609 9.94118C40.7377 10.0726 40.6145 10.2039 40.4914 10.3353C40.3764 10.4585 40.2615 10.5693 40.1465 10.6678C40.0398 10.7664 39.9372 10.8485 39.8386 10.9141C39.7401 10.9716 39.6498 11.0004 39.5677 11.0004C39.4445 11.0004 39.3132 10.947 39.1736 10.8402C39.0422 10.7335 38.919 10.6062 38.8041 10.4585C38.6891 10.3024 38.5906 10.1423 38.5085 9.97813C38.4264 9.8057 38.3771 9.65791 38.3607 9.53475L38.8534 9.51012C38.9026 9.69897 38.9724 9.82623 39.0627 9.89192C39.153 9.9576 39.2064 9.99044 39.2228 9.99044C39.2803 9.99044 39.3829 9.92886 39.5307 9.8057C39.6785 9.68254 39.8263 9.53886 39.9741 9.37464C40.1301 9.21043 40.2656 9.05032 40.3805 8.89432C40.4955 8.73011 40.553 8.60695 40.553 8.52484C40.553 8.30315 40.516 8.12662 40.4421 7.99525C40.3764 7.85567 40.282 7.74483 40.1589 7.66272C40.0439 7.58062 39.9084 7.51904 39.7524 7.47798C39.6046 7.42872 39.4527 7.38356 39.2967 7.34251C39.1325 7.30966 38.9724 7.27272 38.8164 7.23166C38.6686 7.1824 38.5208 7.11261 38.373 7.02229L38.2868 6.68976H38.1267L37.708 6.09859H44.0384L44.4941 6.68976ZM42.8191 6.68976H39.7524C40.0973 6.85397 40.3805 7.06334 40.6022 7.31788C40.8239 7.57241 40.9471 7.8762 40.9717 8.22926L41.0702 8.15536C41.1441 8.08147 41.2221 8.01578 41.3042 7.95831C41.3863 7.89262 41.4808 7.85978 41.5875 7.85978C41.6942 7.85978 41.8051 7.89673 41.92 7.97062C42.035 8.04452 42.1458 8.13484 42.2526 8.24157C42.3675 8.3401 42.4743 8.45095 42.5728 8.57411C42.6713 8.69727 42.7534 8.80811 42.8191 8.90664V6.68976ZM46.8374 7.05924H46.9975C47.3259 7.05924 47.6256 7.11671 47.8965 7.23166C48.1675 7.3384 48.3974 7.48209 48.5862 7.66272C48.7751 7.84336 48.9188 8.05273 49.0173 8.29084C49.124 8.52895 49.1774 8.77116 49.1774 9.01748C49.1774 9.24738 49.1446 9.46086 49.0789 9.65791C49.0214 9.85497 48.9147 10.0397 48.7587 10.2121C48.6027 10.3846 48.3933 10.5406 48.1305 10.6801C47.8678 10.8197 47.5394 10.9429 47.1453 11.0496C47.6954 11.4191 48.1716 11.7804 48.5739 12.1334C48.9845 12.4865 49.358 12.897 49.6947 13.365V13.9316L48.9557 13.3034C48.693 13.0653 48.4261 12.8313 48.1552 12.6014C47.8924 12.3715 47.6256 12.1663 47.3546 11.9856C47.0919 11.805 46.8251 11.6613 46.5541 11.5546C46.2914 11.4396 46.0286 11.378 45.7659 11.3698L44.8052 9.99044C45.3553 10.1711 45.8316 10.2614 46.2339 10.2614C46.628 10.2614 46.9687 10.2162 47.2561 10.1259C47.5435 10.0274 47.7775 9.90423 47.9581 9.75644C48.147 9.60865 48.2866 9.44444 48.3769 9.2638C48.4672 9.08317 48.5123 8.90664 48.5123 8.73421C48.5123 8.40579 48.4097 8.15536 48.2044 7.98294C48.0074 7.81051 47.7241 7.7243 47.3546 7.7243H47.2438C47.2274 7.7243 47.2151 7.72841 47.2069 7.73662C47.2069 7.73662 47.1945 7.73662 47.1699 7.73662V7.83515C47.1699 8.05683 47.1371 8.25389 47.0714 8.42631C47.0139 8.59874 46.9318 8.74653 46.8251 8.86969C46.7183 8.98464 46.5993 9.07496 46.4679 9.14064C46.3365 9.19812 46.2052 9.22685 46.0738 9.22685C45.8357 9.22685 45.6345 9.15296 45.4703 9.00517C45.3143 8.85737 45.2363 8.68084 45.2363 8.47558C45.2363 8.30315 45.2815 8.14305 45.3718 7.99525C45.4703 7.83925 45.5894 7.70378 45.7289 7.58883C45.8685 7.46567 46.0204 7.36303 46.1846 7.28093C46.3488 7.19882 46.5007 7.14135 46.6403 7.1085L46.8374 7.05924ZM49.5223 6.09859L49.941 6.68976H44.5096L44.1032 6.09859H49.5223ZM52.9001 6.68976H51.5207V13.0941L50.8803 12.5029V7.65041C50.8803 7.59293 50.8556 7.51493 50.8064 7.4164C50.7653 7.31788 50.712 7.21935 50.6463 7.12082C50.5806 7.02229 50.5108 6.93197 50.4369 6.84987C50.3712 6.76776 50.3096 6.71439 50.2522 6.68976H49.7103L49.2422 6.09859H50.3507C50.5067 6.21354 50.6216 6.30386 50.6955 6.36954C50.7776 6.43523 50.8392 6.51323 50.8803 6.60355V4.89163C51.0445 4.99015 51.1676 5.14205 51.2497 5.34732C51.3401 5.55258 51.4058 5.73732 51.4468 5.90154L51.5084 6.09859H52.4321L52.9001 6.68976ZM58.8643 6.68976H57.8174V13.0941L57.4726 12.7739C57.4726 12.7903 57.452 12.7574 57.411 12.6753C57.3699 12.5932 57.3289 12.507 57.2878 12.4167C57.1975 12.2525 57.0867 12.076 56.9553 11.8871C56.8321 11.6983 56.6474 11.4971 56.4011 11.2836C56.3354 11.2097 56.2328 11.1235 56.0932 11.025C55.9536 10.9182 55.7894 10.8197 55.6005 10.7294C55.4117 10.6309 55.2105 10.5488 54.9971 10.4831C54.7918 10.4174 54.5906 10.3846 54.3936 10.3846C54.3772 10.3846 54.3607 10.3887 54.3443 10.3969C54.3361 10.3969 54.3238 10.3969 54.3074 10.3969H54.2088L53.5191 9.54707L55.3665 8.06915C55.0792 7.7982 54.7754 7.60935 54.4552 7.50261C54.1431 7.38767 53.8804 7.30556 53.6669 7.2563C53.4699 7.20703 53.3221 7.15366 53.2236 7.09619L53.0511 6.68976H52.8664L52.46 6.09859H58.3963L58.8643 6.68976ZM57.177 6.68976H54.2827C54.4962 6.80471 54.6892 6.91555 54.8616 7.02229C55.034 7.12903 55.1982 7.24808 55.3542 7.37946C55.5184 7.51083 55.6785 7.65862 55.8345 7.82283C55.9905 7.97883 56.1589 8.17178 56.3395 8.40168L54.8123 9.63328C55.0668 9.73181 55.2967 9.83444 55.502 9.94118C55.7073 10.0397 55.9002 10.1547 56.0809 10.286C56.2697 10.4174 56.4503 10.5693 56.6228 10.7417C56.7952 10.9141 56.9799 11.1194 57.177 11.3575V6.68976ZM55.773 11.9364C55.773 12.1252 55.7032 12.2853 55.5636 12.4167C55.424 12.5399 55.2598 12.6014 55.071 12.6014C54.8657 12.6014 54.6974 12.5399 54.566 12.4167C54.4346 12.2853 54.3689 12.1252 54.3689 11.9364C54.3689 11.7475 54.4346 11.5915 54.566 11.4684C54.6974 11.337 54.8657 11.2713 55.071 11.2713C55.2598 11.2713 55.424 11.337 55.5636 11.4684C55.7032 11.5915 55.773 11.7475 55.773 11.9364ZM59.5326 7.12082C59.7625 7.90083 60.017 8.54947 60.2962 9.06675C60.5753 9.57581 60.8668 9.98634 61.1706 10.2983C61.4744 10.6021 61.7864 10.8156 62.1066 10.9388C62.4351 11.0619 62.7594 11.1235 63.0796 11.1235C63.3834 11.1235 63.642 11.066 63.8555 10.9511C64.069 10.8279 64.2414 10.6801 64.3728 10.5077C64.5124 10.3271 64.615 10.1382 64.6807 9.94118C64.7464 9.73591 64.7792 9.55117 64.7792 9.38696C64.7792 9.24738 64.7505 9.09959 64.693 8.94359C64.6355 8.78758 64.5575 8.6439 64.459 8.51253C64.3605 8.37294 64.2414 8.2621 64.1018 8.17999C63.9705 8.08968 63.8227 8.04452 63.6584 8.04452C63.5928 8.04452 63.5435 8.04862 63.5107 8.05683C63.5928 8.27031 63.6338 8.45505 63.6338 8.61105C63.6338 8.79169 63.5969 8.94769 63.523 9.07906C63.4491 9.20222 63.3588 9.30485 63.252 9.38696C63.1453 9.46086 63.0262 9.51833 62.8949 9.55938C62.7635 9.59223 62.6444 9.60865 62.5377 9.60865C62.16 9.60865 61.8603 9.4937 61.6386 9.2638C61.4252 9.02569 61.3184 8.74242 61.3184 8.414C61.3184 8.27442 61.3513 8.12662 61.4169 7.97062C61.4826 7.81462 61.5812 7.67093 61.7125 7.53956C61.8439 7.39998 62.004 7.28503 62.1928 7.19472C62.3899 7.1044 62.6157 7.05924 62.8702 7.05924C63.0262 7.05924 63.2438 7.09619 63.523 7.17008C63.8021 7.24398 64.0772 7.37946 64.3481 7.57651C64.6191 7.77357 64.8531 8.04452 65.0502 8.38937C65.2554 8.73421 65.3581 9.18169 65.3581 9.73181C65.3581 10.0192 65.3129 10.3024 65.2226 10.5816C65.1405 10.8608 65.0091 11.1153 64.8285 11.3452C64.6478 11.5669 64.422 11.7475 64.1511 11.8871C63.8883 12.0267 63.5722 12.0965 63.2028 12.0965C63.0796 12.0965 62.9154 12.0801 62.7101 12.0472C62.5131 12.0144 62.2914 11.9405 62.0451 11.8255C61.8069 11.7106 61.5524 11.5423 61.2815 11.3206C61.0105 11.0907 60.7396 10.7828 60.4686 10.3969C60.2059 10.011 59.9513 9.53475 59.705 8.96822C59.4669 8.39347 59.2534 7.69967 59.0646 6.88682L59.5326 7.12082ZM66.0601 6.68976H58.8922L58.4857 6.09859H65.629L66.0601 6.68976ZM68.9822 6.68976H67.6028V13.0941L66.9624 12.5029V7.65041C66.9624 7.59293 66.9378 7.51493 66.8885 7.4164C66.8474 7.31788 66.7941 7.21935 66.7284 7.12082C66.6627 7.02229 66.5929 6.93197 66.519 6.84987C66.4533 6.76776 66.3917 6.71439 66.3343 6.68976H65.7924L65.3244 6.09859H66.4328C66.5888 6.21354 66.7037 6.30386 66.7776 6.36954C66.8598 6.43523 66.9213 6.51323 66.9624 6.60355V4.89163C67.1266 4.99015 67.2498 5.14205 67.3319 5.34732C67.4222 5.55258 67.4879 5.73732 67.5289 5.90154L67.5905 6.09859H68.5142L68.9822 6.68976ZM74.9464 6.68976H73.8995V13.0941L73.5547 12.7739C73.5547 12.7903 73.5342 12.7574 73.4931 12.6753C73.4521 12.5932 73.411 12.507 73.37 12.4167C73.2796 12.2525 73.1688 12.076 73.0374 11.8871C72.9143 11.6983 72.7295 11.4971 72.4832 11.2836C72.4175 11.2097 72.3149 11.1235 72.1753 11.025C72.0357 10.9182 71.8715 10.8197 71.6827 10.7294C71.4938 10.6309 71.2927 10.5488 71.0792 10.4831C70.8739 10.4174 70.6727 10.3846 70.4757 10.3846C70.4593 10.3846 70.4429 10.3887 70.4264 10.3969C70.4182 10.3969 70.4059 10.3969 70.3895 10.3969H70.291L69.6013 9.54707L71.4487 8.06915C71.1613 7.7982 70.8575 7.60935 70.5373 7.50261C70.2253 7.38767 69.9625 7.30556 69.7491 7.2563C69.552 7.20703 69.4042 7.15366 69.3057 7.09619L69.1333 6.68976H68.9485L68.5421 6.09859H74.4784L74.9464 6.68976ZM73.2591 6.68976H70.3649C70.5783 6.80471 70.7713 6.91555 70.9437 7.02229C71.1161 7.12903 71.2803 7.24808 71.4363 7.37946C71.6006 7.51083 71.7607 7.65862 71.9167 7.82283C72.0727 7.97883 72.241 8.17178 72.4216 8.40168L70.8944 9.63328C71.149 9.73181 71.3789 9.83444 71.5841 9.94118C71.7894 10.0397 71.9823 10.1547 72.163 10.286C72.3518 10.4174 72.5325 10.5693 72.7049 10.7417C72.8773 10.9141 73.0621 11.1194 73.2591 11.3575V6.68976ZM71.8551 11.9364C71.8551 12.1252 71.7853 12.2853 71.6457 12.4167C71.5061 12.5399 71.3419 12.6014 71.1531 12.6014C70.9478 12.6014 70.7795 12.5399 70.6481 12.4167C70.5167 12.2853 70.4511 12.1252 70.4511 11.9364C70.4511 11.7475 70.5167 11.5915 70.6481 11.4684C70.7795 11.337 70.9478 11.2713 71.1531 11.2713C71.3419 11.2713 71.5061 11.337 71.6457 11.4684C71.7853 11.5915 71.8551 11.7475 71.8551 11.9364Z" fill="white"/>
<g clip-path="url(#clip0_4446_5282)">
<path d="M101.5 22.168H0.5V60.7615H101.5V22.168Z" fill="#000B8C"/>
<path d="M28.31 34.4532C25.8054 34.1147 23.2847 33.9101 20.7586 33.8403C22.4923 32.0627 24.1281 30.1914 25.6586 28.2345C23.6684 29.7013 21.7568 31.2727 19.9317 32.9422C19.7303 28.256 19.2574 24.9336 19.2574 24.9336C19.2574 24.9336 18.7815 28.256 18.5832 32.9361C16.7586 31.2692 14.848 29.6998 12.8593 28.2345C14.383 30.1838 16.0127 32.0471 17.7411 33.8157C15.2187 33.8368 12.7015 34.0489 10.2109 34.4502C12.6899 34.843 15.1948 35.0479 17.7044 35.0632C15.9472 36.7936 14.3301 38.662 12.8684 40.6505C14.8641 39.2652 16.7511 37.7282 18.5129 36.0531C18.4474 39.8378 18.7015 43.6212 19.2726 47.3627C19.8431 43.6211 20.0983 39.8378 20.0354 36.0531C21.7997 37.7266 23.6876 39.2634 25.683 40.6505C24.2123 38.6544 22.5872 36.7779 20.8226 35.0386C23.3354 34.9645 25.8427 34.7599 28.3344 34.4257L28.31 34.4532Z" fill="white"/>
<path d="M31.4717 30.2656V34.3941C31.8282 34.0389 32.2485 33.755 32.7104 33.5574C33.1613 33.367 33.6462 33.2711 34.1353 33.2754C34.6631 33.2674 35.1865 33.3726 35.6705 33.584C36.1546 33.7954 36.5881 34.1082 36.9423 34.5013C37.332 34.9206 37.6351 35.4133 37.8341 35.9509C38.0331 36.4886 38.1241 37.0605 38.1017 37.6337C38.1175 38.2018 38.0197 38.7674 37.8143 39.297C37.6089 39.8265 37.2999 40.3094 36.9056 40.717C36.5452 41.1088 36.107 41.4204 35.6193 41.6315C35.1316 41.8427 34.6052 41.9488 34.0742 41.943C33.6109 41.9461 33.1512 41.8608 32.7195 41.6917C32.2569 41.4945 31.834 41.214 31.4717 40.8641V41.7499H29.3359V30.2656H31.4717ZM33.6959 35.1695C33.388 35.1609 33.0816 35.2157 32.7956 35.3306C32.5096 35.4455 32.2501 35.6181 32.033 35.8377C31.8119 36.0694 31.6396 36.3435 31.5264 36.6437C31.4131 36.9439 31.3613 37.2639 31.374 37.5847C31.36 37.9111 31.4111 38.2371 31.5243 38.5434C31.6375 38.8497 31.8104 39.1302 32.033 39.3684C32.2485 39.5906 32.5075 39.7653 32.7938 39.8814C33.0801 39.9975 33.3873 40.0524 33.6959 40.0427C34.0003 40.0505 34.303 39.9933 34.5839 39.875C34.8647 39.7566 35.1174 39.5798 35.3252 39.3562C35.5477 39.1219 35.7214 38.8453 35.8361 38.5427C35.9508 38.2401 36.0043 37.9175 35.9933 37.5939C36.0041 37.2748 35.952 36.9567 35.84 36.6579C35.7279 36.3591 35.5582 36.0856 35.3404 35.853C35.1302 35.6281 34.875 35.4504 34.5916 35.3315C34.3082 35.2127 34.0029 35.1554 33.6959 35.1634V35.1695Z" fill="white"/>
<path d="M39.8203 33.4727H41.9561V37.4571C41.93 38.0007 41.9856 38.5452 42.1208 39.0723C42.2172 39.3571 42.4023 39.6032 42.6487 39.7741C42.9161 39.948 43.2304 40.0347 43.5487 40.0224C43.8715 40.0358 44.1908 39.9503 44.4641 39.7772C44.7235 39.6036 44.9178 39.3479 45.0163 39.0508C45.1326 38.5489 45.1778 38.033 45.1505 37.5184V33.4727H47.2863V36.9759C47.2863 38.4194 47.1673 39.4063 46.9355 39.9396C46.6778 40.5562 46.2366 41.0776 45.6723 41.4323C45.0315 41.8023 44.2994 41.9819 43.5609 41.9502C42.7633 41.986 41.9743 41.7718 41.3032 41.3372C40.7213 40.9231 40.2922 40.3271 40.0827 39.6423C39.918 39.1417 39.8356 38.2294 39.8356 36.9054L39.8203 33.4727Z" fill="white"/>
<path d="M54.5534 34.6418L53.2353 35.9321C52.6983 35.4233 52.2132 35.1659 51.7738 35.1659C51.5704 35.1513 51.3679 35.2041 51.1972 35.3161C51.1343 35.3546 51.0823 35.4086 51.046 35.4729C51.0097 35.5373 50.9904 35.6099 50.9897 35.6838C50.9927 35.7998 51.0409 35.9099 51.124 35.9903C51.3125 36.1491 51.5246 36.2774 51.7525 36.3704L52.5335 36.7474C53.181 37.0143 53.76 37.425 54.2269 37.9488C54.5344 38.3635 54.6955 38.8693 54.6846 39.3863C54.6919 39.7353 54.6215 40.0816 54.4784 40.3998C54.3354 40.718 54.1233 41 53.8577 41.2252C53.2354 41.7368 52.4456 41.9969 51.6426 41.9547C51.0741 41.973 50.5095 41.8537 49.9965 41.6067C49.4835 41.3597 49.0372 40.9923 48.6953 40.5356L49.9951 39.1472C50.2438 39.426 50.5404 39.6575 50.8707 39.8307C51.1406 39.9875 51.4441 40.0768 51.7556 40.0912C51.997 40.105 52.2358 40.0358 52.4329 39.895C52.5083 39.8452 52.5708 39.7781 52.6154 39.6992C52.6599 39.6204 52.6852 39.532 52.6891 39.4414C52.6891 39.1349 52.384 38.8131 51.7738 38.522L51.0599 38.1726C49.6869 37.5044 49.0065 36.6616 49.0065 35.6532C49.0041 35.3344 49.0723 35.0191 49.2064 34.7302C49.3404 34.4412 49.5369 34.1859 49.7815 33.9828C50.3298 33.509 51.0359 33.2606 51.7586 33.2871C52.2969 33.2848 52.8283 33.4076 53.3116 33.6457C53.7961 33.8776 54.221 34.2184 54.5534 34.6418Z" fill="white"/>
<path d="M57.2304 30.0665C57.4081 30.064 57.5845 30.0974 57.7491 30.1648C57.9137 30.2322 58.0631 30.3322 58.1884 30.4589C58.3152 30.5837 58.4155 30.7331 58.4831 30.898C58.5508 31.0629 58.5844 31.2398 58.582 31.4182C58.5845 31.5942 58.5508 31.7689 58.4831 31.9314C58.4154 32.0938 58.315 32.2404 58.1884 32.3622C58.0657 32.487 57.9193 32.5858 57.7579 32.6527C57.5965 32.7195 57.4233 32.7531 57.2487 32.7514C57.0696 32.7546 56.8917 32.7206 56.7264 32.6515C56.561 32.5824 56.4116 32.4797 56.2875 32.3499C56.1588 32.2251 56.0572 32.0749 55.989 31.9088C55.9207 31.7426 55.8873 31.5641 55.8909 31.3845C55.8905 31.2123 55.9252 31.0419 55.9929 30.8838C56.0606 30.7256 56.1598 30.5831 56.2845 30.465C56.4073 30.338 56.5544 30.2373 56.717 30.1688C56.8795 30.1004 57.0541 30.0656 57.2304 30.0665ZM56.1533 33.4747H58.2891V41.75H56.1533V33.4747Z" fill="white"/>
<path d="M60.1858 33.4722H62.3216V34.3273C62.7105 33.9884 63.1488 33.7114 63.6213 33.5059C64.0013 33.351 64.4073 33.2709 64.8173 33.2699C65.2102 33.2636 65.6003 33.3366 65.9645 33.4845C66.3288 33.6324 66.6598 33.8523 66.9379 34.1312C67.4261 34.6215 67.6732 35.3357 67.6732 36.2766V41.7475H65.5374V38.1217C65.5627 37.464 65.5188 36.8055 65.4062 36.1571C65.338 35.8642 65.1735 35.6029 64.9394 35.4154C64.7023 35.2398 64.413 35.1501 64.1187 35.161C63.7167 35.1521 63.3274 35.303 63.0355 35.5809C62.7138 35.8981 62.4938 36.3048 62.4039 36.7486C62.3246 37.3026 62.2949 37.8627 62.3154 38.422V41.7475H60.1797L60.1858 33.4722Z" fill="white"/>
<path d="M78.1593 38.1965H71.3676C71.445 38.7457 71.7234 39.2463 72.1486 39.6002C72.616 39.9562 73.1919 40.1382 73.778 40.1151C74.5343 40.1263 75.2641 39.8352 75.8069 39.306L77.5826 40.1243C77.1773 40.712 76.6291 41.1857 75.99 41.5004C75.2973 41.8097 74.5449 41.9605 73.7871 41.9418C73.1947 41.9655 72.6036 41.8691 72.049 41.6585C71.4944 41.4479 70.9877 41.1273 70.559 40.7158C70.1526 40.3186 69.8322 39.8414 69.6179 39.314C69.4037 38.7865 69.3003 38.2204 69.3142 37.6509C69.2979 37.0714 69.3997 36.4946 69.6133 35.956C69.8268 35.4173 70.1476 34.9282 70.556 34.5185C70.9637 34.1069 71.451 33.7834 71.9878 33.5679C72.5245 33.3523 73.0994 33.2492 73.6772 33.265C74.2747 33.2419 74.8706 33.3411 75.4287 33.5566C75.9868 33.7721 76.4954 34.0994 76.9236 34.5185C77.3428 34.9528 77.6691 35.4685 77.8827 36.034C78.0962 36.5996 78.1924 37.203 78.1654 37.8072L78.1593 38.1965ZM76.0235 36.5751C75.8871 36.1195 75.5941 35.7274 75.1967 35.4687C74.7777 35.1802 74.2797 35.0302 73.7718 35.0396C73.218 35.028 72.6749 35.1944 72.2219 35.5146C71.8794 35.7983 71.6122 36.1626 71.4439 36.5751H76.0235Z" fill="white"/>
<path d="M85.0603 34.6401L83.7483 35.9273C83.2143 35.4186 82.7292 35.1611 82.2929 35.1611C82.0941 35.1498 81.8968 35.2013 81.7285 35.3082C81.6664 35.3474 81.6151 35.4016 81.5794 35.4658C81.5437 35.5301 81.5246 35.6024 81.524 35.676C81.5274 35.7912 81.5744 35.9008 81.6553 35.9825C81.8466 36.1422 82.0617 36.2704 82.2929 36.3626L83.071 36.7395C83.7173 37.0055 84.2944 37.4164 84.7582 37.941C85.0681 38.3546 85.2304 38.8609 85.2189 39.3784C85.2263 39.7275 85.1559 40.0738 85.0128 40.392C84.8698 40.7102 84.6577 40.9922 84.3921 41.2174C83.7701 41.7295 82.9801 41.9896 82.177 41.9468C81.6081 41.9647 81.0432 41.8451 80.5298 41.5982C80.0164 41.3512 79.5695 40.9842 79.2266 40.5278L80.5324 39.1394C80.777 39.42 81.072 39.6519 81.402 39.8229C81.6743 39.9794 81.9796 40.0686 82.2929 40.0834C82.5333 40.0967 82.7711 40.0275 82.9672 39.8872C83.0426 39.8374 83.1051 39.7703 83.1497 39.6914C83.1942 39.6125 83.2196 39.5242 83.2235 39.4336C83.2235 39.1271 82.9184 38.8053 82.3082 38.5141L81.5973 38.1647C80.2243 37.4966 79.5408 36.6537 79.5408 35.6454C79.5403 35.3269 79.6094 35.0122 79.7434 34.7236C79.8773 34.4349 80.0727 34.1794 80.3158 33.975C80.8653 33.5013 81.5723 33.2529 82.296 33.2792C82.8343 33.2766 83.3659 33.3993 83.849 33.6378C84.3231 33.8754 84.7373 34.2181 85.0603 34.6401Z" fill="white"/>
<path d="M92.0816 34.642L90.7604 35.9323C90.2265 35.4235 89.7383 35.1661 89.302 35.1661C89.0987 35.1529 88.8967 35.2055 88.7254 35.3163C88.6637 35.3556 88.6129 35.4099 88.5777 35.4742C88.5425 35.5385 88.524 35.6107 88.524 35.6841C88.5247 35.7992 88.5708 35.9094 88.6522 35.9906C88.8423 36.1486 89.0553 36.2767 89.2838 36.3706L90.0678 36.7476C90.7141 37.0135 91.2913 37.4245 91.7551 37.949C92.0663 38.3619 92.2287 38.8688 92.2158 39.3865C92.2232 39.7359 92.1526 40.0824 92.0089 40.4007C91.8653 40.719 91.6524 41.0008 91.3859 41.2254C90.7646 41.7365 89.9759 41.9966 89.1739 41.9549C88.6052 41.9738 88.0404 41.8546 87.5274 41.6076C87.0143 41.3606 86.5681 40.9929 86.2266 40.5358L87.5263 39.1474C87.7733 39.4268 88.069 39.6584 88.3989 39.8309C88.6702 39.987 88.9745 40.0763 89.2868 40.0914C89.5282 40.1052 89.7671 40.036 89.9641 39.8953C90.0404 39.8464 90.1036 39.7795 90.1483 39.7004C90.1929 39.6213 90.2177 39.5325 90.2204 39.4417C90.2204 39.1352 89.9153 38.8133 89.3051 38.5222L88.5881 38.1728C87.2182 37.5046 86.5378 36.6618 86.5378 35.6534C86.5353 35.3346 86.6036 35.0193 86.7376 34.7304C86.8717 34.4414 87.0682 34.1861 87.3128 33.983C87.8603 33.5079 88.5669 33.2593 89.2899 33.2873C89.8272 33.2846 90.3577 33.4074 90.8398 33.6459C91.3247 33.8772 91.7497 34.2181 92.0816 34.642Z" fill="white"/>
<path d="M10.5246 48.6808H12.8404V57.7591H10.5246V56.8029C10.1283 57.1902 9.6651 57.5017 9.1577 57.7224C8.68594 57.9145 8.18087 58.0103 7.67186 58.0043C7.08777 58.0073 6.50955 57.8872 5.97454 57.6517C5.43954 57.4163 4.9596 57.0707 4.5658 56.6374C4.1331 56.1876 3.7942 55.6555 3.56891 55.0723C3.34362 54.4892 3.23654 53.8667 3.2539 53.2414C3.20274 51.9674 3.65702 50.7251 4.51701 49.7873C4.90705 49.3564 5.38371 49.0137 5.91547 48.7817C6.44724 48.5498 7.02201 48.4339 7.60169 48.4418C8.1393 48.4406 8.67195 48.5447 9.16991 48.7483C9.67403 48.9666 10.1326 49.2786 10.5215 49.6678L10.5246 48.6808ZM8.08371 50.5198C7.74942 50.5115 7.41716 50.5741 7.10857 50.7035C6.79998 50.8329 6.52202 51.0262 6.29276 51.2707C6.05396 51.5287 5.86823 51.8316 5.74623 52.1619C5.62424 52.4922 5.56835 52.8434 5.58184 53.1955C5.56875 53.5522 5.62587 53.908 5.74996 54.2425C5.87405 54.577 6.06269 54.8836 6.30498 55.1448C6.5321 55.3912 6.80848 55.5866 7.11609 55.7181C7.42371 55.8497 7.75556 55.9143 8.08982 55.9079C8.42729 55.9185 8.76315 55.8573 9.07546 55.7284C9.38777 55.5995 9.66948 55.4059 9.90214 55.1601C10.1478 54.8962 10.3387 54.5856 10.4633 54.2467C10.588 53.9078 10.6441 53.5473 10.6283 53.1863C10.6432 52.8319 10.5865 52.4781 10.4617 52.1463C10.3369 51.8144 10.1466 51.5114 9.90214 51.2554C9.66453 51.0131 9.37937 50.8232 9.06473 50.6976C8.7501 50.572 8.41288 50.5135 8.07455 50.5259L8.08371 50.5198Z" fill="white"/>
<path d="M15.1953 48.6797H17.5538V53.0503C17.5225 53.6496 17.5833 54.2502 17.7338 54.831C17.8407 55.1436 18.0437 55.4141 18.3135 55.6033C18.6044 55.7932 18.9461 55.8894 19.2929 55.8792C19.6443 55.8884 19.9906 55.7923 20.2876 55.6033C20.5712 55.4121 20.7853 55.1335 20.8978 54.8095C21.0285 54.2599 21.0788 53.6941 21.0473 53.13V48.6797H23.36V52.5292C23.36 54.1138 23.2349 55.1957 22.9786 55.7842C22.6982 56.4614 22.2152 57.0344 21.5965 57.4239C20.8913 57.8298 20.0868 58.0284 19.2746 57.997C18.4028 58.0373 17.54 57.8038 16.8063 57.3289C16.1707 56.8738 15.7037 56.2194 15.479 55.4685C15.296 54.9137 15.2045 53.9176 15.2045 52.4587L15.1953 48.6797Z" fill="white"/>
<path d="M25.9321 45.332H28.2479V48.6789H29.6209V50.6374H28.2479V57.7572H25.9321V50.6374H24.7422V48.6789H25.9321V45.332Z" fill="white"/>
<path d="M35.2372 48.4415C36.1012 48.438 36.9514 48.6587 37.7056 49.082C38.4528 49.4897 39.0767 50.0921 39.5118 50.826C39.9406 51.5454 40.1653 52.3689 40.1617 53.2074C40.1645 54.0549 39.9388 54.8873 39.5088 55.6164C39.086 56.3531 38.4696 56.9585 37.727 57.3665C36.9665 57.7898 36.1096 58.0073 35.2403 57.9979C34.6082 58.0085 33.9805 57.8907 33.3949 57.6516C32.8093 57.4125 32.2777 57.057 31.8323 56.6064C31.3786 56.1724 31.0192 55.6489 30.7766 55.0687C30.534 54.4885 30.4135 53.8642 30.4226 53.235C30.4104 52.5616 30.5473 51.894 30.8232 51.2802C31.0992 50.6664 31.5074 50.1218 32.0183 49.6858C32.8977 48.8798 34.0468 48.4356 35.2372 48.4415ZM35.2769 50.5869C34.9398 50.5778 34.6044 50.639 34.2919 50.7667C33.9794 50.8944 33.6966 51.0857 33.4615 51.3286C33.2207 51.5797 33.0325 51.8766 32.9077 52.2019C32.783 52.5272 32.7244 52.8743 32.7354 53.2227C32.7207 53.5757 32.7769 53.928 32.9006 54.2587C33.0243 54.5893 33.213 54.8916 33.4555 55.1475C33.6891 55.3916 33.9711 55.5837 34.2833 55.7114C34.5954 55.8392 34.9309 55.8998 35.2678 55.8892C35.6076 55.8987 35.9457 55.8375 36.2607 55.7093C36.5758 55.5811 36.861 55.3888 37.0984 55.1444C37.3416 54.8894 37.5312 54.5879 37.6559 54.2577C37.7807 53.9276 37.838 53.5756 37.8246 53.2227C37.8385 52.8734 37.7822 52.5248 37.659 52.1978C37.5358 51.8707 37.3483 51.572 37.1076 51.3194C36.8707 51.0746 36.5854 50.8821 36.2702 50.7544C35.9549 50.6267 35.6167 50.5665 35.2769 50.5777V50.5869Z" fill="white"/>
<path d="M42.0452 48.6792H44.364V49.7182C44.7356 49.3067 45.1887 48.9779 45.6943 48.7527C46.199 48.5398 46.7426 48.4354 47.29 48.4462C47.8413 48.4381 48.3841 48.5834 48.8583 48.8661C49.3404 49.1608 49.7305 49.5856 49.9841 50.0921C50.3334 49.5776 50.8026 49.1567 51.351 48.8661C51.8961 48.5841 52.5014 48.44 53.1145 48.4462C53.7257 48.4319 54.3291 48.5856 54.8597 48.8906C55.332 49.1616 55.7093 49.5727 55.9398 50.0676C56.1595 50.5518 56.2663 51.3395 56.2663 52.4306V57.7575H53.9444V53.1601C53.9444 52.1303 53.8162 51.4315 53.5508 51.0667C53.4117 50.8847 53.2301 50.7399 53.022 50.6453C52.8139 50.5507 52.5858 50.5091 52.3578 50.5242C51.9714 50.5193 51.5929 50.635 51.2747 50.8553C50.9515 51.0842 50.7031 51.4041 50.5607 51.7747C50.3766 52.3861 50.2992 53.0248 50.3319 53.6627V57.7575H48.0101V53.3654C48.0355 52.7711 47.9738 52.1763 47.827 51.6C47.7317 51.2781 47.5373 50.9948 47.2716 50.7909C47.01 50.6077 46.6965 50.5142 46.3777 50.5242C45.9951 50.52 45.6212 50.6381 45.3098 50.8614C44.9824 51.0984 44.7328 51.4281 44.5929 51.8084C44.4054 52.4297 44.326 53.0787 44.3579 53.7271V57.7575H42.0391L42.0452 48.6792Z" fill="white"/>
<path d="M65.2898 48.6786H67.6026V57.7569H65.2898V56.8007C64.8941 57.1886 64.4308 57.5002 63.923 57.7201C63.4511 57.9117 62.9461 58.0075 62.4371 58.0021C61.853 58.0057 61.2745 57.8858 60.7394 57.6503C60.2044 57.4148 59.7245 57.0689 59.3311 56.6352C58.8978 56.1857 58.5585 55.6537 58.3332 55.0705C58.1079 54.4872 58.0011 53.8646 58.0192 53.2392C57.9705 51.9669 58.4258 50.727 59.2853 49.7912C59.6748 49.3604 60.1509 49.0177 60.6822 48.7857C61.2134 48.5538 61.7877 48.4379 62.367 48.4457C62.9056 48.4445 63.4392 48.5486 63.9382 48.7522C64.4424 48.9705 64.9009 49.2825 65.2898 49.6717V48.6786ZM62.849 50.5176C62.5142 50.5093 62.1815 50.5718 61.8724 50.7012C61.5633 50.8306 61.2848 51.0239 61.055 51.2685C60.5753 51.7912 60.3198 52.4827 60.3441 53.1932C60.3201 53.9139 60.5812 54.6147 61.0702 55.1425C61.298 55.3891 61.5749 55.5845 61.883 55.716C62.1911 55.8475 62.5234 55.9122 62.8581 55.9057C63.1955 55.9153 63.5311 55.8537 63.8433 55.7248C64.1554 55.596 64.4372 55.4029 64.6705 55.1579C64.915 54.8933 65.1049 54.5826 65.2291 54.2438C65.3532 53.905 65.4091 53.5448 65.3936 53.1841C65.4083 52.8299 65.3519 52.4764 65.2276 52.1447C65.1034 51.8129 64.9139 51.5097 64.6705 51.2532C64.4325 51.0105 64.1468 50.8203 63.8316 50.6947C63.5165 50.5691 63.1787 50.5109 62.8398 50.5237L62.849 50.5176Z" fill="white"/>
<path d="M70.2324 45.332H72.5482V48.6789H73.9242V50.6374H72.5573V57.7572H70.2415V50.6374H69.0547V48.6789H70.2415L70.2324 45.332Z" fill="white"/>
<path d="M76.0864 44.9494C76.2808 44.9473 76.4735 44.9844 76.6533 45.0587C76.8331 45.1329 76.9962 45.2427 77.1329 45.3816C77.2737 45.5166 77.3852 45.6794 77.4603 45.8598C77.5354 46.0402 77.5724 46.2343 77.5692 46.4298C77.5716 46.6229 77.5341 46.8144 77.459 46.9922C77.3839 47.17 77.2729 47.3302 77.1329 47.4627C76.9992 47.6011 76.8388 47.7106 76.6614 47.7844C76.4841 47.8582 76.2936 47.8947 76.1017 47.8917C75.9051 47.8943 75.7101 47.857 75.5282 47.7823C75.3464 47.7075 75.1812 47.5967 75.0429 47.4565C74.9028 47.3185 74.7922 47.1533 74.7177 46.971C74.6432 46.7887 74.6065 46.5931 74.6096 46.3961C74.6059 46.2048 74.6425 46.015 74.7172 45.839C74.7919 45.6631 74.9029 45.5051 75.0429 45.3754C75.1793 45.2375 75.3421 45.1287 75.5214 45.0555C75.7007 44.9822 75.8929 44.9462 76.0864 44.9494ZM74.93 48.6794H77.2488V57.7577H74.93V48.6794Z" fill="white"/>
<path d="M83.7219 48.4416C84.586 48.437 85.4365 48.6577 86.1902 49.0821C86.9383 49.4897 87.5633 50.0921 87.9996 50.8261C88.4263 51.5464 88.6509 52.3693 88.6494 53.2075C88.6525 54.0554 88.4257 54.8882 87.9935 55.6165C87.5718 56.3529 86.9563 56.9584 86.2147 57.3666C85.4552 57.7895 84.5994 58.007 83.7311 57.998C83.0985 58.0089 82.4702 57.8912 81.8841 57.6521C81.2979 57.413 80.7659 57.0573 80.3199 56.6065C79.8653 56.1732 79.505 55.6498 79.2619 55.0695C79.0188 54.4892 78.898 53.8646 78.9073 53.2351C78.8927 52.5612 79.0272 51.8925 79.301 51.2772C79.5748 50.6618 79.9812 50.1152 80.4908 49.6767C81.3757 48.8727 82.5289 48.4319 83.7219 48.4416ZM83.7646 50.587C83.4274 50.5779 83.092 50.6391 82.7796 50.7668C82.4671 50.8945 82.1844 51.0858 81.9492 51.3287C81.7083 51.5795 81.5201 51.8765 81.3959 52.2019C81.2716 52.5273 81.2139 52.8745 81.2261 53.2228C81.2105 53.5754 81.2656 53.9275 81.3883 54.2581C81.5109 54.5888 81.6986 54.8913 81.9401 55.1476C82.1742 55.3919 82.4567 55.5841 82.7694 55.7119C83.0822 55.8397 83.4181 55.9001 83.7555 55.8893C84.0954 55.9002 84.4339 55.8395 84.7492 55.7112C85.0644 55.583 85.3495 55.39 85.5861 55.1445C85.8298 54.8898 86.02 54.5883 86.1452 54.2582C86.2705 53.928 86.3284 53.5759 86.3154 53.2228C86.3292 52.8737 86.2731 52.5254 86.1504 52.1985C86.0278 51.8716 85.8411 51.5727 85.6014 51.3195C85.3629 51.0751 85.0765 50.883 84.7604 50.7553C84.4443 50.6277 84.1052 50.5672 83.7646 50.5778V50.587Z" fill="white"/>
<path d="M90.5156 48.6809H92.8345V49.6004C93.2646 49.2228 93.7491 48.9128 94.2715 48.6809C94.6921 48.5136 95.1403 48.4273 95.5927 48.4265C96.0264 48.4171 96.4576 48.4959 96.8603 48.6581C97.2629 48.8204 97.6288 49.0627 97.9359 49.3705C98.4749 49.9038 98.7455 50.6936 98.7475 51.7397V57.7592H96.4531V53.7748C96.4831 53.0501 96.4319 52.3243 96.3005 51.611C96.2221 51.2884 96.0371 51.0021 95.7758 50.7988C95.5103 50.6055 95.188 50.5073 94.8604 50.5199C94.4095 50.5105 93.9723 50.6763 93.64 50.9827C93.2813 51.3289 93.0364 51.777 92.9382 52.2669C92.8477 52.8754 92.8129 53.491 92.8345 54.1058V57.7531H90.5156V48.6809Z" fill="white"/>
</g>
<defs>
<clipPath id="clip0_4446_5282">
<rect width="101" height="38.5935" fill="white" transform="translate(0.5 22.168)"/>
</clipPath>
</defs>
</svg>
