<svg width="13" height="16" viewBox="0 0 13 16" fill="none" xmlns="http://www.w3.org/2000/svg">
<path d="M5.09806 9.31445H1.72496C1.61971 9.31445 1.51878 9.37103 1.44436 9.47173C1.36993 9.57244 1.32813 9.70902 1.32812 9.85144V14.418C1.32812 14.7151 1.50621 14.955 1.72496 14.955H5.09969C5.31925 14.955 5.49652 14.714 5.49652 14.418V9.85144C5.49652 9.70902 5.45471 9.57244 5.38029 9.47173C5.30587 9.37103 5.20493 9.31445 5.09969 9.31445H5.09806Z" stroke="white" stroke-width="1.23242" stroke-linecap="round" stroke-linejoin="round"/>
<path d="M11.2716 9.31445H7.89684C7.79159 9.31445 7.69065 9.37103 7.61623 9.47173C7.54181 9.57244 7.5 9.70902 7.5 9.85144V14.418C7.5 14.7151 7.67727 14.955 7.89684 14.955H11.2716C11.4911 14.955 11.6684 14.714 11.6684 14.418V9.85144C11.6684 9.70902 11.6266 9.57244 11.5522 9.47173C11.4777 9.37103 11.3768 9.31445 11.2716 9.31445Z" stroke="white" stroke-width="1.23242" stroke-linecap="round" stroke-linejoin="round"/>
<path d="M5.09806 0.963991H1.72496C1.61971 0.963991 1.51878 1.02057 1.44436 1.12127C1.36993 1.22197 1.32813 1.35856 1.32812 1.50097V6.06753C1.32812 6.36463 1.50621 6.60452 1.72496 6.60452H5.09969C5.31925 6.60452 5.49652 6.36353 5.49652 6.06753V1.49987C5.49652 1.35746 5.45471 1.22087 5.38029 1.12017C5.30587 1.01947 5.20493 0.962891 5.09969 0.962891L5.09806 0.963991Z" stroke="white" stroke-width="1.23242" stroke-linecap="round" stroke-linejoin="round"/>
<path d="M7.42576 4.19938C7.181 4.14216 7.181 3.66789 7.42576 3.60957C7.8586 3.50771 8.25921 3.23374 8.57653 2.82258C8.89385 2.41143 9.11349 1.88172 9.20746 1.30099L9.22209 1.20966C9.27495 0.882845 9.61893 0.879543 9.67423 1.20635L9.69212 1.31309C9.78962 1.89134 10.0112 2.41771 10.3291 2.82609C10.6469 3.23448 11.0469 3.50667 11.4787 3.60847C11.7243 3.66569 11.7243 4.14326 11.4787 4.20158C11.0469 4.30339 10.6469 4.57557 10.3291 4.98396C10.0112 5.39234 9.78962 5.91871 9.69212 6.49696L9.67423 6.6026C9.61893 6.92941 9.27576 6.92721 9.22209 6.60039L9.20746 6.50906C9.11363 5.92813 8.89405 5.39818 8.57672 4.98682C8.2594 4.57545 7.85871 4.30131 7.42576 4.19938Z" stroke="white" stroke-width="1.23242" stroke-linecap="round" stroke-linejoin="round"/>
</svg>
