<svg width="18" height="18" viewBox="0 0 18 18" fill="none" xmlns="http://www.w3.org/2000/svg">
<g clip-path="url(#clip0_3525_34095)">
<path d="M7.78536 12.8359V15.2995C7.78217 15.3922 7.74311 15.48 7.67642 15.5443C7.60974 15.6087 7.52065 15.6447 7.42796 15.6446H4.84234C4.4168 15.5729 4.03157 15.3497 3.75781 15.0161" stroke="white" stroke-width="1.23242" stroke-linecap="round" stroke-linejoin="round"/>
<path d="M3.76146 15.027C3.76146 15.027 2.41812 13.8575 5.53614 10.7419H6.92755L4.84476 7.30469H1.01562L2.06318 8.64803C2.06318 8.64803 1.3607 8.77127 1.3607 9.74488C1.72945 11.6723 2.5534 13.4837 3.76392 15.0283L3.76146 15.027Z" stroke="white" stroke-width="1.23242" stroke-linecap="round" stroke-linejoin="round"/>
<path d="M13.1484 8.26557L14.9712 7.03315C15.012 7.01515 15.056 7.00586 15.1006 7.00586C15.1452 7.00586 15.1892 7.01515 15.23 7.03315C15.2776 7.03872 15.3234 7.0549 15.3639 7.08049C15.4044 7.10609 15.4387 7.14045 15.4642 7.18104L16.8814 9.30081C16.9661 9.47122 17.0102 9.65893 17.0102 9.84923C17.0102 10.0395 16.9661 10.2272 16.8814 10.3977" stroke="white" stroke-width="1.23242" stroke-linecap="round" stroke-linejoin="round"/>
<path d="M16.9312 10.2734C16.9312 10.2734 16.5368 11.8756 12.46 11.5059V10.4337L10.0703 13.5628L12.338 17.0481L12.4612 15.4089C12.4612 15.4089 12.916 15.9635 13.6924 15.4089C14.9935 13.8473 16.0826 12.1205 16.9312 10.2734Z" stroke="white" stroke-width="1.23242" stroke-linecap="round" stroke-linejoin="round"/>
<path d="M5.7544 5.69124L4.09063 4.92714C4.00857 4.88474 3.94535 4.81316 3.91342 4.72649C3.88149 4.63981 3.88316 4.54433 3.91809 4.45882L5.32305 1.65137C5.41692 1.485 5.54816 1.34274 5.70644 1.2358C5.86471 1.12885 6.04567 1.06017 6.23504 1.03516" stroke="white" stroke-width="1.23242" stroke-linecap="round" stroke-linejoin="round"/>
<path d="M6.13281 1.13798C6.13281 1.13798 7.64869 1.13798 9.5688 4.83401L8.57054 6.06643H12.7102L14.1768 2.19663L12.4514 2.72657C12.4261 2.45939 12.3292 2.20398 12.1709 1.98729C12.0125 1.7706 11.7986 1.60065 11.5518 1.49538C10.7031 1.21439 9.8097 1.09321 8.91685 1.13798H6.13281Z" stroke="white" stroke-width="1.23242" stroke-linecap="round" stroke-linejoin="round"/>
</g>
<defs>
<clipPath id="clip0_3525_34095">
<rect width="17.2539" height="17.2539" fill="white" transform="translate(0.382812 0.410156)"/>
</clipPath>
</defs>
</svg>
