<svg width="360" height="338" viewBox="0 0 360 338" fill="none" xmlns="http://www.w3.org/2000/svg">
<path fill-rule="evenodd" clip-rule="evenodd" d="M180 137.318C164.205 59.1253 91.0354 0 3.15789 0C1.41384 0 0 1.32744 0 2.96491C0 85.4721 62.9737 154.17 146.255 169C62.9737 183.83 0 252.528 0 335.035C0 336.673 1.41384 338 3.15789 338C91.0354 338 164.205 278.875 180 200.682C195.795 278.875 268.965 338 356.842 338C358.586 338 360 336.673 360 335.035C360 252.528 297.026 183.83 213.745 169C297.026 154.17 360 85.4721 360 2.96491C360 1.32744 358.586 0 356.842 0C268.965 0 195.795 59.1253 180 137.318ZM183.187 171.992C184.867 259.677 260.263 330.466 353.656 332.043C351.975 244.358 276.579 173.569 183.187 171.992ZM353.656 5.95673C260.263 7.53437 184.867 78.3226 183.187 166.008C276.579 164.431 351.975 93.6423 353.656 5.95673ZM176.813 171.992C175.133 259.677 99.7374 330.466 6.34443 332.043C8.02477 244.358 83.4205 173.569 176.813 171.992ZM6.34443 5.95672C99.7374 7.53436 175.133 78.3226 176.813 166.008C83.4205 164.431 8.02476 93.6423 6.34443 5.95672Z" fill="white"/>
</svg>
