<svg width="25" height="25" viewBox="0 0 25 25" fill="none" xmlns="http://www.w3.org/2000/svg">
<rect x="0.5" y="0.335938" width="24" height="24" rx="12" fill="#00684D"/>
<path d="M18.5 12.3345C18.4951 11.8084 18.2832 11.3054 17.91 10.9345L13.62 6.63454C13.4326 6.44829 13.1792 6.34375 12.915 6.34375C12.6508 6.34375 12.3974 6.44829 12.21 6.63454C12.1163 6.72751 12.0419 6.83811 11.9911 6.95997C11.9403 7.08182 11.9142 7.21253 11.9142 7.34454C11.9142 7.47655 11.9403 7.60726 11.9911 7.72912C12.0419 7.85098 12.1163 7.96158 12.21 8.05454L15.5 11.3345H5.5C5.23478 11.3345 4.98043 11.4399 4.79289 11.6274C4.60536 11.815 4.5 12.0693 4.5 12.3345C4.5 12.5998 4.60536 12.8541 4.79289 13.0416C4.98043 13.2292 5.23478 13.3345 5.5 13.3345H15.5L12.21 16.6245C12.0217 16.8115 11.9154 17.0656 11.9144 17.331C11.9135 17.5964 12.018 17.8512 12.205 18.0395C12.392 18.2278 12.6461 18.3341 12.9115 18.3351C13.1768 18.336 13.4317 18.2315 13.62 18.0445L17.91 13.7445C18.2856 13.3712 18.4978 12.8641 18.5 12.3345Z" fill="white"/>
</svg>
