<svg width="159" height="46" viewBox="0 0 159 46" fill="none" xmlns="http://www.w3.org/2000/svg">
<path d="M152.648 46H6.35185C3.1348 46 0.5 43.4111 0.5 40.25V5.75C0.5 2.58894 3.1348 9.53674e-07 6.35185 9.53674e-07H152.648C155.865 9.53674e-07 158.5 2.58894 158.5 5.75V40.25C158.5 43.4111 155.865 46 152.648 46Z" fill="black"/>
<path d="M152.648 0.921436C155.358 0.921436 157.562 3.08775 157.562 5.75V40.25C157.562 42.9122 155.358 45.0786 152.648 45.0786H6.35185C3.64244 45.0786 1.43776 42.9122 1.43776 40.25V5.75C1.43776 3.08775 3.64244 0.921436 6.35185 0.921436H152.648ZM152.648 9.53674e-07H6.35185C3.1348 9.53674e-07 0.5 2.58894 0.5 5.75V40.25C0.5 43.4111 3.1348 46 6.35185 46H152.648C155.865 46 158.5 43.4111 158.5 40.25V5.75C158.5 2.58894 155.865 9.53674e-07 152.648 9.53674e-07Z" fill="#A6A6A6"/>
<path d="M12.7129 8.66957C12.3691 9.02319 12.1702 9.57375 12.1702 10.2868V35.719C12.1702 36.432 12.3691 36.9826 12.7129 37.3362L12.7978 37.4138L27.3016 23.1682V22.8318L12.7978 8.58619L12.7129 8.66957Z" fill="url(#paint0_linear_1761_29884)"/>
<path d="M32.1308 27.9192L27.3015 23.1683V22.8319L32.1366 18.0809L32.2449 18.1428L37.9709 21.3441C39.605 22.2526 39.605 23.7476 37.9709 24.6618L32.2449 27.8574L32.1308 27.9192Z" fill="url(#paint1_linear_1761_29884)"/>
<path d="M32.2449 27.8573L27.3016 23L12.7129 37.3362C13.2556 37.8968 14.1407 37.9644 15.1473 37.4038L32.2449 27.8573Z" fill="url(#paint2_linear_1761_29884)"/>
<path d="M32.2449 18.1427L15.1473 8.59625C14.1407 8.04138 13.2556 8.10894 12.7129 8.66957L27.3016 23L32.2449 18.1427Z" fill="url(#paint3_linear_1761_29884)"/>
<path d="M55.996 11.7803C55.996 12.7406 55.7034 13.5097 55.127 14.0832C54.4643 14.7632 53.6011 15.1053 52.5434 15.1053C51.5325 15.1053 50.6693 14.7574 49.9613 14.0717C49.2517 13.376 48.8977 12.5221 48.8977 11.5C48.8977 10.478 49.2517 9.62409 49.9613 8.93409C50.6693 8.24265 51.5325 7.89478 52.5434 7.89478C53.0467 7.89478 53.5265 7.99684 53.9844 8.18659C54.4409 8.37778 54.8125 8.63653 55.0816 8.95565L54.4701 9.56228C54.0005 9.01746 53.3612 8.74865 52.5434 8.74865C51.8061 8.74865 51.1668 9.00165 50.624 9.51196C50.0871 10.0237 49.8179 10.6864 49.8179 11.5C49.8179 12.3136 50.0871 12.9821 50.624 13.4938C51.1668 13.9984 51.8061 14.2571 52.5434 14.2571C53.3261 14.2571 53.9844 13.9984 54.5038 13.4881C54.8461 13.1503 55.0407 12.6845 55.0919 12.0894H52.5434V11.2585H55.9433C55.9843 11.4382 55.996 11.6121 55.996 11.7803Z" fill="white" stroke="white" stroke-width="0.16" stroke-miterlimit="10"/>
<path d="M61.39 8.89942H58.1963V11.0844H61.0755V11.9153H58.1963V14.1003H61.39V14.947H57.2922V8.05273H61.39V8.89942Z" fill="white" stroke="white" stroke-width="0.16" stroke-miterlimit="10"/>
<path d="M65.1965 14.947H64.2924V8.89942H62.3335V8.05273H67.1569V8.89942H65.1965V14.947Z" fill="white" stroke="white" stroke-width="0.16" stroke-miterlimit="10"/>
<path d="M70.6477 14.947V8.05273H71.5504V14.947H70.6477Z" fill="white" stroke="white" stroke-width="0.16" stroke-miterlimit="10"/>
<path d="M75.5515 14.947H74.6547V8.89942H72.6885V8.05273H77.5177V8.89942H75.5515V14.947Z" fill="white" stroke="white" stroke-width="0.16" stroke-miterlimit="10"/>
<path d="M86.6495 14.0602C85.9575 14.7574 85.1002 15.1053 84.0776 15.1053C83.0492 15.1053 82.1919 14.7574 81.4999 14.0602C80.8094 13.3645 80.4656 12.5106 80.4656 11.5C80.4656 10.4895 80.8094 9.63559 81.4999 8.93984C82.1919 8.24265 83.0492 7.89478 84.0776 7.89478C85.0944 7.89478 85.9517 8.24265 86.6437 8.94559C87.34 9.64709 87.6838 10.4952 87.6838 11.5C87.6838 12.5106 87.34 13.3645 86.6495 14.0602ZM82.1685 13.4823C82.6893 13.9984 83.3227 14.2571 84.0776 14.2571C84.8267 14.2571 85.466 13.9984 85.9809 13.4823C86.5003 12.9663 86.7636 12.3036 86.7636 11.5C86.7636 10.6965 86.5003 10.0338 85.9809 9.51771C85.466 9.00165 84.8267 8.7429 84.0776 8.7429C83.3227 8.7429 82.6893 9.00165 82.1685 9.51771C81.6491 10.0338 81.3858 10.6965 81.3858 11.5C81.3858 12.3036 81.6491 12.9663 82.1685 13.4823Z" fill="white" stroke="white" stroke-width="0.16" stroke-miterlimit="10"/>
<path d="M88.9521 14.947V8.05273H90.0494L93.461 13.4146H93.5005L93.461 12.0892V8.05273H94.3636V14.947H93.4215L89.8489 9.32061H89.8094L89.8489 10.6517V14.947H88.9521Z" fill="white" stroke="white" stroke-width="0.16" stroke-miterlimit="10"/>
<path d="M80.2432 25.0155C77.4942 25.0155 75.2486 27.0711 75.2486 29.9073C75.2486 32.7205 77.4942 34.7976 80.2432 34.7976C82.9979 34.7976 85.2436 32.7205 85.2436 29.9073C85.2436 27.0711 82.9979 25.0155 80.2432 25.0155ZM80.2432 32.8714C78.7348 32.8714 77.4372 31.6481 77.4372 29.9073C77.4372 28.1435 78.7348 26.9417 80.2432 26.9417C81.7515 26.9417 83.055 28.1435 83.055 29.9073C83.055 31.6481 81.7515 32.8714 80.2432 32.8714ZM69.3455 25.0155C66.5908 25.0155 64.351 27.0711 64.351 29.9073C64.351 32.7205 66.5908 34.7976 69.3455 34.7976C72.0988 34.7976 74.3401 32.7205 74.3401 29.9073C74.3401 27.0711 72.0988 25.0155 69.3455 25.0155ZM69.3455 32.8714C67.8358 32.8714 66.5337 31.6481 66.5337 29.9073C66.5337 28.1435 67.8358 26.9417 69.3455 26.9417C70.8539 26.9417 72.1515 28.1435 72.1515 29.9073C72.1515 31.6481 70.8539 32.8714 69.3455 32.8714ZM56.3778 26.5148V28.5934H61.4295C61.2817 29.7549 60.8867 30.6088 60.281 31.2039C59.5437 31.9226 58.3953 32.7205 56.3778 32.7205C53.2691 32.7205 50.8347 30.2551 50.8347 27.2005C50.8347 24.1458 53.2691 21.6805 56.3778 21.6805C58.0588 21.6805 59.2818 22.3259 60.1845 23.1625L61.6752 21.6977C60.4127 20.5132 58.7332 19.6033 56.3778 19.6033C52.1148 19.6033 48.532 23.0116 48.532 27.2005C48.532 31.3893 52.1148 34.7976 56.3778 34.7976C58.682 34.7976 60.4127 34.0559 61.7733 32.6644C63.1675 31.2945 63.602 29.3682 63.602 27.8128C63.602 27.3298 63.561 26.8856 63.4878 26.5148H56.3778ZM109.404 28.1262C108.993 27.0323 107.725 25.0155 105.141 25.0155C102.581 25.0155 100.45 26.9978 100.45 29.9073C100.45 32.6471 102.559 34.7976 105.387 34.7976C107.674 34.7976 108.993 33.4277 109.536 32.6299L107.839 31.5187C107.273 32.3323 106.502 32.8714 105.387 32.8714C104.28 32.8714 103.485 32.3726 102.976 31.3893L109.634 28.6825L109.404 28.1262ZM102.616 29.7549C102.559 27.8689 104.107 26.9029 105.216 26.9029C106.085 26.9029 106.822 27.3298 107.068 27.9408L102.616 29.7549ZM97.2047 34.5001H99.3933V20.1251H97.2047V34.5001ZM93.6205 26.1051H93.5473C93.0558 25.533 92.118 25.0155 90.9301 25.0155C88.4372 25.0155 86.1579 27.166 86.1579 29.9231C86.1579 32.6644 88.4372 34.7976 90.9301 34.7976C92.118 34.7976 93.0558 34.2758 93.5473 33.6865H93.6205V34.388C93.6205 36.2581 92.6037 37.263 90.9637 37.263C89.6266 37.263 88.7971 36.3142 88.4548 35.5164L86.5514 36.297C87.1001 37.5936 88.5528 39.1892 90.9637 39.1892C93.5298 39.1892 95.695 37.7057 95.695 34.0961V25.313H93.6205V26.1051ZM91.1174 32.8714C89.609 32.8714 88.3465 31.6308 88.3465 29.9231C88.3465 28.1995 89.609 26.9417 91.1174 26.9417C92.6037 26.9417 93.7756 28.1995 93.7756 29.9231C93.7756 31.6308 92.6037 32.8714 91.1174 32.8714ZM119.651 20.1251H114.416V34.5001H116.599V29.0534H119.651C122.075 29.0534 124.452 27.3298 124.452 24.5885C124.452 21.8487 122.069 20.1251 119.651 20.1251ZM119.708 27.0538H116.599V22.1247H119.708C121.338 22.1247 122.268 23.4543 122.268 24.5885C122.268 25.7011 121.338 27.0538 119.708 27.0538ZM133.201 24.9881C131.624 24.9881 129.984 25.6724 129.309 27.189L131.246 27.9868C131.663 27.189 132.43 26.9302 133.24 26.9302C134.373 26.9302 135.521 27.5986 135.539 28.7788V28.9298C135.144 28.7055 134.298 28.3735 133.258 28.3735C131.172 28.3735 129.046 29.5019 129.046 31.6078C129.046 33.5341 130.755 34.7746 132.676 34.7746C134.145 34.7746 134.955 34.1235 135.464 33.3659H135.539V34.4771H137.647V28.9628C137.647 26.4142 135.71 24.9881 133.201 24.9881ZM132.938 32.8656C132.224 32.8656 131.229 32.5178 131.229 31.6481C131.229 30.5355 132.469 30.1085 133.543 30.1085C134.504 30.1085 134.955 30.317 135.539 30.5915C135.368 31.9226 134.202 32.8656 132.938 32.8656ZM145.327 25.303L142.818 31.5345H142.744L140.15 25.303H137.796L141.693 34.0113L139.47 38.8571H141.75L147.756 25.303H145.327ZM125.652 34.5001H127.841V20.1251H125.652V34.5001Z" fill="white"/>
<defs>
<linearGradient id="paint0_linear_1761_29884" x1="26.0138" y1="35.9839" x2="6.71704" y2="16.3453" gradientUnits="userSpaceOnUse">
<stop stop-color="#00A0FF"/>
<stop offset="0.0066" stop-color="#00A1FF"/>
<stop offset="0.2601" stop-color="#00BEFF"/>
<stop offset="0.5122" stop-color="#00D2FF"/>
<stop offset="0.7604" stop-color="#00DFFF"/>
<stop offset="1" stop-color="#00E3FF"/>
</linearGradient>
<linearGradient id="paint1_linear_1761_29884" x1="40.0988" y1="22.9985" x2="11.7795" y2="22.9985" gradientUnits="userSpaceOnUse">
<stop stop-color="#FFE000"/>
<stop offset="0.4087" stop-color="#FFBD00"/>
<stop offset="0.7754" stop-color="#FFA500"/>
<stop offset="1" stop-color="#FF9C00"/>
</linearGradient>
<linearGradient id="paint2_linear_1761_29884" x1="29.5569" y1="20.3595" x2="3.38885" y2="-6.27201" gradientUnits="userSpaceOnUse">
<stop stop-color="#FF3A44"/>
<stop offset="1" stop-color="#C31162"/>
</linearGradient>
<linearGradient id="paint3_linear_1761_29884" x1="9.04062" y1="45.7974" x2="20.7258" y2="33.9053" gradientUnits="userSpaceOnUse">
<stop stop-color="#32A071"/>
<stop offset="0.0685" stop-color="#2DA771"/>
<stop offset="0.4762" stop-color="#15CF74"/>
<stop offset="0.8009" stop-color="#06E775"/>
<stop offset="1" stop-color="#00F076"/>
</linearGradient>
</defs>
</svg>
