<svg width="24" height="29" viewBox="0 0 24 29" fill="none" xmlns="http://www.w3.org/2000/svg">
<path d="M17.9999 16.8C17.9999 17.1182 17.8735 17.4235 17.6485 17.6485C17.4234 17.8735 17.1182 18 16.7999 18H7.19998C6.88172 18 6.5765 17.8735 6.35145 17.6485C6.12641 17.4235 5.99998 17.1182 5.99998 16.8C5.99998 16.4817 6.12641 16.1765 6.35145 15.9515C6.5765 15.7264 6.88172 15.6 7.19998 15.6H16.7999C17.1182 15.6 17.4234 15.7264 17.6485 15.9515C17.8735 16.1765 17.9999 16.4817 17.9999 16.8ZM13.2 20.4H7.19998C6.88172 20.4 6.5765 20.5264 6.35145 20.7514C6.12641 20.9765 5.99998 21.2817 5.99998 21.6C5.99998 21.9182 6.12641 22.2234 6.35145 22.4485C6.5765 22.6735 6.88172 22.8 7.19998 22.8H13.2C13.5182 22.8 13.8234 22.6735 14.0485 22.4485C14.2735 22.2234 14.4 21.9182 14.4 21.6C14.4 21.2817 14.2735 20.9765 14.0485 20.7514C13.8234 20.5264 13.5182 20.4 13.2 20.4ZM23.9999 12.582V22.8C23.998 24.3907 23.3653 25.9157 22.2405 27.0405C21.1157 28.1653 19.5907 28.798 17.9999 28.7999H5.99998C4.40927 28.798 2.88426 28.1653 1.75946 27.0405C0.634656 25.9157 0.00190542 24.3907 0 22.8V6.00001C0.00190542 4.4093 0.634656 2.88429 1.75946 1.75949C2.88426 0.634684 4.40927 0.00193308 5.99998 2.76583e-05H11.418C12.5215 -0.00281264 13.6147 0.213132 14.6342 0.635377C15.6538 1.05762 16.5795 1.67779 17.3579 2.46002L21.5387 6.64321C22.3214 7.42109 22.942 8.34655 23.3644 9.36597C23.7869 10.3854 24.0029 11.4785 23.9999 12.582ZM15.6612 4.15682C15.2835 3.79101 14.8595 3.47633 14.4 3.22082V8.4C14.4 8.71826 14.5264 9.02348 14.7514 9.24853C14.9765 9.47357 15.2817 9.6 15.6 9.6H20.7791C20.5235 9.14063 20.2084 8.71698 19.8419 8.34L15.6612 4.15682ZM21.5999 12.582C21.5999 12.384 21.5615 12.1944 21.5435 12H15.6C14.6452 12 13.7295 11.6207 13.0544 10.9456C12.3792 10.2705 12 9.35478 12 8.4V2.45642C11.8056 2.43842 11.6148 2.40002 11.418 2.40002H5.99998C5.04521 2.40002 4.12953 2.7793 3.45441 3.45443C2.77928 4.12956 2.39999 5.04523 2.39999 6.00001V22.8C2.39999 23.7547 2.77928 24.6704 3.45441 25.3455C4.12953 26.0207 5.04521 26.3999 5.99998 26.3999H17.9999C18.9547 26.3999 19.8704 26.0207 20.5455 25.3455C21.2207 24.6704 21.5999 23.7547 21.5999 22.8V12.582Z" fill="white"/>
</svg>
