<svg width="17" height="18" viewBox="0 0 17 18" fill="none" xmlns="http://www.w3.org/2000/svg">
<g clip-path="url(#clip0_3504_33449)">
<path d="M0.426929 7.86099C0.427448 7.8606 0.427837 7.86008 0.428226 7.85969L7.3629 0.925286C7.65848 0.62957 8.05147 0.466797 8.46949 0.466797C8.88752 0.466797 9.28051 0.62957 9.57622 0.925286L16.5073 7.85619C16.5096 7.85853 16.5121 7.86099 16.5143 7.86333C17.1213 8.47382 17.1202 9.46434 16.5113 10.0733C16.2331 10.3516 15.8658 10.5127 15.4729 10.5297C15.4568 10.5313 15.4407 10.532 15.4245 10.532H15.1483V15.6352C15.1483 16.6452 14.3265 17.4668 13.3165 17.4668H10.6034C10.3284 17.4668 10.1054 17.2437 10.1054 16.9688V12.9678C10.1054 12.507 9.73044 12.1321 9.26961 12.1321H7.66938C7.20855 12.1321 6.83372 12.507 6.83372 12.9678V16.9688C6.83372 17.2437 6.61076 17.4668 6.33567 17.4668H3.62261C2.6125 17.4668 1.79086 16.6452 1.79086 15.6352V10.532H1.53457C1.11667 10.532 0.723684 10.3693 0.427837 10.0734C-0.181751 9.46356 -0.182011 8.47123 0.426929 7.86099ZM1.13224 9.36914C1.23976 9.47666 1.38269 9.53594 1.53457 9.53594H2.2889C2.564 9.53594 2.78695 9.75889 2.78695 10.034V15.6352C2.78695 16.0959 3.16178 16.4707 3.62261 16.4707H5.83762V12.9678C5.83762 11.9578 6.65927 11.136 7.66938 11.136H9.26961C10.2797 11.136 11.1015 11.9578 11.1015 12.9678V16.4707H13.3165C13.7772 16.4707 14.1522 16.0959 14.1522 15.6352V10.034C14.1522 9.75889 14.3751 9.53594 14.6502 9.53594H15.3916C15.3994 9.53542 15.407 9.53503 15.4149 9.5349C15.5633 9.53231 15.7025 9.47342 15.8068 9.36901C16.0285 9.14723 16.0285 8.78627 15.8068 8.56435C15.8066 8.56435 15.8066 8.56423 15.8065 8.5641L15.8061 8.56371L8.87169 1.62956C8.7643 1.52204 8.6215 1.46289 8.46949 1.46289C8.31762 1.46289 8.17482 1.52204 8.0673 1.62956L1.13444 8.56228C1.13341 8.56332 1.13224 8.56435 1.1312 8.56539C0.910582 8.78757 0.910971 9.14775 1.13224 9.36914Z" fill="black"/>
</g>
<defs>
<clipPath id="clip0_3504_33449">
<rect width="17" height="17" fill="white" transform="matrix(-1 0 0 1 17 0.5)"/>
</clipPath>
</defs>
</svg>
