<svg width="22" height="26" viewBox="0 0 22 26" fill="none" xmlns="http://www.w3.org/2000/svg">
<path d="M16.6104 15.1897C16.6104 15.4728 16.4979 15.7444 16.2977 15.9446C16.0974 16.1448 15.8259 16.2573 15.5427 16.2573H7.00157C6.71841 16.2573 6.44685 16.1448 6.24663 15.9446C6.04641 15.7444 5.93392 15.4728 5.93392 15.1897C5.93392 14.9065 6.04641 14.635 6.24663 14.4347C6.44685 14.2345 6.71841 14.122 7.00157 14.122H15.5427C15.8259 14.122 16.0974 14.2345 16.2977 14.4347C16.4979 14.635 16.6104 14.9065 16.6104 15.1897ZM12.3398 18.3926H7.00157C6.71841 18.3926 6.44685 18.5051 6.24663 18.7053C6.04641 18.9055 5.93392 19.1771 5.93392 19.4603C5.93392 19.7434 6.04641 20.015 6.24663 20.2152C6.44685 20.4154 6.71841 20.5279 7.00157 20.5279H12.3398C12.6229 20.5279 12.8945 20.4154 13.0947 20.2152C13.2949 20.015 13.4074 19.7434 13.4074 19.4603C13.4074 19.1771 13.2949 18.9055 13.0947 18.7053C12.8945 18.5051 12.6229 18.3926 12.3398 18.3926ZM21.9486 11.4369V20.5279C21.9469 21.9432 21.3839 23.3 20.3832 24.3007C19.3824 25.3015 18.0256 25.8644 16.6104 25.8661H5.93392C4.51866 25.8644 3.16185 25.3015 2.1611 24.3007C1.16036 23.3 0.597398 21.9432 0.595703 20.5279V5.58089C0.597398 4.16563 1.16036 2.80881 2.1611 1.80807C3.16185 0.807327 4.51866 0.244365 5.93392 0.24267H10.7543C11.7362 0.240143 12.7087 0.43227 13.6159 0.807944C14.523 1.18362 15.3466 1.73538 16.0392 2.43134L19.7588 6.15315C20.4552 6.84524 21.0073 7.66862 21.3832 8.5756C21.7591 9.48258 21.9512 10.4551 21.9486 11.4369V11.4369ZM14.5295 3.94099C14.1935 3.61553 13.8163 3.33555 13.4074 3.10823V7.71618C13.4074 7.99933 13.5199 8.27089 13.7201 8.47111C13.9204 8.67134 14.1919 8.78382 14.4751 8.78382H19.083C18.8556 8.37511 18.5752 7.99819 18.2492 7.66279L14.5295 3.94099ZM19.8133 11.4369C19.8133 11.2608 19.7791 11.0921 19.7631 10.9191H14.4751C13.6256 10.9191 12.8109 10.5817 12.2103 9.98099C11.6096 9.38032 11.2721 8.56565 11.2721 7.71618V2.42814C11.0992 2.41212 10.9294 2.37796 10.7543 2.37796H5.93392C5.08445 2.37796 4.26977 2.71541 3.66911 3.31607C3.06844 3.91674 2.73099 4.73142 2.73099 5.58089V20.5279C2.73099 21.3774 3.06844 22.192 3.66911 22.7927C4.26977 23.3934 5.08445 23.7308 5.93392 23.7308H16.6104C17.4598 23.7308 18.2745 23.3934 18.8752 22.7927C19.4758 22.192 19.8133 21.3774 19.8133 20.5279V11.4369Z" fill="#04884E"/>
</svg>
