<svg width="159" height="46" viewBox="0 0 159 46" fill="none" xmlns="http://www.w3.org/2000/svg">
<path d="M157.622 40.695C157.622 43.1464 155.611 45.1321 153.123 45.1321H5.88282C3.39614 45.1321 1.37769 43.1464 1.37769 40.695V5.31079C1.37769 2.86055 3.39614 0.86792 5.88282 0.86792H153.122C155.611 0.86792 157.621 2.86055 157.621 5.31079L157.622 40.695Z" fill="black"/>
<path d="M152.648 0.92144C155.358 0.92144 157.562 3.08775 157.562 5.75V40.25C157.562 42.9123 155.358 45.0786 152.648 45.0786H6.35185C3.64244 45.0786 1.43776 42.9123 1.43776 40.25V5.75C1.43776 3.08775 3.64244 0.92144 6.35185 0.92144H152.648ZM152.648 3.8147e-06H6.35185C3.1348 3.8147e-06 0.5 2.58894 0.5 5.75V40.25C0.5 43.4111 3.1348 46 6.35185 46H152.648C155.865 46 158.5 43.4111 158.5 40.25V5.75C158.5 2.58894 155.865 3.8147e-06 152.648 3.8147e-06Z" fill="#A6A6A6"/>
<path d="M35.7608 22.7517C35.7269 19.0453 38.8495 17.2421 38.9922 17.1581C37.2238 14.6247 34.4828 14.2785 33.5196 14.2509C31.2175 14.0129 28.9844 15.6045 27.8117 15.6045C26.6156 15.6045 24.8097 14.2739 22.8634 14.313C20.3588 14.351 18.0157 15.7758 16.7306 17.9884C14.0786 22.4999 16.0565 29.1296 18.5974 32.7763C19.8684 34.5622 21.3536 36.5563 23.2976 36.4862C25.1994 36.4091 25.9098 35.2948 28.2049 35.2948C30.479 35.2948 31.1461 36.4862 33.1287 36.4413C35.1698 36.4091 36.4549 34.6473 37.6814 32.8453C39.1502 30.7983 39.7401 28.7823 39.7635 28.6788C39.7155 28.6627 35.7995 27.1942 35.7608 22.7517Z" fill="white"/>
<path d="M32.0157 11.852C33.0386 10.5951 33.7384 8.88501 33.5442 7.14966C32.0636 7.21406 30.2121 8.15591 29.1459 9.38526C28.2026 10.4686 27.3599 12.2442 27.5776 13.914C29.2407 14.0359 30.9483 13.0894 32.0157 11.852Z" fill="white"/>
<path d="M57.9068 11.5103C57.9068 12.8638 57.4936 13.8827 56.6685 14.567C55.9043 15.1983 54.8182 15.5146 53.4114 15.5146C52.7138 15.5146 52.1169 15.4847 51.6172 15.4249V8.0292C52.2691 7.9257 52.9713 7.8728 53.7297 7.8728C55.0698 7.8728 56.0798 8.15915 56.761 8.73185C57.5241 9.3793 57.9068 10.3051 57.9068 11.5103ZM56.6135 11.5436C56.6135 10.6662 56.3771 9.9934 55.9043 9.5242C55.4314 9.05615 54.7409 8.82155 53.8315 8.82155C53.4453 8.82155 53.1164 8.84685 52.8437 8.89975V14.5221C52.9947 14.5451 53.2709 14.5555 53.6724 14.5555C54.611 14.5555 55.3355 14.299 55.8457 13.7861C56.356 13.2732 56.6135 12.5257 56.6135 11.5436Z" fill="white"/>
<path d="M64.764 12.6924C64.764 13.5261 64.5217 14.2092 64.0372 14.7451C63.5292 15.296 62.8563 15.5708 62.0159 15.5708C61.206 15.5708 60.5612 15.3075 60.0801 14.7785C59.6003 14.2506 59.3604 13.5848 59.3604 12.7821C59.3604 11.9426 59.6073 11.2537 60.1035 10.719C60.5998 10.1842 61.2669 9.91626 62.1072 9.91626C62.9171 9.91626 63.5678 10.1796 64.0606 10.7075C64.5287 11.2204 64.764 11.8828 64.764 12.6924ZM63.4918 12.7315C63.4918 12.2312 63.3817 11.8023 63.1629 11.4446C62.9054 11.0122 62.5391 10.796 62.0627 10.796C61.57 10.796 61.1955 11.0122 60.938 11.4446C60.718 11.8023 60.6091 12.2381 60.6091 12.7533C60.6091 13.2536 60.7192 13.6825 60.938 14.0402C61.2037 14.4726 61.5735 14.6888 62.051 14.6888C62.5192 14.6888 62.8867 14.4691 63.1512 14.0287C63.3782 13.6641 63.4918 13.2317 63.4918 12.7315Z" fill="white"/>
<path d="M73.9585 10.0269L72.2322 15.448H71.1086L70.3935 13.0939C70.2121 12.5063 70.0646 11.9221 69.95 11.3425H69.9277C69.8212 11.9382 69.6737 12.5212 69.4841 13.0939L68.7246 15.448H67.5881L65.9648 10.0269H67.2253L67.8491 12.604C68.0001 13.2135 68.1242 13.7943 68.2237 14.344H68.2459C68.3372 13.8909 68.4882 13.3136 68.7012 12.6155L69.4841 10.028H70.4836L71.2338 12.5603C71.4153 13.1779 71.5627 13.7724 71.6762 14.3451H71.7102C71.7933 13.7874 71.9185 13.1928 72.0847 12.5603L72.7542 10.028H73.9585V10.0269Z" fill="white"/>
<path d="M80.3169 15.4478H79.0904V12.3428C79.0904 11.386 78.7205 10.9076 77.9785 10.9076C77.6145 10.9076 77.3208 11.0387 77.0926 11.302C76.8667 11.5654 76.752 11.8759 76.752 12.2312V15.4466H75.5254V11.5757C75.5254 11.0996 75.5102 10.5833 75.481 10.0244H76.5589L76.6162 10.8719H76.6502C76.7929 10.6086 77.0059 10.3912 77.2857 10.2176C77.6181 10.0152 77.9902 9.91284 78.3975 9.91284C78.9125 9.91284 79.3408 10.0761 79.6814 10.4039C80.1051 10.8052 80.3169 11.4044 80.3169 12.2002V15.4478V15.4478Z" fill="white"/>
<path d="M83.6995 15.4479H82.4741V7.53931H83.6995V15.4479Z" fill="white"/>
<path d="M90.9207 12.6924C90.9207 13.5261 90.6784 14.2092 90.1939 14.7451C89.686 15.296 89.0118 15.5708 88.1727 15.5708C87.3616 15.5708 86.7167 15.3075 86.2369 14.7785C85.757 14.2506 85.5171 13.5848 85.5171 12.7821C85.5171 11.9426 85.764 11.2537 86.2603 10.719C86.7565 10.1842 87.4236 9.91626 88.2628 9.91626C89.0738 9.91626 89.7234 10.1796 90.2173 10.7075C90.6854 11.2204 90.9207 11.8828 90.9207 12.6924ZM89.6473 12.7315C89.6473 12.2312 89.5373 11.8023 89.3185 11.4446C89.0621 11.0122 88.6946 10.796 88.2195 10.796C87.7256 10.796 87.3511 11.0122 87.0948 11.4446C86.8747 11.8023 86.7659 12.2381 86.7659 12.7533C86.7659 13.2536 86.8759 13.6825 87.0948 14.0402C87.3604 14.4726 87.7303 14.6888 88.2078 14.6888C88.6759 14.6888 89.0422 14.4691 89.3068 14.0287C89.535 13.6641 89.6473 13.2317 89.6473 12.7315Z" fill="white"/>
<path d="M96.8567 15.4478H95.7554L95.6641 14.8233H95.6302C95.2533 15.3213 94.7161 15.5708 94.0186 15.5708C93.4978 15.5708 93.0764 15.4064 92.7593 15.0798C92.4714 14.7831 92.3274 14.4139 92.3274 13.9758C92.3274 13.3134 92.6083 12.8085 93.1736 12.4589C93.7377 12.1093 94.5312 11.938 95.5529 11.946V11.8448C95.5529 11.1307 95.1714 10.7742 94.4071 10.7742C93.8629 10.7742 93.3831 10.9087 92.9688 11.1755L92.7195 10.3843C93.2321 10.0727 93.8653 9.91626 94.612 9.91626C96.0539 9.91626 96.7771 10.6638 96.7771 12.1588V14.1552C96.7771 14.6968 96.8041 15.1281 96.8567 15.4478ZM95.5834 13.5848V12.7487C94.2304 12.7257 93.5539 13.0903 93.5539 13.8412C93.5539 14.1241 93.6312 14.3357 93.7892 14.4772C93.9472 14.6186 94.1485 14.6888 94.3884 14.6888C94.6576 14.6888 94.9092 14.6048 95.1386 14.4381C95.3692 14.2702 95.5108 14.0574 95.5635 13.7964C95.5763 13.7377 95.5834 13.6664 95.5834 13.5848Z" fill="white"/>
<path d="M103.826 15.4479H102.738L102.68 14.5773H102.646C102.299 15.2397 101.707 15.5709 100.875 15.5709C100.21 15.5709 99.6562 15.3145 99.2173 14.8016C98.7784 14.2887 98.5596 13.6228 98.5596 12.8052C98.5596 11.9277 98.7972 11.217 99.2747 10.6742C99.737 10.1682 100.303 9.91521 100.978 9.91521C101.718 9.91521 102.237 10.1602 102.532 10.6512H102.555V7.53931H103.783V13.9874C103.783 14.5152 103.797 15.0017 103.826 15.4479ZM102.555 13.1617V12.2578C102.555 12.1014 102.544 11.9749 102.521 11.8783C102.452 11.5885 102.304 11.3447 102.078 11.148C101.849 10.9514 101.574 10.8525 101.257 10.8525C100.8 10.8525 100.442 11.0307 100.178 11.3884C99.9172 11.746 99.7849 12.2026 99.7849 12.7603C99.7849 13.2962 99.9102 13.7309 100.162 14.0656C100.427 14.4221 100.786 14.6003 101.234 14.6003C101.636 14.6003 101.958 14.452 102.203 14.1541C102.439 13.8793 102.555 13.5481 102.555 13.1617Z" fill="white"/>
<path d="M114.316 12.6924C114.316 13.5261 114.074 14.2092 113.589 14.7451C113.081 15.296 112.41 15.5708 111.568 15.5708C110.759 15.5708 110.115 15.3075 109.632 14.7785C109.153 14.2506 108.913 13.5848 108.913 12.7821C108.913 11.9426 109.16 11.2537 109.656 10.719C110.152 10.1842 110.819 9.91626 111.661 9.91626C112.469 9.91626 113.121 10.1796 113.613 10.7075C114.081 11.2204 114.316 11.8828 114.316 12.6924ZM113.045 12.7315C113.045 12.2312 112.935 11.8023 112.716 11.4446C112.458 11.0122 112.092 10.796 111.615 10.796C111.123 10.796 110.749 11.0122 110.49 11.4446C110.27 11.8023 110.161 12.2381 110.161 12.7533C110.161 13.2536 110.271 13.6825 110.49 14.0402C110.756 14.4726 111.126 14.6888 111.603 14.6888C112.071 14.6888 112.44 14.4691 112.705 14.0287C112.93 13.6641 113.045 13.2317 113.045 12.7315Z" fill="white"/>
<path d="M120.911 15.4478H119.686V12.3428C119.686 11.386 119.316 10.9076 118.573 10.9076C118.209 10.9076 117.915 11.0387 117.688 11.302C117.461 11.5654 117.347 11.8759 117.347 12.2312V15.4466H116.12V11.5757C116.12 11.0996 116.106 10.5833 116.076 10.0244H117.153L117.211 10.8719H117.244C117.388 10.6086 117.601 10.3912 117.88 10.2176C118.214 10.0152 118.585 9.91284 118.993 9.91284C119.507 9.91284 119.935 10.0761 120.276 10.4039C120.701 10.8052 120.911 11.4044 120.911 12.2002V15.4478V15.4478Z" fill="white"/>
<path d="M129.166 10.9296H127.815V13.5631C127.815 14.2324 128.055 14.5671 128.531 14.5671C128.751 14.5671 128.933 14.5487 129.077 14.5107L129.109 15.425C128.866 15.5147 128.548 15.5595 128.156 15.5595C127.671 15.5595 127.295 15.4146 127.022 15.1248C126.748 14.835 126.612 14.3474 126.612 13.6632V10.9296H125.806V10.0269H126.612V9.03326L127.814 8.67676V10.0257H129.165V10.9296H129.166Z" fill="white"/>
<path d="M135.659 15.4479H134.431V12.3659C134.431 11.3941 134.062 10.9077 133.321 10.9077C132.752 10.9077 132.363 11.1894 132.15 11.7529C132.114 11.8714 132.093 12.0163 132.093 12.1865V15.4467H130.868V7.53931H132.093V10.8065H132.116C132.503 10.2119 133.056 9.91521 133.774 9.91521C134.282 9.91521 134.702 10.0785 135.035 10.4063C135.451 10.8145 135.659 11.4217 135.659 12.2244V15.4479V15.4479Z" fill="white"/>
<path d="M142.357 12.4809C142.357 12.6971 142.341 12.8788 142.312 13.0271H138.633C138.649 13.563 138.825 13.9713 139.166 14.2542C139.477 14.5072 139.878 14.6337 140.37 14.6337C140.914 14.6337 141.41 14.5486 141.857 14.3772L142.049 15.2144C141.526 15.4375 140.911 15.5491 140.198 15.5491C139.343 15.5491 138.671 15.3018 138.184 14.8073C137.694 14.3128 137.452 13.6493 137.452 12.8167C137.452 11.999 137.678 11.3182 138.133 10.7754C138.608 10.1958 139.251 9.90601 140.062 9.90601C140.856 9.90601 141.458 10.1958 141.866 10.7754C142.194 11.2354 142.357 11.8047 142.357 12.4809ZM141.187 12.1692C141.196 11.8116 141.115 11.5034 140.949 11.2435C140.736 10.9088 140.412 10.7409 139.973 10.7409C139.573 10.7409 139.246 10.9042 138.997 11.232C138.793 11.493 138.673 11.8047 138.633 12.1692H141.187Z" fill="white"/>
<path d="M63.2846 36.2295H60.6267L59.1708 31.7341H54.1101L52.7232 36.2295H50.1355L55.1494 20.9253H58.2462L63.2846 36.2295ZM58.7319 29.8481L57.4152 25.8519C57.2759 25.4436 57.0149 24.4822 56.6299 22.9688H56.5831C56.4297 23.6197 56.1828 24.5811 55.8434 25.8519L54.5501 29.8481H58.7319V29.8481Z" fill="white"/>
<path d="M76.1787 30.5763C76.1787 32.4531 75.6625 33.9366 74.6303 35.0257C73.7057 35.9951 72.5575 36.4793 71.187 36.4793C69.7077 36.4793 68.645 35.9572 67.9978 34.913H67.951V40.7262H65.4557V28.8272C65.4557 27.6473 65.4241 26.4363 65.3633 25.1943H67.5577L67.697 26.9435H67.7438C68.5759 25.6256 69.8388 24.9678 71.5335 24.9678C72.8583 24.9678 73.9643 25.4818 74.8491 26.5111C75.7363 27.5415 76.1787 28.8962 76.1787 30.5763ZM73.6366 30.666C73.6366 29.5919 73.3909 28.7064 72.897 28.0095C72.3574 27.2827 71.633 26.9193 70.7247 26.9193C70.1091 26.9193 69.5497 27.1217 69.0499 27.5208C68.549 27.9233 68.2213 28.4488 68.068 29.0997C67.9908 29.4033 67.9521 29.6517 67.9521 29.8472V31.6872C67.9521 32.4899 68.2026 33.1673 68.7035 33.7204C69.2044 34.2736 69.8552 34.5496 70.6557 34.5496C71.5955 34.5496 72.327 34.1931 72.8501 33.4824C73.3745 32.7705 73.6366 31.8321 73.6366 30.666Z" fill="white"/>
<path d="M89.096 30.5763C89.096 32.4531 88.5798 33.9366 87.5464 35.0257C86.623 35.9951 85.4748 36.4793 84.1043 36.4793C82.625 36.4793 81.5623 35.9572 80.9162 34.913H80.8694V40.7262H78.3742V28.8272C78.3742 27.6473 78.3426 26.4363 78.2817 25.1943H80.4762L80.6155 26.9435H80.6623C81.4932 25.6256 82.7561 24.9678 84.4519 24.9678C85.7756 24.9678 86.8816 25.4818 87.7688 26.5111C88.6524 27.5415 89.096 28.8962 89.096 30.5763ZM86.5539 30.666C86.5539 29.5919 86.307 28.7064 85.8131 28.0095C85.2735 27.2827 84.5514 26.9193 83.642 26.9193C83.0252 26.9193 82.467 27.1217 81.9661 27.5208C81.4651 27.9233 81.1386 28.4488 80.9853 29.0997C80.9092 29.4033 80.8694 29.6517 80.8694 29.8472V31.6872C80.8694 32.4899 81.1199 33.1673 81.6185 33.7204C82.1194 34.2724 82.7701 34.5496 83.573 34.5496C84.5128 34.5496 85.2443 34.1931 85.7674 33.4824C86.2918 32.7705 86.5539 31.8321 86.5539 30.666Z" fill="white"/>
<path d="M103.538 31.9378C103.538 33.2396 103.078 34.2988 102.155 35.1164C101.14 36.01 99.7276 36.4562 97.9123 36.4562C96.2364 36.4562 94.8928 36.1388 93.8757 35.5028L94.4539 33.4593C95.5494 34.1102 96.7513 34.4368 98.061 34.4368C99.0008 34.4368 99.7323 34.2275 100.258 33.8112C100.781 33.3949 101.042 32.836 101.042 32.1391C101.042 31.5181 100.827 30.9948 100.395 30.5705C99.9652 30.1461 99.2477 29.7517 98.2459 29.3871C95.5189 28.3878 94.1566 26.9238 94.1566 24.9987C94.1566 23.7406 94.6341 22.7091 95.5903 21.9064C96.543 21.1025 97.814 20.7012 99.4034 20.7012C100.821 20.7012 101.998 20.9438 102.938 21.428L102.314 23.4267C101.436 22.9575 100.444 22.7229 99.3332 22.7229C98.4554 22.7229 97.7696 22.9356 97.278 23.3588C96.8625 23.7372 96.6542 24.1983 96.6542 24.7446C96.6542 25.3495 96.8918 25.8497 97.3693 26.243C97.7848 26.6064 98.5397 26.9997 99.6351 27.4241C100.975 27.9542 101.959 28.5741 102.593 29.2848C103.223 29.9932 103.538 30.8798 103.538 31.9378Z" fill="white"/>
<path d="M111.788 27.0342H109.038V32.3921C109.038 33.7548 109.523 34.4356 110.494 34.4356C110.94 34.4356 111.31 34.3977 111.602 34.3218L111.671 36.1836C111.18 36.3642 110.533 36.455 109.731 36.455C108.745 36.455 107.975 36.1595 107.419 35.5695C106.866 34.9784 106.587 33.9871 106.587 32.5945V27.0319H104.949V25.1919H106.587V23.1714L109.038 22.4446V25.1919H111.788V27.0342Z" fill="white"/>
<path d="M124.198 30.621C124.198 32.3173 123.704 33.7099 122.718 34.799C121.685 35.9202 120.313 36.4791 118.603 36.4791C116.955 36.4791 115.643 35.942 114.665 34.8679C113.686 33.7938 113.197 32.438 113.197 30.8038C113.197 29.0938 113.701 27.6931 114.711 26.6041C115.718 25.5139 117.078 24.9688 118.788 24.9688C120.436 24.9688 121.762 25.5058 122.763 26.5811C123.72 27.6241 124.198 28.9708 124.198 30.621ZM121.609 30.7003C121.609 29.6826 121.388 28.8098 120.939 28.0818C120.416 27.2009 119.668 26.7616 118.699 26.7616C117.696 26.7616 116.934 27.2021 116.411 28.0818C115.963 28.8109 115.742 29.6976 115.742 30.7464C115.742 31.7641 115.963 32.6369 116.411 33.3637C116.951 34.2446 117.704 34.6839 118.677 34.6839C119.63 34.6839 120.377 34.2355 120.917 33.3408C121.377 32.599 121.609 31.7169 121.609 30.7003Z" fill="white"/>
<path d="M132.309 27.3506C132.062 27.3057 131.798 27.2827 131.522 27.2827C130.644 27.2827 129.965 27.6082 129.488 28.2602C129.072 28.8352 128.864 29.562 128.864 30.4395V36.2297H126.37L126.393 28.6696C126.393 27.3977 126.362 26.2397 126.3 25.1955H128.473L128.564 27.3069H128.634C128.897 26.5812 129.312 25.997 129.881 25.5589C130.437 25.1644 131.037 24.9678 131.685 24.9678C131.915 24.9678 132.124 24.9839 132.309 25.0126V27.3506Z" fill="white"/>
<path d="M143.468 30.1899C143.468 30.6292 143.438 30.9995 143.376 31.3019H135.891C135.92 32.3921 136.282 33.2259 136.977 33.8009C137.608 34.3149 138.423 34.5725 139.425 34.5725C140.534 34.5725 141.545 34.3989 142.454 34.0504L142.845 35.7524C141.782 36.2078 140.528 36.4344 139.08 36.4344C137.338 36.4344 135.972 35.9307 134.977 34.9244C133.984 33.9182 133.487 32.5669 133.487 30.8718C133.487 29.2078 133.949 27.822 134.875 26.7169C135.844 25.537 137.154 24.947 138.801 24.947C140.42 24.947 141.645 25.537 142.478 26.7169C143.136 27.6541 143.468 28.8133 143.468 30.1899ZM141.088 29.5539C141.105 28.8271 140.942 28.1992 140.604 27.6691C140.172 26.9871 139.508 26.6467 138.615 26.6467C137.8 26.6467 137.136 26.9791 136.629 27.6461C136.214 28.1762 135.967 28.8122 135.891 29.5528H141.088V29.5539Z" fill="white"/>
</svg>
