<svg width="187" height="35" viewBox="0 0 187 35" fill="none" xmlns="http://www.w3.org/2000/svg">
<g clip-path="url(#clip0_1761_30516)">
<path d="M62.4286 16.2323C62.9657 17.0724 63.2343 18.0296 63.2343 19.1039C63.2343 19.5239 63.1713 19.935 63.0452 20.3378C62.9191 20.7407 62.7389 21.0977 62.5039 21.408C62.2681 21.7191 61.9791 21.9705 61.6352 22.1637C61.2905 22.357 60.8925 22.4618 60.4389 22.479H60.3382C59.9018 22.4962 59.4481 22.3906 58.9782 22.1637C58.5082 21.9369 57.9956 21.6053 57.4421 21.1689L56.787 20.6653C56.6863 20.9511 56.5136 21.3122 56.2704 21.7486C56.0272 22.185 55.7201 22.6092 55.3509 23.0202C54.9816 23.4321 54.5615 23.7842 54.0915 24.0781C53.6215 24.3721 53.1262 24.5186 52.6054 24.5186C52.169 24.5186 51.7448 24.4392 51.3338 24.2795C50.9219 24.1199 50.5568 23.9438 50.2382 23.7506C49.9189 23.5582 49.6544 23.3731 49.4448 23.1963C49.2344 23.0202 49.1132 22.9154 49.0796 22.881L50.5658 20.5384C50.6329 20.6056 50.7418 20.694 50.8933 20.8029C51.0448 20.9126 51.2208 21.0215 51.4222 21.1304C51.6237 21.2401 51.8292 21.3359 52.0396 21.4203C52.2492 21.5046 52.4384 21.5464 52.6062 21.5464C52.7069 21.5464 52.8208 21.5259 52.946 21.4833C53.0721 21.4416 53.1933 21.3744 53.3112 21.2819C53.4283 21.1902 53.529 21.0682 53.6134 20.9167C53.6969 20.7652 53.7394 20.5728 53.7394 20.337C53.7394 19.0269 53.3653 18.0452 52.6185 17.3901C51.8709 16.7351 50.9187 16.3494 49.7601 16.2315H47.8457V13.839H63.9909V16.2315H62.4294L62.4286 16.2323ZM55.0741 16.2323C55.3091 16.686 55.5187 17.1985 55.7038 17.7684C56.6437 17.8527 57.7688 18.3817 59.0789 19.3553C59.5153 19.691 59.8682 19.8588 60.1368 19.8588C60.5396 19.8588 60.741 19.4642 60.741 18.6748C60.741 18.2884 60.6526 17.9445 60.4766 17.6423C60.3005 17.3402 60.0778 17.0839 59.8092 16.8743C59.5407 16.6647 59.259 16.505 58.9659 16.3961C58.6719 16.2872 58.3993 16.2323 58.1471 16.2323H55.0741Z" fill="#DF2327"/>
<path d="M62.1761 21.6979V23.36C63.7884 23.5451 64.9552 24.0233 65.6774 24.7954V16.2315H63.4862V13.839H69.6821V16.2315H68.0699V32.4774H65.6774V28.0444C65.5259 27.7423 65.3244 27.4483 65.0731 27.1625C64.8209 26.8776 64.5269 26.6254 64.1912 26.4068C63.8555 26.189 63.4862 26.0121 63.0826 25.8778C62.6797 25.7436 62.2515 25.6764 61.7979 25.6764C61.0593 25.6764 60.455 25.7648 59.9842 25.9409C59.5142 26.1169 59.14 26.3356 58.8633 26.5959C58.5865 26.8563 58.3933 27.1372 58.2836 27.4401C58.1747 27.7423 58.1198 28.028 58.1198 28.2966C58.1198 28.3809 58.1321 28.5152 58.1575 28.6994C58.1828 28.8845 58.25 29.0769 58.3589 29.2792C58.4686 29.4806 58.6356 29.6656 58.8624 29.8335C59.0893 30.0013 59.3955 30.1184 59.782 30.1864C59.782 29.4814 60.0047 28.8976 60.4493 28.4358C60.8947 27.974 61.4359 27.7431 62.0738 27.7431C62.3931 27.7431 62.6912 27.8061 62.9679 27.9322C63.2447 28.0583 63.4846 28.2262 63.686 28.4358C63.8874 28.6462 64.0471 28.8976 64.1642 29.1915C64.2813 29.4855 64.3402 29.7917 64.3402 30.1111C64.3402 30.9675 64.0381 31.6013 63.4338 32.0123C62.8296 32.4234 61.9985 32.6297 60.9406 32.6297H60.6884C59.9998 32.6297 59.3447 32.529 58.7241 32.3276C58.1034 32.1261 57.5614 31.8363 57.0996 31.4588C56.6378 31.0813 56.2685 30.6154 55.9909 30.0611C55.7133 29.5068 55.575 28.8771 55.575 28.1721C55.575 25.8385 56.9776 24.2935 59.7811 23.5377V21.6987H62.1737L62.1761 21.6979Z" fill="#DF2327"/>
<path d="M69.1787 13.8398H74.7957V16.2323H73.1835V29.506H70.7909V16.2323H69.1787V13.8398Z" fill="#DF2327"/>
<path d="M89.3031 16.2323H78.3213V27.3402C79.0435 27.3402 79.8329 27.2649 80.6893 27.1134C81.5458 26.9619 82.3433 26.7065 83.0819 26.3454C83.8204 25.9843 84.4378 25.5102 84.9332 24.9223C85.4286 24.3344 85.6758 23.6122 85.6758 22.7557C85.6758 22.3865 85.6169 22.0671 85.4998 21.7986C85.3819 21.53 85.2312 21.3073 85.0462 21.1312C84.8611 20.9552 84.6515 20.825 84.4165 20.7407C84.1815 20.6571 83.9465 20.6146 83.7115 20.6146C83.5609 20.6146 83.4217 20.6318 83.2956 20.6653C83.1695 20.6989 83.0393 20.7407 82.905 20.7914C83.2579 20.9765 83.5428 21.2238 83.7615 21.5341C83.9793 21.8452 84.089 22.2014 84.089 22.6043C84.089 22.9064 84.0259 23.1799 83.8999 23.4231C83.7738 23.6671 83.61 23.8726 83.4086 24.0404C83.2071 24.2083 82.9762 24.3385 82.7159 24.431C82.4555 24.5235 82.191 24.5694 81.9224 24.5694C81.5532 24.5694 81.2256 24.49 80.9399 24.3303C80.6541 24.1706 80.4109 23.9651 80.2095 23.7129C80.0081 23.4607 79.8566 23.184 79.7559 22.8818C79.6552 22.5797 79.6044 22.2776 79.6044 21.9754C79.6044 21.3875 79.7264 20.8586 79.9696 20.3886C80.2128 19.9186 80.5362 19.5239 80.9391 19.2046C81.3419 18.8861 81.8037 18.6421 82.3245 18.4742C82.8444 18.3064 83.3824 18.222 83.9367 18.222C84.491 18.222 85.0404 18.3399 85.5358 18.5749C86.0312 18.8099 86.4676 19.1334 86.8459 19.5444C87.2234 19.9563 87.5214 20.4385 87.74 20.9929C87.9578 21.5472 88.0676 22.1433 88.0676 22.7811C88.0676 23.9569 87.7859 24.9813 87.2234 25.8541C86.6609 26.7278 85.9051 27.4499 84.9569 28.0198C84.0079 28.5905 82.9165 29.0188 81.6825 29.3045C80.4486 29.5895 79.1598 29.7328 77.8161 29.7328C77.3461 29.7328 77.0858 29.7238 77.035 29.7074L75.9018 29.6321V16.2323H74.2896V13.8398H85.7749C85.7749 13.4541 85.7282 13.0881 85.6365 12.7442C85.544 12.4003 85.3884 12.0933 85.1706 11.8247C84.952 11.5561 84.6581 11.3465 84.2888 11.1951C83.9195 11.0436 83.4659 10.9682 82.9287 10.9682C82.2401 10.9682 81.6359 11.0436 81.1151 11.1951C80.5943 11.3465 80.1579 11.5185 79.805 11.7117C79.4521 11.905 79.1794 12.0892 78.9862 12.266C78.793 12.4421 78.6882 12.5477 78.671 12.5813L76.8573 10.9944C76.8737 10.9609 77.0211 10.8143 77.2978 10.5539C77.5746 10.2936 77.9652 10.0168 78.4687 9.72285C78.9723 9.4289 79.5979 9.16033 80.3454 8.91714C81.0922 8.67396 81.9609 8.55196 82.9525 8.55196C83.7083 8.55196 84.3666 8.64448 84.9299 8.82871C85.4924 9.01376 85.9665 9.25285 86.353 9.5468C86.7386 9.84075 87.0539 10.1765 87.2979 10.5539C87.5411 10.9314 87.7261 11.3179 87.8522 11.7125C87.9783 12.1072 88.0667 12.4896 88.1167 12.8589C88.1675 13.2281 88.192 13.5557 88.192 13.8414H89.3007V16.234L89.3031 16.2323Z" fill="#DF2327"/>
<path d="M84.8195 12.8318L83.1819 11.0935L88.2445 6.45909L89.8568 8.22198L84.8195 12.831V12.8318Z" fill="#DF2327"/>
<path d="M98.194 6.93809C98.9661 6.55244 99.9822 6.3592 101.242 6.3592C101.879 6.3592 102.552 6.41406 103.257 6.52296C103.962 6.63268 104.721 6.81282 105.536 7.06419C106.35 7.31638 107.224 7.65209 108.156 8.07132C109.087 8.49136 110.108 9.01212 111.216 9.63278L110.687 12.0761C109.511 11.421 108.467 10.8716 107.551 10.4262C106.636 9.98159 105.817 9.62868 105.096 9.3683C104.373 9.10792 103.727 8.92369 103.156 8.81397C102.585 8.70507 102.064 8.65021 101.594 8.65021C100.754 8.65021 100.058 8.7804 99.5041 9.04078C98.9497 9.30116 98.5051 9.6033 98.1694 9.9472C97.8337 10.2919 97.5905 10.6399 97.439 10.9928C97.2876 11.3457 97.1868 11.6143 97.1369 11.7985L98.1195 13.839H100.184V16.2315H98.5723V29.5051H96.2043V16.2323H94.5921V13.8398H95.4485L94.4414 11.9508C94.4922 11.7494 94.5716 11.4432 94.6805 11.0313C94.7902 10.6203 94.9785 10.1666 95.2471 9.67126C95.5157 9.17588 95.885 8.6846 96.3558 8.19741C96.8258 7.71023 97.439 7.291 98.1948 6.93809H98.194Z" fill="#0A9748"/>
<path d="M99.68 13.8398H115.724V16.2323H114.112V29.506H111.694V25.0222C111.576 24.6865 111.392 24.3508 111.14 24.0151C110.888 23.6794 110.582 23.3813 110.22 23.1209C109.859 22.8606 109.452 22.6468 108.999 22.479C108.545 22.3111 108.067 22.2268 107.563 22.2268C107.446 22.2268 107.328 22.2309 107.211 22.2391C107.093 22.2481 106.976 22.2604 106.858 22.2767C106.068 22.411 105.464 22.592 105.044 22.818C104.624 23.0448 104.314 23.2839 104.112 23.5361C103.911 23.7883 103.793 24.0314 103.759 24.2664C103.726 24.5014 103.709 24.6947 103.709 24.8462C103.709 25.2998 103.835 25.6895 104.086 26.017C104.337 26.3446 104.716 26.5837 105.219 26.7351C105.152 26.5509 105.119 26.3405 105.119 26.1055C105.119 25.787 105.182 25.4799 105.308 25.186C105.434 24.892 105.601 24.6406 105.811 24.4302C106.021 24.2206 106.273 24.0527 106.567 23.9266C106.861 23.8005 107.175 23.7375 107.512 23.7375C107.881 23.7375 108.217 23.8177 108.519 23.9766C108.821 24.1362 109.077 24.3459 109.287 24.6062C109.497 24.8666 109.656 25.1606 109.765 25.4881C109.874 25.8156 109.929 26.1554 109.929 26.5083C109.929 27.0463 109.819 27.4991 109.601 27.8684C109.383 28.2376 109.093 28.5357 108.733 28.7625C108.372 28.9893 107.965 29.1531 107.511 29.2538C107.057 29.3545 106.596 29.4052 106.126 29.4052C105.403 29.4052 104.744 29.2832 104.148 29.0401C103.552 28.7969 103.044 28.4653 102.624 28.0452C102.204 27.626 101.877 27.1388 101.642 26.5845C101.406 26.0301 101.289 25.4512 101.289 24.8462C101.305 24.4769 101.373 24.0364 101.49 23.5238C101.607 23.012 101.847 22.5076 102.209 22.0123C102.57 21.5169 103.085 21.0641 103.758 20.6522C104.429 20.2412 105.336 19.9513 106.478 19.7835C106.393 19.1456 106.201 18.6126 105.898 18.1844C105.595 17.7561 105.268 17.4081 104.915 17.1388C104.563 16.8702 104.219 16.6647 103.883 16.5214C103.547 16.3789 103.303 16.2823 103.153 16.2315H99.6768V13.839L99.68 13.8398ZM111.694 21.0936V16.2323H107.437C108.259 17.1224 108.747 18.3146 108.898 19.8089C109.956 20.0439 110.888 20.4721 111.694 21.0936H111.694Z" fill="#0A9748"/>
<path d="M128.771 10.3132C129.409 11.3883 129.728 12.4544 129.728 13.5123V13.8398H131.97V16.2323H124.263V20.8168C124.918 20.5147 125.534 20.0823 126.114 19.5198C126.694 18.9573 127.176 18.4161 127.563 17.8953L130.434 18.1475C130.518 18.5839 130.589 19.1047 130.648 19.709C130.707 20.3133 130.736 21.0019 130.736 21.774C130.736 22.5461 130.636 23.4108 130.434 24.2673C130.233 25.1237 129.888 25.909 129.402 26.6221C128.914 27.3361 128.251 27.9191 127.412 28.3727C126.572 28.8264 125.523 29.0532 124.264 29.0532C123.071 29.0532 121.992 28.8141 121.027 28.3351C120.061 27.8569 119.239 27.1806 118.558 26.3077C117.878 25.4349 117.353 24.3934 116.984 23.1848C116.614 21.9754 116.429 20.6498 116.429 19.2054C116.429 19.1047 116.433 19.004 116.442 18.9033C116.45 18.8026 116.454 18.6937 116.454 18.5758L118.846 18.6765C118.846 18.7944 118.842 18.9074 118.834 19.0163C118.825 19.126 118.822 19.239 118.822 19.3561C118.822 20.4312 118.944 21.4178 119.187 22.3152C119.43 23.2135 119.783 23.9823 120.245 24.6202C120.707 25.2588 121.269 25.7583 121.933 26.1186C122.596 26.4797 123.347 26.6598 124.187 26.6598C125.027 26.6598 125.661 26.5296 126.189 26.2692C126.718 26.0089 127.143 25.6437 127.461 25.1737C127.78 24.7037 128.006 24.1453 128.142 23.4984C128.276 22.8524 128.343 22.1425 128.343 21.3703C128.343 21.2532 128.339 21.1394 128.331 21.0305C128.322 20.9216 128.318 20.8078 128.318 20.6907C128.016 21.0264 127.676 21.3621 127.298 21.6979C126.921 22.0336 126.513 22.3316 126.076 22.592C125.64 22.8524 125.186 23.062 124.716 23.2216C124.246 23.3813 123.776 23.4607 123.306 23.4607H121.895V16.2315H115.22V13.839H127.36C127.36 13.4861 127.323 13.1299 127.247 12.7688C127.172 12.4077 127.037 12.0761 126.845 11.774C126.651 11.4718 126.391 11.2286 126.063 11.0436C125.736 10.8593 125.312 10.7668 124.791 10.7668C124.052 10.7668 123.41 10.8471 122.864 11.0059C122.318 11.1656 121.86 11.3416 121.492 11.5349C121.123 11.7281 120.841 11.9091 120.649 12.0761C120.455 12.2439 120.351 12.3447 120.333 12.3782L118.52 10.7914C118.536 10.775 118.679 10.6399 118.948 10.3885C119.217 10.1363 119.603 9.86368 120.107 9.56973C120.61 9.27578 121.228 9.00721 121.958 8.76403C122.688 8.52084 123.541 8.39884 124.514 8.39884C125.102 8.39884 125.626 8.4578 126.089 8.57488C126.551 8.69279 126.949 8.83936 127.285 9.0154C127.621 9.19144 127.911 9.39778 128.154 9.63278C128.397 9.86778 128.602 10.0946 128.771 10.3132Z" fill="#0A9748"/>
<path d="M136.655 26.6099C136.705 26.0899 136.927 25.6486 137.322 25.2875C137.717 24.9264 138.182 24.7463 138.72 24.7463C139.375 24.7463 139.886 24.9772 140.256 25.439C140.625 25.9008 140.81 26.4338 140.81 27.0381C140.81 27.4745 140.713 27.8487 140.52 28.159C140.327 28.4702 140.084 28.7256 139.79 28.9271C139.496 29.1285 139.172 29.2759 138.82 29.3676C138.467 29.4601 138.132 29.506 137.813 29.506C136.907 29.506 136.126 29.271 135.471 28.801C134.816 28.331 134.278 27.7431 133.858 27.0381C133.438 26.3331 133.132 25.5692 132.939 24.7463C132.746 23.9234 132.649 23.1684 132.649 22.479C132.649 21.4719 132.8 20.4811 133.103 19.5067C133.405 18.5332 133.774 17.6931 134.211 16.9881L134.74 16.2323H131.466V13.8398H140.559V16.2323H138.015C137.83 16.3838 137.569 16.6352 137.233 16.9881C136.898 17.341 136.57 17.7856 136.251 18.3227C135.932 18.8607 135.655 19.4904 135.42 20.2117C135.185 20.9339 135.067 21.7314 135.067 22.6043C135.067 24.1322 135.47 25.3587 136.276 26.2815C136.444 26.4666 136.57 26.5755 136.654 26.609L136.655 26.6099Z" fill="#0A9748"/>
<path d="M155.066 16.2323H144.084V27.3402C144.806 27.3402 145.596 27.2649 146.452 27.1134C147.309 26.9619 148.106 26.7065 148.845 26.3454C149.583 25.9843 150.201 25.5102 150.696 24.9223C151.191 24.3344 151.439 23.6122 151.439 22.7557C151.439 22.3865 151.38 22.0671 151.263 21.7986C151.145 21.53 150.994 21.3073 150.809 21.1312C150.624 20.9552 150.414 20.825 150.179 20.7407C149.944 20.6571 149.709 20.6146 149.474 20.6146C149.324 20.6146 149.185 20.6318 149.059 20.6653C148.932 20.6989 148.802 20.7407 148.668 20.7914C149.021 20.9765 149.306 21.2238 149.524 21.5341C149.742 21.8452 149.852 22.2014 149.852 22.6043C149.852 22.9064 149.789 23.1799 149.663 23.4231C149.537 23.6671 149.373 23.8726 149.172 24.0404C148.97 24.2083 148.739 24.3385 148.479 24.431C148.218 24.5235 147.954 24.5694 147.685 24.5694C147.316 24.5694 146.989 24.49 146.703 24.3303C146.417 24.1706 146.174 23.9651 145.972 23.7129C145.771 23.4607 145.62 23.184 145.519 22.8818C145.418 22.5797 145.367 22.2776 145.367 21.9754C145.367 21.3875 145.489 20.8586 145.733 20.3886C145.976 19.9186 146.299 19.5239 146.702 19.2046C147.105 18.8861 147.567 18.6421 148.087 18.4742C148.607 18.3064 149.145 18.222 149.7 18.222C150.254 18.222 150.803 18.3399 151.299 18.5749C151.794 18.8099 152.231 19.1334 152.609 19.5444C152.986 19.9563 153.284 20.4385 153.503 20.9929C153.721 21.5472 153.831 22.1433 153.831 22.7811C153.831 23.9569 153.549 24.9813 152.986 25.8541C152.424 26.7278 151.668 27.4499 150.72 28.0198C149.771 28.5905 148.679 29.0188 147.445 29.3045C146.212 29.5895 144.923 29.7328 143.579 29.7328C143.109 29.7328 142.849 29.7238 142.798 29.7074L141.665 29.6321V16.2323H140.052V13.8398H151.538C151.538 13.4541 151.491 13.0881 151.399 12.7442C151.307 12.4003 151.151 12.0933 150.934 11.8247C150.715 11.5561 150.421 11.3465 150.052 11.1951C149.682 11.0436 149.229 10.9682 148.692 10.9682C148.003 10.9682 147.399 11.0436 146.878 11.1951C146.357 11.3465 145.921 11.5185 145.568 11.7117C145.215 11.905 144.942 12.0892 144.749 12.266C144.556 12.4421 144.451 12.5477 144.434 12.5813L142.62 10.9944C142.637 10.9609 142.784 10.8143 143.061 10.5539C143.338 10.2936 143.728 10.0168 144.232 9.72285C144.735 9.4289 145.361 9.16033 146.108 8.91714C146.855 8.67396 147.724 8.55196 148.715 8.55196C149.471 8.55196 150.13 8.64448 150.693 8.82871C151.255 9.01376 151.729 9.25285 152.116 9.5468C152.502 9.84075 152.817 10.1765 153.061 10.5539C153.304 10.9314 153.489 11.3179 153.615 11.7125C153.741 12.1072 153.83 12.4896 153.88 12.8589C153.93 13.2281 153.955 13.5557 153.955 13.8414H155.064V16.234L155.066 16.2323Z" fill="#0A9748"/>
<path d="M168.138 13.8398H172.169V16.2323H170.556V29.506H168.138V19.3553C168.138 18.7674 168.034 18.2769 167.823 17.8814C167.613 17.4867 167.348 17.1723 167.03 16.9365C166.71 16.7015 166.362 16.5337 165.984 16.4329C165.606 16.3322 165.241 16.2815 164.889 16.2815C164.704 16.2815 164.486 16.3191 164.234 16.3945C163.981 16.4698 163.746 16.6049 163.529 16.7973C163.31 16.9905 163.126 17.2509 162.974 17.5785C162.823 17.906 162.747 18.3211 162.747 18.8255C162.747 19.3299 162.839 19.7573 163.024 20.1601C163.075 19.6402 163.28 19.2071 163.642 18.8632C164.003 18.5193 164.435 18.3465 164.939 18.3465C165.291 18.3465 165.589 18.4177 165.833 18.5602C166.076 18.7027 166.281 18.8877 166.45 19.1145C166.618 19.3413 166.74 19.6058 166.815 19.9079C166.891 20.2101 166.928 20.5122 166.928 20.8144C166.928 21.7044 166.689 22.3799 166.21 22.8417C165.732 23.3035 165.047 23.5344 164.157 23.5344C163.418 23.5344 162.772 23.333 162.218 22.9302C162.2 22.9302 162.155 22.8966 162.079 22.8294C162.004 22.7623 161.924 22.6911 161.84 22.6157C161.756 22.5404 161.681 22.4692 161.613 22.402C161.546 22.3349 161.521 22.3013 161.538 22.3013C160.799 23.1242 159.934 23.5352 158.944 23.5352C158.541 23.5352 158.151 23.4681 157.773 23.3338C157.396 23.1995 157.059 23.0104 156.766 22.7672C156.472 22.524 156.237 22.226 156.061 21.8731C155.885 21.5202 155.797 21.1263 155.797 20.6891C155.797 20.2518 155.864 19.9047 155.998 19.6435C156.132 19.3831 156.199 19.2619 156.199 19.2783C156.569 18.6576 157.114 18.3465 157.837 18.3465C158.374 18.3465 158.836 18.5356 159.222 18.9131C159.609 19.2906 159.802 19.7573 159.802 20.3108C159.802 20.4287 159.777 20.5712 159.727 20.739C160.146 20.269 160.357 19.6304 160.357 18.8247C160.357 17.9682 160.205 17.3222 159.903 16.8849C159.601 16.4485 159.299 16.2299 158.996 16.2299H154.563V13.8373H158.996C160.054 13.8373 160.944 14.3999 161.667 15.5249C162.204 14.887 162.733 14.4506 163.253 14.2148C163.773 13.9798 164.328 13.8619 164.916 13.8619C166.057 13.8619 167.132 14.2901 168.14 15.1466V13.8365L168.138 13.8398Z" fill="#0A9748"/>
<path d="M171.664 13.8398H186.449V16.2323H184.837V29.506H182.469V23.3346C182.469 22.8646 182.343 22.4323 182.092 22.0377C181.839 21.643 181.516 21.2991 181.122 21.0051C180.727 20.7112 180.291 20.4803 179.812 20.3124C179.334 20.1446 178.876 20.0602 178.44 20.0602C177.482 20.0602 176.714 20.3501 176.135 20.929C175.555 21.5079 175.266 22.2767 175.266 23.2339C175.266 23.6875 175.383 24.1534 175.619 24.6316C175.854 25.1098 176.215 25.4504 176.702 25.6519C176.736 25.0811 176.949 24.603 177.344 24.2165C177.739 23.83 178.213 23.6368 178.767 23.6368C179.388 23.6368 179.896 23.8636 180.291 24.3172C180.686 24.7708 180.883 25.308 180.883 25.9294C180.883 26.2987 180.808 26.6344 180.656 26.9366C180.505 27.2387 180.299 27.4991 180.039 27.7177C179.778 27.9363 179.484 28.1042 179.157 28.2213C178.829 28.3392 178.49 28.3973 178.137 28.3973C177.347 28.3973 176.633 28.2548 175.996 27.9691C175.357 27.6841 174.807 27.3058 174.346 26.8358C173.884 26.3659 173.527 25.8197 173.275 25.1982C173.023 24.5776 172.898 23.9225 172.898 23.2339C172.898 22.4282 173.036 21.6807 173.314 20.992C173.591 20.3034 173.977 19.7163 174.473 19.2292C174.968 18.742 175.551 18.3604 176.223 18.0828C176.895 17.8061 177.634 17.6669 178.44 17.6669C179.833 17.6669 181.176 18.0951 182.47 18.9516V16.2315H171.664V13.839V13.8398Z" fill="#0A9748"/>
<path d="M28.1013 31.8019C27.999 32.2637 27.5888 32.61 27.0958 32.61H20.3448C19.8519 32.61 19.4417 32.2637 19.3393 31.8019H0C0 33.2667 1.18727 34.4548 2.65292 34.4548H44.7894C46.2542 34.4548 47.4423 33.2675 47.4423 31.8019H28.1022H28.1013Z" fill="#DF2327"/>
<path d="M38.7247 9.95293H8.66481C7.8763 9.95293 7.23682 10.5924 7.23682 11.3809V29.0769C7.23682 29.8654 7.8763 30.5049 8.66481 30.5049H38.7247C39.5132 30.5049 40.1527 29.8654 40.1527 29.0769V11.3809C40.1527 10.5924 39.5132 9.95293 38.7247 9.95293ZM38.4332 28.0657C38.4332 28.4628 38.1106 28.7854 37.7135 28.7854H9.67603C9.27891 28.7854 8.9563 28.4628 8.9563 28.0657V12.3921C8.9563 11.995 9.27891 11.6724 9.67603 11.6724H37.7135C38.1106 11.6724 38.4332 11.995 38.4332 12.3921V28.0657Z" fill="#DF2327"/>
<path d="M14.7091 19.7704C14.8606 19.1408 14.473 18.5076 13.8434 18.3561C13.2138 18.2046 12.5806 18.5922 12.4291 19.2218C12.2776 19.8514 12.6652 20.4846 13.2948 20.6361C13.9244 20.7876 14.5576 20.4 14.7091 19.7704Z" fill="url(#paint0_linear_1761_30516)"/>
<path d="M34.6086 20.3264C35.0665 19.8685 35.0665 19.1261 34.6086 18.6682C34.1507 18.2103 33.4083 18.2103 32.9504 18.6682C32.4925 19.1261 32.4925 19.8685 32.9504 20.3264C33.4083 20.7843 34.1507 20.7843 34.6086 20.3264Z" fill="url(#paint1_linear_1761_30516)"/>
<path d="M13.5701 1.75015V24.0208C13.5701 24.7364 14.1498 25.3161 14.8654 25.3161H32.4844C33.2001 25.3161 33.7798 24.7364 33.7798 24.0208V5.94652L28.2872 0.454803H14.8654C14.1498 0.454803 13.5701 1.03452 13.5701 1.75015Z" fill="#0A9748"/>
<path d="M29.5741 4.28271C29.7682 4.28271 29.9254 4.44074 29.9254 4.63398V18.57L17.4231 18.6609V4.63398C17.4231 4.43992 17.5811 4.28271 17.7743 4.28271H29.5741ZM29.5741 3.95437H17.7743C17.3985 3.95437 17.0947 4.25896 17.0947 4.63398V18.9925L30.2545 18.8967V4.63398C30.2545 4.25814 29.9499 3.95437 29.5749 3.95437H29.5741Z" fill="white"/>
<path d="M29.8776 16.1685H17.4711C17.2631 16.1685 17.0945 16.3371 17.0945 16.5451V21.4399C17.0945 21.6479 17.2631 21.8166 17.4711 21.8166H29.8776C30.0857 21.8166 30.2543 21.6479 30.2543 21.4399V16.5451C30.2543 16.3371 30.0857 16.1685 29.8776 16.1685Z" fill="white"/>
<path d="M21.985 18.4654C21.985 19.1033 21.4724 19.6158 20.8108 19.6158H20.3073V20.6705H19.54V17.315H20.81C21.4716 17.315 21.9842 17.8276 21.9842 18.4654H21.985ZM21.2178 18.4654C21.2178 18.2206 21.045 18.0339 20.81 18.0339H20.3064V18.8969H20.81C21.045 18.8969 21.2178 18.7102 21.2178 18.4654Z" fill="#0A9748"/>
<path d="M25.3398 18.9925C25.3398 19.9415 24.6349 20.6702 23.7104 20.6702H22.3684V17.3148H23.7104C24.6357 17.3148 25.3398 18.0435 25.3398 18.9925ZM24.6021 18.9925C24.6021 18.4177 24.2377 18.0533 23.7104 18.0533H23.1356V19.9325H23.7104C24.2377 19.9325 24.6021 19.5681 24.6021 18.9933V18.9925Z" fill="#0A9748"/>
<path d="M26.5387 18.0525V18.6994H27.7849V19.4371H26.5387V20.6686H25.7715V17.3131H27.8087V18.0509H26.5387V18.0525Z" fill="#0A9748"/>
<path d="M20.3105 13.7808C20.046 13.7808 19.8012 13.6596 19.6686 13.4394C19.4671 13.1029 19.5359 12.5518 20.3301 12.0147L20.3785 11.9819C20.6847 11.7739 20.7879 11.7043 21.3234 11.4923C21.6722 11.3539 22.0824 11.2139 22.5368 11.0984C22.685 10.8495 22.8234 10.5793 22.938 10.2903C22.3035 9.39368 21.9448 8.44632 21.9448 7.64881C21.9448 7.40562 22.0087 7.16162 22.125 6.96101C22.2609 6.72684 22.4517 6.58109 22.6621 6.55161C22.8987 6.51804 23.3384 6.60729 23.6144 7.57594C23.8862 8.52902 23.792 9.42316 23.5292 10.2051C23.5456 10.2264 23.562 10.2477 23.5792 10.269C23.7405 10.4737 23.9116 10.6669 24.0893 10.8471C24.619 10.8127 25.175 10.8307 25.7408 10.9289C26.8699 11.1246 27.6019 11.5127 27.7501 11.9917C27.8148 12.2005 27.7608 12.4077 27.6036 12.56C27.2883 12.8662 26.6161 12.8932 25.8497 12.6312C25.1889 12.4052 24.5077 11.9696 23.8936 11.3899C23.5358 11.4243 23.1927 11.4841 22.8693 11.5578C22.5024 12.1293 22.1004 12.5756 21.8212 12.8539C21.5567 13.1184 21.2546 13.4001 20.7355 13.6719C20.5971 13.7448 20.4505 13.7792 20.3089 13.7792L20.3105 13.7808ZM22.0685 11.7821C21.8711 11.8468 21.6869 11.914 21.5174 11.9811C21.036 12.1719 20.9664 12.2186 20.674 12.4167L20.6249 12.4495C20.2941 12.6738 20.0141 12.9923 20.1197 13.1684C20.1713 13.2543 20.3277 13.2936 20.4923 13.2068C20.9459 12.9686 21.2038 12.7287 21.4503 12.4822C21.6198 12.3127 21.84 12.0744 22.0685 11.7813V11.7821ZM24.6567 11.358C25.1013 11.7117 25.5672 11.9795 26.02 12.1342C26.7029 12.3676 27.1295 12.2882 27.2376 12.1833C27.2539 12.1678 27.2531 12.1645 27.2474 12.1473C27.1917 11.968 26.7209 11.6339 25.6507 11.4481C25.315 11.3899 24.9818 11.3621 24.6567 11.358ZM23.3065 10.7668C23.2778 10.8299 23.2475 10.8913 23.2172 10.9519C23.2893 10.9396 23.3622 10.9273 23.4359 10.9167C23.3925 10.8675 23.3491 10.8176 23.3065 10.7668ZM22.7382 7.07237C22.7382 7.07237 22.7358 7.07237 22.735 7.07237C22.6424 7.08547 22.4713 7.33111 22.4713 7.64799C22.4713 8.24326 22.7104 8.94579 23.1419 9.64505C23.2828 9.0506 23.3024 8.39965 23.1083 7.72005C22.9528 7.17554 22.7825 7.07237 22.7382 7.07237Z" fill="white"/>
<path d="M28.2871 0.454803L33.7788 5.94652H29.5391C28.848 5.94652 28.2871 5.38564 28.2871 4.69457V0.454803Z" fill="#DFEDF5"/>
<path d="M33.7797 20.6702H13.57C12.9223 20.6702 12.3975 20.1454 12.3975 19.4977V25.7059C12.3975 26.3536 12.9223 26.8784 13.57 26.8784H33.7797C34.4274 26.8784 34.9522 26.3536 34.9522 25.7059V19.4977C34.9522 20.1454 34.4274 20.6702 33.7797 20.6702Z" fill="url(#paint2_linear_1761_30516)"/>
<path d="M25.0044 23.7694V21.9468H22.345V23.7694H21.188L23.6747 25.8746L26.1614 23.7694H25.0044Z" fill="white"/>
</g>
<defs>
<linearGradient id="paint0_linear_1761_30516" x1="14.7841" y1="19.4967" x2="12.3645" y2="19.4967" gradientUnits="userSpaceOnUse">
<stop stop-color="#00CF00"/>
<stop offset="1" stop-color="#008000"/>
</linearGradient>
<linearGradient id="paint1_linear_1761_30516" x1="32.5188" y1="19.4969" x2="34.9613" y2="19.4969" gradientUnits="userSpaceOnUse">
<stop stop-color="#00CF00"/>
<stop offset="1" stop-color="#009800"/>
</linearGradient>
<linearGradient id="paint2_linear_1761_30516" x1="23.6748" y1="19.2644" x2="23.6748" y2="26.6778" gradientUnits="userSpaceOnUse">
<stop stop-color="#00CF00"/>
<stop offset="1" stop-color="#009800"/>
</linearGradient>
<clipPath id="clip0_1761_30516">
<rect width="186.449" height="34" fill="white" transform="translate(0 0.454803)"/>
</clipPath>
</defs>
</svg>
