<svg width="25" height="24" viewBox="0 0 25 24" fill="none" xmlns="http://www.w3.org/2000/svg">
<g clip-path="url(#clip0_3485_32980)">
<path d="M12.34 23.1057C18.3484 23.1057 23.219 18.2351 23.219 12.2267C23.219 6.21837 18.3484 1.34766 12.34 1.34766C6.33165 1.34766 1.46094 6.21837 1.46094 12.2267C1.46094 18.2351 6.33165 23.1057 12.34 23.1057Z" stroke="#00684D" stroke-width="1.6737" stroke-linecap="round" stroke-linejoin="round"/>
<path d="M6.82031 13.9023C7.65716 16.915 11.0046 18.7561 14.0172 17.9192C15.8583 17.2497 17.3646 15.7434 17.8668 13.9023" stroke="#00684D" stroke-width="1.6737" stroke-linecap="round" stroke-linejoin="round"/>
<path d="M8.57467 9.71576C8.34359 9.71576 8.15625 9.52842 8.15625 9.29733C8.15625 9.06624 8.34359 8.87891 8.57467 8.87891" stroke="#00684D" stroke-width="1.6737" stroke-linecap="round" stroke-linejoin="round"/>
<path d="M8.57812 9.71576C8.80921 9.71576 8.99655 9.52842 8.99655 9.29733C8.99655 9.06624 8.80921 8.87891 8.57812 8.87891" stroke="#00684D" stroke-width="1.6737" stroke-linecap="round" stroke-linejoin="round"/>
<path d="M16.1059 9.71576C15.8748 9.71576 15.6875 9.52842 15.6875 9.29733C15.6875 9.06624 15.8748 8.87891 16.1059 8.87891" stroke="#00684D" stroke-width="1.6737" stroke-linecap="round" stroke-linejoin="round"/>
<path d="M16.1094 9.71576C16.3405 9.71576 16.5278 9.52842 16.5278 9.29733C16.5278 9.06624 16.3405 8.87891 16.1094 8.87891" stroke="#00684D" stroke-width="1.6737" stroke-linecap="round" stroke-linejoin="round"/>
</g>
<defs>
<clipPath id="clip0_3485_32980">
<rect width="23.4318" height="23.4318" fill="white" transform="translate(0.625 0.511719)"/>
</clipPath>
</defs>
</svg>
