<svg width="26" height="26" viewBox="0 0 26 26" fill="none" xmlns="http://www.w3.org/2000/svg">
<g clip-path="url(#clip0_3485_33243)">
<path d="M18.9587 1.54688H6.52979C3.58795 1.54688 1.20312 3.9317 1.20312 6.87354V19.3024C1.20312 22.2443 3.58795 24.6291 6.52979 24.6291H18.9587C21.9005 24.6291 24.2853 22.2443 24.2853 19.3024V6.87354C24.2853 3.9317 21.9005 1.54688 18.9587 1.54688Z" stroke="#00684D" stroke-width="1.77555" stroke-linecap="round" stroke-linejoin="round"/>
<path d="M7.41406 14.8639L11.0539 17.7758C11.1517 17.8563 11.2662 17.9141 11.389 17.9448C11.5119 17.9755 11.64 17.9784 11.7642 17.9534C11.8895 17.9299 12.0083 17.8797 12.1125 17.8061C12.2166 17.7326 12.3037 17.6375 12.3679 17.5273L18.0674 7.76172" stroke="#00684D" stroke-width="1.77555" stroke-linecap="round" stroke-linejoin="round"/>
</g>
<defs>
<clipPath id="clip0_3485_33243">
<rect width="24.8578" height="24.8578" fill="white" transform="translate(0.3125 0.660156)"/>
</clipPath>
</defs>
</svg>
