<svg width="26" height="27" viewBox="0 0 26 27" fill="none" xmlns="http://www.w3.org/2000/svg">
<g clip-path="url(#clip0_1750_27209)">
<path d="M8.28335 1.6875H2.84501C1.84384 1.6875 1.03223 2.49911 1.03223 3.50028V8.93862C1.03223 9.9398 1.84384 10.7514 2.84501 10.7514H8.28335C9.28452 10.7514 10.0961 9.9398 10.0961 8.93862V3.50028C10.0961 2.49911 9.28452 1.6875 8.28335 1.6875Z" stroke="#0DB14B" stroke-width="1.81278" stroke-linecap="round" stroke-linejoin="round"/>
<path d="M22.7858 1.6875H17.3474C16.3463 1.6875 15.5347 2.49911 15.5347 3.50028V8.93862C15.5347 9.9398 16.3463 10.7514 17.3474 10.7514H22.7858C23.787 10.7514 24.5986 9.9398 24.5986 8.93862V3.50028C24.5986 2.49911 23.787 1.6875 22.7858 1.6875Z" stroke="#0DB14B" stroke-width="1.81278" stroke-linecap="round" stroke-linejoin="round"/>
<path d="M8.28335 16.1898H2.84501C1.84384 16.1898 1.03223 17.0014 1.03223 18.0025V23.4409C1.03223 24.4421 1.84384 25.2537 2.84501 25.2537H8.28335C9.28452 25.2537 10.0961 24.4421 10.0961 23.4409V18.0025C10.0961 17.0014 9.28452 16.1898 8.28335 16.1898Z" stroke="#0DB14B" stroke-width="1.81278" stroke-linecap="round" stroke-linejoin="round"/>
<path d="M22.7858 16.1898H17.3474C16.3463 16.1898 15.5347 17.0014 15.5347 18.0025V23.4409C15.5347 24.4421 16.3463 25.2537 17.3474 25.2537H22.7858C23.787 25.2537 24.5986 24.4421 24.5986 23.4409V18.0025C24.5986 17.0014 23.787 16.1898 22.7858 16.1898Z" stroke="#0DB14B" stroke-width="1.81278" stroke-linecap="round" stroke-linejoin="round"/>
</g>
<defs>
<clipPath id="clip0_1750_27209">
<rect width="25.3789" height="25.3789" fill="white" transform="translate(0.125977 0.781128)"/>
</clipPath>
</defs>
</svg>
